<?xml version="1.0" encoding="UTF-8" standalone="no"?>
<!DOCTYPE svg PUBLIC "-//W3C//DTD SVG 1.1//EN" "http://www.w3.org/Graphics/SVG/1.1/DTD/svg11.dtd">
<svg width="100%" height="100%" viewBox="0 0 200 220" version="1.1" xmlns="http://www.w3.org/2000/svg" xmlns:xlink="http://www.w3.org/1999/xlink" xml:space="preserve" xmlns:serif="http://www.serif.com/" style="fill-rule:evenodd;clip-rule:evenodd;stroke-linejoin:round;stroke-miterlimit:2;">
    <g transform="matrix(1,0,0,1,-200,-1100)">
        <g id="Glyphs">
            <g transform="matrix(1,0,0,1,-1610.39,0)">
                <g id="Numbers">
                </g>
            </g>
            <g id="Lowercase">
            </g>
            <g id="Uppercase">
            </g>
            <g id="Symbols" transform="matrix(1,0,0,1,198.458,1103.9)">
                <g transform="matrix(1,0,0,1,-10.9384,-388.055)">
                    <g transform="matrix(1,0,0,1,0,-20)">
                        <path d="M118.411,519.45L121.132,491.567C121.854,485.738 123.11,479.979 123.866,474.393C124.446,470.1 124.706,466.063 125.043,462.554C125.258,459.438 125.944,456.399 126.546,453.715C127.683,448.644 129.079,444.959 129.079,444.959C131.816,436.782 127.399,427.92 119.221,425.183C111.043,422.446 102.181,426.863 99.444,435.041C99.444,435.041 97.631,440.623 96.562,448.266C95.98,452.425 95.524,457.159 95.649,461.927C95.836,465.441 95.849,469.482 96.241,473.79C96.786,479.786 97.795,485.999 98.906,492.175C99.683,495.896 100.581,499.979 101.732,504.068C104.269,513.079 106.966,521.041 106.966,521.041C107.404,524.199 110.325,526.407 113.484,525.969C116.642,525.53 118.85,522.609 118.411,519.45Z"/>
                    </g>
                    <g transform="matrix(1,0,0,1,-187.52,-715.846)">
                        <path d="M301.781,1226.11C297.34,1226.85 292.611,1228.45 289.737,1231.74C287.209,1234.62 285.154,1237.8 285.646,1241.73C285.894,1245.38 287.236,1248.82 289.442,1251.44C291.978,1254.45 295.427,1256.47 299.639,1256.56C304.393,1256.9 307.597,1255.44 310.035,1253.54C312.659,1251.51 314.161,1248.22 314.991,1243.52C316.053,1238.01 314.179,1233.73 311.755,1230.65C309.608,1227.92 306.205,1226.61 301.781,1226.11Z"/>
                    </g>
                </g>
            </g>
        </g>
    </g>
</svg>
