<?xml version="1.0" encoding="UTF-8" standalone="no"?>
<!DOCTYPE svg PUBLIC "-//W3C//DTD SVG 1.1//EN" "http://www.w3.org/Graphics/SVG/1.1/DTD/svg11.dtd">
<svg width="100%" height="100%" viewBox="0 0 200 220" version="1.1" xmlns="http://www.w3.org/2000/svg" xmlns:xlink="http://www.w3.org/1999/xlink" xml:space="preserve" xmlns:serif="http://www.serif.com/" style="fill-rule:evenodd;clip-rule:evenodd;stroke-linejoin:round;stroke-miterlimit:2;">
    <g transform="matrix(1,0,0,1,-200,-1100)">
        <g id="Glyphs">
            <g id="Numbers">
            </g>
            <g id="Lowercase">
            </g>
            <g id="Uppercase">
            </g>
            <g id="Symbols" transform="matrix(1,0,0,1,198.458,1103.9)">
                <g transform="matrix(1,0,0,1,-10.9384,-388.055)">
                    <path d="M117.402,508.17C117.402,508.17 117.175,505.295 117.44,500.027C117.561,497.608 117.972,494.902 118.503,491.639C119.531,483.687 121.704,476.873 122.909,470.313C123.288,468.246 123.442,466.231 123.651,464.27C123.865,461.457 124.364,458.575 124.81,455.851C125.965,448.794 127.479,442.945 127.479,442.945C129.104,435.65 124.501,428.408 117.206,426.782C109.911,425.157 102.669,429.76 101.044,437.055C101.044,437.055 99.85,442.799 99.189,450.191C98.808,454.441 98.565,459.198 98.713,463.738C99.221,468.778 99.242,474.215 99.802,480.165C100.17,484.063 100.694,487.936 101.535,492.103C102.381,495.964 103.143,499.146 104.073,501.888C106.239,508.279 107.974,511.549 107.974,511.549C108.907,514.15 111.776,515.506 114.377,514.573C116.979,513.641 118.335,510.772 117.402,508.17Z"/>
                    <g transform="matrix(1,0,0,1,-1.76922,-2.26663)">
                        <path d="M116.031,520.866C120.589,520.866 122.681,524.266 122.243,529.333C121.791,534.578 119.538,536.988 113.889,536.988C109.33,536.988 106.198,532.705 106.198,528.147C106.198,523.589 111.472,520.866 116.031,520.866Z"/>
                    </g>
                </g>
            </g>
        </g>
    </g>
</svg>
