<?xml version="1.0" encoding="UTF-8" standalone="no"?>
<!DOCTYPE svg PUBLIC "-//W3C//DTD SVG 1.1//EN" "http://www.w3.org/Graphics/SVG/1.1/DTD/svg11.dtd">
<svg width="100%" height="100%" viewBox="0 0 200 220" version="1.1" xmlns="http://www.w3.org/2000/svg" xmlns:xlink="http://www.w3.org/1999/xlink" xml:space="preserve" xmlns:serif="http://www.serif.com/" style="fill-rule:evenodd;clip-rule:evenodd;stroke-linejoin:round;stroke-miterlimit:2;">
    <g transform="matrix(1,0,0,1,0,-1100)">
        <g id="Glyphs">
            <g transform="matrix(1,0,0,1,-1610.39,0)">
                <g id="Numbers">
                </g>
            </g>
            <g id="Lowercase">
            </g>
            <g id="Uppercase">
            </g>
            <g id="Symbols" transform="matrix(1,0,0,1,198.458,1103.9)">
                <g transform="matrix(1,0,0,1,-198.458,-1103.9)">
                    <path d="M53.468,1160.2C51.251,1159.95 50,1159.79 50,1159.79C42.526,1159.79 36.458,1165.86 36.458,1173.33C36.458,1180.81 42.526,1186.88 50,1186.88C50,1186.88 53.69,1186.41 59.628,1185.81C60.696,1190.44 61.723,1195.16 62.599,1199.85C58.522,1199.9 56.099,1199.88 56.099,1199.88C48.677,1200.76 43.364,1207.5 44.242,1214.92C45.12,1222.35 51.859,1227.66 59.281,1226.78C59.281,1226.78 61.704,1226.18 65.786,1225.26C65.822,1225.68 65.858,1226.11 65.893,1226.53C66.993,1239.81 67.084,1249 67.084,1249C68.371,1256.36 75.393,1261.29 82.755,1260.01C90.117,1258.72 95.05,1251.7 93.763,1244.34C93.763,1244.34 90.731,1235.66 87.265,1222.8C87.092,1222.16 86.917,1221.51 86.741,1220.85C95.349,1219.19 104.947,1217.19 114.191,1216.21C115.621,1216.06 117.039,1215.93 118.439,1215.83C118.623,1219.39 118.73,1222.8 118.826,1225.98C119.225,1239.19 118.832,1248.3 118.832,1248.3C119.736,1255.72 126.493,1261.01 133.912,1260.11C141.331,1259.2 146.621,1252.45 145.717,1245.03C145.717,1245.03 143.147,1236.28 140.362,1223.36C139.818,1220.83 139.246,1218.16 138.688,1215.38C146.559,1215.47 151.591,1215.86 151.591,1215.86C159.013,1214.98 164.326,1208.24 163.448,1200.82C162.57,1193.4 155.831,1188.09 148.409,1188.96C148.409,1188.96 143.344,1190.61 135.35,1192.6C135.134,1190.27 134.945,1187.93 134.775,1185.6C139.499,1186.31 142.31,1186.88 142.31,1186.88C149.784,1186.88 155.852,1180.81 155.852,1173.33C155.852,1165.86 149.784,1159.79 142.31,1159.79C142.31,1159.79 138.909,1160.47 133.301,1161.28C132.506,1146.09 132.315,1135.03 132.315,1135.03C131.411,1127.61 124.654,1122.32 117.235,1123.22C109.816,1124.13 104.526,1130.88 105.43,1138.3C105.43,1138.3 107.86,1148.91 110.706,1163.66C108.964,1163.76 107.187,1163.82 105.386,1163.84C96.126,1163.95 86.395,1163.08 77.693,1162.45L77.097,1162.4C75.375,1146.29 74.539,1134.34 74.539,1134.34C73.252,1126.97 66.23,1122.04 58.868,1123.33C51.506,1124.61 46.573,1131.64 47.86,1139C47.86,1139 50.312,1147.65 53.468,1160.2ZM114.351,1183.25C111.466,1183.03 108.461,1182.86 105.386,1182.83C96.78,1182.73 87.769,1183.47 79.554,1184.08C80.184,1189.18 80.899,1194.33 81.782,1199.35C82.547,1199.32 83.321,1199.28 84.104,1199.25C92.881,1198.85 102.713,1198.56 111.961,1197.35C113.52,1197.15 115.056,1196.92 116.565,1196.66C115.915,1192.17 115.146,1187.66 114.351,1183.25Z"/>
                </g>
            </g>
        </g>
    </g>
</svg>
