<?xml version="1.0" encoding="UTF-8" standalone="no"?>
<!DOCTYPE svg PUBLIC "-//W3C//DTD SVG 1.1//EN" "http://www.w3.org/Graphics/SVG/1.1/DTD/svg11.dtd">
<svg width="100%" height="100%" viewBox="0 0 200 220" version="1.1" xmlns="http://www.w3.org/2000/svg" xmlns:xlink="http://www.w3.org/1999/xlink" xml:space="preserve" xmlns:serif="http://www.serif.com/" style="fill-rule:evenodd;clip-rule:evenodd;stroke-linejoin:round;stroke-miterlimit:2;">
    <g transform="matrix(1,0,0,1,0,-1100)">
        <g id="Glyphs">
            <g transform="matrix(1,0,0,1,-1610.39,0)">
                <g id="Numbers">
                </g>
            </g>
            <g id="Lowercase">
            </g>
            <g id="Uppercase">
            </g>
            <g id="Symbols" transform="matrix(1,0,0,1,198.458,1103.9)">
                <g transform="matrix(0.768979,0,0,1,-1406.07,-1103.9)">
                    <path d="M1632.65,1139C1632.65,1139 1637.88,1153.17 1643.56,1171.54C1646.73,1181.8 1650.47,1193.26 1652.84,1204.3C1654.54,1212.22 1655.38,1219.87 1656.1,1226.53C1657.54,1239.81 1657.65,1249 1657.65,1249C1659.33,1256.36 1668.46,1261.29 1678.03,1260.01C1687.61,1258.72 1694.02,1251.7 1692.35,1244.34C1692.35,1244.34 1688.4,1235.66 1683.9,1222.8C1681.63,1216.34 1679.05,1208.92 1677.16,1201.03C1674.52,1190.02 1672.99,1178.27 1671.44,1167.79C1668.68,1149.03 1667.35,1134.34 1667.35,1134.34C1665.67,1126.97 1656.54,1122.04 1646.97,1123.33C1637.39,1124.61 1630.98,1131.64 1632.65,1139Z"/>
                    <g transform="matrix(1,0,0,1,75,0)">
                        <path d="M1632.52,1138.3C1632.52,1138.3 1636.76,1152.55 1641.18,1170.98C1643.64,1181.28 1646.59,1192.78 1648.2,1203.82C1649.36,1211.73 1649.68,1219.34 1649.94,1225.98C1650.46,1239.19 1649.95,1248.3 1649.95,1248.3C1651.12,1255.72 1659.91,1261.01 1669.56,1260.11C1679.21,1259.2 1686.08,1252.45 1684.91,1245.03C1684.91,1245.03 1681.57,1236.28 1677.95,1223.36C1676.13,1216.87 1674.06,1209.41 1672.71,1201.52C1670.83,1190.51 1670.1,1178.8 1669.28,1168.35C1667.81,1149.64 1667.48,1135.03 1667.48,1135.03C1666.31,1127.61 1657.52,1122.32 1647.87,1123.22C1638.22,1124.13 1631.34,1130.88 1632.52,1138.3Z"/>
                    </g>
                    <path d="M1635.44,1186.88C1635.44,1186.88 1651.14,1185.36 1671.45,1184.22C1682.77,1183.58 1695.42,1182.72 1707.46,1182.83C1716.1,1182.9 1724.31,1183.58 1731.47,1184.18C1745.8,1185.39 1755.48,1186.88 1755.48,1186.88C1765.2,1186.88 1773.09,1180.81 1773.09,1173.33C1773.09,1165.86 1765.2,1159.79 1755.48,1159.79C1755.48,1159.79 1745.8,1161.28 1731.47,1162.49C1724.31,1163.09 1716.1,1163.76 1707.46,1163.84C1695.42,1163.95 1682.77,1163.08 1671.45,1162.45C1651.14,1161.31 1635.44,1159.79 1635.44,1159.79C1625.72,1159.79 1617.83,1165.86 1617.83,1173.33C1617.83,1180.81 1625.72,1186.88 1635.44,1186.88Z"/>
                    <g transform="matrix(1,0,0,1,10,40)">
                        <path d="M1637.51,1186.78C1637.51,1186.78 1652.99,1183.85 1673.11,1180.87C1684.33,1179.21 1696.85,1177.2 1708.91,1176.21C1717.56,1175.5 1725.88,1175.42 1733.13,1175.37C1747.63,1175.26 1757.55,1175.86 1757.55,1175.86C1767.2,1174.98 1774.11,1168.24 1772.97,1160.82C1771.83,1153.4 1763.06,1148.09 1753.41,1148.96C1753.41,1148.96 1743.95,1151.32 1729.81,1153.82C1722.75,1155.07 1714.64,1156.49 1706.01,1157.35C1693.99,1158.56 1681.2,1158.85 1669.79,1159.25C1649.31,1159.96 1633.37,1159.88 1633.37,1159.88C1623.72,1160.76 1616.81,1167.5 1617.95,1174.92C1619.09,1182.35 1627.85,1187.66 1637.51,1186.78Z"/>
                    </g>
                </g>
            </g>
        </g>
    </g>
</svg>
