<?xml version="1.0" encoding="UTF-8" standalone="no"?>
<!DOCTYPE svg PUBLIC "-//W3C//DTD SVG 1.1//EN" "http://www.w3.org/Graphics/SVG/1.1/DTD/svg11.dtd">
<svg width="100%" height="100%" viewBox="0 0 200 220" version="1.1" xmlns="http://www.w3.org/2000/svg" xmlns:xlink="http://www.w3.org/1999/xlink" xml:space="preserve" xmlns:serif="http://www.serif.com/" style="fill-rule:evenodd;clip-rule:evenodd;stroke-linejoin:round;stroke-miterlimit:2;">
    <g transform="matrix(1,0,0,1,0,-1100)">
        <g id="Glyphs">
            <g id="Numbers">
            </g>
            <g id="Lowercase">
            </g>
            <g id="Uppercase">
            </g>
            <g id="Symbols" transform="matrix(1,0,0,1,198.458,1103.9)">
                <g transform="matrix(1,0,0,1.08185,-1798.92,-1183.1)">
                    <path d="M1636.75,1139.24C1636.75,1139.24 1641.52,1153.4 1646.85,1171.74C1649.83,1181.99 1653.31,1193.43 1655.71,1204.47C1657.43,1212.38 1658.48,1220.05 1659.38,1226.73C1661.17,1240 1661.75,1249.24 1661.75,1249.24C1663.28,1256 1670.47,1260.34 1677.78,1258.92C1685.1,1257.5 1689.79,1250.85 1688.25,1244.09C1688.25,1244.09 1684.75,1235.42 1680.62,1222.61C1678.53,1216.16 1676.16,1208.75 1674.29,1200.86C1671.68,1189.86 1669.89,1178.09 1668.15,1167.6C1665.05,1148.83 1663.25,1134.09 1663.25,1134.09C1661.72,1127.33 1654.53,1123 1647.22,1124.42C1639.9,1125.84 1635.21,1132.48 1636.75,1139.24Z"/>
                    <g transform="matrix(1,0,0,1,75,0)">
                        <path d="M1636.6,1138.48C1636.6,1138.48 1640.39,1152.72 1644.46,1171.12C1646.73,1181.41 1649.42,1192.9 1651.06,1203.94C1652.24,1211.85 1652.77,1219.48 1653.21,1226.12C1654.09,1239.33 1654.03,1248.48 1654.03,1248.48C1655.11,1255.32 1662,1260.05 1669.39,1259.05C1676.79,1258.05 1681.91,1251.69 1680.83,1244.85C1680.83,1244.85 1677.93,1236.1 1674.68,1223.21C1673.04,1216.73 1671.18,1209.28 1669.85,1201.39C1668,1190.39 1667.01,1178.66 1666,1168.21C1664.19,1149.5 1663.4,1134.85 1663.4,1134.85C1662.32,1128.02 1655.43,1123.28 1648.04,1124.28C1640.64,1125.28 1635.52,1131.64 1636.6,1138.48Z"/>
                    </g>
                    <path d="M1635.44,1185.85C1635.44,1185.85 1651.2,1184.45 1671.45,1183.4C1682.77,1182.81 1695.43,1182.01 1707.46,1182.11C1716.08,1182.18 1724.31,1182.8 1731.47,1183.36C1745.71,1184.47 1755.48,1185.85 1755.48,1185.85C1762.95,1185.85 1769.02,1180.24 1769.02,1173.33C1769.02,1166.42 1762.95,1160.82 1755.48,1160.82C1755.48,1160.82 1745.71,1162.2 1731.47,1163.31C1724.31,1163.86 1716.08,1164.49 1707.46,1164.56C1695.43,1164.66 1682.77,1163.86 1671.45,1163.27C1651.2,1162.22 1635.44,1160.82 1635.44,1160.82C1627.96,1160.82 1621.89,1166.42 1621.89,1173.33C1621.89,1180.24 1627.96,1185.85 1635.44,1185.85Z"/>
                    <g transform="matrix(1,0,0,1,10,40)">
                        <path d="M1636.76,1185.79C1636.76,1185.79 1652.38,1182.96 1672.52,1180.07C1683.77,1178.46 1696.35,1176.51 1708.39,1175.51C1717.02,1174.8 1725.31,1174.67 1732.53,1174.58C1746.89,1174.38 1756.81,1174.87 1756.81,1174.87C1764.24,1174.19 1769.69,1168.06 1768.95,1161.19C1768.22,1154.31 1761.59,1149.28 1754.15,1149.96C1754.15,1149.96 1744.53,1152.22 1730.41,1154.62C1723.31,1155.82 1715.14,1157.19 1706.53,1158.05C1694.51,1159.24 1681.76,1159.6 1670.38,1160.04C1650.02,1160.84 1634.11,1160.88 1634.11,1160.88C1626.67,1161.55 1621.23,1167.68 1621.96,1174.56C1622.69,1181.43 1629.33,1186.47 1636.76,1185.79Z"/>
                    </g>
                </g>
            </g>
        </g>
    </g>
</svg>
