<?xml version="1.0" encoding="UTF-8" standalone="no"?>
<!DOCTYPE svg PUBLIC "-//W3C//DTD SVG 1.1//EN" "http://www.w3.org/Graphics/SVG/1.1/DTD/svg11.dtd">
<svg width="100%" height="100%" viewBox="0 0 200 220" version="1.1" xmlns="http://www.w3.org/2000/svg" xmlns:xlink="http://www.w3.org/1999/xlink" xml:space="preserve" xmlns:serif="http://www.serif.com/" style="fill-rule:evenodd;clip-rule:evenodd;stroke-linejoin:round;stroke-miterlimit:2;">
    <g transform="matrix(1,0,0,1,-2000,-1100)">
        <g id="Glyphs">
            <g id="Numbers">
            </g>
            <g id="Lowercase">
            </g>
            <g id="Uppercase">
            </g>
            <g id="Symbols" transform="matrix(1,0,0,1,198.458,1103.9)">
                <g>
                    <g transform="matrix(1,0,0,1,-198.458,-1103.9)">
                        <path d="M2112.5,1294.88C2112.5,1294.88 2111.1,1271.61 2110.05,1241.87C2109.46,1225.21 2108.66,1206.55 2108.76,1188.86C2108.83,1176.19 2109.46,1164.06 2110.01,1153.52C2111.12,1132.67 2112.5,1118.17 2112.5,1118.17C2112.5,1111.27 2106.9,1105.67 2100,1105.67C2093.1,1105.67 2087.5,1111.27 2087.5,1118.17C2087.5,1118.17 2088.89,1132.67 2089.99,1153.52C2090.54,1164.06 2091.17,1176.19 2091.24,1188.86C2091.34,1206.55 2090.54,1225.21 2089.95,1241.87C2088.9,1271.61 2087.5,1294.88 2087.5,1294.88C2087.5,1301.78 2093.1,1307.38 2100,1307.38C2106.9,1307.38 2112.5,1301.78 2112.5,1294.88Z"/>
                    </g>
                    <g transform="matrix(1,0,0,1,-198.458,-1103.9)">
                        <path d="M2148.05,1124.32L2051.62,1141.86C2046.06,1142.74 2042.25,1147.95 2043.1,1153.51L2048.86,1187.51C2049.43,1191.32 2052.22,1194.42 2055.95,1195.39C2055.95,1195.39 2085.56,1202.49 2111.12,1208.98C2123.16,1212.04 2134.3,1214.96 2141.07,1216.76C2141.07,1216.76 2140.82,1234.15 2140.82,1234.15C2140.82,1234.15 2048.26,1244.22 2048.26,1244.22C2041.42,1245.18 2036.66,1251.51 2037.62,1258.34C2038.59,1265.17 2044.91,1269.94 2051.74,1268.98L2151.3,1251.72C2155.89,1251.07 2159.3,1247.14 2159.3,1242.51L2158.84,1210C2158.84,1205.98 2156.12,1202.47 2152.23,1201.45C2152.23,1201.45 2135.03,1197.1 2115.59,1191.88C2097.32,1186.97 2077.07,1181.32 2067.09,1178.52C2067.09,1178.52 2064.73,1160.77 2064.73,1160.77C2064.73,1160.77 2151.95,1149.01 2151.95,1149.01C2158.77,1147.93 2163.43,1141.53 2162.35,1134.71C2161.27,1127.9 2154.86,1123.24 2148.05,1124.32Z"/>
                    </g>
                </g>
            </g>
        </g>
    </g>
</svg>
