<?xml version="1.0" encoding="UTF-8" standalone="no"?>
<!DOCTYPE svg PUBLIC "-//W3C//DTD SVG 1.1//EN" "http://www.w3.org/Graphics/SVG/1.1/DTD/svg11.dtd">
<svg width="100%" height="100%" viewBox="0 0 200 220" version="1.1" xmlns="http://www.w3.org/2000/svg" xmlns:xlink="http://www.w3.org/1999/xlink" xml:space="preserve" xmlns:serif="http://www.serif.com/" style="fill-rule:evenodd;clip-rule:evenodd;stroke-linejoin:round;stroke-miterlimit:2;">
    <g transform="matrix(1,0,0,1,-2000,-1100)">
        <g id="Glyphs">
            <g id="Numbers">
            </g>
            <g id="Lowercase">
            </g>
            <g id="Uppercase">
            </g>
            <g id="Symbols" transform="matrix(1,0,0,1,198.458,1103.9)">
                <g transform="matrix(1,0,0,0.879553,0,1.71906)">
                    <g transform="matrix(0.795183,0,0,0.795183,231.657,-858.83)">
                        <path d="M2147.83,1118.96L2051.44,1137.4C2047.97,1137.95 2044.84,1140.08 2042.77,1143.29C2040.7,1146.51 2039.87,1150.55 2040.46,1154.48L2046.29,1188.43C2047.23,1194.67 2051.75,1199.4 2057.29,1199.96L2138.83,1206.96C2138.83,1206.96 2138.4,1237.18 2138.4,1237.18C2138.4,1237.18 2049.14,1238.75 2049.14,1238.75C2040.48,1239.29 2033.83,1247.73 2034.3,1257.58C2034.78,1267.43 2042.2,1274.98 2050.86,1274.44L2150.64,1263.74C2156.89,1263.36 2161.78,1257.48 2161.78,1250.37L2161.01,1195.37C2161.01,1188.89 2156.66,1183.48 2150.98,1182.9L2069.11,1173.31C2069.11,1173.31 2068.01,1164.93 2068.01,1164.93C2068.01,1164.93 2152.17,1154.37 2152.17,1154.37C2160.76,1153.01 2166.77,1143.97 2165.57,1134.2C2164.37,1124.43 2156.43,1117.61 2147.83,1118.96Z"/>
                    </g>
                    <g transform="matrix(-1,0,0,-1.13694,4001.54,1324.32)">
                        <path d="M2112.5,1150.76C2112.5,1150.76 2112.97,1146.64 2112.51,1141.43C2111.7,1132.02 2108.67,1119.67 2108.67,1119.67C2108.67,1114.88 2104.79,1111 2100,1111C2095.21,1111 2091.33,1114.88 2091.33,1119.67C2091.33,1119.67 2088.3,1132.02 2087.49,1141.43C2087.03,1146.64 2087.5,1150.76 2087.5,1150.76C2087.5,1157.66 2093.1,1163.26 2100,1163.26C2106.9,1163.26 2112.5,1157.66 2112.5,1150.76Z"/>
                    </g>
                    <g transform="matrix(1,0,0,-1.13694,-198.458,1581.79)">
                        <path d="M2112.5,1237.18C2112.5,1237.18 2112.97,1241.53 2112.51,1247.02C2111.7,1256.91 2108.67,1269.96 2108.67,1269.96C2108.67,1274.75 2104.79,1278.63 2100,1278.63C2095.21,1278.63 2091.33,1274.75 2091.33,1269.96C2091.33,1269.96 2088.3,1256.91 2087.49,1247.02C2087.03,1241.53 2087.5,1237.18 2087.5,1237.18C2087.5,1230.29 2093.1,1224.68 2100,1224.68C2106.9,1224.68 2112.5,1230.29 2112.5,1237.18Z"/>
                    </g>
                </g>
            </g>
        </g>
    </g>
</svg>
