<?xml version="1.0" encoding="UTF-8" standalone="no"?>
<!DOCTYPE svg PUBLIC "-//W3C//DTD SVG 1.1//EN" "http://www.w3.org/Graphics/SVG/1.1/DTD/svg11.dtd">
<svg width="100%" height="100%" viewBox="0 0 200 220" version="1.1" xmlns="http://www.w3.org/2000/svg" xmlns:xlink="http://www.w3.org/1999/xlink" xml:space="preserve" xmlns:serif="http://www.serif.com/" style="fill-rule:evenodd;clip-rule:evenodd;stroke-linejoin:round;stroke-miterlimit:2;">
    <g transform="matrix(1,0,0,1,-2000,-1100)">
        <g id="Glyphs">
            <g id="Numbers">
            </g>
            <g id="Lowercase">
            </g>
            <g id="Uppercase">
            </g>
            <g id="Symbols" transform="matrix(1,0,0,1,198.458,1103.9)">
                <g transform="matrix(1,0,0,1,-198.458,-1103.9)">
                    <path d="M2089.25,1141.05L2061.39,1145.74C2058.62,1146.12 2056.14,1147.61 2054.49,1149.86C2052.85,1152.11 2052.18,1154.93 2052.66,1157.68L2057.29,1181.43C2058.04,1185.79 2061.63,1189.1 2066.04,1189.49L2130.87,1194.39C2130.87,1194.39 2130.54,1215.53 2130.54,1215.53C2130.54,1215.53 2059.56,1216.62 2059.56,1216.62C2052.67,1217 2047.38,1222.9 2047.76,1229.79C2048.14,1236.68 2054.04,1241.96 2060.93,1241.59L2088.94,1238.94C2088.34,1242.51 2087.77,1246.38 2087.49,1249.87C2087.03,1255.36 2087.5,1259.7 2087.5,1259.7C2087.5,1266.6 2093.1,1272.2 2100,1272.2C2106.9,1272.2 2112.5,1266.6 2112.5,1259.7C2112.5,1259.7 2112.97,1255.36 2112.51,1249.87C2112.17,1245.7 2111.43,1240.97 2110.7,1236.89L2140.27,1234.1C2145.24,1233.83 2149.13,1229.72 2149.13,1224.75L2148.51,1186.28C2148.51,1181.75 2145.05,1177.96 2140.54,1177.56L2075.43,1170.85C2075.43,1170.85 2074.56,1164.99 2074.56,1164.99C2074.56,1164.99 2141.48,1157.61 2141.48,1157.61C2148.32,1156.65 2153.09,1150.33 2152.14,1143.5C2151.19,1136.67 2144.87,1131.89 2138.04,1132.84L2111.41,1137.32C2111.88,1134.54 2112.28,1131.65 2112.51,1129C2112.97,1123.79 2112.5,1119.67 2112.5,1119.67C2112.5,1112.77 2106.9,1107.17 2100,1107.17C2093.1,1107.17 2087.5,1112.77 2087.5,1119.67C2087.5,1119.67 2087.03,1123.79 2087.49,1129C2087.82,1132.87 2088.53,1137.24 2089.25,1141.05Z"/>
                </g>
            </g>
        </g>
    </g>
</svg>
