<?xml version="1.0" encoding="UTF-8" standalone="no"?>
<!DOCTYPE svg PUBLIC "-//W3C//DTD SVG 1.1//EN" "http://www.w3.org/Graphics/SVG/1.1/DTD/svg11.dtd">
<svg width="100%" height="100%" viewBox="0 0 200 220" version="1.1" xmlns="http://www.w3.org/2000/svg" xmlns:xlink="http://www.w3.org/1999/xlink" xml:space="preserve" xmlns:serif="http://www.serif.com/" style="fill-rule:evenodd;clip-rule:evenodd;stroke-linejoin:round;stroke-miterlimit:2;">
    <g transform="matrix(1,0,0,1,-1800,-1100)">
        <g id="Glyphs">
            <g id="Numbers">
            </g>
            <g id="Lowercase">
            </g>
            <g id="Uppercase">
            </g>
            <g id="Symbols" transform="matrix(1,0,0,1,198.458,1103.9)">
                <g transform="matrix(1,0,0,0.876091,-202.504,-981.551)">
                    <path d="M1860.69,1292.83C1860.69,1292.83 1872.65,1272.46 1888.59,1246.96C1897.52,1232.69 1907.39,1216.6 1917.49,1201.99C1924.72,1191.53 1932.12,1181.93 1938.56,1173.61C1951.32,1157.12 1960.69,1146.16 1960.69,1146.16C1965.28,1139.43 1964.22,1129.71 1958.32,1124.47C1952.42,1119.23 1943.9,1120.44 1939.31,1127.17C1939.31,1127.17 1932.31,1140.23 1921.44,1158.39C1915.95,1167.57 1909.62,1178.11 1902.51,1188.68C1892.58,1203.44 1881.34,1218.32 1871.41,1231.7C1853.67,1255.6 1839.31,1273.84 1839.31,1273.84C1834.72,1280.57 1835.79,1290.29 1841.68,1295.53C1847.58,1300.77 1856.1,1299.56 1860.69,1292.83Z"/>
                    <path d="M1868.01,1185.57C1872.67,1188.76 1878.6,1188.15 1882.68,1184.07L1906.24,1157.06C1909.07,1154.23 1910.31,1149.85 1909.47,1145.67C1908.63,1141.48 1905.85,1138.16 1902.22,1137.02L1864.9,1127.05C1861.38,1125.95 1857.63,1127.46 1855.49,1130.84L1842.13,1150.12C1840.55,1152.64 1839.95,1155.79 1840.5,1158.83C1841.05,1161.86 1842.68,1164.49 1845.01,1166.09L1868.01,1185.57ZM1872.89,1156.78L1864.17,1152.07C1864.17,1152.07 1866.25,1148.45 1866.25,1148.45C1866.25,1148.45 1877.69,1152.6 1877.69,1152.6L1872.89,1156.78Z"/>
                    <g transform="matrix(1,0,0,1,49.5019,110)">
                        <path d="M1868.01,1185.57C1872.67,1188.76 1878.6,1188.15 1882.68,1184.07L1906.24,1157.06C1909.07,1154.23 1910.31,1149.85 1909.47,1145.67C1908.63,1141.48 1905.85,1138.16 1902.22,1137.02L1864.9,1127.05C1861.38,1125.95 1857.63,1127.46 1855.49,1130.84L1842.13,1150.12C1840.55,1152.64 1839.95,1155.79 1840.5,1158.83C1841.05,1161.86 1842.68,1164.49 1845.01,1166.09L1868.01,1185.57ZM1872.89,1156.78L1864.17,1152.07C1864.17,1152.07 1866.25,1148.45 1866.25,1148.45C1866.25,1148.45 1877.69,1152.6 1877.69,1152.6L1872.89,1156.78Z"/>
                    </g>
                </g>
            </g>
        </g>
    </g>
</svg>
