<?xml version="1.0" encoding="UTF-8" standalone="no"?>
<!DOCTYPE svg PUBLIC "-//W3C//DTD SVG 1.1//EN" "http://www.w3.org/Graphics/SVG/1.1/DTD/svg11.dtd">
<svg width="100%" height="100%" viewBox="0 0 200 220" version="1.1" xmlns="http://www.w3.org/2000/svg" xmlns:xlink="http://www.w3.org/1999/xlink" xml:space="preserve" xmlns:serif="http://www.serif.com/" style="fill-rule:evenodd;clip-rule:evenodd;stroke-linejoin:round;stroke-miterlimit:2;">
    <g transform="matrix(1,0,0,1,-1800,-1100)">
        <g id="Glyphs">
            <g id="Numbers">
            </g>
            <g id="Lowercase">
            </g>
            <g id="Uppercase">
            </g>
            <g id="Symbols" transform="matrix(1,0,0,1,198.458,1103.9)">
                <g transform="matrix(1,0,0,1,-198.458,-1103.9)">
                    <path d="M1861.19,1290.96C1861.19,1290.96 1873.1,1270.8 1888.99,1245.47C1897.9,1231.28 1907.74,1215.31 1917.84,1200.68C1925.08,1190.21 1932.5,1180.52 1938.96,1172.11C1951.75,1155.47 1961.19,1144.3 1961.19,1144.3C1965.4,1138.12 1963.8,1129.69 1957.63,1125.48C1951.45,1121.27 1943.02,1122.86 1938.81,1129.04C1938.81,1129.04 1931.85,1141.9 1921.04,1159.89C1915.57,1168.98 1909.26,1179.43 1902.16,1189.99C1892.23,1204.73 1880.96,1219.73 1871.01,1233.2C1853.23,1257.25 1838.81,1275.7 1838.81,1275.7C1834.6,1281.88 1836.2,1290.31 1842.37,1294.52C1848.55,1298.73 1856.98,1297.14 1861.19,1290.96Z"/>
                    <path d="M1867.38,1183.65C1872.35,1187.05 1879.03,1186.43 1883.28,1182.17L1906.71,1155.48C1909.23,1152.96 1910.25,1149.31 1909.4,1145.85C1908.55,1142.39 1905.96,1139.62 1902.56,1138.55L1865.2,1128.33C1861.42,1127.14 1857.31,1128.64 1855.19,1132L1841.79,1151.41C1839,1155.83 1840.2,1161.66 1844.51,1164.61L1867.38,1183.65ZM1872.79,1158.18L1863.31,1152.92C1863.31,1152.92 1866.52,1147.34 1866.52,1147.34C1866.52,1147.34 1879.77,1152.06 1879.77,1152.06L1872.79,1158.18Z"/>
                    <g transform="matrix(1,0,0,1,49.5019,110)">
                        <path d="M1867.38,1183.65C1872.35,1187.05 1879.03,1186.43 1883.28,1182.17L1906.71,1155.48C1909.23,1152.96 1910.25,1149.31 1909.4,1145.85C1908.55,1142.39 1905.96,1139.62 1902.56,1138.55L1865.2,1128.33C1861.42,1127.14 1857.31,1128.64 1855.19,1132L1841.79,1151.41C1839,1155.83 1840.2,1161.66 1844.51,1164.61L1867.38,1183.65ZM1872.79,1158.18L1863.31,1152.92C1863.31,1152.92 1866.52,1147.34 1866.52,1147.34C1866.52,1147.34 1879.77,1152.06 1879.77,1152.06L1872.79,1158.18Z"/>
                    </g>
                </g>
            </g>
        </g>
    </g>
</svg>
