<?xml version="1.0" encoding="UTF-8" standalone="no"?>
<!DOCTYPE svg PUBLIC "-//W3C//DTD SVG 1.1//EN" "http://www.w3.org/Graphics/SVG/1.1/DTD/svg11.dtd">
<svg width="100%" height="100%" viewBox="0 0 200 220" version="1.1" xmlns="http://www.w3.org/2000/svg" xmlns:xlink="http://www.w3.org/1999/xlink" xml:space="preserve" xmlns:serif="http://www.serif.com/" style="fill-rule:evenodd;clip-rule:evenodd;stroke-linejoin:round;stroke-miterlimit:2;">
    <g transform="matrix(1,0,0,1,-1800,-1100)">
        <g id="Glyphs">
            <g id="Numbers">
            </g>
            <g id="Lowercase">
            </g>
            <g id="Uppercase">
            </g>
            <g id="Symbols" transform="matrix(1,0,0,1,198.458,1103.9)">
                <g transform="matrix(1,0,0,1,-198.458,-1103.9)">
                    <path d="M1856.64,1254.98C1856.64,1254.98 1868.6,1237.14 1884.55,1214.81C1893.47,1202.3 1903.35,1188.2 1913.45,1175.4C1920.68,1166.23 1928.07,1157.83 1934.52,1150.53C1947.27,1136.09 1956.64,1126.49 1956.64,1126.49C1961.23,1120.59 1960.17,1112.08 1954.27,1107.49C1948.37,1102.9 1939.86,1103.96 1935.27,1109.86C1935.27,1109.86 1928.26,1121.3 1917.39,1137.21C1911.9,1145.25 1905.57,1154.48 1898.46,1163.74C1888.53,1176.67 1877.29,1189.71 1867.36,1201.43C1849.63,1222.37 1835.27,1238.35 1835.27,1238.35C1830.68,1244.25 1831.74,1252.76 1837.64,1257.35C1843.54,1261.94 1852.05,1260.88 1856.64,1254.98ZM1913.47,1257.39C1918.12,1260.18 1924.05,1259.65 1928.14,1256.07L1951.7,1232.41C1954.53,1229.93 1955.77,1226.1 1954.93,1222.43C1954.09,1218.76 1951.3,1215.85 1947.67,1214.85L1910.36,1206.12C1906.84,1205.15 1903.08,1206.48 1900.95,1209.44L1887.59,1226.33C1886,1228.53 1885.41,1231.3 1885.96,1233.96C1886.51,1236.61 1888.14,1238.92 1890.47,1240.32L1913.47,1257.39ZM1918.35,1232.17L1909.63,1228.04C1909.63,1228.04 1911.71,1224.87 1911.71,1224.87C1911.71,1224.87 1923.15,1228.51 1923.15,1228.51L1918.35,1232.17ZM1863.97,1161.02C1868.62,1163.81 1874.55,1163.28 1878.63,1159.7L1902.2,1136.04C1905.03,1133.56 1906.27,1129.73 1905.42,1126.06C1904.59,1122.39 1901.8,1119.48 1898.17,1118.48L1860.85,1109.75C1857.33,1108.78 1853.58,1110.11 1851.45,1113.07L1838.09,1129.96C1836.5,1132.16 1835.91,1134.93 1836.46,1137.59C1837,1140.24 1838.64,1142.55 1840.97,1143.95L1863.97,1161.02ZM1868.85,1135.8L1860.13,1131.67C1860.13,1131.67 1862.2,1128.5 1862.2,1128.5C1862.2,1128.5 1873.65,1132.14 1873.65,1132.14L1868.85,1135.8Z"/>
                </g>
            </g>
        </g>
    </g>
</svg>
