<?xml version="1.0" encoding="UTF-8" standalone="no"?>
<!DOCTYPE svg PUBLIC "-//W3C//DTD SVG 1.1//EN" "http://www.w3.org/Graphics/SVG/1.1/DTD/svg11.dtd">
<svg width="100%" height="100%" viewBox="0 0 200 220" version="1.1" xmlns="http://www.w3.org/2000/svg" xmlns:xlink="http://www.w3.org/1999/xlink" xml:space="preserve" xmlns:serif="http://www.serif.com/" style="fill-rule:evenodd;clip-rule:evenodd;stroke-linejoin:round;stroke-miterlimit:2;">
    <g transform="matrix(1,0,0,1,-600,-1100)">
        <g id="Glyphs">
            <g transform="matrix(1,0,0,1,-1610.39,0)">
                <g id="Numbers">
                </g>
            </g>
            <g id="Lowercase">
            </g>
            <g id="Uppercase">
            </g>
            <g id="Symbols" transform="matrix(1,0,0,1,198.458,1103.9)">
                <g transform="matrix(0.509191,0,0,0.509191,442.484,-177.447)">
                    <path d="M121.234,506.797L125.398,491.45C127.188,484.654 130.031,479.55 131.806,473.804C132.803,470.581 133.177,467.503 133.786,464.486L138.223,445.338C141.169,432.114 132.824,418.985 119.6,416.039C106.375,413.092 93.247,421.437 90.3,434.662C90.3,434.662 89.04,440.823 88.615,448.773C88.365,453.424 88.201,458.577 88.578,463.522C89.584,468.563 90.086,473.785 91.342,479.718C92.245,483.981 93.097,487.819 94.639,492.292C96.228,496.513 97.14,499.7 98.64,502.644C102.203,509.637 104.143,512.921 104.143,512.921C105.833,517.638 111.034,520.095 115.75,518.405C120.467,516.715 122.924,511.514 121.234,506.797Z"/>
                </g>
            </g>
        </g>
    </g>
</svg>
