<?xml version="1.0" encoding="UTF-8" standalone="no"?>
<!DOCTYPE svg PUBLIC "-//W3C//DTD SVG 1.1//EN" "http://www.w3.org/Graphics/SVG/1.1/DTD/svg11.dtd">
<svg width="100%" height="100%" viewBox="0 0 200 220" version="1.1" xmlns="http://www.w3.org/2000/svg" xmlns:xlink="http://www.w3.org/1999/xlink" xml:space="preserve" xmlns:serif="http://www.serif.com/" style="fill-rule:evenodd;clip-rule:evenodd;stroke-linejoin:round;stroke-miterlimit:2;">
    <g transform="matrix(1,0,0,1,-600,-1100)">
        <g id="Glyphs">
            <g id="Numbers">
            </g>
            <g id="Lowercase">
            </g>
            <g id="Uppercase">
            </g>
            <g id="Symbols" transform="matrix(1,0,0,1,198.458,1103.9)">
                <g transform="matrix(0.708163,0,0,0.509191,420.601,-177.447)">
                    <path d="M116.592,507.154C116.592,507.154 116.428,504.426 116.545,499.471C116.6,497.13 116.996,494.606 117.423,491.479C118.266,483.658 120.265,477.228 121.343,470.814C121.707,468.646 121.839,466.52 122.036,464.452C122.213,461.89 122.685,459.295 123.077,456.821C124.117,450.261 125.527,444.855 125.527,444.855C127.453,436.208 123.97,427.012 117.752,424.333C111.535,421.653 104.923,426.498 102.996,435.145C102.996,435.145 101.712,441.17 100.97,448.954C100.533,453.54 100.204,458.667 100.328,463.556C100.747,468.536 100.716,473.889 101.151,479.78C101.455,483.895 101.837,487.908 102.615,492.263C103.415,496.39 104.072,499.733 104.991,502.608C107.115,509.252 108.785,512.565 108.785,512.565C109.859,515.561 112.479,516.781 114.633,515.288C116.788,513.795 117.665,510.15 116.592,507.154Z"/>
                </g>
            </g>
        </g>
    </g>
</svg>
