<?xml version="1.0" encoding="UTF-8" standalone="no"?>
<!DOCTYPE svg PUBLIC "-//W3C//DTD SVG 1.1//EN" "http://www.w3.org/Graphics/SVG/1.1/DTD/svg11.dtd">
<svg width="100%" height="100%" viewBox="0 0 200 220" version="1.1" xmlns="http://www.w3.org/2000/svg" xmlns:xlink="http://www.w3.org/1999/xlink" xml:space="preserve" xmlns:serif="http://www.serif.com/" style="fill-rule:evenodd;clip-rule:evenodd;stroke-linejoin:round;stroke-miterlimit:2;">
    <g transform="matrix(1,0,0,1,-1800,-880)">
        <g id="Glyphs">
            <g id="Numbers">
            </g>
            <g id="Lowercase">
            </g>
            <g id="Uppercase">
            </g>
            <g id="Symbols" transform="matrix(1,0,0,1,198.458,1103.9)">
                <g transform="matrix(1,0,0,0.909786,826.868,-1224.84)">
                    <path d="M889.413,1113.47L842.01,1184.66C841.128,1185.88 840.486,1187.28 840.123,1188.78L833.658,1218.41C832.892,1221.58 833.52,1224.96 835.354,1227.55C835.354,1227.55 846.23,1242.53 857.769,1260.16C872.937,1283.34 889.316,1310.85 889.316,1310.85C893.908,1317.33 902.424,1318.5 908.32,1313.45C914.217,1308.4 915.276,1299.04 910.684,1292.56C910.684,1292.56 890.432,1268.37 873.699,1246.53C865.061,1235.25 857.429,1224.6 853.416,1218.92C853.416,1218.92 859.187,1197.15 859.187,1197.15C859.187,1197.15 910.587,1132.03 910.587,1132.03C915.247,1125.61 914.286,1116.24 908.443,1111.12C902.6,1105.99 894.073,1107.05 889.413,1113.47Z"/>
                </g>
            </g>
        </g>
    </g>
</svg>
