<?xml version="1.0" encoding="UTF-8" standalone="no"?>
<!DOCTYPE svg PUBLIC "-//W3C//DTD SVG 1.1//EN" "http://www.w3.org/Graphics/SVG/1.1/DTD/svg11.dtd">
<svg width="100%" height="100%" viewBox="0 0 200 220" version="1.1" xmlns="http://www.w3.org/2000/svg" xmlns:xlink="http://www.w3.org/1999/xlink" xml:space="preserve" xmlns:serif="http://www.serif.com/" style="fill-rule:evenodd;clip-rule:evenodd;stroke-linejoin:round;stroke-miterlimit:2;">
    <g transform="matrix(1,0,0,1,-2000,-880)">
        <g id="Glyphs">
            <g id="Numbers">
            </g>
            <g id="Lowercase">
            </g>
            <g id="Uppercase">
            </g>
            <g id="Symbols" transform="matrix(1,0,0,1,198.458,1103.9)">
                <g transform="matrix(-1,0,0,-0.909786,2776.87,980.896)">
                    <path d="M889.413,1113.47L842.079,1184.72C840.314,1187.16 839.555,1190.29 839.988,1193.37L845.88,1230.43C846.093,1231.95 846.609,1233.4 847.389,1234.67C847.389,1234.67 858.335,1253.07 868.681,1271.91C879.064,1290.82 888.778,1310.04 888.778,1310.04C892.961,1316.85 901.385,1318.64 907.579,1314.04C913.773,1309.44 915.405,1300.18 911.222,1293.38C911.222,1293.38 898.629,1276.29 886.55,1258.64C876.865,1244.49 867.562,1230.05 864.299,1224.95C864.299,1224.95 860.649,1195.16 860.649,1195.16C860.649,1195.16 910.587,1132.03 910.587,1132.03C915.247,1125.61 914.286,1116.24 908.443,1111.12C902.6,1105.99 894.073,1107.05 889.413,1113.47Z"/>
                </g>
            </g>
        </g>
    </g>
</svg>
