<?xml version="1.0" encoding="UTF-8" standalone="no"?>
<!DOCTYPE svg PUBLIC "-//W3C//DTD SVG 1.1//EN" "http://www.w3.org/Graphics/SVG/1.1/DTD/svg11.dtd">
<svg width="100%" height="100%" viewBox="0 0 200 220" version="1.1" xmlns="http://www.w3.org/2000/svg" xmlns:xlink="http://www.w3.org/1999/xlink" xml:space="preserve" xmlns:serif="http://www.serif.com/" style="fill-rule:evenodd;clip-rule:evenodd;stroke-linejoin:round;stroke-miterlimit:2;">
    <g transform="matrix(1,0,0,1,-800,-1100)">
        <g id="Glyphs">
            <g transform="matrix(1,0,0,1,-1610.39,0)">
                <g id="Numbers">
                </g>
            </g>
            <g id="Lowercase">
            </g>
            <g id="Uppercase">
            </g>
            <g id="Symbols" transform="matrix(1,0,0,1,198.458,1103.9)">
                <g transform="matrix(-0.695928,-0.131066,-0.176519,0.451232,857.186,-52.764)">
                    <path d="M107.175,515.068C107.175,515.068 105.411,512.006 102.632,505.71C101.383,502.879 100.682,499.524 99.498,495.315C98.394,490.973 97.943,487.064 97.419,482.844C96.725,477.252 96.573,472.224 95.971,467.458C95.747,462.233 96.111,456.728 96.521,451.773C97.225,443.27 98.674,436.606 98.674,436.606C101.604,423.456 110.967,414.301 119.57,416.174C128.173,418.047 132.779,430.244 129.849,443.394L126.393,460.55C125.969,463.802 125.71,467.074 124.959,470.573C123.735,476.276 121.625,481.553 120.539,488.427C119.912,491.72 119.16,494.182 118.946,496.668C118.498,501.864 118.201,504.65 118.201,504.65C119.628,508.633 118.317,514.2 115.274,517.075C112.231,519.95 108.602,519.051 107.175,515.068Z"/>
                </g>
            </g>
        </g>
    </g>
</svg>
