<?xml version="1.0" encoding="UTF-8" standalone="no"?>
<!DOCTYPE svg PUBLIC "-//W3C//DTD SVG 1.1//EN" "http://www.w3.org/Graphics/SVG/1.1/DTD/svg11.dtd">
<svg width="100%" height="100%" viewBox="0 0 200 220" version="1.1" xmlns="http://www.w3.org/2000/svg" xmlns:xlink="http://www.w3.org/1999/xlink" xml:space="preserve" xmlns:serif="http://www.serif.com/" style="fill-rule:evenodd;clip-rule:evenodd;stroke-linejoin:round;stroke-miterlimit:2;">
    <g transform="matrix(1,0,0,1,-400,-440)">
        <g id="Glyphs">
            <g id="Numbers">
            </g>
            <g id="Lowercase">
                <g transform="matrix(0.727273,0,0,0.756423,-1028.62,476.095)">
                    <path d="M2130.96,35.038L2062.84,60.951C2059.04,62.862 2056.31,66.291 2055.38,70.32C2054.46,74.349 2055.43,78.565 2058.05,81.838C2058.05,81.838 2067.64,96.509 2079.37,112.717C2094.66,133.86 2113.34,157.566 2113.34,157.566C2119.59,165.404 2131.29,166.884 2139.44,160.869C2147.6,154.853 2149.14,143.606 2142.88,135.767C2142.88,135.767 2123.89,112.291 2106.61,92.616C2101.17,86.429 2095.9,80.641 2091.58,75.967C2091.58,75.967 2137.33,46.774 2137.33,46.774C2140.7,45.082 2142.01,41.079 2140.25,37.841C2138.49,34.602 2134.32,33.346 2130.96,35.038Z"/>
                </g>
            </g>
            <g id="Uppercase">
            </g>
            <g id="Symbols">
            </g>
        </g>
    </g>
</svg>
