<?xml version="1.0" encoding="UTF-8" standalone="no"?>
<!DOCTYPE svg PUBLIC "-//W3C//DTD SVG 1.1//EN" "http://www.w3.org/Graphics/SVG/1.1/DTD/svg11.dtd">
<svg width="100%" height="100%" viewBox="0 0 200 220" version="1.1" xmlns="http://www.w3.org/2000/svg" xmlns:xlink="http://www.w3.org/1999/xlink" xml:space="preserve" xmlns:serif="http://www.serif.com/" style="fill-rule:evenodd;clip-rule:evenodd;stroke-linejoin:round;stroke-miterlimit:2;">
    <g transform="matrix(1,0,0,1,-800,-440)">
        <g id="Glyphs">
            <g id="Numbers">
            </g>
            <g id="Lowercase">
                <g transform="matrix(0.727273,0,0,0.727273,-912.539,480.686)">
                    <path d="M2524.42,18.047L2457.79,21.147C2452.11,21.147 2446.89,24.247 2444.17,29.231C2441.45,34.215 2441.66,40.287 2444.74,45.062L2475.96,90.165C2473.49,94.338 2470.2,99.814 2466.6,105.548C2456.65,121.401 2444.49,139.262 2444.49,139.262C2441.81,143.602 2441.68,149.057 2444.17,153.516C2446.65,157.974 2451.36,160.738 2456.46,160.738L2526.62,165.286C2536.89,165.286 2545.24,156.943 2545.24,146.667C2545.24,136.39 2536.89,128.047 2526.62,128.047L2481.72,130.957C2484,127.088 2486.39,123.084 2488.73,119.245C2496.17,107.055 2503.19,96.594 2503.19,96.594C2505.9,92.206 2505.85,86.649 2503.06,82.309L2485.88,53.493C2485.88,53.493 2524.42,55.286 2524.42,55.286C2534.7,55.286 2543.04,46.943 2543.04,36.667C2543.04,26.39 2534.7,18.047 2524.42,18.047Z"/>
                </g>
            </g>
            <g id="Uppercase">
            </g>
            <g id="Symbols">
            </g>
        </g>
    </g>
</svg>
