<?xml version="1.0" encoding="UTF-8" standalone="no"?>
<!DOCTYPE svg PUBLIC "-//W3C//DTD SVG 1.1//EN" "http://www.w3.org/Graphics/SVG/1.1/DTD/svg11.dtd">
<svg width="100%" height="100%" viewBox="0 0 200 220" version="1.1" xmlns="http://www.w3.org/2000/svg" xmlns:xlink="http://www.w3.org/1999/xlink" xml:space="preserve" xmlns:serif="http://www.serif.com/" style="fill-rule:evenodd;clip-rule:evenodd;stroke-linejoin:round;stroke-miterlimit:2;">
    <g transform="matrix(1,0,0,1,-1000,-440)">
        <g id="Glyphs">
            <g id="Numbers">
            </g>
            <g id="Lowercase">
                <g transform="matrix(0.609928,0,0,0.609928,1032.38,363.397)">
                    <path d="M102.421,249.901C129.998,251.615 160.861,254.424 160.861,254.424C173.114,254.424 183.063,244.476 183.063,232.222C183.063,219.969 173.114,210.02 160.861,210.02C160.861,210.02 128.817,212.937 100.861,214.645C79.6,215.944 60.861,216.45 60.861,216.45C54.41,216.45 48.61,220.379 46.215,226.368C43.821,232.358 45.316,239.202 49.989,243.649C49.989,243.649 62.279,254.842 75.729,268.044C82.477,274.668 89.526,281.779 95.658,288.033C95.658,288.033 81.679,294.694 81.679,294.694C74.239,298.664 70.252,307.017 71.845,315.299L79.507,370.858C81.821,382.891 93.468,390.783 105.502,388.469C117.535,386.156 125.426,374.508 123.113,362.475L112.818,320.909C112.817,320.909 133.314,308.742 133.314,308.742C138.263,306.101 141.642,301.244 142.397,295.687C143.153,290.129 141.194,284.546 137.13,280.68C137.13,280.68 119.302,265.287 102.421,249.901Z"/>
                </g>
            </g>
            <g id="Uppercase">
            </g>
            <g id="Symbols">
            </g>
        </g>
    </g>
</svg>
