<?xml version="1.0" encoding="UTF-8" standalone="no"?>
<!DOCTYPE svg PUBLIC "-//W3C//DTD SVG 1.1//EN" "http://www.w3.org/Graphics/SVG/1.1/DTD/svg11.dtd">
<svg width="100%" height="100%" viewBox="0 0 200 220" version="1.1" xmlns="http://www.w3.org/2000/svg" xmlns:xlink="http://www.w3.org/1999/xlink" xml:space="preserve" xmlns:serif="http://www.serif.com/" style="fill-rule:evenodd;clip-rule:evenodd;stroke-linejoin:round;stroke-miterlimit:2;">
    <g transform="matrix(1,0,0,1,-1200,-440)">
        <g id="Glyphs">
            <g id="Numbers">
            </g>
            <g id="Lowercase">
                <g transform="matrix(1,0,0,1,1000,-219.629)">
                    <path d="M310.734,783.157C307.326,786.794 303.937,790.338 301.066,793.314C301.066,793.314 278.131,761.639 278.131,761.639L299.448,743.536C305.059,748.433 313.59,747.876 318.515,742.281C323.453,736.672 322.909,728.108 317.299,723.169L308.613,716.198C303.599,711.783 296.058,711.875 291.152,716.41L255.929,751.833C251.791,755.658 251.238,762.002 254.653,766.485L292.466,813.721C294.122,815.894 296.636,817.247 299.362,817.431C302.088,817.615 304.761,816.613 306.693,814.682C306.693,814.682 316.266,805.252 326.096,796.086C335.944,786.903 346.019,778.013 346.019,778.013C349.26,774.774 350.231,769.901 348.478,765.667C346.726,761.434 342.595,758.673 338.013,758.673L305,756.458C297.526,756.458 291.458,762.526 291.458,770C291.458,777.474 297.526,783.542 305,783.542L310.734,783.157Z"/>
                </g>
            </g>
            <g id="Uppercase">
            </g>
            <g id="Symbols">
            </g>
        </g>
    </g>
</svg>
