<?xml version="1.0" encoding="UTF-8" standalone="no"?>
<!DOCTYPE svg PUBLIC "-//W3C//DTD SVG 1.1//EN" "http://www.w3.org/Graphics/SVG/1.1/DTD/svg11.dtd">
<svg width="100%" height="100%" viewBox="0 0 200 220" version="1.1" xmlns="http://www.w3.org/2000/svg" xmlns:xlink="http://www.w3.org/1999/xlink" xml:space="preserve" xmlns:serif="http://www.serif.com/" style="fill-rule:evenodd;clip-rule:evenodd;stroke-linejoin:round;stroke-miterlimit:2;">
    <g transform="matrix(1,0,0,1,-1400,-440)">
        <g id="Glyphs">
            <g id="Numbers">
            </g>
            <g id="Lowercase">
                <g>
                    <path d="M1483.43,550.488L1513.88,560.084C1513.88,560.084 1513.73,580.371 1513.73,580.371C1513.73,587.844 1519.8,593.912 1527.27,593.912C1534.75,593.912 1540.81,587.844 1540.81,580.371L1540.6,550.371C1540.6,544.209 1536.37,538.852 1530.38,537.415L1482.23,529.373C1482.21,528.038 1482.2,528.182 1482.22,526.862C1482.3,520.267 1482.97,514.001 1483.58,508.535C1484.78,497.597 1486.27,490.208 1486.27,490.208C1486.27,482.734 1480.2,476.667 1472.73,476.667C1465.25,476.667 1459.19,482.734 1459.19,490.208C1459.19,490.208 1460.67,497.597 1461.88,508.535C1462.48,514.001 1463.16,520.267 1463.23,526.862C1463.34,536.055 1462.48,544.242 1461.84,552.88C1460.7,568.381 1459.19,580.371 1459.19,580.371C1459.19,587.844 1465.25,593.912 1472.73,593.912C1480.2,593.912 1486.27,587.844 1486.27,580.371C1486.27,580.371 1484.75,568.381 1483.61,552.88C1483.56,552.09 1483.5,551.292 1483.43,550.488Z"/>
                </g>
            </g>
            <g id="Uppercase">
            </g>
            <g id="Symbols">
            </g>
        </g>
    </g>
</svg>
