<?xml version="1.0" encoding="UTF-8" standalone="no"?>
<!DOCTYPE svg PUBLIC "-//W3C//DTD SVG 1.1//EN" "http://www.w3.org/Graphics/SVG/1.1/DTD/svg11.dtd">
<svg width="100%" height="100%" viewBox="0 0 200 220" version="1.1" xmlns="http://www.w3.org/2000/svg" xmlns:xlink="http://www.w3.org/1999/xlink" xml:space="preserve" xmlns:serif="http://www.serif.com/" style="fill-rule:evenodd;clip-rule:evenodd;stroke-linejoin:round;stroke-miterlimit:2;">
    <g transform="matrix(1,0,0,1,-1600,-440)">
        <g id="Glyphs">
            <g id="Numbers">
            </g>
            <g id="Lowercase">
                <g>
                    <g transform="matrix(1,0,0,-1,1000,843.704)">
                        <path d="M713.542,256.667C713.542,256.667 714.05,264.401 713.557,274.222C712.683,291.615 709.394,315.185 709.394,315.185C709.394,320.37 705.185,324.58 700,324.58C694.815,324.58 690.606,320.37 690.606,315.185C690.606,315.185 687.317,291.615 686.443,274.222C685.95,264.401 686.458,256.667 686.458,256.667C686.458,249.193 692.526,243.125 700,243.125C707.474,243.125 713.542,249.193 713.542,256.667Z"/>
                    </g>
                    <g transform="matrix(1,0,0,1,0,5.97452)">
                        <path d="M1701.78,470.692C1697.04,470.692 1691.9,470.465 1688.51,473.531C1685.45,476.3 1683.62,480.452 1683.62,484.734C1683.62,493.871 1690.5,499.061 1699.64,499.061C1705.18,499.061 1708.9,497.382 1711.5,494.912C1714.09,492.457 1715.86,488.906 1716.3,483.789C1716.82,477.705 1714.89,476.313 1711.8,473.38C1709.37,471.075 1706.08,470.692 1701.78,470.692Z"/>
                    </g>
                </g>
            </g>
            <g id="Uppercase">
            </g>
            <g id="Symbols">
            </g>
        </g>
    </g>
</svg>
