<?xml version="1.0" encoding="UTF-8" standalone="no"?>
<!DOCTYPE svg PUBLIC "-//W3C//DTD SVG 1.1//EN" "http://www.w3.org/Graphics/SVG/1.1/DTD/svg11.dtd">
<svg width="100%" height="100%" viewBox="0 0 200 220" version="1.1" xmlns="http://www.w3.org/2000/svg" xmlns:xlink="http://www.w3.org/1999/xlink" xml:space="preserve" xmlns:serif="http://www.serif.com/" style="fill-rule:evenodd;clip-rule:evenodd;stroke-linejoin:round;stroke-miterlimit:2;">
    <g transform="matrix(1,0,0,1,-2000,-440)">
        <g id="Glyphs">
            <g id="Numbers">
            </g>
            <g id="Lowercase">
                <path d="M2089.61,565.615C2091.79,567.697 2094.28,570.183 2096.76,572.889C2099.4,575.755 2101.85,578.946 2104.15,581.994C2110.04,589.783 2114.36,596.507 2114.36,596.507C2119.59,601.85 2128.17,601.944 2133.51,596.717C2138.86,591.49 2138.95,582.91 2133.72,577.567C2133.72,577.567 2127.1,573.1 2119.44,567.042C2116.44,564.67 2113.3,562.15 2110.5,559.454C2108.11,557.16 2105.89,554.867 2103.99,552.809C2103.99,552.809 2121.53,535.733 2121.53,535.733C2126.33,530.004 2125.58,521.456 2119.85,516.657C2114.12,511.857 2105.57,512.612 2100.77,518.341L2088.07,537.074C2086.83,519.937 2085.35,505.036 2085.35,505.036C2085.35,499.851 2081.14,495.641 2075.96,495.641C2070.77,495.641 2066.56,499.851 2066.56,505.036C2066.56,505.036 2063.27,538.171 2062.4,562.437C2061.91,576.208 2062.41,587.037 2062.41,587.037C2062.41,594.511 2068.48,600.579 2075.96,600.579C2083.43,600.579 2089.5,594.511 2089.5,587.037C2089.5,587.037 2089.93,577.837 2089.61,565.615Z"/>
            </g>
            <g id="Uppercase">
            </g>
            <g id="Symbols">
            </g>
        </g>
    </g>
</svg>
