<?xml version="1.0" encoding="UTF-8" standalone="no"?>
<!DOCTYPE svg PUBLIC "-//W3C//DTD SVG 1.1//EN" "http://www.w3.org/Graphics/SVG/1.1/DTD/svg11.dtd">
<svg width="100%" height="100%" viewBox="0 0 200 220" version="1.1" xmlns="http://www.w3.org/2000/svg" xmlns:xlink="http://www.w3.org/1999/xlink" xml:space="preserve" xmlns:serif="http://www.serif.com/" style="fill-rule:evenodd;clip-rule:evenodd;stroke-linejoin:round;stroke-miterlimit:2;">
    <g transform="matrix(1,0,0,1,0,-660)">
        <g id="Glyphs">
            <g id="Numbers">
            </g>
            <g id="Lowercase">
                <g transform="matrix(0.377993,0,0,0.545455,-543.976,606.667)">
                    <path d="M1664.43,366.667L1661.18,315.138C1672.34,322.67 1684.12,330.687 1695.33,338.437C1726.01,359.66 1752.26,378.926 1752.26,378.926C1759.47,384.08 1770.46,385.69 1780.06,382.996C1789.66,380.302 1795.94,373.843 1795.94,366.667C1795.94,366.667 1796.73,341.47 1798.83,312.889C1801.58,275.348 1806.34,232.222 1806.34,232.222C1806.34,218.52 1790.29,207.396 1770.52,207.396C1750.75,207.396 1734.69,218.52 1734.69,232.222C1734.69,232.222 1739.46,275.348 1742.21,312.889C1742.43,315.807 1742.63,318.689 1742.82,321.513C1739.34,318.971 1735.78,316.355 1732.18,313.692C1693.32,284.946 1649.73,250.973 1649.73,250.973C1641.39,245.008 1628.66,243.145 1617.56,246.262C1606.45,249.38 1599.18,256.856 1599.18,265.161L1592.78,366.667C1592.78,380.369 1608.83,391.493 1628.6,391.493C1648.37,391.493 1664.43,380.369 1664.43,366.667Z"/>
                </g>
            </g>
            <g id="Uppercase">
            </g>
            <g id="Symbols">
            </g>
        </g>
    </g>
</svg>
