<?xml version="1.0" encoding="UTF-8" standalone="no"?>
<!DOCTYPE svg PUBLIC "-//W3C//DTD SVG 1.1//EN" "http://www.w3.org/Graphics/SVG/1.1/DTD/svg11.dtd">
<svg width="100%" height="100%" viewBox="0 0 200 220" version="1.1" xmlns="http://www.w3.org/2000/svg" xmlns:xlink="http://www.w3.org/1999/xlink" xml:space="preserve" xmlns:serif="http://www.serif.com/" style="fill-rule:evenodd;clip-rule:evenodd;stroke-linejoin:round;stroke-miterlimit:2;">
    <g transform="matrix(1,0,0,1,-400,-660)">
        <g id="Glyphs">
            <g id="Numbers">
            </g>
            <g id="Lowercase">
                <g transform="matrix(0.636364,0,0,0.666667,-858.632,562.222)">
                    <path d="M2120.25,346.507L2172.06,318.332C2177.18,316.018 2180.67,311.326 2181.27,305.947C2181.87,300.569 2179.49,295.28 2174.99,291.989C2174.99,291.989 2157.99,281.016 2141.61,269.207C2125.24,257.407 2109.53,244.806 2109.53,244.806C2104.8,241.345 2098.42,240.747 2093.07,243.265C2087.73,245.782 2084.34,250.978 2084.34,256.667L2078.72,366.667C2078.72,377.877 2088.26,386.979 2100,386.979C2111.74,386.979 2121.28,377.877 2121.28,366.667L2120.25,346.507ZM2118.12,304.935L2133.46,299.318C2130.26,296.85 2126.89,294.29 2123.49,291.765C2121.4,290.209 2119.29,288.667 2117.22,287.161L2118.12,304.935Z"/>
                </g>
            </g>
            <g id="Uppercase">
            </g>
            <g id="Symbols">
            </g>
        </g>
    </g>
</svg>
