<?xml version="1.0" encoding="UTF-8" standalone="no"?>
<!DOCTYPE svg PUBLIC "-//W3C//DTD SVG 1.1//EN" "http://www.w3.org/Graphics/SVG/1.1/DTD/svg11.dtd">
<svg width="100%" height="100%" viewBox="0 0 200 220" version="1.1" xmlns="http://www.w3.org/2000/svg" xmlns:xlink="http://www.w3.org/1999/xlink" xml:space="preserve" xmlns:serif="http://www.serif.com/" style="fill-rule:evenodd;clip-rule:evenodd;stroke-linejoin:round;stroke-miterlimit:2;">
    <g transform="matrix(1,0,0,1,-1000,-660)">
        <g id="Glyphs">
            <g id="Numbers">
            </g>
            <g id="Lowercase">
                <g transform="matrix(0.545455,0,0,0.545455,1048,486.667)">
                    <path d="M103.331,541.727L50.425,564.784C38.348,571.256 33.797,586.316 40.269,598.393C46.741,610.47 61.801,615.021 73.878,608.549L130.714,571.887C130.714,571.887 154.784,557.382 154.784,557.382C160.829,554.142 164.499,547.739 164.238,540.885C163.977,534.031 159.83,527.925 153.556,525.155C153.556,525.155 134.526,517.529 113.394,507.86C105.831,504.399 97.998,500.694 90.605,497.136C90.606,497.137 136.613,473.692 136.613,473.692C148.463,466.812 152.497,451.606 145.617,439.756C138.737,427.907 123.531,423.872 111.682,430.752L36.321,480.214C29.85,483.971 26.035,491.042 26.447,498.513C26.86,505.984 31.43,512.592 38.275,515.614C38.275,515.614 71.183,528.019 99.224,539.955L103.331,541.727Z"/>
                </g>
            </g>
            <g id="Uppercase">
            </g>
            <g id="Symbols">
            </g>
        </g>
    </g>
</svg>
