<?xml version="1.0" encoding="UTF-8" standalone="no"?>
<!DOCTYPE svg PUBLIC "-//W3C//DTD SVG 1.1//EN" "http://www.w3.org/Graphics/SVG/1.1/DTD/svg11.dtd">
<svg width="100%" height="100%" viewBox="0 0 200 220" version="1.1" xmlns="http://www.w3.org/2000/svg" xmlns:xlink="http://www.w3.org/1999/xlink" xml:space="preserve" xmlns:serif="http://www.serif.com/" style="fill-rule:evenodd;clip-rule:evenodd;stroke-linejoin:round;stroke-miterlimit:2;">
    <g transform="matrix(1,0,0,1,-1200,-660)">
        <g id="Glyphs">
            <g id="Numbers">
            </g>
            <g id="Lowercase">
                <g transform="matrix(0.666364,0,0,0.666364,1097.29,415.7)">
                    <path d="M289.869,460.716L250.733,460.364L249.893,460.347L249.062,460.373L248.242,460.44L247.433,460.547L246.636,460.694L245.852,460.879L245.083,461.101L244.33,461.359L243.593,461.653L242.874,461.982L242.173,462.344L241.493,462.738L240.833,463.164L240.195,463.62L239.581,464.106L238.99,464.62L238.425,465.162L237.886,465.731L237.374,466.325L236.891,466.944L236.437,467.586L236.014,468.251L235.622,468.938L235.263,469.645L234.938,470.373L234.648,471.119L234.393,471.882L234.176,472.663L233.996,473.459L233.856,474.27L233.756,475.096L233.697,475.934L233.68,476.774L233.706,477.604L233.773,478.425L233.88,479.234L234.027,480.031L234.212,480.815L234.434,481.584L234.693,482.337L234.987,483.074L235.315,483.793L235.677,484.493L236.071,485.174L236.497,485.834L236.953,486.471L237.439,487.086L237.954,487.676L238.496,488.242L239.064,488.781L239.658,489.292L240.277,489.776L240.919,490.229L241.584,490.653L242.271,491.044L242.979,491.403L243.706,491.728L244.452,492.019L245.216,492.273L245.996,492.491L246.793,492.67L247.604,492.811L248.429,492.911L249.267,492.97C249.267,492.97 289.119,496.199 289.119,496.199L288.83,504.035C287.297,542.192 284.678,580.185 284.678,580.185C284.678,591.401 293.784,600.507 305,600.507C316.216,600.507 325.322,591.401 325.322,580.185C325.322,580.185 322.703,542.192 321.17,504.035L320.976,498.781L360.336,501.97C371.541,502.474 381.046,493.786 381.55,482.582C382.054,471.377 373.366,461.872 362.162,461.368L319.824,460.986C319.36,441.689 319.2,427.884 319.2,427.884C319.2,420.084 312.91,413.745 305.11,413.684C297.311,413.623 290.922,419.865 290.801,427.663L289.869,460.716Z"/>
                </g>
            </g>
            <g id="Uppercase">
            </g>
            <g id="Symbols">
            </g>
        </g>
    </g>
</svg>
