<?xml version="1.0" encoding="UTF-8" standalone="no"?>
<!DOCTYPE svg PUBLIC "-//W3C//DTD SVG 1.1//EN" "http://www.w3.org/Graphics/SVG/1.1/DTD/svg11.dtd">
<svg width="100%" height="100%" viewBox="0 0 200 220" version="1.1" xmlns="http://www.w3.org/2000/svg" xmlns:xlink="http://www.w3.org/1999/xlink" xml:space="preserve" xmlns:serif="http://www.serif.com/" style="fill-rule:evenodd;clip-rule:evenodd;stroke-linejoin:round;stroke-miterlimit:2;">
    <g transform="matrix(1,0,0,1,-1400,-660)">
        <g id="Glyphs">
            <g id="Numbers">
            </g>
            <g id="Lowercase">
                <g transform="matrix(0.545455,0,0,0.545455,1227.8,486.633)">
                    <path d="M425.174,476.667L429.977,565.345C429.977,574.794 436.583,582.957 445.825,584.927C445.825,584.927 478.301,590.123 506.3,595.49C527.647,599.583 546.336,603.853 546.336,603.853C551.523,604.959 556.932,603.663 561.054,600.327C565.177,596.99 567.573,591.97 567.573,586.667C567.573,586.667 568.063,566.05 569.52,542.667C571.437,511.901 574.826,476.667 574.826,476.667C574.826,462.965 563.702,451.84 550,451.84C536.298,451.84 525.174,462.965 525.174,476.667C525.174,476.667 528.563,511.901 530.48,542.667C530.975,550.615 531.359,558.244 531.649,564.852C526.173,563.653 520.042,562.275 513.7,560.785C498.708,557.263 482.543,553.162 470.847,550.136C470.847,550.136 474.826,476.667 474.826,476.667C474.826,462.965 463.702,451.84 450,451.84C436.298,451.84 425.174,462.965 425.174,476.667Z"/>
                </g>
            </g>
            <g id="Uppercase">
            </g>
            <g id="Symbols">
            </g>
        </g>
    </g>
</svg>
