<?xml version="1.0" encoding="UTF-8" standalone="no"?>
<!DOCTYPE svg PUBLIC "-//W3C//DTD SVG 1.1//EN" "http://www.w3.org/Graphics/SVG/1.1/DTD/svg11.dtd">
<svg width="100%" height="100%" viewBox="0 0 200 220" version="1.1" xmlns="http://www.w3.org/2000/svg" xmlns:xlink="http://www.w3.org/1999/xlink" xml:space="preserve" xmlns:serif="http://www.serif.com/" style="fill-rule:evenodd;clip-rule:evenodd;stroke-linejoin:round;stroke-miterlimit:2;">
    <g transform="matrix(1,0,0,1,-2000,-660)">
        <g id="Glyphs">
            <g id="Numbers">
            </g>
            <g id="Lowercase">
                <g transform="matrix(0.545455,0,0,0.545455,1497.79,486.633)">
                    <path d="M1030.65,492.221C1030.65,492.221 1044.34,504.827 1060.97,522.171C1070.22,531.81 1080.76,542.401 1089.49,553.571C1095.76,561.593 1100.83,569.875 1105.24,577.127C1114.13,591.734 1119.08,602.221 1119.08,602.221C1127.66,612.901 1143.3,614.601 1153.98,606.016C1164.66,597.431 1166.36,581.791 1157.78,571.112C1157.78,571.112 1148.6,564.025 1136.24,552.206C1130.11,546.339 1123.11,539.609 1116.62,531.763C1107.59,520.838 1099.51,508.262 1092.08,497.163C1078.72,477.191 1069.35,461.112 1069.35,461.112C1060.77,450.433 1045.12,448.732 1034.44,457.317C1023.77,465.902 1022.07,481.542 1030.65,492.221Z"/>
                    <path d="M1139.73,451.052C1139.73,451.052 1130.11,465.761 1116.43,483.927C1108.84,494.011 1100.57,505.462 1091.41,515.244C1084.83,522.273 1077.8,528.165 1071.63,533.306C1059.18,543.687 1050.04,549.716 1050.04,549.716C1040.82,559.855 1041.57,575.569 1051.71,584.786C1061.85,594.003 1077.56,593.255 1086.78,583.116C1086.78,583.116 1091.91,573.443 1101.06,560.061C1105.6,553.435 1110.79,545.875 1117.16,538.658C1126.03,528.614 1136.65,519.293 1145.96,510.777C1162.75,495.435 1176.47,484.453 1176.47,484.453C1185.69,474.314 1184.94,458.599 1174.8,449.382C1164.66,440.165 1148.95,440.914 1139.73,451.052Z"/>
                </g>
            </g>
            <g id="Uppercase">
            </g>
            <g id="Symbols">
            </g>
        </g>
    </g>
</svg>
