<?xml version="1.0" encoding="UTF-8" standalone="no"?>
<!DOCTYPE svg PUBLIC "-//W3C//DTD SVG 1.1//EN" "http://www.w3.org/Graphics/SVG/1.1/DTD/svg11.dtd">
<svg width="100%" height="100%" viewBox="0 0 200 220" version="1.1" xmlns="http://www.w3.org/2000/svg" xmlns:xlink="http://www.w3.org/1999/xlink" xml:space="preserve" xmlns:serif="http://www.serif.com/" style="fill-rule:evenodd;clip-rule:evenodd;stroke-linejoin:round;stroke-miterlimit:2;">
    <g transform="matrix(1,0,0,1,-2000,-660)">
        <g id="Glyphs">
            <g id="Numbers">
            </g>
            <g id="Lowercase">
                <g>
                    <path d="M2097.05,763.182C2095.82,761.353 2094.63,759.55 2093.47,757.813C2086.18,746.919 2081.07,738.149 2081.07,738.149C2076.39,732.324 2067.86,731.396 2062.03,736.079C2056.21,740.762 2055.28,749.293 2059.96,755.118C2059.96,755.118 2067.43,761.993 2076.5,771.454C2078.38,773.407 2080.35,775.432 2082.33,777.518L2082.32,777.527C2075.53,783.19 2070.54,786.479 2070.54,786.479C2065.51,792.009 2065.92,800.58 2071.45,805.608C2076.98,810.635 2085.55,810.227 2090.58,804.697C2090.58,804.697 2092.7,800.704 2096.53,794.861C2098.03,797.137 2099.39,799.36 2100.65,801.43C2105.5,809.397 2108.2,815.118 2108.2,815.118C2112.88,820.943 2121.41,821.87 2127.23,817.188C2133.06,812.505 2133.99,803.974 2129.3,798.149C2129.3,798.149 2124.3,794.284 2117.56,787.837C2114.77,785.173 2111.66,782.184 2108.66,778.788C2113.16,773.939 2118.3,769.412 2122.86,765.239C2132.01,756.871 2139.5,750.88 2139.5,750.88C2144.53,745.35 2144.12,736.779 2138.59,731.751C2133.06,726.724 2124.49,727.132 2119.46,732.662C2119.46,732.662 2114.21,740.685 2106.75,750.593C2103.73,754.607 2100.51,759.018 2097.05,763.182Z"/>
                </g>
            </g>
            <g id="Uppercase">
            </g>
            <g id="Symbols">
            </g>
        </g>
    </g>
</svg>
