<?xml version="1.0" encoding="UTF-8" standalone="no"?>
<!DOCTYPE svg PUBLIC "-//W3C//DTD SVG 1.1//EN" "http://www.w3.org/Graphics/SVG/1.1/DTD/svg11.dtd">
<svg width="100%" height="100%" viewBox="0 0 200 220" version="1.1" xmlns="http://www.w3.org/2000/svg" xmlns:xlink="http://www.w3.org/1999/xlink" xml:space="preserve" xmlns:serif="http://www.serif.com/" style="fill-rule:evenodd;clip-rule:evenodd;stroke-linejoin:round;stroke-miterlimit:2;">
    <g transform="matrix(1,0,0,1,-2200,-660)">
        <g id="Glyphs">
            <g id="Numbers">
            </g>
            <g id="Lowercase">
                <g>
                    <path d="M2288.77,784.602C2286.78,787.025 2284.35,789.866 2281.69,792.735C2272.33,802.821 2260.53,813.186 2260.53,813.186C2255.84,818.998 2256.74,827.532 2262.55,832.23C2268.37,836.927 2276.9,836.022 2281.6,830.209C2281.6,830.209 2289.26,816.499 2297.15,805.234C2303.1,796.762 2309.18,789.924 2309.18,789.924C2309.08,790.05 2343.17,755.321 2343.17,755.321C2347.96,749.589 2347.2,741.041 2341.47,736.246C2335.74,731.451 2327.19,732.212 2322.39,737.945L2302.02,766.665C2298,760.292 2292.81,752.314 2288.04,745.806C2282.64,738.434 2277.7,733.194 2277.7,733.194C2272.96,727.41 2264.43,726.558 2258.64,731.292C2252.86,736.026 2252.01,744.565 2256.74,750.349C2256.74,750.349 2260.9,756.232 2267.06,762.98C2273.95,770.523 2283.01,779.21 2288.77,784.602Z"/>
                </g>
            </g>
            <g id="Uppercase">
            </g>
            <g id="Symbols">
            </g>
        </g>
    </g>
</svg>
