<?xml version="1.0" encoding="UTF-8" standalone="no"?>
<!DOCTYPE svg PUBLIC "-//W3C//DTD SVG 1.1//EN" "http://www.w3.org/Graphics/SVG/1.1/DTD/svg11.dtd">
<svg width="100%" height="100%" viewBox="0 0 200 220" version="1.1" xmlns="http://www.w3.org/2000/svg" xmlns:xlink="http://www.w3.org/1999/xlink" xml:space="preserve" xmlns:serif="http://www.serif.com/" style="fill-rule:evenodd;clip-rule:evenodd;stroke-linejoin:round;stroke-miterlimit:2;">
    <g transform="matrix(1,0,0,1,-2200,-660)">
        <g id="Glyphs">
            <g id="Numbers">
            </g>
            <g id="Lowercase">
                <g transform="matrix(-0.622464,0,0,0.622464,3110.86,441.488)">
                    <path d="M1266.69,476.264L1311.92,540.028C1311.98,540.095 1312.03,540.162 1312.09,540.23C1312.09,540.23 1320.78,552.098 1332.08,564.285C1347.11,580.489 1366.07,597.139 1366.07,597.139C1373.61,606.478 1372.16,620.187 1362.82,627.734C1353.48,635.281 1339.77,633.826 1332.23,624.488C1332.23,624.488 1319.92,602.462 1307.24,584.365C1297.69,570.754 1287.91,559.77 1287.91,559.77C1288.08,559.972 1233.31,504.18 1233.31,504.18C1225.61,494.97 1226.83,481.238 1236.04,473.535C1245.25,465.831 1258.98,467.055 1266.69,476.264Z"/>
                    <g transform="matrix(-1,0,0,-1,2640.7,1000.54)">
                        <path d="M1268.54,504.346C1268.54,504.346 1275.22,494.893 1285.12,484.054C1302.67,464.826 1329.02,440.977 1329.02,440.977C1334.3,434.531 1343.81,433.582 1350.26,438.858C1356.7,444.134 1357.65,453.651 1352.38,460.096C1352.38,460.096 1334.2,490.636 1318.82,511.644C1310.15,523.487 1302.21,531.906 1302.21,531.906C1294.6,541.197 1280.88,542.565 1271.59,534.96C1262.3,527.355 1260.93,513.637 1268.54,504.346Z"/>
                    </g>
                </g>
            </g>
            <g id="Uppercase">
            </g>
            <g id="Symbols">
            </g>
        </g>
    </g>
</svg>
