<?xml version="1.0" encoding="UTF-8" standalone="no"?>
<!DOCTYPE svg PUBLIC "-//W3C//DTD SVG 1.1//EN" "http://www.w3.org/Graphics/SVG/1.1/DTD/svg11.dtd">
<svg width="100%" height="100%" viewBox="0 0 200 220" version="1.1" xmlns="http://www.w3.org/2000/svg" xmlns:xlink="http://www.w3.org/1999/xlink" xml:space="preserve" xmlns:serif="http://www.serif.com/" style="fill-rule:evenodd;clip-rule:evenodd;stroke-linejoin:round;stroke-miterlimit:2;">
    <g transform="matrix(1,0,0,1,-2400,-660)">
        <g id="Glyphs">
            <g id="Numbers">
            </g>
            <g id="Lowercase">
                <g transform="matrix(0.636364,0,0,0.636364,1543.11,429.425)">
                    <path d="M1483.58,510.047L1506.83,504.841C1499.16,514.974 1490.76,525.936 1482.61,536.275C1463.12,560.999 1444.98,582.027 1444.98,582.027C1440.93,587.039 1440.37,594.024 1443.57,599.618C1446.78,605.211 1453.08,608.267 1459.45,607.314L1553.15,599.016C1564.76,597.28 1572.78,586.44 1571.05,574.824C1569.31,563.209 1558.47,555.188 1546.85,556.925L1495.99,567.684C1499.22,563.686 1502.63,559.515 1506.13,555.281C1532.46,523.49 1564.24,487.998 1564.24,487.998C1568.97,482.149 1569.57,473.982 1565.74,467.505C1561.92,461.028 1554.48,457.603 1547.08,458.911L1476.18,468.137C1464.61,470.18 1456.88,481.229 1458.92,492.794C1460.97,504.36 1472.02,512.091 1483.58,510.047Z"/>
                </g>
            </g>
            <g id="Uppercase">
            </g>
            <g id="Symbols">
            </g>
        </g>
    </g>
</svg>
