<?xml version="1.0" encoding="UTF-8" standalone="no"?>
<!DOCTYPE svg PUBLIC "-//W3C//DTD SVG 1.1//EN" "http://www.w3.org/Graphics/SVG/1.1/DTD/svg11.dtd">
<svg width="100%" height="100%" viewBox="0 0 200 220" version="1.1" xmlns="http://www.w3.org/2000/svg" xmlns:xlink="http://www.w3.org/1999/xlink" xml:space="preserve" xmlns:serif="http://www.serif.com/" style="fill-rule:evenodd;clip-rule:evenodd;stroke-linejoin:round;stroke-miterlimit:2;">
    <g transform="matrix(1,0,0,1,0,-1320)">
        <g id="Glyphs">
            <g id="Numbers">
                <g transform="matrix(1,0,0,1,-6.56237,0)">
                    <path d="M155.322,1355.86C154.894,1349.28 149.437,1344.17 142.848,1344.17L68.106,1345.86C62.347,1345.86 57.6,1350.38 57.313,1356.13L54.085,1456.1C53.847,1460.87 57.343,1464.99 62.078,1465.55C62.078,1465.55 83.837,1467.72 105.552,1470.29C127.269,1472.86 148.936,1475.81 148.936,1475.81C151.649,1476.13 154.362,1475.22 156.342,1473.34C158.321,1471.46 159.364,1468.8 159.186,1466.07L155.322,1355.86ZM131.461,1368.91L139.78,1456.4C131.437,1455.55 119.499,1454.3 107.572,1452.93C94.293,1451.41 81.03,1449.74 72.727,1448.68C72.727,1448.68 78.19,1367.7 78.19,1367.7L131.461,1368.91Z"/>
                </g>
            </g>
            <g id="Lowercase">
            </g>
            <g id="Uppercase">
            </g>
            <g id="Symbols">
            </g>
        </g>
    </g>
</svg>
