<?xml version="1.0" encoding="UTF-8" standalone="no"?>
<!DOCTYPE svg PUBLIC "-//W3C//DTD SVG 1.1//EN" "http://www.w3.org/Graphics/SVG/1.1/DTD/svg11.dtd">
<svg width="100%" height="100%" viewBox="0 0 200 220" version="1.1" xmlns="http://www.w3.org/2000/svg" xmlns:xlink="http://www.w3.org/1999/xlink" xml:space="preserve" xmlns:serif="http://www.serif.com/" style="fill-rule:evenodd;clip-rule:evenodd;stroke-linejoin:round;stroke-miterlimit:2;">
    <g transform="matrix(1,0,0,1,0,-880)">
        <g id="Glyphs">
            <g id="Numbers">
                <g transform="matrix(1,0,0,1,-1600.18,0)">
                    <path d="M1671.58,948.188L1689.85,936.421C1690.01,940.456 1690.16,944.929 1690.27,949.667C1690.44,956.623 1690.57,964.147 1690.42,971.667C1690.26,979.203 1689.83,986.708 1689.36,993.667C1688.09,1012.25 1686.46,1026.67 1686.46,1026.67C1686.46,1034.14 1692.53,1040.21 1700,1040.21C1707.47,1040.21 1713.54,1034.14 1713.54,1026.67C1713.54,1026.67 1711.91,1012.25 1710.64,993.667C1710.17,986.708 1709.74,979.203 1709.58,971.667C1709.43,964.147 1709.56,956.623 1709.73,949.667C1710.18,931.154 1711.13,916.667 1711.13,916.667C1711.13,912.712 1709.04,909.054 1705.62,907.057C1702.21,905.06 1697.99,905.024 1694.54,906.963L1658.3,924.583C1651.79,928.247 1649.48,936.51 1653.14,943.024C1656.8,949.538 1665.07,951.852 1671.58,948.188Z"/>
                </g>
            </g>
            <g id="Lowercase">
            </g>
            <g id="Uppercase">
            </g>
            <g id="Symbols">
            </g>
        </g>
    </g>
</svg>
