<?xml version="1.0" encoding="UTF-8" standalone="no"?>
<!DOCTYPE svg PUBLIC "-//W3C//DTD SVG 1.1//EN" "http://www.w3.org/Graphics/SVG/1.1/DTD/svg11.dtd">
<svg width="100%" height="100%" viewBox="0 0 200 220" version="1.1" xmlns="http://www.w3.org/2000/svg" xmlns:xlink="http://www.w3.org/1999/xlink" xml:space="preserve" xmlns:serif="http://www.serif.com/" style="fill-rule:evenodd;clip-rule:evenodd;stroke-linejoin:round;stroke-miterlimit:2;">
    <g transform="matrix(1,0,0,1,-200,-880)">
        <g id="Glyphs">
            <g id="Numbers">
                <g transform="matrix(1,0,0,1,-1614.49,-3.41061e-13)">
                    <path d="M1878.84,930.185L1938.97,931.826C1938.97,931.826 1939.36,947.208 1939.36,947.208C1931.35,951.575 1916.41,959.68 1902.8,966.824C1887.7,974.753 1874.24,981.458 1874.24,981.458C1870.54,983.359 1868.48,987.425 1869.14,991.531L1874.12,1028.35C1874.95,1033.46 1879.37,1037.22 1884.55,1037.22L1950,1040.21C1957.47,1040.21 1963.54,1034.14 1963.54,1026.67C1963.54,1019.19 1957.47,1013.12 1950,1013.12L1893.22,1015.72C1893.22,1015.72 1889.37,995.206 1889.37,995.206C1894.69,992.432 1902.8,988.239 1911.55,983.843C1931.52,973.808 1954.79,962.656 1954.79,962.656C1958.28,960.861 1960.48,957.262 1960.48,953.333L1961.31,920.814C1961.31,914.824 1956.64,909.873 1950.67,909.52L1880.43,903.148C1872.97,902.709 1866.56,908.409 1866.12,915.87C1865.68,923.331 1871.38,929.745 1878.84,930.185Z"/>
                </g>
            </g>
            <g id="Lowercase">
            </g>
            <g id="Uppercase">
            </g>
            <g id="Symbols">
            </g>
        </g>
    </g>
</svg>
