<?xml version="1.0" encoding="UTF-8" standalone="no"?>
<!DOCTYPE svg PUBLIC "-//W3C//DTD SVG 1.1//EN" "http://www.w3.org/Graphics/SVG/1.1/DTD/svg11.dtd">
<svg width="100%" height="100%" viewBox="0 0 200 220" version="1.1" xmlns="http://www.w3.org/2000/svg" xmlns:xlink="http://www.w3.org/1999/xlink" xml:space="preserve" xmlns:serif="http://www.serif.com/" style="fill-rule:evenodd;clip-rule:evenodd;stroke-linejoin:round;stroke-miterlimit:2;">
    <g transform="matrix(1,0,0,1,-200,-880)">
        <g id="Glyphs">
            <g id="Numbers">
                <g transform="matrix(1,0,0,1,-1614.49,-3.41061e-13)">
                    <path d="M1880.49,946.97L1939.03,941.404C1939.03,941.404 1939.37,954.735 1939.37,954.735C1931.16,958.245 1916.76,964.356 1903.63,969.731C1888.51,975.918 1875.07,981.091 1875.07,981.091C1870.9,982.755 1868.44,987.093 1869.15,991.53L1874.15,1028.35C1874.98,1033.45 1879.38,1037.2 1884.55,1037.2L1950,1040.21C1957.47,1040.21 1963.54,1034.14 1963.54,1026.67C1963.54,1019.19 1957.47,1013.12 1950,1013.12L1893.21,1015.74C1893.21,1015.74 1889.49,995.927 1889.49,995.927C1894.8,993.777 1902.48,990.703 1910.72,987.507C1930.67,979.765 1953.87,971.255 1953.87,971.255C1957.84,969.671 1960.45,965.825 1960.45,961.547L1961.29,929.028C1961.29,925.911 1960,922.933 1957.73,920.799C1955.45,918.665 1952.4,917.566 1949.29,917.762L1878.78,919.94C1871.33,920.41 1865.65,926.847 1866.12,934.306C1866.59,941.765 1873.03,947.44 1880.49,946.97Z"/>
                </g>
            </g>
            <g id="Lowercase">
            </g>
            <g id="Uppercase">
            </g>
            <g id="Symbols">
            </g>
        </g>
    </g>
</svg>
