<?xml version="1.0" encoding="UTF-8" standalone="no"?>
<!DOCTYPE svg PUBLIC "-//W3C//DTD SVG 1.1//EN" "http://www.w3.org/Graphics/SVG/1.1/DTD/svg11.dtd">
<svg width="100%" height="100%" viewBox="0 0 200 220" version="1.1" xmlns="http://www.w3.org/2000/svg" xmlns:xlink="http://www.w3.org/1999/xlink" xml:space="preserve" xmlns:serif="http://www.serif.com/" style="fill-rule:evenodd;clip-rule:evenodd;stroke-linejoin:round;stroke-miterlimit:2;">
    <g transform="matrix(1,0,0,1,-400,-880)">
        <g id="Glyphs">
            <g transform="matrix(1,0,0,1,-1610.39,0)">
                <g id="Numbers">
                    <g>
                        <path d="M2068.7,930.099L2139.48,936.734C2139.82,948.387 2140.34,968.487 2140.45,986.741C2140.52,998.175 2140.41,1008.88 2140.3,1016.32C2140.3,1016.32 2070.42,1013.12 2070.42,1013.12C2062.95,1013.12 2056.88,1019.19 2056.88,1026.67C2056.88,1034.14 2062.95,1040.21 2070.42,1040.21L2150,1036.57C2155.47,1036.57 2159.9,1032.14 2159.9,1026.67C2159.9,1026.67 2159.41,1007.96 2159.55,986.741C2159.72,958.938 2160.82,926.853 2160.82,926.853C2160.82,921.406 2156.78,916.807 2151.37,916.115L2072.14,903.235C2064.73,902.286 2057.94,907.534 2056.99,914.947C2056.04,922.361 2061.29,929.15 2068.7,930.099Z"/>
                        <path d="M2084.59,985.208C2084.59,985.208 2093.24,985.717 2104.22,985.223C2123.62,984.35 2150,981.061 2150,981.061C2155.18,981.061 2159.39,976.852 2159.39,971.667C2159.39,966.482 2155.18,962.272 2150,962.272C2150,962.272 2123.62,958.983 2104.22,958.11C2093.24,957.616 2084.59,958.125 2084.59,958.125C2077.12,958.125 2071.05,964.193 2071.05,971.667C2071.05,979.141 2077.12,985.208 2084.59,985.208Z"/>
                    </g>
                </g>
            </g>
            <g id="Lowercase">
            </g>
            <g id="Uppercase">
            </g>
            <g id="Symbols">
            </g>
        </g>
    </g>
</svg>
