<?xml version="1.0" encoding="UTF-8" standalone="no"?>
<!DOCTYPE svg PUBLIC "-//W3C//DTD SVG 1.1//EN" "http://www.w3.org/Graphics/SVG/1.1/DTD/svg11.dtd">
<svg width="100%" height="100%" viewBox="0 0 200 220" version="1.1" xmlns="http://www.w3.org/2000/svg" xmlns:xlink="http://www.w3.org/1999/xlink" xml:space="preserve" xmlns:serif="http://www.serif.com/" style="fill-rule:evenodd;clip-rule:evenodd;stroke-linejoin:round;stroke-miterlimit:2;">
    <g transform="matrix(1,0,0,1,-400,-880)">
        <g id="Glyphs">
            <g id="Numbers">
                <g>
                    <path d="M529.696,961.126C520.242,960.089 505.723,958.645 493.825,958.11C482.845,957.616 474.203,958.125 474.203,958.125C466.729,958.125 460.661,964.193 460.661,971.667C460.661,979.141 466.729,985.208 474.203,985.208C474.203,985.208 482.845,985.717 493.825,985.223C505.861,984.682 520.578,983.211 530.024,982.172C530.039,983.705 530.051,985.229 530.061,986.741C530.134,998.177 530.027,1008.88 529.913,1016.33C529.913,1016.33 460.032,1013.12 460.032,1013.12C452.558,1013.12 446.49,1019.19 446.49,1026.67C446.49,1034.14 452.558,1040.21 460.032,1040.21L539.61,1036.56C545.076,1036.56 549.508,1032.13 549.508,1026.67C549.508,1026.67 549.024,1007.96 549.159,986.741C549.337,958.938 550.447,926.853 550.447,926.853C550.447,923.928 549.264,921.127 547.167,919.086C545.071,917.046 542.238,915.941 539.314,916.021L459.662,915.491C452.191,915.695 446.291,921.927 446.495,929.398C446.699,936.869 452.931,942.768 460.402,942.564L529.131,938.347C529.306,944.424 529.517,952.422 529.696,961.126Z"/>
                </g>
            </g>
            <g id="Lowercase">
            </g>
            <g id="Uppercase">
            </g>
            <g id="Symbols">
            </g>
        </g>
    </g>
</svg>
