<?xml version="1.0" encoding="UTF-8" standalone="no"?>
<!DOCTYPE svg PUBLIC "-//W3C//DTD SVG 1.1//EN" "http://www.w3.org/Graphics/SVG/1.1/DTD/svg11.dtd">
<svg width="100%" height="100%" viewBox="0 0 200 220" version="1.1" xmlns="http://www.w3.org/2000/svg" xmlns:xlink="http://www.w3.org/1999/xlink" xml:space="preserve" xmlns:serif="http://www.serif.com/" style="fill-rule:evenodd;clip-rule:evenodd;stroke-linejoin:round;stroke-miterlimit:2;">
    <g transform="matrix(1,0,0,1,-600,-880)">
        <g id="Glyphs">
            <g id="Numbers">
                <g transform="matrix(1,0,0,1,-1611.49,2.27374e-13)">
                    <path d="M2337.76,1000.13C2337.05,1015.43 2336.46,1026.67 2336.46,1026.67C2336.46,1034.14 2342.53,1040.21 2350,1040.21C2357.47,1040.21 2363.54,1034.14 2363.54,1026.67C2363.54,1026.67 2363.02,1016.93 2362.38,1003.23C2366.26,1001.53 2369.29,998.049 2370.22,993.591C2371.64,986.804 2367.7,980.134 2361.28,977.99C2361.04,972.224 2360.82,966.365 2360.62,960.667C2359.83,937.284 2359.57,916.667 2359.57,916.667C2359.57,913.102 2357.59,909.833 2354.43,908.182C2351.28,906.532 2347.46,906.773 2344.53,908.808C2344.53,908.808 2329.54,919.401 2312.31,931.09C2289.74,946.406 2263.38,963.656 2263.38,963.656C2259.81,966.138 2258.06,970.505 2258.93,974.764C2259.8,979.023 2263.12,982.358 2267.37,983.246L2337.76,1000.13ZM2338.89,973.862C2339.07,969.446 2339.23,965.009 2339.38,960.667C2339.7,951.359 2339.93,942.489 2340.09,935.183C2335.13,938.647 2329.36,942.708 2323.37,946.983C2314.3,953.444 2304.72,960.383 2296.55,966.334L2338.89,973.862Z"/>
                </g>
            </g>
            <g id="Lowercase">
            </g>
            <g id="Uppercase">
            </g>
            <g id="Symbols">
            </g>
        </g>
    </g>
</svg>
