<?xml version="1.0" encoding="UTF-8" standalone="no"?>
<!DOCTYPE svg PUBLIC "-//W3C//DTD SVG 1.1//EN" "http://www.w3.org/Graphics/SVG/1.1/DTD/svg11.dtd">
<svg width="100%" height="100%" viewBox="0 0 200 220" version="1.1" xmlns="http://www.w3.org/2000/svg" xmlns:xlink="http://www.w3.org/1999/xlink" xml:space="preserve" xmlns:serif="http://www.serif.com/" style="fill-rule:evenodd;clip-rule:evenodd;stroke-linejoin:round;stroke-miterlimit:2;">
    <g transform="matrix(1,0,0,1,-800,-880)">
        <g id="Glyphs">
            <g id="Numbers">
                <g transform="matrix(1,0,0,1,-1594.24,2.27374e-13)">
                    <path d="M2536.25,903.256L2448.45,917.995C2442.95,918.767 2438.86,923.473 2438.86,929.028L2439.55,961.628C2439.55,966.889 2443.46,971.33 2448.68,971.996L2518.82,980.094C2518.82,980.094 2517.45,1015.75 2517.45,1015.75C2517.45,1015.75 2450,1013.12 2450,1013.12C2442.53,1013.12 2436.46,1019.19 2436.46,1026.67C2436.46,1034.14 2442.53,1040.21 2450,1040.21L2527.55,1037.19C2533.28,1037.19 2537.96,1032.61 2538.07,1026.88L2538.15,971.857C2538.25,967.004 2534.67,962.858 2529.86,962.244L2460.64,952.564C2460.64,952.564 2460.93,939.001 2460.93,939.001C2460.93,939.001 2540.01,930.077 2540.01,930.077C2547.41,929.039 2552.58,922.187 2551.54,914.786C2550.5,907.384 2543.65,902.218 2536.25,903.256Z"/>
                </g>
            </g>
            <g id="Lowercase">
            </g>
            <g id="Uppercase">
            </g>
            <g id="Symbols">
            </g>
        </g>
    </g>
</svg>
