<?xml version="1.0" encoding="UTF-8" standalone="no"?>
<!DOCTYPE svg PUBLIC "-//W3C//DTD SVG 1.1//EN" "http://www.w3.org/Graphics/SVG/1.1/DTD/svg11.dtd">
<svg width="100%" height="100%" viewBox="0 0 200 220" version="1.1" xmlns="http://www.w3.org/2000/svg" xmlns:xlink="http://www.w3.org/1999/xlink" xml:space="preserve" xmlns:serif="http://www.serif.com/" style="fill-rule:evenodd;clip-rule:evenodd;stroke-linejoin:round;stroke-miterlimit:2;">
    <g transform="matrix(1,0,0,1,-800,-880)">
        <g id="Glyphs">
            <g id="Numbers">
                <g transform="matrix(1,0,0,1,-1594.24,2.27374e-13)">
                    <path d="M2538.13,903.125L2450,905.429C2443.79,905.429 2438.76,910.46 2438.76,916.667L2439.69,961.628C2439.69,966.817 2443.55,971.198 2448.7,971.855L2518.78,980.105C2518.78,980.105 2517.38,1015.69 2517.38,1015.69C2517.38,1015.69 2450,1013.12 2450,1013.12C2442.53,1013.12 2436.46,1019.19 2436.46,1026.67C2436.46,1034.14 2442.53,1040.21 2450,1040.21L2527.55,1037.26C2533.32,1037.26 2538.03,1032.65 2538.14,1026.88L2538.19,971.858C2538.28,966.987 2534.7,962.825 2529.86,962.209L2460.49,952.665C2460.49,952.665 2461,928.192 2461,928.192C2461,928.192 2538.13,930.208 2538.13,930.208C2545.6,930.208 2551.67,924.141 2551.67,916.667C2551.67,909.193 2545.6,903.125 2538.13,903.125Z"/>
                </g>
            </g>
            <g id="Lowercase">
            </g>
            <g id="Uppercase">
            </g>
            <g id="Symbols">
            </g>
        </g>
    </g>
</svg>
