<?xml version="1.0" encoding="UTF-8" standalone="no"?>
<!DOCTYPE svg PUBLIC "-//W3C//DTD SVG 1.1//EN" "http://www.w3.org/Graphics/SVG/1.1/DTD/svg11.dtd">
<svg width="100%" height="100%" viewBox="0 0 200 220" version="1.1" xmlns="http://www.w3.org/2000/svg" xmlns:xlink="http://www.w3.org/1999/xlink" xml:space="preserve" xmlns:serif="http://www.serif.com/" style="fill-rule:evenodd;clip-rule:evenodd;stroke-linejoin:round;stroke-miterlimit:2;">
    <g transform="matrix(1,0,0,1,-1000,-880)">
        <g id="Glyphs">
            <g id="Numbers">
                <g transform="matrix(1,0,0,1,1010.91,-220)">
                    <path d="M64.854,1203.37L84.283,1161C84.283,1161 120.333,1149.44 120.333,1149.44C127.381,1146.95 131.087,1139.21 128.603,1132.16C126.119,1125.12 118.379,1121.41 111.33,1123.89L71.254,1139.31C68.006,1140.46 65.385,1142.91 64.027,1146.08L40.13,1205.76C39.556,1207.1 39.26,1208.54 39.26,1210L39.999,1246.67C39.999,1252.19 44.476,1256.67 50,1256.67C50,1256.67 75.136,1256.19 96.906,1256.16C113.524,1256.13 128.176,1256.39 128.176,1256.39C133.545,1256.39 137.897,1252.04 137.897,1246.67L138.783,1210C138.783,1207 137.511,1204.14 135.283,1202.13C133.055,1200.12 130.079,1199.14 127.093,1199.45L64.854,1203.37ZM60.329,1230.38L60.199,1236.83C69.528,1236.97 83.824,1237.15 96.906,1237.18C104.953,1237.19 112.538,1237.14 118.223,1237.08C118.223,1237.08 117.863,1222.18 117.863,1222.18L60.329,1230.38Z"/>
                </g>
            </g>
            <g id="Lowercase">
            </g>
            <g id="Uppercase">
            </g>
            <g id="Symbols">
            </g>
        </g>
    </g>
</svg>
