<?xml version="1.0" encoding="UTF-8" standalone="no"?>
<!DOCTYPE svg PUBLIC "-//W3C//DTD SVG 1.1//EN" "http://www.w3.org/Graphics/SVG/1.1/DTD/svg11.dtd">
<svg width="100%" height="100%" viewBox="0 0 200 220" version="1.1" xmlns="http://www.w3.org/2000/svg" xmlns:xlink="http://www.w3.org/1999/xlink" xml:space="preserve" xmlns:serif="http://www.serif.com/" style="fill-rule:evenodd;clip-rule:evenodd;stroke-linejoin:round;stroke-miterlimit:2;">
    <g transform="matrix(1,0,0,1,-1000,-880)">
        <g id="Glyphs">
            <g id="Numbers">
                <g transform="matrix(1,0,0,1,1010.91,-220)">
                    <path d="M64.822,1203.37L84.27,1160.99C84.27,1160.99 120.333,1149.44 120.333,1149.44C127.381,1146.95 131.087,1139.21 128.603,1132.16C126.119,1125.12 118.379,1121.41 111.33,1123.89L71.259,1139.33C68.014,1140.47 65.397,1142.92 64.04,1146.08L40.156,1205.78C39.584,1207.11 39.288,1208.55 39.288,1210L39.946,1242.23C39.946,1247.56 44.107,1251.96 49.43,1252.26L127.626,1256.34C130.288,1256.49 132.894,1255.54 134.832,1253.71C136.77,1251.88 137.868,1249.33 137.868,1246.67L138.755,1210C138.755,1207.01 137.487,1204.15 135.265,1202.15C133.042,1200.14 130.074,1199.17 127.096,1199.48L64.822,1203.37ZM60.296,1230.38L60.247,1232.78C60.247,1232.78 118.234,1236.35 118.234,1236.35C118.234,1236.35 117.891,1222.15 117.891,1222.15L60.296,1230.38Z"/>
                </g>
            </g>
            <g id="Lowercase">
            </g>
            <g id="Uppercase">
            </g>
            <g id="Symbols">
            </g>
        </g>
    </g>
</svg>
