<?xml version="1.0" encoding="UTF-8" standalone="no"?>
<!DOCTYPE svg PUBLIC "-//W3C//DTD SVG 1.1//EN" "http://www.w3.org/Graphics/SVG/1.1/DTD/svg11.dtd">
<svg width="100%" height="100%" viewBox="0 0 200 220" version="1.1" xmlns="http://www.w3.org/2000/svg" xmlns:xlink="http://www.w3.org/1999/xlink" xml:space="preserve" xmlns:serif="http://www.serif.com/" style="fill-rule:evenodd;clip-rule:evenodd;stroke-linejoin:round;stroke-miterlimit:2;">
    <g transform="matrix(1,0,0,1,-1200,-880)">
        <g id="Glyphs">
            <g id="Numbers">
                <g transform="matrix(1,0,0,1,999.362,-220)">
                    <path d="M251.661,1162.47L330.056,1149.95C325.424,1157.3 319.729,1166.2 313.6,1175.43C307.861,1184.08 301.609,1192.92 295.705,1201.23C280.853,1222.13 267.982,1239.35 267.982,1239.35C263.945,1245.64 265.773,1254.02 272.062,1258.06C278.351,1262.1 286.735,1260.27 290.773,1253.98C290.773,1253.98 301.069,1235.11 313.898,1212.91C318.997,1204.08 324.427,1194.72 329.902,1185.9C344.56,1162.29 358.396,1142.06 358.396,1142.06C360.487,1138.8 360.506,1134.63 358.446,1131.35C356.385,1128.08 352.616,1126.29 348.776,1126.76L248.339,1135.59C240.921,1136.51 235.644,1143.27 236.561,1150.69C237.477,1158.11 244.244,1163.38 251.661,1162.47Z"/>
                </g>
            </g>
            <g id="Lowercase">
            </g>
            <g id="Uppercase">
            </g>
            <g id="Symbols">
            </g>
        </g>
    </g>
</svg>
