<?xml version="1.0" encoding="UTF-8" standalone="no"?>
<!DOCTYPE svg PUBLIC "-//W3C//DTD SVG 1.1//EN" "http://www.w3.org/Graphics/SVG/1.1/DTD/svg11.dtd">
<svg width="100%" height="100%" viewBox="0 0 200 220" version="1.1" xmlns="http://www.w3.org/2000/svg" xmlns:xlink="http://www.w3.org/1999/xlink" xml:space="preserve" xmlns:serif="http://www.serif.com/" style="fill-rule:evenodd;clip-rule:evenodd;stroke-linejoin:round;stroke-miterlimit:2;">
    <g transform="matrix(1,0,0,1,-1200,-880)">
        <g id="Glyphs">
            <g id="Numbers">
                <g transform="matrix(1,0,0,1,999.362,-220)">
                    <path d="M248.588,1150.13L332.051,1155.82C327.115,1162.9 320.723,1171.91 313.798,1181.31C308.048,1189.11 301.816,1197.06 295.93,1204.54C281.121,1223.37 268.334,1238.83 268.334,1238.83C264.009,1244.92 265.446,1253.38 271.541,1257.71C277.636,1262.04 286.096,1260.6 290.421,1254.5C290.421,1254.5 300.796,1237.33 313.673,1217.14C318.791,1209.11 324.237,1200.6 329.704,1192.6C344.336,1171.18 358.059,1152.87 358.059,1152.87C360.091,1150 360.45,1146.28 359.004,1143.08C357.558,1139.88 354.522,1137.69 351.03,1137.32L251.412,1123.2C243.978,1122.42 237.311,1127.82 236.532,1135.26C235.753,1142.69 241.155,1149.36 248.588,1150.13Z"/>
                </g>
            </g>
            <g id="Lowercase">
            </g>
            <g id="Uppercase">
            </g>
            <g id="Symbols">
            </g>
        </g>
    </g>
</svg>
