<?xml version="1.0" encoding="UTF-8" standalone="no"?>
<!DOCTYPE svg PUBLIC "-//W3C//DTD SVG 1.1//EN" "http://www.w3.org/Graphics/SVG/1.1/DTD/svg11.dtd">
<svg width="100%" height="100%" viewBox="0 0 200 220" version="1.1" xmlns="http://www.w3.org/2000/svg" xmlns:xlink="http://www.w3.org/1999/xlink" xml:space="preserve" xmlns:serif="http://www.serif.com/" style="fill-rule:evenodd;clip-rule:evenodd;stroke-linejoin:round;stroke-miterlimit:2;">
    <g transform="matrix(1,0,0,1,-1400,-880)">
        <g id="Glyphs">
            <g id="Numbers">
                <g transform="matrix(-6.12323e-17,1,1,6.12323e-17,308.333,471.667)">
                    <path d="M492.402,1173.94L531.046,1127.78C533.765,1124.65 537.766,1122.94 541.906,1123.14C546.046,1123.34 549.868,1125.42 552.279,1128.79L565.406,1148.41C567.101,1150.78 567.937,1153.65 567.777,1156.56L560.465,1247.24C560.236,1251.39 557.575,1255.02 553.682,1256.48C549.788,1257.94 545.4,1256.96 542.496,1253.98C542.496,1253.98 525.593,1235.74 506.046,1215.39C503.062,1212.29 500.018,1209.13 496.964,1205.98L458.278,1248.86C455.972,1251.52 452.534,1252.9 449.032,1252.59C445.53,1252.28 442.389,1250.31 440.586,1247.3L426.907,1223.68C425.346,1221.06 424.983,1217.91 425.914,1215.01L448.105,1148.7C449.147,1145.45 451.815,1142.99 455.134,1142.21C458.453,1141.43 461.939,1142.44 464.32,1144.88C464.32,1144.88 476.656,1157.75 492.402,1173.94ZM509.802,1191.75L540.408,1157.83L542.08,1160.02C542.08,1160.02 540.237,1222.35 540.237,1222.35C534.25,1216.41 527.186,1209.36 519.843,1201.94C516.532,1198.6 513.163,1195.18 509.802,1191.75ZM480.092,1188.64L451.352,1222.97C451.352,1222.97 447.528,1216.77 447.528,1216.77C447.528,1216.77 461.875,1170.07 461.874,1170.07C466.902,1175.18 473.222,1181.61 480.092,1188.64Z"/>
                </g>
            </g>
            <g id="Lowercase">
            </g>
            <g id="Uppercase">
            </g>
            <g id="Symbols">
            </g>
        </g>
    </g>
</svg>
