<?xml version="1.0" encoding="UTF-8" standalone="no"?>
<!DOCTYPE svg PUBLIC "-//W3C//DTD SVG 1.1//EN" "http://www.w3.org/Graphics/SVG/1.1/DTD/svg11.dtd">
<svg width="100%" height="100%" viewBox="0 0 200 220" version="1.1" xmlns="http://www.w3.org/2000/svg" xmlns:xlink="http://www.w3.org/1999/xlink" xml:space="preserve" xmlns:serif="http://www.serif.com/" style="fill-rule:evenodd;clip-rule:evenodd;stroke-linejoin:round;stroke-miterlimit:2;">
    <g transform="matrix(1,0,0,1,-1400,-880)">
        <g id="Glyphs">
            <g id="Numbers">
                <g transform="matrix(6.12323e-17,1,-1,6.12323e-17,2691.67,471.667)">
                    <path d="M495.263,1207.88C519.442,1231.22 542.771,1254.28 542.771,1254.28C545.737,1257.1 550.071,1257.93 553.874,1256.42C557.677,1254.91 560.256,1251.33 560.481,1247.24L567.781,1156.56C567.941,1153.65 567.105,1150.78 565.41,1148.41L552.279,1128.79C549.868,1125.42 546.046,1123.34 541.906,1123.14C537.766,1122.94 533.765,1124.65 531.046,1127.78L490.085,1176.7C471.606,1159.17 456.717,1144.6 456.717,1144.6C454.154,1142.17 450.475,1141.31 447.101,1142.36C443.726,1143.41 441.184,1146.2 440.457,1149.66L425.618,1216.06C425.069,1218.67 425.524,1221.39 426.894,1223.68L440.574,1247.3C442.38,1250.32 445.525,1252.3 449.031,1252.61C452.537,1252.92 455.979,1251.53 458.288,1248.87L495.263,1207.88ZM508.095,1193.65C519.678,1204.48 531.213,1215.15 540.192,1223.42C540.192,1223.42 542.074,1160.02 542.074,1160.02L540.407,1157.83L508.095,1193.65ZM477.909,1191.24C469.75,1183.47 462.159,1176.33 456.178,1170.74C456.178,1170.74 447.206,1216.22 447.206,1216.22C447.206,1216.22 451.356,1222.95 451.356,1222.95L477.909,1191.24Z"/>
                </g>
            </g>
            <g id="Lowercase">
            </g>
            <g id="Uppercase">
            </g>
            <g id="Symbols">
            </g>
        </g>
    </g>
</svg>
