<?xml version="1.0" encoding="UTF-8" standalone="no"?>
<!DOCTYPE svg PUBLIC "-//W3C//DTD SVG 1.1//EN" "http://www.w3.org/Graphics/SVG/1.1/DTD/svg11.dtd">
<svg width="100%" height="100%" viewBox="0 0 200 220" version="1.1" xmlns="http://www.w3.org/2000/svg" xmlns:xlink="http://www.w3.org/1999/xlink" xml:space="preserve" xmlns:serif="http://www.serif.com/" style="fill-rule:evenodd;clip-rule:evenodd;stroke-linejoin:round;stroke-miterlimit:2;">
    <g transform="matrix(1,0,0,1,-1600,-880)">
        <g id="Glyphs">
            <g id="Numbers">
                <g transform="matrix(1,0,0,1,1008.09,-220)">
                    <path d="M722.154,1204.88C721.283,1226.88 720.275,1246.67 720.275,1246.67C720.275,1254.14 726.343,1260.21 733.817,1260.21C741.291,1260.21 747.358,1254.14 747.358,1246.67C747.358,1246.67 746.161,1223.17 745.249,1198.92C746.586,1196.82 747.358,1194.33 747.358,1191.67C747.358,1188.66 746.376,1185.88 744.714,1183.63C744.058,1163.65 743.671,1146.65 743.671,1146.65C743.671,1141.66 739.939,1137.46 734.982,1136.87C734.982,1136.87 719.229,1135.38 701.411,1133.25C678.071,1130.46 651.191,1126.67 651.191,1126.67C648.185,1126.31 645.177,1127.32 643,1129.43C640.823,1131.53 639.709,1134.5 639.965,1137.52L643.418,1192.62C643.915,1198.47 648.807,1202.97 654.677,1202.97L722.154,1204.88ZM723.085,1178.43C723.376,1169.23 723.602,1160.99 723.751,1155.2C717.526,1154.36 708.653,1153.19 699.169,1152.07C685.856,1150.48 671.346,1148.95 661.336,1147.92C661.336,1147.92 664.793,1180.08 664.793,1180.08L723.085,1178.43Z"/>
                </g>
            </g>
            <g id="Lowercase">
            </g>
            <g id="Uppercase">
            </g>
            <g id="Symbols">
            </g>
        </g>
    </g>
</svg>
