<?xml version="1.0" encoding="UTF-8" standalone="no"?>
<!DOCTYPE svg PUBLIC "-//W3C//DTD SVG 1.1//EN" "http://www.w3.org/Graphics/SVG/1.1/DTD/svg11.dtd">
<svg width="100%" height="100%" viewBox="0 0 200 220" version="1.1" xmlns="http://www.w3.org/2000/svg" xmlns:xlink="http://www.w3.org/1999/xlink" xml:space="preserve" xmlns:serif="http://www.serif.com/" style="fill-rule:evenodd;clip-rule:evenodd;stroke-linejoin:round;stroke-miterlimit:2;">
    <g transform="matrix(1,0,0,1,-1600,-880)">
        <g id="Glyphs">
            <g id="Numbers">
                <g transform="matrix(1,0,0,1,1008.09,-220)">
                    <path d="M722.146,1204.88C721.23,1227.34 720.275,1246.67 720.275,1246.67C720.275,1254.14 726.343,1260.21 733.817,1260.21C741.291,1260.21 747.358,1254.14 747.358,1246.67C747.358,1246.67 746.229,1223.81 745.251,1198.91C746.587,1196.82 747.358,1194.33 747.358,1191.67C747.358,1188.64 746.362,1185.84 744.68,1183.59L744.575,1180.67C743.784,1157.28 743.453,1136.67 743.453,1136.67C743.453,1133.91 742.27,1131.28 740.202,1129.45C738.135,1127.62 735.382,1126.77 732.642,1127.1C732.642,1127.1 711.931,1129.87 691.174,1132.25C670.412,1134.64 649.614,1136.65 649.614,1136.65C644.128,1137.33 640.158,1142.22 640.626,1147.72L643.425,1192.62C643.922,1198.47 648.811,1202.96 654.677,1202.96L722.146,1204.88ZM723.13,1178.43C723.529,1166.39 723.801,1155.25 723.969,1147.51C716.023,1148.44 704.759,1149.8 693.509,1151.27C681.794,1152.8 670.098,1154.45 662.142,1155.59C662.142,1155.59 664.783,1180.09 664.783,1180.09L723.13,1178.43Z"/>
                </g>
            </g>
            <g id="Lowercase">
            </g>
            <g id="Uppercase">
            </g>
            <g id="Symbols">
            </g>
        </g>
    </g>
</svg>
