<?xml version="1.0" encoding="UTF-8" standalone="no"?>
<!DOCTYPE svg PUBLIC "-//W3C//DTD SVG 1.1//EN" "http://www.w3.org/Graphics/SVG/1.1/DTD/svg11.dtd">
<svg width="100%" height="100%" viewBox="0 0 200 220" version="1.1" xmlns="http://www.w3.org/2000/svg" xmlns:xlink="http://www.w3.org/1999/xlink" xml:space="preserve" xmlns:serif="http://www.serif.com/" style="fill-rule:evenodd;clip-rule:evenodd;stroke-linejoin:round;stroke-miterlimit:2;">
    <g transform="matrix(1,0,0,1,-2400,-1100)">
        <g id="Glyphs">
            <g id="Numbers">
            </g>
            <g id="Lowercase">
            </g>
            <g id="Uppercase">
            </g>
            <g id="Symbols" transform="matrix(1,0,0,1,198.458,1103.9)">
                <g transform="matrix(1,0,0,1,-198.458,-1103.9)">
                    <path d="M2528.64,1220.47L2505.63,1163.86C2503.88,1159.77 2499.89,1157.08 2495.43,1157.01C2490.98,1156.94 2486.9,1159.5 2485.03,1163.54L2457.01,1221.95C2455.36,1225.51 2455.53,1229.65 2457.49,1233.05C2459.43,1236.46 2462.91,1238.7 2466.82,1239.08L2546.14,1247.11C2549.61,1247.45 2553.06,1246.31 2555.66,1243.99L2572.16,1229.11C2575.82,1225.83 2577.2,1220.68 2575.66,1216.01L2552.41,1146.75C2551.55,1144.14 2549.82,1141.91 2547.51,1140.43L2506.59,1114.58C2503.92,1112.87 2500.66,1112.32 2497.57,1113.08L2447.34,1125.81C2443.65,1126.71 2440.67,1129.43 2439.43,1133.03L2410.85,1218.46C2410.11,1220.63 2410.1,1222.99 2410.84,1225.17L2424.87,1265.25C2426.04,1268.7 2429,1271.23 2432.59,1271.86L2498.39,1282.79C2499.43,1282.97 2500.51,1282.97 2501.56,1282.8L2569.7,1270.6C2574.42,1269.8 2577.61,1265.32 2576.81,1260.6C2576.01,1255.88 2571.53,1252.7 2566.81,1253.5L2500.12,1264.13C2500.12,1264.13 2441.93,1253.33 2441.93,1253.33C2441.93,1253.33 2431.61,1221.96 2431.61,1221.96C2431.61,1221.96 2458.5,1146.14 2458.5,1146.14C2458.5,1146.14 2498.15,1136.76 2498.15,1136.76C2498.15,1136.76 2530.95,1158.2 2530.95,1158.2C2530.95,1158.2 2549.63,1216 2549.63,1216C2549.63,1216 2543.1,1221.8 2543.1,1221.8L2528.64,1220.47ZM2505.21,1218.32L2495.22,1195.9C2495.22,1195.9 2485.95,1216.55 2485.95,1216.55L2505.21,1218.32Z"/>
                </g>
            </g>
        </g>
    </g>
</svg>
