<?xml version="1.0" encoding="UTF-8" standalone="no"?>
<!DOCTYPE svg PUBLIC "-//W3C//DTD SVG 1.1//EN" "http://www.w3.org/Graphics/SVG/1.1/DTD/svg11.dtd">
<svg width="100%" height="100%" viewBox="0 0 200 220" version="1.1" xmlns="http://www.w3.org/2000/svg" xmlns:xlink="http://www.w3.org/1999/xlink" xml:space="preserve" xmlns:serif="http://www.serif.com/" style="fill-rule:evenodd;clip-rule:evenodd;stroke-linejoin:round;stroke-miterlimit:2;">
    <g transform="matrix(1,0,0,1,-2400,-1100)">
        <g id="Glyphs">
            <g id="Numbers">
            </g>
            <g id="Lowercase">
            </g>
            <g id="Uppercase">
            </g>
            <g id="Symbols" transform="matrix(1,0,0,1,198.458,1103.9)">
                <g transform="matrix(0.881032,0,0,0.884343,103.845,-954.196)">
                    <path d="M2529.5,1218.92L2507.04,1163.3C2505.06,1158.66 2500.52,1155.61 2495.46,1155.53C2490.39,1155.45 2485.76,1158.35 2483.63,1162.93L2455.52,1221.3C2453.65,1225.32 2453.86,1230 2456.07,1233.85C2458.28,1237.69 2462.23,1240.23 2466.66,1240.66L2545.98,1248.73C2549.92,1249.11 2553.85,1247.83 2556.8,1245.19L2573.29,1230.3C2577.43,1226.59 2578.99,1220.79 2577.25,1215.52L2553.95,1146.28C2552.97,1143.33 2551.02,1140.81 2548.4,1139.12L2507.46,1113.32C2504.41,1111.37 2500.7,1110.75 2497.18,1111.61L2446.97,1124.39C2442.78,1125.42 2439.4,1128.5 2438,1132.56L2409.53,1218.03C2408.68,1220.48 2408.68,1223.14 2409.51,1225.59L2423.6,1265.66C2424.92,1269.56 2428.28,1272.43 2432.35,1273.14L2498.16,1283.99C2499.36,1284.19 2500.58,1284.2 2501.77,1284L2569.91,1271.72C2575.26,1270.81 2578.87,1265.74 2577.96,1260.41C2577.05,1255.07 2571.97,1251.48 2566.61,1252.38L2500.15,1262.89C2500.15,1262.89 2442.98,1252.21 2442.98,1252.21C2442.98,1252.21 2433.08,1221.99 2433.08,1221.99C2433.08,1221.99 2459.64,1147.38 2459.64,1147.38C2459.64,1147.38 2497.84,1138.38 2497.84,1138.38C2497.84,1138.38 2529.57,1159.18 2529.57,1159.18C2529.57,1159.18 2547.72,1215.49 2547.72,1215.49C2547.72,1215.49 2542.52,1220.11 2542.52,1220.11L2529.5,1218.92ZM2502.85,1216.49L2495.28,1199.59C2495.28,1199.59 2488.32,1215.16 2488.32,1215.16L2502.85,1216.49Z"/>
                </g>
            </g>
        </g>
    </g>
</svg>
