<?xml version="1.0" encoding="UTF-8" standalone="no"?>
<!DOCTYPE svg PUBLIC "-//W3C//DTD SVG 1.1//EN" "http://www.w3.org/Graphics/SVG/1.1/DTD/svg11.dtd">
<svg width="100%" height="100%" viewBox="0 0 200 220" version="1.1" xmlns="http://www.w3.org/2000/svg" xmlns:xlink="http://www.w3.org/1999/xlink" xml:space="preserve" xmlns:serif="http://www.serif.com/" style="fill-rule:evenodd;clip-rule:evenodd;stroke-linejoin:round;stroke-miterlimit:2;">
    <g id="Glyphs">
        <g id="Numbers">
        </g>
        <g id="Lowercase">
        </g>
        <g id="Uppercase">
            <g transform="matrix(-1,0,0,1.16519,1801.96,-24.2275)">
                <path d="M1654.65,159.251C1653.58,159.32 1652.48,159.285 1651.39,159.142L1651.37,159.14L1651.18,159.11L1650.74,159.045L1650.69,159.036L1650.65,159.028L1650.22,158.943L1650.02,158.906L1650,158.901C1648.79,158.64 1647.64,158.249 1646.58,157.748L1646.54,157.732L1646.08,157.504L1645.99,157.457L1645.98,157.453C1644.55,156.709 1643.3,155.773 1642.28,154.702L1642.27,154.691L1642.26,154.686L1642.13,154.553L1641.89,154.285L1641.83,154.214L1641.8,154.176L1641.7,154.067L1641.53,153.859L1641.42,153.72L1641.36,153.642L1641.3,153.566L1641.19,153.421L1641.04,153.208L1640.96,153.09L1640.93,153.049L1640.88,152.97L1640.68,152.679L1640.59,152.525L1640.59,152.519L1640.58,152.506C1639.83,151.279 1639.31,149.932 1639.06,148.508L1639.06,148.5L1639.05,148.407L1638.98,147.956L1638.98,147.921C1638.86,146.882 1638.88,145.821 1639.07,144.764L1639.08,144.746L1639.11,144.579L1639.19,144.205L1639.2,144.165L1639.2,144.125L1639.3,143.755L1639.35,143.589L1639.35,143.572C1639.6,142.725 1639.95,141.912 1640.39,141.143L1689.44,48.439C1691.19,44.885 1695.19,42.535 1699.69,42.43C1704.18,42.325 1708.33,44.484 1710.3,47.953C1710.3,47.953 1726.58,78.703 1741.44,105.025C1752.78,125.118 1763.36,142.586 1763.36,142.586C1765,145.473 1764.8,148.881 1762.81,151.603C1760.83,154.326 1757.35,155.981 1753.61,155.981L1654.65,159.251ZM1674.8,134.749L1701.45,76.133C1707.75,86.719 1715.69,100.177 1722.89,112.784C1727.96,121.657 1732.65,130.112 1736.3,136.781L1674.8,134.749Z"/>
            </g>
        </g>
        <g id="Symbols">
        </g>
    </g>
</svg>
