<?xml version="1.0" encoding="UTF-8" standalone="no"?>
<!DOCTYPE svg PUBLIC "-//W3C//DTD SVG 1.1//EN" "http://www.w3.org/Graphics/SVG/1.1/DTD/svg11.dtd">
<svg width="100%" height="100%" viewBox="0 0 200 220" version="1.1" xmlns="http://www.w3.org/2000/svg" xmlns:xlink="http://www.w3.org/1999/xlink" xml:space="preserve" xmlns:serif="http://www.serif.com/" style="fill-rule:evenodd;clip-rule:evenodd;stroke-linejoin:round;stroke-miterlimit:2;">
    <g transform="matrix(1,0,0,1,-1400,-1320)">
        <g id="Glyphs">
            <g transform="matrix(1,0,0,1,-1610.39,0)">
                <g id="Numbers">
                </g>
            </g>
            <g id="Lowercase">
            </g>
            <g id="Uppercase">
            </g>
            <g id="Symbols" transform="matrix(1,0,0,1,198.458,1103.9)">
                <g transform="matrix(0.721051,0,0,0.721051,219.965,-725.767)">
                    <path d="M1482.98,1379.41L1450,1379.99C1443.53,1379.99 1437.99,1384.63 1436.86,1391C1435.73,1397.37 1439.33,1403.63 1445.41,1405.86L1456.01,1409.62L1444.03,1413.72C1435.05,1417.02 1430.43,1426.99 1433.72,1435.97C1437.02,1444.95 1446.99,1449.57 1455.97,1446.28L1476.49,1438.26L1475.86,1443.99C1475.32,1450.31 1478.79,1456.29 1484.53,1458.97C1490.28,1461.65 1497.09,1460.45 1501.58,1455.98L1525.06,1434.08L1545.81,1441.43C1550.81,1443.27 1556.42,1441.64 1559.66,1437.42C1562.9,1433.19 1563.02,1427.35 1559.96,1423L1550.94,1409.94L1551.26,1409.64C1551.56,1409.34 1551.85,1409.03 1552.12,1408.71L1555.2,1407.51C1562.07,1404.99 1566.15,1397.9 1564.87,1390.69C1563.59,1383.49 1557.32,1378.23 1550,1378.23L1529.29,1378.6L1509.01,1349.25C1505.89,1344.81 1500.33,1342.8 1495.09,1344.21C1489.86,1345.63 1486.06,1350.17 1485.6,1355.57L1482.98,1379.41Z"/>
                </g>
            </g>
        </g>
    </g>
</svg>
