<?xml version="1.0" encoding="UTF-8" standalone="no"?>
<!DOCTYPE svg PUBLIC "-//W3C//DTD SVG 1.1//EN" "http://www.w3.org/Graphics/SVG/1.1/DTD/svg11.dtd">
<svg width="100%" height="100%" viewBox="0 0 200 220" version="1.1" xmlns="http://www.w3.org/2000/svg" xmlns:xlink="http://www.w3.org/1999/xlink" xml:space="preserve" xmlns:serif="http://www.serif.com/" style="fill-rule:evenodd;clip-rule:evenodd;stroke-linejoin:round;stroke-miterlimit:2;">
    <g transform="matrix(1,0,0,1,-200,-441)">
        <g id="Glyphs">
            <g id="Numbers">
            </g>
            <g id="Lowercase">
                <g transform="matrix(0.789485,0,0,0.756423,-1202.27,475.725)">
                    <path d="M1858.32,136.546C1855.27,141.179 1854.36,147.231 1856.38,152.892C1859.09,160.526 1866.27,165.083 1873.68,164.521C1874.08,164.555 1874.47,164.569 1874.87,164.569C1879.22,164.569 1883.19,162.876 1886.22,160.085L1942.11,135.943C1946.94,134.073 1950.46,129.681 1951.38,124.39C1952.3,119.099 1950.48,113.693 1946.59,110.17L1927.47,93.917C1927.47,93.917 1939.75,83.727 1939.75,83.727C1943.13,81.062 1944.99,76.78 1944.68,72.363C1944.36,67.946 1941.91,64 1938.18,61.891L1880.76,29.562C1876.93,27.398 1872.29,27.497 1868.55,29.823C1864.81,32.15 1862.51,36.36 1862.51,40.906C1862.51,40.906 1862.06,60.724 1861.09,83.21C1860.24,102.762 1859.04,124.263 1858.32,136.546ZM1890.58,121.609L1908.93,115.305L1897.5,104.289C1894.46,101.538 1892.78,97.503 1892.92,93.308C1893.06,89.113 1895,85.207 1898.22,82.682C1898.22,82.682 1908.77,74.825 1908.77,74.825C1908.77,74.825 1887.88,62.97 1887.88,62.969C1888.09,69.065 1888.35,76 1888.66,83.21C1889.22,96.246 1889.95,110.15 1890.58,121.609Z"/>
                </g>
            </g>
            <g id="Uppercase">
            </g>
            <g id="Symbols">
            </g>
        </g>
    </g>
</svg>
