<?xml version="1.0" encoding="UTF-8" standalone="no"?>
<!DOCTYPE svg PUBLIC "-//W3C//DTD SVG 1.1//EN" "http://www.w3.org/Graphics/SVG/1.1/DTD/svg11.dtd">
<svg width="100%" height="100%" viewBox="0 0 200 220" version="1.1" xmlns="http://www.w3.org/2000/svg" xmlns:xlink="http://www.w3.org/1999/xlink" xml:space="preserve" xmlns:serif="http://www.serif.com/" style="fill-rule:evenodd;clip-rule:evenodd;stroke-linejoin:round;stroke-miterlimit:2;">
    <g transform="matrix(1,0,0,1,-200,0)">
        <g id="Glyphs">
            <g id="Numbers">
            </g>
            <g id="Lowercase">
            </g>
            <g id="Uppercase">
                <g transform="matrix(1,0,0,1.04008,-1623.66,-5.87864)">
                    <path d="M1861.06,146.667C1861.06,150.327 1862.63,153.824 1865.4,156.334C1868.17,158.844 1871.89,160.144 1875.69,159.926L1944.37,154.445C1946.79,154.307 1949.11,153.481 1951.04,152.072L1979.37,130.412C1982.59,128.061 1984.27,124.252 1983.8,120.394C1983.33,116.537 1980.78,113.204 1977.09,111.63L1928.32,91.82C1928.32,91.82 1954.39,74.98 1954.39,74.98C1957.62,72.935 1959.28,69.243 1958.62,65.581C1957.95,61.92 1955.08,58.988 1951.32,58.121L1877.34,40.189C1874.19,39.463 1870.87,40.164 1868.32,42.092C1865.78,44.021 1864.3,46.964 1864.3,50.078L1861.06,146.667ZM1888.23,132.915L1885.88,62.918C1885.88,62.918 1924.44,71.363 1924.44,71.363C1924.44,71.363 1901.45,85.624 1901.45,85.624C1898.35,87.59 1896.61,91.029 1896.91,94.591C1897.22,98.154 1899.53,101.271 1902.92,102.72L1950.04,123.763C1950.04,123.763 1939.49,131.136 1939.49,131.136L1888.23,132.915Z"/>
                </g>
            </g>
            <g id="Symbols">
            </g>
        </g>
    </g>
</svg>
