<?xml version="1.0" encoding="UTF-8" standalone="no"?>
<!DOCTYPE svg PUBLIC "-//W3C//DTD SVG 1.1//EN" "http://www.w3.org/Graphics/SVG/1.1/DTD/svg11.dtd">
<svg width="100%" height="100%" viewBox="0 0 200 220" version="1.1" xmlns="http://www.w3.org/2000/svg" xmlns:xlink="http://www.w3.org/1999/xlink" xml:space="preserve" xmlns:serif="http://www.serif.com/" style="fill-rule:evenodd;clip-rule:evenodd;stroke-linejoin:round;stroke-miterlimit:2;">
    <g transform="matrix(1,0,0,1,-400,0)">
        <g id="Glyphs">
            <g id="Numbers">
            </g>
            <g id="Lowercase">
            </g>
            <g id="Uppercase">
                <g transform="matrix(1,0,0,1,-1600,0)">
                    <path d="M2122.05,23.467L2047.58,43.278C2042.64,44.408 2039.14,48.798 2039.14,53.859L2040.51,127.929C2040.51,132.494 2043.77,136.412 2048.25,137.253C2048.25,137.253 2073.19,142.266 2098.01,147.946C2122.87,153.639 2147.51,159.977 2147.51,159.977C2154.85,161.353 2161.93,156.507 2163.31,149.161C2164.69,141.815 2159.84,134.733 2152.49,133.357C2152.49,133.357 2127.23,130.345 2101.99,126.649C2085.48,124.23 2069.01,121.524 2059.63,119.947C2059.63,119.947 2060.69,62.848 2060.69,62.848C2060.69,62.848 2128.1,49.867 2128.1,49.867C2135.39,48.198 2139.95,40.929 2138.28,33.644C2136.61,26.359 2129.34,21.798 2122.05,23.467Z"/>
                </g>
            </g>
            <g id="Symbols">
            </g>
        </g>
    </g>
</svg>
