<?xml version="1.0" encoding="UTF-8" standalone="no"?>
<!DOCTYPE svg PUBLIC "-//W3C//DTD SVG 1.1//EN" "http://www.w3.org/Graphics/SVG/1.1/DTD/svg11.dtd">
<svg width="100%" height="100%" viewBox="0 0 200 220" version="1.1" xmlns="http://www.w3.org/2000/svg" xmlns:xlink="http://www.w3.org/1999/xlink" xml:space="preserve" xmlns:serif="http://www.serif.com/" style="fill-rule:evenodd;clip-rule:evenodd;stroke-linejoin:round;stroke-miterlimit:2;">
    <g transform="matrix(1,0,0,1,-1200,-1100)">
        <g id="Glyphs">
            <g id="Numbers">
            </g>
            <g id="Lowercase">
            </g>
            <g id="Uppercase">
            </g>
            <g id="Symbols" transform="matrix(1,0,0,1,198.458,1103.9)">
                <g>
                    <g transform="matrix(1,0,0,1,985.751,-390.322)">
                        <path d="M116.031,520.866C120.589,520.866 122.681,524.266 122.243,529.333C121.791,534.578 119.538,536.988 113.889,536.988C109.33,536.988 106.198,532.705 106.198,528.147C106.198,523.589 111.472,520.866 116.031,520.866Z"/>
                    </g>
                    <g transform="matrix(-1,0,0,1,1214.25,-447.533)">
                        <path d="M116.031,520.866C120.589,520.866 122.681,524.266 122.243,529.333C121.791,534.578 119.538,536.988 113.889,536.988C109.33,536.988 106.198,532.705 106.198,528.147C106.198,523.589 111.472,520.866 116.031,520.866Z"/>
                    </g>
                </g>
            </g>
        </g>
    </g>
</svg>
