<?xml version="1.0" encoding="UTF-8" standalone="no"?>
<!DOCTYPE svg PUBLIC "-//W3C//DTD SVG 1.1//EN" "http://www.w3.org/Graphics/SVG/1.1/DTD/svg11.dtd">
<svg width="100%" height="100%" viewBox="0 0 200 220" version="1.1" xmlns="http://www.w3.org/2000/svg" xmlns:xlink="http://www.w3.org/1999/xlink" xml:space="preserve" xmlns:serif="http://www.serif.com/" style="fill-rule:evenodd;clip-rule:evenodd;stroke-linejoin:round;stroke-miterlimit:2;">
    <g transform="matrix(1,0,0,1,-600,0)">
        <g id="Glyphs">
            <g id="Numbers">
            </g>
            <g id="Lowercase">
            </g>
            <g id="Uppercase">
                <g transform="matrix(1,0,0,1,-1600,0)">
                    <path d="M2254.59,35.693C2250.44,34.198 2245.83,34.817 2242.22,37.352C2238.61,39.888 2236.46,44.022 2236.46,48.433L2239.15,146.667C2239.15,150.608 2241.28,154.239 2244.73,156.154C2248.17,158.068 2252.39,157.965 2255.73,155.884C2255.73,155.884 2287.33,135.006 2315.06,117.485C2336.22,104.112 2355.15,92.755 2355.15,92.755C2358.32,90.782 2360.09,87.17 2359.69,83.455C2359.3,79.74 2356.82,76.576 2353.3,75.309C2353.3,75.309 2334.68,68.221 2313.69,59.832C2286.15,48.832 2254.59,35.693 2254.59,35.693ZM2263.04,66.624C2274.99,70.339 2291.29,75.445 2306.31,80.288C2313.95,82.751 2321.26,85.149 2327.51,87.218C2321,91.305 2313.18,96.181 2304.94,101.222C2289.84,110.467 2273.35,120.292 2261.38,127.374C2261.38,127.374 2263.04,66.624 2263.04,66.624L2263.04,66.624Z"/>
                </g>
            </g>
            <g id="Symbols">
            </g>
        </g>
    </g>
</svg>
