<?xml version="1.0" encoding="UTF-8" standalone="no"?>
<!DOCTYPE svg PUBLIC "-//W3C//DTD SVG 1.1//EN" "http://www.w3.org/Graphics/SVG/1.1/DTD/svg11.dtd">
<svg width="100%" height="100%" viewBox="0 0 200 220" version="1.1" xmlns="http://www.w3.org/2000/svg" xmlns:xlink="http://www.w3.org/1999/xlink" xml:space="preserve" xmlns:serif="http://www.serif.com/" style="fill-rule:evenodd;clip-rule:evenodd;stroke-linejoin:round;stroke-miterlimit:2;">
    <g transform="matrix(1,0,0,1,-800,0)">
        <g id="Glyphs">
            <g id="Numbers">
            </g>
            <g id="Lowercase">
            </g>
            <g id="Uppercase">
                <g transform="matrix(1,0,0,1,-1608.96,0)">
                    <path d="M2541.74,23.236L2456.38,36.8C2452.41,37.312 2449.04,39.931 2447.55,43.644C2446.07,47.356 2446.72,51.581 2449.24,54.682L2479.72,90.56C2475.66,97.356 2468.87,108.651 2462.55,118.841C2455.03,130.977 2448.14,141.522 2448.14,141.522C2446.28,144.538 2446.19,148.327 2447.92,151.425C2449.64,154.524 2452.91,156.444 2456.46,156.444C2456.46,156.444 2481.45,157.005 2506.46,157.946C2531.49,158.889 2556.46,160.208 2556.46,160.208C2563.93,160.208 2570,154.141 2570,146.667C2570,139.193 2563.93,133.125 2556.46,133.125C2556.46,133.125 2531.49,134.445 2506.46,135.387C2494.78,135.827 2483.1,136.184 2473.97,136.439C2475.44,134.019 2477.01,131.439 2478.64,128.799C2488.47,112.886 2500.19,94.739 2500.19,94.739C2502.4,91.167 2502.11,86.587 2499.45,83.328L2478.74,56.713C2478.74,56.713 2545.21,50.097 2545.21,50.097C2552.62,49.14 2557.87,42.345 2556.91,34.933C2555.95,27.521 2549.16,22.28 2541.74,23.236Z"/>
                </g>
            </g>
            <g id="Symbols">
            </g>
        </g>
    </g>
</svg>
