<?xml version="1.0" encoding="UTF-8" standalone="no"?>
<!DOCTYPE svg PUBLIC "-//W3C//DTD SVG 1.1//EN" "http://www.w3.org/Graphics/SVG/1.1/DTD/svg11.dtd">
<svg width="100%" height="100%" viewBox="0 0 200 220" version="1.1" xmlns="http://www.w3.org/2000/svg" xmlns:xlink="http://www.w3.org/1999/xlink" xml:space="preserve" xmlns:serif="http://www.serif.com/" style="fill-rule:evenodd;clip-rule:evenodd;stroke-linejoin:round;stroke-miterlimit:2;">
    <g transform="matrix(1,0,0,1,-600,-1320)">
        <g id="Glyphs">
            <g transform="matrix(1,0,0,1,-1610.39,0)">
                <g id="Numbers">
                </g>
            </g>
            <g id="Lowercase">
            </g>
            <g id="Uppercase">
            </g>
            <g id="Symbols" transform="matrix(1,0,0,1,198.458,1103.9)">
                <g transform="matrix(1,0,0,1,199.975,18.3333)">
                    <g transform="matrix(1,0,0,1,-198.458,-1103.9)">
                        <path d="M449.735,1405.83C449.735,1405.83 468.515,1404.89 489.383,1404.61C495.006,1404.53 500.778,1404.49 506.362,1404.66C510.265,1404.78 514.068,1405.02 517.669,1405.3C532.649,1406.44 544.03,1407.83 544.03,1407.83C550.928,1407.98 556.646,1402.49 556.792,1395.6C556.938,1388.7 551.457,1382.98 544.56,1382.83C544.56,1382.83 533.13,1383.74 518.115,1384.25C514.505,1384.37 510.696,1384.45 506.792,1384.4C501.205,1384.34 495.44,1384.06 489.825,1383.74C468.989,1382.57 450.265,1380.84 450.265,1380.84C443.367,1380.69 437.649,1386.17 437.503,1393.07C437.357,1399.97 442.838,1405.68 449.735,1405.83Z"/>
                    </g>
                    <g transform="matrix(1,0,0,1,-198.458,-1103.9)">
                        <path d="M460.567,1442.5C460.567,1442.5 472.279,1441.1 487.397,1440.05C495.828,1439.46 505.257,1438.66 514.227,1438.76C520.66,1438.83 526.779,1439.46 532.113,1440.01C542.772,1441.13 550,1442.5 550,1442.5C556.899,1442.5 562.5,1436.9 562.5,1430C562.5,1423.1 556.899,1417.5 550,1417.5C550,1417.5 542.772,1418.87 532.113,1419.99C526.779,1420.54 520.66,1421.17 514.227,1421.24C505.257,1421.34 495.828,1420.54 487.397,1419.95C472.279,1418.9 460.567,1417.5 460.567,1417.5C453.668,1417.5 448.067,1423.1 448.067,1430C448.067,1436.9 453.668,1442.5 460.567,1442.5Z"/>
                    </g>
                </g>
            </g>
        </g>
    </g>
</svg>
