<?xml version="1.0" encoding="UTF-8" standalone="no"?>
<!DOCTYPE svg PUBLIC "-//W3C//DTD SVG 1.1//EN" "http://www.w3.org/Graphics/SVG/1.1/DTD/svg11.dtd">
<svg width="100%" height="100%" viewBox="0 0 200 220" version="1.1" xmlns="http://www.w3.org/2000/svg" xmlns:xlink="http://www.w3.org/1999/xlink" xml:space="preserve" xmlns:serif="http://www.serif.com/" style="fill-rule:evenodd;clip-rule:evenodd;stroke-linejoin:round;stroke-miterlimit:2;">
    <g transform="matrix(1,0,0,1,-1000,-441)">
        <g id="Glyphs">
            <g id="Numbers">
            </g>
            <g id="Lowercase">
                <g transform="matrix(0.545455,0,0,0.545455,1039.53,387.037)">
                    <path d="M107.975,252.426C133.996,254.34 160.861,257.049 160.861,257.049C174.563,257.049 185.687,245.924 185.687,232.222C185.687,218.52 174.563,207.396 160.861,207.396C160.861,207.396 128.843,210.624 100.861,212.534C79.598,213.985 60.861,214.571 60.861,214.571C53.641,214.571 47.149,218.967 44.47,225.671C41.79,232.374 43.463,240.034 48.693,245.01C48.693,245.01 61.021,256.165 74.459,269.378C80.459,275.279 86.688,281.572 92.295,287.306C92.294,287.306 80.662,292.787 80.662,292.787C71.249,297.81 66.974,309 70.64,319.02L87.546,375.197C92.254,388.065 106.523,394.69 119.391,389.981C132.259,385.273 138.883,371.004 134.175,358.136L117.794,320.365C117.794,320.365 134.252,310.498 134.252,310.498C139.764,307.557 143.528,302.146 144.37,295.955C145.212,289.764 143.029,283.545 138.503,279.238C138.503,279.238 123.491,266.393 107.975,252.426Z"/>
                </g>
            </g>
            <g id="Uppercase">
            </g>
            <g id="Symbols">
            </g>
        </g>
    </g>
</svg>
