<?xml version="1.0" encoding="UTF-8" standalone="no"?>
<!DOCTYPE svg PUBLIC "-//W3C//DTD SVG 1.1//EN" "http://www.w3.org/Graphics/SVG/1.1/DTD/svg11.dtd">
<svg width="100%" height="100%" viewBox="0 0 200 220" version="1.1" xmlns="http://www.w3.org/2000/svg" xmlns:xlink="http://www.w3.org/1999/xlink" xml:space="preserve" xmlns:serif="http://www.serif.com/" style="fill-rule:evenodd;clip-rule:evenodd;stroke-linejoin:round;stroke-miterlimit:2;">
    <g transform="matrix(1,0,0,1,-1000,0)">
        <g id="Glyphs">
            <g id="Numbers">
            </g>
            <g id="Lowercase">
            </g>
            <g id="Uppercase">
                <g transform="matrix(1,0,0,1,989.139,-217.983)">
                    <path d="M103.89,366.762L102.618,318.36C102.618,318.36 130.082,302.685 130.082,302.685C133.76,300.722 135.946,296.785 135.668,292.626C135.39,288.466 132.699,284.855 128.792,283.4L90.262,269.765C98.448,267.137 107.798,264.179 117.176,261.302C143.943,253.091 170.847,245.573 170.847,245.573C177.908,243.123 181.651,235.401 179.201,228.341C176.751,221.28 169.029,217.537 161.968,219.987C161.968,219.987 136.19,230.751 110.092,240.887C84.041,251.003 57.755,260.459 57.755,260.459C53.98,261.769 51.433,265.306 51.388,269.301C51.343,273.297 53.81,276.891 57.554,278.285L98.976,294.495C98.976,294.495 85.225,301.338 85.225,301.338C81.437,303.359 79.06,307.291 79.03,311.584L76.808,366.571C76.755,374.045 82.78,380.155 90.253,380.208C97.727,380.261 103.837,374.236 103.89,366.762Z"/>
                </g>
            </g>
            <g id="Symbols">
            </g>
        </g>
    </g>
</svg>
