<?xml version="1.0" encoding="UTF-8" standalone="no"?>
<!DOCTYPE svg PUBLIC "-//W3C//DTD SVG 1.1//EN" "http://www.w3.org/Graphics/SVG/1.1/DTD/svg11.dtd">
<svg width="100%" height="100%" viewBox="0 0 200 220" version="1.1" xmlns="http://www.w3.org/2000/svg" xmlns:xlink="http://www.w3.org/1999/xlink" xml:space="preserve" xmlns:serif="http://www.serif.com/" style="fill-rule:evenodd;clip-rule:evenodd;stroke-linejoin:round;stroke-miterlimit:2;">
    <g transform="matrix(1,0,0,1,-2200,-1100)">
        <g id="Glyphs">
            <g id="Numbers">
            </g>
            <g id="Lowercase">
            </g>
            <g id="Uppercase">
            </g>
            <g id="Symbols" transform="matrix(1,0,0,1,198.458,1103.9)">
                <g transform="matrix(1,0,0,1,-198.458,-1103.9)">
                    <path d="M2260.33,1290.38C2260.33,1290.38 2272.34,1270.27 2288.3,1244.99C2297.24,1230.84 2307.15,1214.9 2317.24,1200.27C2324.47,1189.8 2331.85,1180.08 2338.27,1171.64C2350.98,1154.96 2360.33,1143.71 2360.33,1143.71C2364.21,1138.01 2362.74,1130.23 2357.04,1126.34C2351.34,1122.45 2343.56,1123.92 2339.67,1129.62C2339.67,1129.62 2332.61,1142.44 2321.73,1160.36C2316.22,1169.43 2309.87,1179.85 2302.76,1190.4C2292.83,1205.14 2281.61,1220.18 2271.7,1233.67C2254,1257.77 2239.67,1276.29 2239.67,1276.29C2235.79,1281.99 2237.26,1289.78 2242.96,1293.66C2248.66,1297.55 2256.44,1296.08 2260.33,1290.38Z"/>
                </g>
            </g>
        </g>
    </g>
</svg>
