<?xml version="1.0" encoding="UTF-8" standalone="no"?>
<!DOCTYPE svg PUBLIC "-//W3C//DTD SVG 1.1//EN" "http://www.w3.org/Graphics/SVG/1.1/DTD/svg11.dtd">
<svg width="100%" height="100%" viewBox="0 0 200 220" version="1.1" xmlns="http://www.w3.org/2000/svg" xmlns:xlink="http://www.w3.org/1999/xlink" xml:space="preserve" xmlns:serif="http://www.serif.com/" style="fill-rule:evenodd;clip-rule:evenodd;stroke-linejoin:round;stroke-miterlimit:2;">
    <g transform="matrix(1,0,0,1,-1200,0)">
        <g id="Glyphs">
            <g id="Numbers">
            </g>
            <g id="Lowercase">
            </g>
            <g id="Uppercase">
                <g transform="matrix(1,0,0,1,1000,-217.983)">
                    <path d="M307.37,333.054L324.821,332.836C324.821,332.836 309.157,352.95 309.157,352.95C309.157,352.95 259.584,324.572 259.584,324.572C259.584,324.572 260.377,285.896 260.377,285.896C260.377,285.896 318.464,267.356 318.464,267.356C325.477,264.771 329.072,256.979 326.487,249.967C323.902,242.954 316.11,239.359 309.097,241.944L246.356,268.274C242.215,269.8 239.464,273.746 239.464,278.159L240.527,330C240.527,333.346 242.292,336.443 245.17,338.149L306.472,375.753C310.953,378.409 316.702,377.402 320.013,373.38L359.412,328.084C362.382,324.476 363.028,319.486 361.074,315.24C359.12,310.994 354.91,308.239 350.236,308.148L307.895,305.975C300.422,305.83 294.238,311.779 294.093,319.252C293.948,326.724 299.897,332.909 307.37,333.054Z"/>
                </g>
                <g transform="matrix(1,0,0,1,995,-220)">
                    <path d="M252.766,495.212L252.766,495.212L277.796,488.838C277.622,499.549 277.297,515.261 276.723,530.971C275.706,558.871 273.914,586.667 273.914,586.667C273.914,594.141 279.982,600.208 287.456,600.208C294.929,600.208 300.997,594.141 300.997,586.667C300.997,586.667 299.205,558.871 298.188,530.971C297.519,512.652 297.187,494.33 297.045,483.936L363.746,466.95C370.929,464.883 375.081,457.373 373.013,450.191C370.945,443.009 363.436,438.856 356.254,440.924L247.234,475.999C241.95,477.52 238.886,483.024 240.378,488.318C241.87,493.611 247.357,496.705 252.658,495.243L252.766,495.212Z"/>
                </g>
            </g>
            <g id="Symbols">
            </g>
        </g>
    </g>
</svg>
