<?xml version="1.0" encoding="UTF-8" standalone="no"?>
<!DOCTYPE svg PUBLIC "-//W3C//DTD SVG 1.1//EN" "http://www.w3.org/Graphics/SVG/1.1/DTD/svg11.dtd">
<svg width="100%" height="100%" viewBox="0 0 200 220" version="1.1" xmlns="http://www.w3.org/2000/svg" xmlns:xlink="http://www.w3.org/1999/xlink" xml:space="preserve" xmlns:serif="http://www.serif.com/" style="fill-rule:evenodd;clip-rule:evenodd;stroke-linejoin:round;stroke-miterlimit:2;">
    <g transform="matrix(1,0,0,1,-1200,-220)">
        <g id="Glyphs">
            <g id="Numbers">
            </g>
            <g id="Lowercase">
            </g>
            <g id="Uppercase">
                <g transform="matrix(1,0,0,1,1000,-8.52651e-14)">
                    <path d="M307.37,333.054L324.821,332.836C324.821,332.836 309.157,352.95 309.157,352.95C309.157,352.95 259.584,324.572 259.584,324.572C259.584,324.572 260.377,285.896 260.377,285.896C260.377,285.896 318.464,267.356 318.464,267.356C325.477,264.771 329.072,256.979 326.487,249.967C323.902,242.954 316.11,239.359 309.097,241.944L246.356,268.274C242.215,269.8 239.464,273.746 239.464,278.159L240.527,330C240.527,333.346 242.292,336.443 245.17,338.149L306.472,375.753C310.953,378.409 316.702,377.402 320.013,373.38L359.412,328.084C362.382,324.476 363.028,319.486 361.074,315.24C359.12,310.994 354.91,308.239 350.236,308.148L307.895,305.975C300.422,305.83 294.238,311.779 294.093,319.252C293.948,326.724 299.897,332.909 307.37,333.054Z"/>
                </g>
            </g>
            <g id="Symbols">
            </g>
        </g>
    </g>
</svg>
