<?xml version="1.0" encoding="UTF-8" standalone="no"?>
<!DOCTYPE svg PUBLIC "-//W3C//DTD SVG 1.1//EN" "http://www.w3.org/Graphics/SVG/1.1/DTD/svg11.dtd">
<svg width="100%" height="100%" viewBox="0 0 200 220" version="1.1" xmlns="http://www.w3.org/2000/svg" xmlns:xlink="http://www.w3.org/1999/xlink" xml:space="preserve" xmlns:serif="http://www.serif.com/" style="fill-rule:evenodd;clip-rule:evenodd;stroke-linejoin:round;stroke-miterlimit:2;">
    <g transform="matrix(1,0,0,1,-1400,0)">
        <g id="Glyphs">
            <g id="Numbers">
            </g>
            <g id="Lowercase">
            </g>
            <g id="Uppercase">
                <g>
                    <path d="M1538.6,55.106C1534.07,57.179 1525.77,60.897 1515.93,64.957C1507.58,68.404 1498.29,72.403 1489.16,75.328C1482.61,77.425 1476.19,78.848 1470.59,80.075C1466.44,80.983 1462.76,81.696 1459.77,82.233C1460.04,77.84 1460.46,76.469 1460.85,72.662C1462.05,60.925 1463.54,52.957 1463.54,52.957C1463.54,45.483 1457.47,39.415 1450,39.415C1442.53,39.415 1436.46,45.483 1436.46,52.957C1436.46,52.957 1437.95,60.925 1439.15,72.662C1439.76,78.539 1440.43,82.482 1440.51,89.568C1440.61,99.449 1439.75,109.837 1439.11,119.126C1437.97,135.777 1436.46,148.683 1436.46,148.683C1436.46,156.157 1442.53,162.225 1450,162.225C1457.47,162.225 1463.54,156.157 1463.54,148.683C1463.54,148.683 1462.03,135.777 1460.89,119.126C1460.67,115.931 1460.42,112.607 1460.2,109.218C1460.89,108.834 1467.56,105.147 1477.43,100.662C1482.65,98.291 1488.65,95.586 1495.15,93.344C1504.21,90.217 1514.05,87.857 1522.8,85.616C1529.56,83.888 1535.69,82.438 1540.49,81.348C1540.5,81.791 1540.5,82.237 1540.51,82.683C1540.61,93.71 1539.75,105.313 1539.11,115.683C1537.98,134.253 1536.46,148.683 1536.46,148.683C1536.46,156.157 1542.53,162.225 1550,162.225C1557.47,162.225 1563.54,156.157 1563.54,148.683C1563.54,148.683 1562.03,134.253 1560.89,115.683C1560.25,105.313 1559.39,93.71 1559.49,82.683C1559.57,74.78 1560.25,67.246 1560.85,60.683C1562.05,47.614 1563.54,38.683 1563.54,38.683C1563.54,31.21 1557.47,25.142 1550,25.142C1542.53,25.142 1536.46,31.21 1536.46,38.683C1536.46,38.683 1537.54,45.139 1538.6,55.106Z"/>
                </g>
            </g>
            <g id="Symbols">
            </g>
        </g>
    </g>
</svg>
