<?xml version="1.0" encoding="UTF-8" standalone="no"?>
<!DOCTYPE svg PUBLIC "-//W3C//DTD SVG 1.1//EN" "http://www.w3.org/Graphics/SVG/1.1/DTD/svg11.dtd">
<svg width="100%" height="100%" viewBox="0 0 200 220" version="1.1" xmlns="http://www.w3.org/2000/svg" xmlns:xlink="http://www.w3.org/1999/xlink" xml:space="preserve" xmlns:serif="http://www.serif.com/" style="fill-rule:evenodd;clip-rule:evenodd;stroke-linejoin:round;stroke-miterlimit:2;">
    <g transform="matrix(1,0,0,1,-1400,0)">
        <g id="Glyphs">
            <g id="Numbers">
            </g>
            <g id="Lowercase">
            </g>
            <g id="Uppercase">
                <g transform="matrix(1,0,0,1,980.765,-217.983)">
                    <path d="M482.776,366.667C482.776,366.667 481.261,353.76 480.121,337.109C479.485,327.821 478.621,317.432 478.728,307.551C478.804,300.465 479.479,293.723 480.082,287.846C481.287,276.11 482.776,268.141 482.776,268.141C482.776,260.667 476.708,254.599 469.235,254.599C461.761,254.599 455.693,260.667 455.693,268.141C455.693,268.141 457.182,276.11 458.387,287.846C458.99,293.723 459.665,300.465 459.742,307.551C459.848,317.432 458.985,327.821 458.349,337.109C457.209,353.76 455.693,366.667 455.693,366.667C455.693,374.141 461.761,380.208 469.235,380.208C476.708,380.208 482.776,374.141 482.776,366.667Z"/>
                    <g transform="matrix(1,0,0,1,39.8379,0)">
                        <path d="M542.938,366.667C542.938,366.667 541.421,352.236 540.283,333.667C539.647,323.296 538.783,311.694 538.89,300.667C538.966,292.763 539.641,285.229 540.245,278.667C541.446,265.597 542.938,256.667 542.938,256.667C542.938,249.193 536.871,243.125 529.397,243.125C521.923,243.125 515.855,249.193 515.855,256.667C515.855,256.667 517.347,265.597 518.549,278.667C519.152,285.229 519.828,292.763 519.904,300.667C520.01,311.694 519.147,323.296 518.511,333.667C517.372,352.236 515.855,366.667 515.855,366.667C515.855,374.141 521.923,380.208 529.397,380.208C536.871,380.208 542.938,374.141 542.938,366.667Z"/>
                    </g>
                    <path d="M561.546,271.371C561.546,271.371 550.146,276.758 535.168,282.94C526.817,286.387 517.525,290.387 508.393,293.311C501.842,295.408 495.423,296.831 489.822,298.058C478.626,300.51 470.828,301.534 470.828,301.534C463.736,303.893 459.893,311.565 462.251,318.657C464.609,325.749 472.281,329.593 479.373,327.234C479.373,327.234 486.232,323.385 496.667,318.645C501.888,316.274 507.881,313.569 514.383,311.327C523.449,308.2 533.285,305.84 542.038,303.6C557.735,299.582 570.091,297.071 570.091,297.071C577.183,294.713 581.027,287.04 578.668,279.948C576.31,272.856 568.638,269.013 561.546,271.371Z"/>
                </g>
            </g>
            <g id="Symbols">
            </g>
        </g>
    </g>
</svg>
