<?xml version="1.0" encoding="UTF-8" standalone="no"?>
<!DOCTYPE svg PUBLIC "-//W3C//DTD SVG 1.1//EN" "http://www.w3.org/Graphics/SVG/1.1/DTD/svg11.dtd">
<svg width="100%" height="100%" viewBox="0 0 200 220" version="1.1" xmlns="http://www.w3.org/2000/svg" xmlns:xlink="http://www.w3.org/1999/xlink" xml:space="preserve" xmlns:serif="http://www.serif.com/" style="fill-rule:evenodd;clip-rule:evenodd;stroke-linejoin:round;stroke-miterlimit:2;">
    <g transform="matrix(1,0,0,1,-1400,-441)">
        <g id="Glyphs">
            <g id="Numbers">
            </g>
            <g id="Lowercase">
                <g transform="matrix(0.545455,0,0,0.545455,1216.78,380.371)">
                    <path d="M494.061,366.667C494.061,366.667 491.288,347.459 489.192,322.513C488.027,308.639 486.443,293.136 486.638,278.36C486.778,267.751 488.017,257.702 489.122,248.925C491.344,231.276 494.061,219.489 494.061,219.489C494.061,205.787 482.937,194.663 469.235,194.663C455.533,194.663 444.408,205.787 444.408,219.489C444.408,219.489 447.126,231.276 449.347,248.925C450.452,257.702 451.691,267.751 451.831,278.36C452.026,293.136 450.442,308.639 449.277,322.513C447.182,347.459 444.408,366.667 444.408,366.667C444.408,380.369 455.533,391.493 469.235,391.493C482.937,391.493 494.061,380.369 494.061,366.667Z"/>
                    <g transform="matrix(1,0,0,1,39.8379,0)">
                        <path d="M554.223,366.667L553.823,311.667C553.823,300.371 546.078,290.549 535.094,287.914L433.414,270.931C424.171,268.714 414.866,274.419 412.649,283.662C410.431,292.906 416.136,302.21 425.379,304.428L504.841,329.475C504.841,329.475 504.57,366.667 504.57,366.667C504.57,380.369 515.695,391.493 529.397,391.493C543.099,391.493 554.223,380.369 554.223,366.667Z"/>
                    </g>
                </g>
            </g>
            <g id="Uppercase">
            </g>
            <g id="Symbols">
            </g>
        </g>
    </g>
</svg>
