<?xml version="1.0" encoding="UTF-8" standalone="no"?>
<!DOCTYPE svg PUBLIC "-//W3C//DTD SVG 1.1//EN" "http://www.w3.org/Graphics/SVG/1.1/DTD/svg11.dtd">
<svg width="100%" height="100%" viewBox="0 0 200 220" version="1.1" xmlns="http://www.w3.org/2000/svg" xmlns:xlink="http://www.w3.org/1999/xlink" xml:space="preserve" xmlns:serif="http://www.serif.com/" style="fill-rule:evenodd;clip-rule:evenodd;stroke-linejoin:round;stroke-miterlimit:2;">
    <g transform="matrix(1,0,0,1,-200,-1320)">
        <g id="Glyphs">
            <g transform="matrix(1,0,0,1,-1610.39,0)">
                <g id="Numbers">
                </g>
            </g>
            <g id="Lowercase">
            </g>
            <g id="Uppercase">
            </g>
            <g id="Symbols" transform="matrix(1,0,0,1,198.458,1103.9)">
                <g transform="matrix(1,0,0,1,-198.458,-1103.9)">
                    <path d="M264.009,1442.5C264.009,1442.5 273.204,1441.1 285.169,1440.05C291.818,1439.46 299.246,1438.66 306.329,1438.76C311.418,1438.83 316.23,1439.46 320.436,1440.01C328.911,1441.13 334.543,1442.5 334.543,1442.5C341.442,1442.5 347.043,1436.9 347.043,1430C347.043,1423.1 341.442,1417.5 334.543,1417.5C334.543,1417.5 328.911,1418.87 320.436,1419.99C316.23,1420.54 311.418,1421.17 306.329,1421.24C299.246,1421.34 291.818,1420.54 285.169,1419.95C273.204,1418.9 264.009,1417.5 264.009,1417.5C257.11,1417.5 251.509,1423.1 251.509,1430C251.509,1436.9 257.11,1442.5 264.009,1442.5Z"/>
                </g>
            </g>
        </g>
    </g>
</svg>
