<?xml version="1.0" encoding="UTF-8" standalone="no"?>
<!DOCTYPE svg PUBLIC "-//W3C//DTD SVG 1.1//EN" "http://www.w3.org/Graphics/SVG/1.1/DTD/svg11.dtd">
<svg width="100%" height="100%" viewBox="0 0 200 220" version="1.1" xmlns="http://www.w3.org/2000/svg" xmlns:xlink="http://www.w3.org/1999/xlink" xml:space="preserve" xmlns:serif="http://www.serif.com/" style="fill-rule:evenodd;clip-rule:evenodd;stroke-linejoin:round;stroke-miterlimit:2;">
    <g transform="matrix(1,0,0,1,-1600,-441)">
        <g id="Glyphs">
            <g id="Numbers">
            </g>
            <g id="Lowercase">
                <g transform="matrix(1,0,0,-1,1000,843.704)">
                    <path d="M713.542,256.667C713.542,256.667 714.051,268.148 713.557,282.75C712.686,308.466 709.394,343.612 709.394,343.612C709.394,348.797 705.185,353.006 700,353.006C694.815,353.006 690.606,348.797 690.606,343.612C690.606,343.612 687.314,308.466 686.443,282.75C685.949,268.148 686.458,256.667 686.458,256.667C686.458,249.193 692.526,243.125 700,243.125C707.474,243.125 713.542,249.193 713.542,256.667Z"/>
                </g>
            </g>
            <g id="Uppercase">
            </g>
            <g id="Symbols">
            </g>
        </g>
    </g>
</svg>
