<?xml version="1.0" encoding="UTF-8" standalone="no"?>
<!DOCTYPE svg PUBLIC "-//W3C//DTD SVG 1.1//EN" "http://www.w3.org/Graphics/SVG/1.1/DTD/svg11.dtd">
<svg width="100%" height="100%" viewBox="0 0 200 220" version="1.1" xmlns="http://www.w3.org/2000/svg" xmlns:xlink="http://www.w3.org/1999/xlink" xml:space="preserve" xmlns:serif="http://www.serif.com/" style="fill-rule:evenodd;clip-rule:evenodd;stroke-linejoin:round;stroke-miterlimit:2;">
    <g transform="matrix(1,0,0,1,-1600,0)">
        <g id="Glyphs">
            <g id="Numbers">
            </g>
            <g id="Lowercase">
            </g>
            <g id="Uppercase">
                <g transform="matrix(1,0,0,-1,1000,403.333)">
                    <path d="M713.542,256.667C713.542,256.667 712.192,269.686 711.045,286.444C710.404,295.807 709.623,306.261 709.464,316.221C709.398,320.327 709.544,324.337 709.714,328.132C710.421,343.912 711.621,355.924 711.621,355.924C711.621,362.338 706.414,367.545 700,367.545C693.586,367.545 688.379,362.338 688.379,355.924C688.379,355.924 689.579,343.912 690.286,328.132C690.456,324.337 690.602,320.327 690.536,316.221C690.377,306.261 689.596,295.807 688.955,286.444C687.808,269.686 686.458,256.667 686.458,256.667C686.458,249.193 692.526,243.125 700,243.125C707.474,243.125 713.542,249.193 713.542,256.667Z"/>
                </g>
            </g>
            <g id="Symbols">
            </g>
        </g>
    </g>
</svg>
