<?xml version="1.0" encoding="UTF-8" standalone="no"?>
<!DOCTYPE svg PUBLIC "-//W3C//DTD SVG 1.1//EN" "http://www.w3.org/Graphics/SVG/1.1/DTD/svg11.dtd">
<svg width="100%" height="100%" viewBox="0 0 200 220" version="1.1" xmlns="http://www.w3.org/2000/svg" xmlns:xlink="http://www.w3.org/1999/xlink" xml:space="preserve" xmlns:serif="http://www.serif.com/" style="fill-rule:evenodd;clip-rule:evenodd;stroke-linejoin:round;stroke-miterlimit:2;">
    <g transform="matrix(1,0,0,1,-1800,-441)">
        <g id="Glyphs">
            <g id="Numbers">
            </g>
            <g id="Lowercase">
                <g transform="matrix(1,0,0,1,1023.84,-222.512)">
                    <path d="M886.458,736.216L890.099,803.352C888.013,805.816 884.93,809.402 881.751,812.904C880.525,814.256 879.285,815.594 878.095,816.861C878.095,816.861 858.316,794.081 858.316,794.081C852.95,788.878 844.37,789.01 839.167,794.375C833.964,799.741 834.096,808.321 839.461,813.524L870.698,839.006C872.674,840.923 875.348,841.949 878.099,841.846C880.85,841.743 883.439,840.52 885.267,838.461C885.267,838.461 890.463,831.869 895.97,825.526C901.471,819.19 907.27,813.12 907.27,813.12C908.849,811.341 909.721,809.045 909.721,806.667L913.542,736.216C913.542,728.742 907.474,722.674 900,722.674C892.526,722.674 886.458,728.742 886.458,736.216Z"/>
                </g>
            </g>
            <g id="Uppercase">
            </g>
            <g id="Symbols">
            </g>
        </g>
    </g>
</svg>
