<?xml version="1.0" encoding="UTF-8" standalone="no"?>
<!DOCTYPE svg PUBLIC "-//W3C//DTD SVG 1.1//EN" "http://www.w3.org/Graphics/SVG/1.1/DTD/svg11.dtd">
<svg width="100%" height="100%" viewBox="0 0 200 220" version="1.1" xmlns="http://www.w3.org/2000/svg" xmlns:xlink="http://www.w3.org/1999/xlink" xml:space="preserve" xmlns:serif="http://www.serif.com/" style="fill-rule:evenodd;clip-rule:evenodd;stroke-linejoin:round;stroke-miterlimit:2;">
    <g transform="matrix(1,0,0,1,-1800,0)">
        <g id="Glyphs">
            <g id="Numbers">
            </g>
            <g id="Lowercase">
            </g>
            <g id="Uppercase">
                <g transform="matrix(1,0,0,1,1006.26,-220)">
                    <path d="M909.184,267.73L923.443,361.365C918.293,364.098 910.655,368.101 903.574,371.625C899.754,373.526 896.095,375.279 893.108,376.686C893.108,376.686 862.763,344.122 862.763,344.122C857.334,338.986 848.756,339.224 843.62,344.653C838.483,350.082 838.721,358.66 844.15,363.796L883.58,396.655C886.77,399.673 891.521,400.34 895.418,398.317C895.418,398.317 903.296,393.65 912.439,388.705C924.4,382.237 938.465,375.241 938.465,375.241C942.016,373.398 944.064,369.556 943.614,365.58L936.096,264.683C935.255,257.257 928.543,251.91 921.116,252.751C913.69,253.592 908.343,260.304 909.184,267.73Z"/>
                </g>
            </g>
            <g id="Symbols">
            </g>
        </g>
    </g>
</svg>
