<?xml version="1.0" encoding="UTF-8" standalone="no"?>
<!DOCTYPE svg PUBLIC "-//W3C//DTD SVG 1.1//EN" "http://www.w3.org/Graphics/SVG/1.1/DTD/svg11.dtd">
<svg width="100%" height="100%" viewBox="0 0 200 220" version="1.1" xmlns="http://www.w3.org/2000/svg" xmlns:xlink="http://www.w3.org/1999/xlink" xml:space="preserve" xmlns:serif="http://www.serif.com/" style="fill-rule:evenodd;clip-rule:evenodd;stroke-linejoin:round;stroke-miterlimit:2;">
    <g transform="matrix(1,0,0,1,-2000,0)">
        <g id="Glyphs">
            <g id="Numbers">
            </g>
            <g id="Lowercase">
            </g>
            <g id="Uppercase">
                <g transform="matrix(1,0,0,1,980.668,-220)">
                    <g transform="matrix(1,0,0,-1,0,623.333)">
                        <path d="M1088.87,256.667C1088.87,256.667 1089.38,270.15 1088.88,287.304C1088.01,317.474 1084.72,358.79 1084.72,358.79C1084.72,363.975 1080.51,368.184 1075.33,368.184C1070.14,368.184 1065.93,363.975 1065.93,358.79C1065.93,358.79 1062.64,317.474 1061.77,287.304C1061.28,270.15 1061.78,256.667 1061.78,256.667C1061.78,249.193 1067.85,243.125 1075.33,243.125C1082.8,243.125 1088.87,249.193 1088.87,256.667Z"/>
                    </g>
                    <g transform="matrix(1,0,0,1,4,0)">
                        <path d="M1125.47,247.971L1089.3,296.366C1085.93,300.381 1086.16,306.293 1089.83,310.037C1089.83,310.037 1102.16,321.349 1115.19,335.13C1120.07,340.284 1124.88,345.886 1129.39,351.191C1140.78,364.58 1149.81,376.137 1149.81,376.137C1155.03,381.479 1163.61,381.573 1168.95,376.346C1174.3,371.12 1174.39,362.539 1169.16,357.197C1169.16,357.197 1157.81,347.918 1144.67,336.238C1139.47,331.611 1133.97,326.679 1128.93,321.696C1121.84,314.697 1115.43,307.903 1110.94,303.029C1110.94,303.029 1146.23,265.363 1146.23,265.363C1151.03,259.634 1150.28,251.086 1144.55,246.286C1138.82,241.487 1130.27,242.241 1125.47,247.971Z"/>
                    </g>
                </g>
            </g>
            <g id="Symbols">
            </g>
        </g>
    </g>
</svg>
