<?xml version="1.0" encoding="UTF-8" standalone="no"?>
<!DOCTYPE svg PUBLIC "-//W3C//DTD SVG 1.1//EN" "http://www.w3.org/Graphics/SVG/1.1/DTD/svg11.dtd">
<svg width="100%" height="100%" viewBox="0 0 200 220" version="1.1" xmlns="http://www.w3.org/2000/svg" xmlns:xlink="http://www.w3.org/1999/xlink" xml:space="preserve" xmlns:serif="http://www.serif.com/" style="fill-rule:evenodd;clip-rule:evenodd;stroke-linejoin:round;stroke-miterlimit:2;">
    <g transform="matrix(1,0,0,1,-2000,-441)">
        <g id="Glyphs">
            <g id="Numbers">
            </g>
            <g id="Lowercase">
                <g transform="matrix(0.545455,0,0,0.545455,1489.42,387.037)">
                    <g transform="matrix(1,0,0,-1,0,623.333)">
                        <path d="M1100.15,256.667C1100.15,256.667 1101.09,274.426 1100.18,297C1098.58,336.83 1092.55,391.111 1092.55,391.111C1092.55,400.617 1084.83,408.334 1075.33,408.334C1065.82,408.334 1058.1,400.617 1058.1,391.111C1058.1,391.111 1052.07,336.83 1050.47,297C1049.57,274.426 1050.5,256.667 1050.5,256.667C1050.5,242.965 1061.62,231.84 1075.33,231.84C1089.03,231.84 1100.15,242.965 1100.15,256.667Z"/>
                    </g>
                    <g transform="matrix(1,0,0,1,4,0)">
                        <path d="M1116.82,240.724L1082.79,290.912C1076.62,298.274 1077.04,309.112 1083.75,315.977C1083.75,315.977 1096.63,326.754 1109.47,340.728C1114.3,345.982 1118.79,351.832 1123.02,357.421C1133.82,371.701 1141.74,384.028 1141.74,384.028C1151.32,393.823 1167.05,393.995 1176.85,384.413C1186.64,374.831 1186.81,359.099 1177.23,349.305C1177.23,349.305 1165.08,341.116 1151.04,330.008C1145.55,325.661 1139.79,321.039 1134.65,316.098C1130.27,311.891 1126.21,307.687 1122.72,303.916C1122.72,303.916 1154.88,272.61 1154.88,272.61C1163.68,262.106 1162.3,246.435 1151.79,237.636C1141.29,228.837 1125.62,230.22 1116.82,240.724Z"/>
                    </g>
                </g>
            </g>
            <g id="Uppercase">
            </g>
            <g id="Symbols">
            </g>
        </g>
    </g>
</svg>
