<?xml version="1.0" encoding="UTF-8" standalone="no"?>
<!DOCTYPE svg PUBLIC "-//W3C//DTD SVG 1.1//EN" "http://www.w3.org/Graphics/SVG/1.1/DTD/svg11.dtd">
<svg width="100%" height="100%" viewBox="0 0 200 220" version="1.1" xmlns="http://www.w3.org/2000/svg" xmlns:xlink="http://www.w3.org/1999/xlink" xml:space="preserve" xmlns:serif="http://www.serif.com/" style="fill-rule:evenodd;clip-rule:evenodd;stroke-linejoin:round;stroke-miterlimit:2;">
    <g transform="matrix(1,0,0,1,-2200,0)">
        <g id="Glyphs">
            <g id="Numbers">
            </g>
            <g id="Lowercase">
            </g>
            <g id="Uppercase">
                <g transform="matrix(1,0,0,1,968.531,-217.983)">
                    <path d="M1268.75,264.19C1268.75,264.19 1270.4,297.108 1271.45,325.676C1272.25,347.464 1272.67,366.667 1272.67,366.667C1272.67,371.983 1276.98,376.293 1282.3,376.293C1282.3,376.293 1300.74,375.929 1321.63,376.654C1349.1,377.606 1380.64,380.208 1380.64,380.208C1388.12,380.208 1394.18,374.141 1394.18,366.667C1394.18,359.193 1388.12,353.125 1380.64,353.125C1380.64,353.125 1349.1,355.727 1321.63,356.679C1310.2,357.076 1299.5,357.146 1292.16,357.129C1292.36,349.467 1292.69,337.984 1293.14,325.676C1294.19,297.108 1295.84,264.19 1295.84,264.19C1295.84,256.716 1289.77,250.648 1282.3,250.648C1274.82,250.648 1268.75,256.716 1268.75,264.19Z"/>
                </g>
            </g>
            <g id="Symbols">
            </g>
        </g>
    </g>
</svg>
