<?xml version="1.0" encoding="UTF-8" standalone="no"?>
<!DOCTYPE svg PUBLIC "-//W3C//DTD SVG 1.1//EN" "http://www.w3.org/Graphics/SVG/1.1/DTD/svg11.dtd">
<svg width="100%" height="100%" viewBox="0 0 200 220" version="1.1" xmlns="http://www.w3.org/2000/svg" xmlns:xlink="http://www.w3.org/1999/xlink" xml:space="preserve" xmlns:serif="http://www.serif.com/" style="fill-rule:evenodd;clip-rule:evenodd;stroke-linejoin:round;stroke-miterlimit:2;">
    <g transform="matrix(1,0,0,1,-2400,-441)">
        <g id="Glyphs">
            <g id="Numbers">
            </g>
            <g id="Lowercase">
                <g transform="matrix(0.545455,0,0,0.545455,1689.77,387.037)">
                    <path d="M1520.25,292.693C1518.36,328.471 1515.59,366.667 1515.59,366.667C1515.59,380.369 1526.71,391.493 1540.41,391.493C1554.12,391.493 1565.24,380.369 1565.24,366.667C1565.24,366.667 1562.11,323.531 1560.22,286C1558.78,257.415 1558.16,232.222 1558.16,232.222C1558.16,224.463 1553.12,217.603 1545.72,215.286C1538.31,212.968 1530.26,215.729 1525.84,222.103L1492.74,269.511C1492.74,269.511 1440.07,238.867 1440.07,238.867C1433.8,235.463 1426.19,235.614 1420.06,239.265C1413.92,242.916 1410.16,249.528 1410.16,256.667L1405.59,366.667C1405.59,380.369 1416.71,391.493 1430.41,391.493C1444.12,391.493 1455.24,380.369 1455.24,366.667L1452.06,290.258C1452.06,290.258 1489.44,309.113 1489.44,309.113C1497.49,313.478 1507.53,311.09 1512.75,303.569L1520.25,292.693Z"/>
                </g>
            </g>
            <g id="Uppercase">
            </g>
            <g id="Symbols">
            </g>
        </g>
    </g>
</svg>
