<?xml version="1.0" encoding="UTF-8" standalone="no"?>
<!DOCTYPE svg PUBLIC "-//W3C//DTD SVG 1.1//EN" "http://www.w3.org/Graphics/SVG/1.1/DTD/svg11.dtd">
<svg width="100%" height="100%" viewBox="0 0 200 220" version="1.1" xmlns="http://www.w3.org/2000/svg" xmlns:xlink="http://www.w3.org/1999/xlink" xml:space="preserve" xmlns:serif="http://www.serif.com/" style="fill-rule:evenodd;clip-rule:evenodd;stroke-linejoin:round;stroke-miterlimit:2;">
    <g transform="matrix(1,0,0,1,-2400,0)">
        <g id="Glyphs">
            <g id="Numbers">
            </g>
            <g id="Lowercase">
            </g>
            <g id="Uppercase">
                <g transform="matrix(1,0,0,1,1014.59,-217.983)">
                    <path d="M1443.96,366.667L1441.79,280.707C1441.79,280.707 1494.17,302.225 1494.17,302.225C1497.86,303.818 1502.15,302.961 1504.95,300.074L1530.16,274.12C1530,280.841 1529.79,288.479 1529.55,296.417C1528.54,329.048 1526.87,366.667 1526.87,366.667C1526.87,374.141 1532.94,380.208 1540.41,380.208C1547.89,380.208 1553.96,374.141 1553.96,366.667C1553.96,366.667 1552.29,329.048 1551.28,296.417C1550.51,271.526 1550.15,249.583 1550.15,249.583C1550.15,245.616 1547.75,242.045 1544.07,240.555C1540.39,239.065 1536.18,239.955 1533.42,242.803L1495.78,281.705C1495.78,281.705 1434.75,254.129 1434.75,254.129C1431.37,252.668 1427.47,253.009 1424.39,255.036C1421.31,257.062 1419.46,260.503 1419.46,264.19L1416.87,366.667C1416.87,374.141 1422.94,380.208 1430.41,380.208C1437.89,380.208 1443.96,374.141 1443.96,366.667Z"/>
                </g>
            </g>
            <g id="Symbols">
            </g>
        </g>
    </g>
</svg>
