<?xml version="1.0" encoding="UTF-8" standalone="no"?>
<!DOCTYPE svg PUBLIC "-//W3C//DTD SVG 1.1//EN" "http://www.w3.org/Graphics/SVG/1.1/DTD/svg11.dtd">
<svg width="100%" height="100%" viewBox="0 0 200 220" version="1.1" xmlns="http://www.w3.org/2000/svg" xmlns:xlink="http://www.w3.org/1999/xlink" xml:space="preserve" xmlns:serif="http://www.serif.com/" style="fill-rule:evenodd;clip-rule:evenodd;stroke-linejoin:round;stroke-miterlimit:2;">
    <g transform="matrix(1,0,0,1,0,-220)">
        <g id="Glyphs">
            <g id="Numbers">
            </g>
            <g id="Lowercase">
            </g>
            <g id="Uppercase">
                <g transform="matrix(0.692987,0,0,1,-1077.77,-1.13687e-13)">
                    <path d="M1645.41,366.667L1643.01,292.551C1660.11,303.759 1683.79,319.371 1705.42,333.923C1735.75,354.331 1761.98,372.693 1761.98,372.693C1765.48,375.076 1770.71,375.77 1775.23,374.454C1779.76,373.138 1782.71,370.068 1782.71,366.667C1782.71,366.667 1783.41,339.17 1784.56,311.667C1785.72,284.145 1787.33,256.667 1787.33,256.667C1787.33,250.237 1779.8,245.017 1770.52,245.017C1761.24,245.017 1753.71,250.237 1753.71,256.667C1753.71,256.667 1755.32,284.145 1756.48,311.667C1757,324.091 1757.43,336.513 1757.74,346.401C1747.78,339.7 1735.22,331.198 1722.09,322.159C1682.78,295.111 1638.19,263.335 1638.19,263.335C1634.26,260.658 1628.39,259.879 1623.31,261.357C1618.22,262.835 1614.91,266.282 1614.91,270.103L1611.79,366.667C1611.79,373.096 1619.32,378.317 1628.6,378.317C1637.88,378.317 1645.41,373.096 1645.41,366.667Z"/>
                </g>
            </g>
            <g id="Symbols">
            </g>
        </g>
    </g>
</svg>
