<?xml version="1.0" encoding="UTF-8" standalone="no"?>
<!DOCTYPE svg PUBLIC "-//W3C//DTD SVG 1.1//EN" "http://www.w3.org/Graphics/SVG/1.1/DTD/svg11.dtd">
<svg width="100%" height="100%" viewBox="0 0 200 220" version="1.1" xmlns="http://www.w3.org/2000/svg" xmlns:xlink="http://www.w3.org/1999/xlink" xml:space="preserve" xmlns:serif="http://www.serif.com/" style="fill-rule:evenodd;clip-rule:evenodd;stroke-linejoin:round;stroke-miterlimit:2;">
    <g transform="matrix(1,0,0,1,-200,-220)">
        <g id="Glyphs">
            <g id="Numbers">
            </g>
            <g id="Lowercase">
            </g>
            <g id="Uppercase">
                <g transform="matrix(0.977208,2.79118e-18,2.79118e-18,1,28.919,-1.13687e-13)">
                    <path d="M326.99,370.167C333.825,369.49 339.089,363.971 339.301,357.261L339.205,256.981C339.3,253.968 338.026,251.069 335.726,249.061C333.425,247.052 330.333,246.142 327.28,246.573C327.28,246.573 294.485,251.94 266.003,256.073C244.262,259.229 225.034,261.614 225.034,261.614C220.193,262.298 216.603,266.356 216.609,271.135L215.118,366.681C215.122,369.841 216.494,372.851 218.895,374.969C221.295,377.086 224.501,378.112 227.718,377.793L326.99,370.167ZM312.652,344.934L237.778,354.037C237.778,354.036 236.422,279.305 236.422,279.305C244.044,278.143 255.939,276.368 268.745,274.608C286.207,272.208 305.355,269.805 317.575,268.302C317.575,268.302 312.652,344.934 312.652,344.934L312.652,344.934Z"/>
                </g>
            </g>
            <g id="Symbols">
            </g>
        </g>
    </g>
</svg>
