<?xml version="1.0" encoding="UTF-8" standalone="no"?>
<!DOCTYPE svg PUBLIC "-//W3C//DTD SVG 1.1//EN" "http://www.w3.org/Graphics/SVG/1.1/DTD/svg11.dtd">
<svg width="100%" height="100%" viewBox="0 0 200 220" version="1.1" xmlns="http://www.w3.org/2000/svg" xmlns:xlink="http://www.w3.org/1999/xlink" xml:space="preserve" xmlns:serif="http://www.serif.com/" style="fill-rule:evenodd;clip-rule:evenodd;stroke-linejoin:round;stroke-miterlimit:2;">
    <g transform="matrix(1,0,0,1,-400,-220)">
        <g id="Glyphs">
            <g id="Numbers">
            </g>
            <g id="Lowercase">
            </g>
            <g id="Uppercase">
                <g transform="matrix(1,0,0,1,-1641.82,1.7053e-13)">
                    <path d="M2087.87,317.189L2087.55,317.286C2080.53,319.859 2076.93,327.645 2079.5,334.662C2080.87,338.399 2083.72,341.169 2087.14,342.553L2086.46,366.667C2086.46,374.141 2092.53,380.208 2100,380.208C2107.47,380.208 2113.54,374.141 2113.54,366.667L2112.67,336.03C2124.32,331.117 2140.72,324.256 2155.91,318.077C2176.89,309.539 2195.53,302.37 2195.53,302.37C2199.42,300.944 2201.96,297.189 2201.84,293.048C2201.71,288.907 2198.95,285.309 2194.99,284.116C2194.99,284.116 2177.64,279.137 2158.09,273.07C2132.47,265.121 2103.07,255.39 2103.07,255.39C2099.84,254.419 2096.34,255.033 2093.64,257.045C2090.93,259.058 2089.33,262.232 2089.33,265.606L2087.87,317.189ZM2111.92,309.66C2122.89,306.2 2136.14,301.978 2148.52,297.923C2152.77,296.53 2156.92,295.155 2160.85,293.845C2158.17,293.051 2155.39,292.236 2152.57,291.414C2138.01,287.175 2122.12,282.744 2111.07,279.694L2111.92,309.66Z"/>
                </g>
            </g>
            <g id="Symbols">
            </g>
        </g>
    </g>
</svg>
