<?xml version="1.0" encoding="UTF-8" standalone="no"?>
<!DOCTYPE svg PUBLIC "-//W3C//DTD SVG 1.1//EN" "http://www.w3.org/Graphics/SVG/1.1/DTD/svg11.dtd">
<svg width="100%" height="100%" viewBox="0 0 200 220" version="1.1" xmlns="http://www.w3.org/2000/svg" xmlns:xlink="http://www.w3.org/1999/xlink" xml:space="preserve" xmlns:serif="http://www.serif.com/" style="fill-rule:evenodd;clip-rule:evenodd;stroke-linejoin:round;stroke-miterlimit:2;">
    <g transform="matrix(1,0,0,1,-1200,-1320)">
        <g id="Glyphs">
            <g transform="matrix(1,0,0,1,-1610.39,0)">
                <g id="Numbers">
                </g>
            </g>
            <g id="Lowercase">
            </g>
            <g id="Uppercase">
            </g>
            <g id="Symbols" transform="matrix(1,0,0,1,198.458,1103.9)">
                <g transform="matrix(0.827689,0,0,0.827689,25.2428,-827.148)">
                    <g transform="matrix(0.997131,0.0756932,-0.0756932,0.997131,109.783,-102.143)">
                        <path d="M1284.9,1356.67C1284.9,1356.67 1286.59,1368.26 1287.86,1383.32C1288.57,1391.7 1289.53,1401.06 1289.41,1409.98C1289.33,1416.39 1288.57,1422.45 1287.9,1427.75C1286.55,1438.41 1284.9,1445.52 1284.9,1445.52C1284.9,1453.86 1291.66,1460.62 1300,1460.62C1308.34,1460.62 1315.1,1453.86 1315.1,1445.52C1315.1,1445.52 1313.45,1438.41 1312.1,1427.75C1311.43,1422.45 1310.67,1416.39 1310.59,1409.98C1310.47,1401.06 1311.43,1391.7 1312.14,1383.32C1313.41,1368.26 1315.1,1356.67 1315.1,1356.67C1315.1,1348.33 1308.34,1341.56 1300,1341.56C1291.66,1341.56 1284.9,1348.33 1284.9,1356.67Z"/>
                    </g>
                    <g transform="matrix(6.12323e-17,1,-1,6.12323e-17,2701.09,93.3333)">
                        <path d="M1284.9,1360.18C1284.9,1360.18 1286.58,1371.3 1287.86,1385.78C1288.57,1393.83 1289.53,1402.81 1289.41,1411.38C1289.33,1417.54 1288.57,1423.36 1287.9,1428.45C1286.55,1438.71 1284.9,1445.52 1284.9,1445.52C1284.9,1453.86 1291.66,1460.62 1300,1460.62C1308.34,1460.62 1315.1,1453.86 1315.1,1445.52C1315.1,1445.52 1313.45,1438.71 1312.1,1428.45C1311.43,1423.36 1310.67,1417.54 1310.59,1411.38C1310.47,1402.81 1311.43,1393.83 1312.14,1385.78C1313.42,1371.3 1315.1,1360.18 1315.1,1360.18C1315.1,1351.84 1308.34,1345.08 1300,1345.08C1291.66,1345.08 1284.9,1351.84 1284.9,1360.18Z"/>
                    </g>
                </g>
            </g>
        </g>
    </g>
</svg>
