<?xml version="1.0" encoding="UTF-8" standalone="no"?>
<!DOCTYPE svg PUBLIC "-//W3C//DTD SVG 1.1//EN" "http://www.w3.org/Graphics/SVG/1.1/DTD/svg11.dtd">
<svg width="100%" height="100%" viewBox="0 0 200 220" version="1.1" xmlns="http://www.w3.org/2000/svg" xmlns:xlink="http://www.w3.org/1999/xlink" xml:space="preserve" xmlns:serif="http://www.serif.com/" style="fill-rule:evenodd;clip-rule:evenodd;stroke-linejoin:round;stroke-miterlimit:2;">
    <g transform="matrix(1,0,0,1,-1200,-1320)">
        <g id="Glyphs">
            <g transform="matrix(1,0,0,1,-1610.39,0)">
                <g id="Numbers">
                </g>
            </g>
            <g id="Lowercase">
            </g>
            <g id="Uppercase">
            </g>
            <g id="Symbols" transform="matrix(1,0,0,1,198.458,1103.9)">
                <g transform="matrix(1,0,0,1,-198.458,-1103.9)">
                    <path d="M1290.86,1421.23C1285.88,1421.14 1281.18,1420.53 1277.05,1419.99C1268.57,1418.87 1262.92,1417.5 1262.92,1417.5C1256.03,1417.5 1250.42,1423.1 1250.42,1430C1250.42,1436.9 1256.03,1442.5 1262.92,1442.5C1262.92,1442.5 1268.57,1441.13 1277.05,1440.01C1280.99,1439.49 1285.46,1438.91 1290.19,1438.78C1289.66,1443.27 1288.81,1447.49 1288.04,1451.24C1286.26,1459.95 1284.45,1465.72 1284.45,1465.72C1283.93,1472.6 1289.09,1478.61 1295.97,1479.13C1302.85,1479.65 1308.86,1474.49 1309.38,1467.61C1309.38,1467.61 1308.46,1461.64 1308.01,1452.76C1307.81,1448.8 1307.6,1444.33 1307.79,1439.63C1309.35,1439.78 1310.88,1439.92 1312.37,1440.05C1324.35,1441.1 1333.56,1442.5 1333.56,1442.5C1340.46,1442.5 1346.06,1436.9 1346.06,1430C1346.06,1423.1 1340.46,1417.5 1333.56,1417.5C1333.56,1417.5 1324.35,1418.9 1312.37,1419.95C1311.64,1420.02 1310.91,1420.08 1310.17,1420.15C1310.39,1418.77 1310.62,1417.42 1310.83,1416.09C1312.83,1403.74 1314.94,1394.28 1314.94,1394.28C1315.47,1387.4 1310.31,1381.39 1303.43,1380.87C1296.55,1380.35 1290.54,1385.51 1290.02,1392.39C1290.02,1392.39 1290.68,1402.06 1290.79,1414.57C1290.81,1416.73 1290.84,1418.96 1290.86,1421.23Z"/>
                </g>
            </g>
        </g>
    </g>
</svg>
