<?xml version="1.0" encoding="UTF-8" standalone="no"?>
<!DOCTYPE svg PUBLIC "-//W3C//DTD SVG 1.1//EN" "http://www.w3.org/Graphics/SVG/1.1/DTD/svg11.dtd">
<svg width="100%" height="100%" viewBox="0 0 200 220" version="1.1" xmlns="http://www.w3.org/2000/svg" xmlns:xlink="http://www.w3.org/1999/xlink" xml:space="preserve" xmlns:serif="http://www.serif.com/" style="fill-rule:evenodd;clip-rule:evenodd;stroke-linejoin:round;stroke-miterlimit:2;">
    <g transform="matrix(1,0,0,1,-600,-220)">
        <g id="Glyphs">
            <g id="Numbers">
            </g>
            <g id="Lowercase">
            </g>
            <g id="Uppercase">
                <g>
                    <path d="M736.895,358.349C742.459,359.964 746.495,360.711 746.495,360.711C753.714,362.645 761.146,358.354 763.08,351.135C765.015,343.916 760.724,336.484 753.505,334.55C753.505,334.55 747.437,332.399 739.449,330.768C738.607,330.597 737.747,330.428 736.871,330.264L736.595,256.973C736.689,253.941 735.389,251.033 733.068,249.08C730.747,247.127 727.659,246.344 724.688,246.955C724.688,246.955 705.611,251.343 686.452,255.361C667.295,259.377 648.063,263.022 648.063,263.022C643.588,263.942 640.379,267.884 640.385,272.452L638.652,367.997C638.656,371.336 640.115,374.507 642.648,376.682C645.181,378.858 648.536,379.821 651.837,379.321L725.597,370.084C731.625,369.171 736.226,364.318 736.895,358.349ZM712.16,326.699L715.963,268.741C708.833,270.085 699.525,271.872 690.233,273.746C678.66,276.08 667.115,278.55 659.774,280.143C659.774,280.143 661.305,354.347 661.305,354.347L705.809,346.42C702.673,345.048 700.702,344.147 700.702,344.147C695.693,342.805 692.717,337.649 694.059,332.641C695.401,327.633 700.556,324.656 705.564,325.998C705.564,325.998 708.166,326.245 712.16,326.699Z"/>
                </g>
            </g>
            <g id="Symbols">
            </g>
        </g>
    </g>
</svg>
