<?xml version="1.0" encoding="UTF-8" standalone="no"?>
<!DOCTYPE svg PUBLIC "-//W3C//DTD SVG 1.1//EN" "http://www.w3.org/Graphics/SVG/1.1/DTD/svg11.dtd">
<svg width="100%" height="100%" viewBox="0 0 200 220" version="1.1" xmlns="http://www.w3.org/2000/svg" xmlns:xlink="http://www.w3.org/1999/xlink" xml:space="preserve" xmlns:serif="http://www.serif.com/" style="fill-rule:evenodd;clip-rule:evenodd;stroke-linejoin:round;stroke-miterlimit:2;">
    <g transform="matrix(1,0,0,1,-600,-220)">
        <g id="Glyphs">
            <g id="Numbers">
            </g>
            <g id="Lowercase">
            </g>
            <g id="Uppercase">
                <g transform="matrix(1,0,0,1,-1616,-1.7053e-13)">
                    <g transform="matrix(0.977208,2.79118e-18,2.79118e-18,1,2021.4,1.13687e-13)">
                        <path d="M327.66,370.084C334.2,369.116 339.097,363.721 339.301,357.261L338.915,256.973C339.01,253.941 337.681,251.033 335.305,249.08C332.93,247.127 329.77,246.344 326.729,246.955C326.729,246.955 307.208,251.343 287.602,255.361C267.998,259.377 248.317,263.022 248.317,263.022C243.739,263.942 240.454,267.884 240.46,272.452L238.687,367.997C238.691,371.336 240.184,374.507 242.776,376.682C245.368,378.858 248.802,379.821 252.18,379.321L327.66,370.084ZM312.647,345.509L261.868,354.347C261.868,354.347 260.302,280.143 260.302,280.143C267.814,278.55 279.628,276.08 291.472,273.746C300.98,271.872 310.505,270.085 317.801,268.741C317.801,268.741 312.647,345.509 312.647,345.509L312.647,345.509Z"/>
                    </g>
                    <g transform="matrix(-0.965926,-0.258819,-0.258819,0.965926,4684.91,616.78)">
                        <path d="M2309.55,326.658C2309.55,326.658 2315.97,326.15 2324.11,326.643C2338.59,327.519 2358.08,330.805 2358.08,330.805C2363.26,330.805 2367.47,335.014 2367.47,340.199C2367.47,345.384 2363.26,349.594 2358.08,349.594C2358.08,349.594 2338.59,352.879 2324.11,353.756C2315.97,354.248 2309.55,353.741 2309.55,353.741C2302.08,353.741 2296.01,347.673 2296.01,340.199C2296.01,332.725 2302.08,326.658 2309.55,326.658Z"/>
                    </g>
                </g>
            </g>
            <g id="Symbols">
            </g>
        </g>
    </g>
</svg>
