<?xml version="1.0" encoding="UTF-8" standalone="no"?>
<!DOCTYPE svg PUBLIC "-//W3C//DTD SVG 1.1//EN" "http://www.w3.org/Graphics/SVG/1.1/DTD/svg11.dtd">
<svg width="100%" height="100%" viewBox="0 0 200 220" version="1.1" xmlns="http://www.w3.org/2000/svg" xmlns:xlink="http://www.w3.org/1999/xlink" xml:space="preserve" xmlns:serif="http://www.serif.com/" style="fill-rule:evenodd;clip-rule:evenodd;stroke-linejoin:round;stroke-miterlimit:2;">
    <g transform="matrix(1,0,0,1,-1600,-1100)">
        <g id="Glyphs">
            <g id="Numbers">
            </g>
            <g id="Lowercase">
            </g>
            <g id="Uppercase">
            </g>
            <g id="Symbols" transform="matrix(1,0,0,1,198.458,1103.9)">
                <g transform="matrix(1,0,0,1,1200,-256.667)">
                    <g transform="matrix(1,0,0,1,185.751,-133.655)">
                        <path d="M116.031,520.866C120.589,520.866 122.681,524.266 122.243,529.333C121.791,534.578 119.538,536.988 113.889,536.988C109.33,536.988 106.198,532.705 106.198,528.147C106.198,523.589 111.472,520.866 116.031,520.866Z"/>
                    </g>
                    <g transform="matrix(1,0,0,1,0.914885,37.3672)">
                        <path d="M308.572,292.477C308.382,293.11 308.252,293.646 308.445,293.655L308.863,293.053L308.951,292.913C308.899,292.764 308.766,292.618 308.572,292.477C308.744,291.88 308.97,291.198 309.025,290.785C309.041,290.665 309.107,290.423 309.242,290.46C310.108,290.697 309.746,291.675 308.951,292.913C309.028,293.124 308.946,293.34 308.657,293.559C308.563,293.631 308.493,293.662 308.445,293.655C307.631,294.823 306.598,296.117 305.894,297.211C300.167,306.114 291.993,316.545 289.684,321.963C288.828,324.002 288.181,326.012 288.274,328.211C288.396,331.075 289.419,334.034 289.605,336.908C289.426,339.666 291.52,342.05 294.278,342.229C297.035,342.408 299.42,340.314 299.599,337.556C300.076,335.123 299.928,332.478 300.265,329.982C300.341,329.421 300.731,329.02 301.071,328.578C303.029,326.027 307.522,322.614 312.157,318.593C316.693,314.659 321.266,310.456 324.731,306.672C328.292,302.783 330.202,298.795 331.181,295.881C333.215,289.57 330.929,283.016 326.402,277.195C322.368,272.009 315.51,268.088 309.954,266.08C306.281,264.806 301.731,264.448 296.731,264.67C290.476,264.948 283.167,266.491 276.928,266.783C269.473,267.316 263.853,273.8 264.386,281.255C264.919,288.71 271.404,294.33 278.858,293.797L302.422,290.456C303.886,290.83 307.388,291.58 308.572,292.477Z"/>
                    </g>
                </g>
            </g>
        </g>
    </g>
</svg>
