<?xml version="1.0" encoding="UTF-8" standalone="no"?>
<!DOCTYPE svg PUBLIC "-//W3C//DTD SVG 1.1//EN" "http://www.w3.org/Graphics/SVG/1.1/DTD/svg11.dtd">
<svg width="100%" height="100%" viewBox="0 0 200 220" version="1.1" xmlns="http://www.w3.org/2000/svg" xmlns:xlink="http://www.w3.org/1999/xlink" xml:space="preserve" xmlns:serif="http://www.serif.com/" style="fill-rule:evenodd;clip-rule:evenodd;stroke-linejoin:round;stroke-miterlimit:2;">
    <g transform="matrix(1,0,0,1,-400,-1100)">
        <g id="Glyphs">
            <g transform="matrix(1,0,0,1,-1610.39,0)">
                <g id="Numbers">
                </g>
            </g>
            <g id="Lowercase">
            </g>
            <g id="Uppercase">
            </g>
            <g id="Symbols" transform="matrix(1,0,0,1,198.458,1103.9)">
                <g transform="matrix(1,0,0,0.719032,0,11.6543)">
                    <g transform="matrix(0.708163,0,0,0.708163,207.452,-262.994)">
                        <path d="M118.044,506.148L120.177,491.334C121.249,484.732 123.341,479.726 124.599,474.195C125.35,470.894 125.64,467.713 126.074,464.618L129.717,446.66C132.36,434.797 127.58,422.181 119.05,418.505C110.52,414.829 101.449,421.476 98.806,433.34C98.806,433.34 97.455,439.669 96.791,447.866C96.395,452.759 96.069,458.193 96.29,463.389C96.902,468.352 97.077,473.57 97.782,479.435C98.306,483.801 98.786,487.846 99.861,492.409C100.984,496.785 101.668,500.187 102.842,503.191C105.585,510.209 107.333,513.571 107.333,513.571C108.806,517.681 112.401,519.356 115.357,517.307C118.313,515.259 119.516,510.259 118.044,506.148Z"/>
                    </g>
                    <g transform="matrix(0.708163,0,0,0.708163,233.75,-262.994)">
                        <path d="M118.044,506.148L120.177,491.334C121.249,484.732 123.341,479.726 124.599,474.195C125.35,470.894 125.64,467.713 126.074,464.618L129.717,446.66C132.36,434.797 127.58,422.181 119.05,418.505C110.52,414.829 101.449,421.476 98.806,433.34C98.806,433.34 97.455,439.669 96.791,447.866C96.395,452.759 96.069,458.193 96.29,463.389C96.902,468.352 97.077,473.57 97.782,479.435C98.306,483.801 98.786,487.846 99.861,492.409C100.984,496.785 101.668,500.187 102.842,503.191C105.585,510.209 107.333,513.571 107.333,513.571C108.806,517.681 112.401,519.356 115.357,517.307C118.313,515.259 119.516,510.259 118.044,506.148Z"/>
                    </g>
                </g>
            </g>
        </g>
    </g>
</svg>
