<?xml version="1.0" encoding="UTF-8" standalone="no"?>
<!DOCTYPE svg PUBLIC "-//W3C//DTD SVG 1.1//EN" "http://www.w3.org/Graphics/SVG/1.1/DTD/svg11.dtd">
<svg width="100%" height="100%" viewBox="0 0 200 220" version="1.1" xmlns="http://www.w3.org/2000/svg" xmlns:xlink="http://www.w3.org/1999/xlink" xml:space="preserve" xmlns:serif="http://www.serif.com/" style="fill-rule:evenodd;clip-rule:evenodd;stroke-linejoin:round;stroke-miterlimit:2;">
    <g transform="matrix(1,0,0,1,-800,-220)">
        <g id="Glyphs">
            <g id="Numbers">
            </g>
            <g id="Lowercase">
            </g>
            <g id="Uppercase">
                <g transform="matrix(1.00151,0,0,1,-1253.18,-5.68434e-14)">
                    <path d="M2113.53,366.667L2111.45,277.048C2111.45,277.048 2174.41,262.566 2174.41,262.566C2168.72,269.378 2162.21,277.134 2155.63,284.843C2136.97,306.726 2117.89,328.215 2117.89,328.215C2115.72,330.819 2114.87,334.276 2115.58,337.589C2116.29,340.902 2118.48,343.704 2121.53,345.188L2184.79,378.85C2191.5,382.125 2199.61,379.325 2202.88,372.6C2206.15,365.876 2203.35,357.758 2196.64,354.483L2143.73,330.944C2150.56,322.265 2160.49,309.725 2170.56,297.295C2188.66,274.966 2207.22,253.009 2207.22,253.009C2209.83,249.865 2210.17,245.408 2208.06,241.905C2205.95,238.403 2201.85,236.625 2197.86,237.476L2097.66,257.123C2092.47,258.228 2088.76,262.819 2088.76,268.133L2086.47,366.667C2086.47,374.146 2092.53,380.219 2100,380.219C2107.47,380.219 2113.53,374.146 2113.53,366.667Z"/>
                </g>
            </g>
            <g id="Symbols">
            </g>
        </g>
    </g>
</svg>
