<?xml version="1.0" encoding="UTF-8" standalone="no"?>
<!DOCTYPE svg PUBLIC "-//W3C//DTD SVG 1.1//EN" "http://www.w3.org/Graphics/SVG/1.1/DTD/svg11.dtd">
<svg width="100%" height="100%" viewBox="0 0 200 220" version="1.1" xmlns="http://www.w3.org/2000/svg" xmlns:xlink="http://www.w3.org/1999/xlink" xml:space="preserve" xmlns:serif="http://www.serif.com/" style="fill-rule:evenodd;clip-rule:evenodd;stroke-linejoin:round;stroke-miterlimit:2;">
    <g transform="matrix(1,0,0,1,-1000,-220)">
        <g id="Glyphs">
            <g id="Numbers">
            </g>
            <g id="Lowercase">
            </g>
            <g id="Uppercase">
                <g transform="matrix(1,0,0,1,1003.29,-220)">
                    <path d="M120.659,463.582L43.474,486.78C38.959,487.983 35.696,491.905 35.334,496.563C34.972,501.221 37.589,505.6 41.863,507.487C41.863,507.487 74.453,520.673 102.424,532.707C110.123,536.019 117.466,539.25 123.71,542.029C123.709,542.029 116.618,545.581 116.618,545.581C116.618,545.581 55.755,574.731 55.755,574.731C49.168,578.261 46.685,586.475 50.216,593.063C53.746,599.65 61.96,602.133 68.548,598.603L126.524,564.068C126.524,564.068 150.898,550.13 150.898,550.13C154.171,548.376 156.158,544.909 156.017,541.198C155.875,537.487 153.63,534.181 150.233,532.681C150.233,532.681 131.361,524.695 110.194,515.108C99.916,510.454 89.095,505.437 79.543,500.965C79.544,500.965 127.636,489.751 127.636,489.751C134.857,487.826 139.157,480.4 137.232,473.179C135.307,465.957 127.881,461.657 120.659,463.582Z"/>
                </g>
            </g>
            <g id="Symbols">
            </g>
        </g>
    </g>
</svg>
