<?xml version="1.0" encoding="UTF-8" standalone="no"?>
<!DOCTYPE svg PUBLIC "-//W3C//DTD SVG 1.1//EN" "http://www.w3.org/Graphics/SVG/1.1/DTD/svg11.dtd">
<svg width="100%" height="100%" viewBox="0 0 200 220" version="1.1" xmlns="http://www.w3.org/2000/svg" xmlns:xlink="http://www.w3.org/1999/xlink" xml:space="preserve" xmlns:serif="http://www.serif.com/" style="fill-rule:evenodd;clip-rule:evenodd;stroke-linecap:round;stroke-linejoin:round;stroke-miterlimit:1.5;">
    <g transform="matrix(1,0,0,1,-1400,-1100)">
        <g id="Glyphs">
            <g transform="matrix(1,0,0,1,-1610.39,0)">
                <g id="Numbers">
                </g>
            </g>
            <g id="Lowercase">
            </g>
            <g id="Uppercase">
            </g>
            <g id="Symbols" transform="matrix(1,0,0,1,198.458,1103.9)">
                <g transform="matrix(1,0,0,1,1201.59,-256.667)">
                    <g transform="matrix(-0.695928,-0.131066,-0.176519,0.451232,257.186,203.903)">
                        <path d="M106.674,515.542C106.674,515.542 104.898,512.475 101.891,506.121C100.542,503.269 99.849,499.896 98.542,495.628C97.327,491.236 96.861,487.327 96.257,483.031C95.474,477.472 95.253,472.517 94.588,467.772C94.328,462.439 94.701,456.818 95.097,451.752C95.774,443.09 97.257,436.298 97.257,436.298C100.453,421.952 110.667,411.964 120.052,414.008C129.438,416.051 134.462,429.357 131.266,443.702L127.776,460.236C127.312,463.545 127.059,466.857 126.251,470.408C124.951,476.121 122.694,481.219 121.496,488.114L118.702,504.177C120.259,508.521 118.828,514.595 115.509,517.731C112.19,520.867 108.231,519.887 106.674,515.542Z"/>
                    </g>
                    <g transform="matrix(1,0,0,1,-14.2493,-190.866)">
                        <path d="M116.031,520.866C120.589,520.866 122.681,524.266 122.243,529.333C121.791,534.578 119.538,536.988 113.889,536.988C109.33,536.988 106.198,532.705 106.198,528.147C106.198,523.589 111.472,520.866 116.031,520.866Z" style="stroke:black;stroke-width:16.67px;"/>
                    </g>
                </g>
            </g>
        </g>
    </g>
</svg>
