<?xml version="1.0" encoding="UTF-8" standalone="no"?>
<!DOCTYPE svg PUBLIC "-//W3C//DTD SVG 1.1//EN" "http://www.w3.org/Graphics/SVG/1.1/DTD/svg11.dtd">
<svg width="100%" height="100%" viewBox="0 0 200 220" version="1.1" xmlns="http://www.w3.org/2000/svg" xmlns:xlink="http://www.w3.org/1999/xlink" xml:space="preserve" xmlns:serif="http://www.serif.com/" style="fill-rule:evenodd;clip-rule:evenodd;stroke-linejoin:round;stroke-miterlimit:2;">
    <g transform="matrix(1,0,0,1,-1400,-1100)">
        <g id="Glyphs">
            <g id="Numbers">
            </g>
            <g id="Lowercase">
            </g>
            <g id="Uppercase">
            </g>
            <g id="Symbols" transform="matrix(1,0,0,1,198.458,1103.9)">
                <g transform="matrix(1,0,0,1,1201.59,-256.667)">
                    <g transform="matrix(-0.695928,-0.131066,-0.176519,0.451232,257.186,203.903)">
                        <path d="M108.407,513.905C108.407,513.905 106.709,510.846 104.454,504.7C103.435,501.922 102.746,498.611 101.848,494.546C101.001,490.325 100.615,486.427 100.276,482.383C99.799,476.706 99.815,471.513 99.369,466.687C99.228,461.728 99.58,456.509 100.021,451.825C100.784,443.714 102.156,437.364 102.156,437.364C104.431,427.152 111.703,420.041 118.384,421.496C125.065,422.951 128.642,432.423 126.367,442.636L122.995,461.321C122.663,464.437 122.4,467.608 121.785,470.977C120.743,476.682 119.001,482.347 118.189,489.196C117.709,492.516 117.223,495.198 117.124,497.678C116.915,502.894 116.97,505.814 116.97,505.814C118.078,508.907 117.059,513.231 114.696,515.463C112.333,517.696 109.515,516.998 108.407,513.905Z"/>
                    </g>
                    <g transform="matrix(1,0,0,1,-14.2493,-190.866)">
                        <path d="M116.031,520.866C120.589,520.866 122.681,524.266 122.243,529.333C121.791,534.578 119.538,536.988 113.889,536.988C109.33,536.988 106.198,532.705 106.198,528.147C106.198,523.589 111.472,520.866 116.031,520.866Z"/>
                    </g>
                </g>
            </g>
        </g>
    </g>
</svg>
