<?xml version="1.0" encoding="UTF-8" standalone="no"?>
<!DOCTYPE svg PUBLIC "-//W3C//DTD SVG 1.1//EN" "http://www.w3.org/Graphics/SVG/1.1/DTD/svg11.dtd">
<svg width="100%" height="100%" viewBox="0 0 200 220" version="1.1" xmlns="http://www.w3.org/2000/svg" xmlns:xlink="http://www.w3.org/1999/xlink" xml:space="preserve" xmlns:serif="http://www.serif.com/" style="fill-rule:evenodd;clip-rule:evenodd;stroke-linejoin:round;stroke-miterlimit:2;">
    <g transform="matrix(1,0,0,1,-1200,0)">
        <g id="Glyphs">
            <g id="Numbers">
            </g>
            <g id="Lowercase">
            </g>
            <g id="Uppercase">
                <g transform="matrix(1,0,0,1,995,-440)">
                    <path d="M252.723,495.226L252.724,495.227L277.794,488.961C277.62,499.669 277.295,515.321 276.725,530.971C275.707,558.871 273.914,586.667 273.914,586.667C273.914,594.141 279.982,600.208 287.456,600.208C294.929,600.208 300.997,594.141 300.997,586.667C300.997,586.667 299.204,558.871 298.187,530.971C297.523,512.775 297.191,494.575 297.049,484.149L363.689,467.494C370.88,465.459 375.065,457.967 373.03,450.776C370.994,443.585 363.503,439.399 356.311,441.435L247.276,475.985C241.975,477.485 238.887,482.991 240.37,488.297C241.853,493.603 247.348,496.71 252.659,495.245L252.723,495.226Z"/>
                </g>
            </g>
            <g id="Symbols">
            </g>
        </g>
    </g>
</svg>
