<?xml version="1.0" encoding="UTF-8" standalone="no"?>
<!DOCTYPE svg PUBLIC "-//W3C//DTD SVG 1.1//EN" "http://www.w3.org/Graphics/SVG/1.1/DTD/svg11.dtd">
<svg width="100%" height="100%" viewBox="0 0 200 220" version="1.1" xmlns="http://www.w3.org/2000/svg" xmlns:xlink="http://www.w3.org/1999/xlink" xml:space="preserve" xmlns:serif="http://www.serif.com/" style="fill-rule:evenodd;clip-rule:evenodd;stroke-linejoin:round;stroke-miterlimit:2;">
    <g transform="matrix(1,0,0,1,-1400,-220)">
        <g id="Glyphs">
            <g id="Numbers">
            </g>
            <g id="Lowercase">
            </g>
            <g id="Uppercase">
                <g transform="matrix(1,0,0,1,1000,-220)">
                    <path d="M436.458,490.478L438.807,565.345C438.807,570.627 442.5,575.19 447.666,576.291C447.666,576.291 480.019,582.17 507.96,587.705C529.281,591.93 548.011,595.995 548.011,595.995C550.826,596.595 553.762,595.892 556,594.081C558.238,592.27 559.538,589.545 559.538,586.667C559.538,586.667 559.944,559.166 560.945,531.667C561.948,504.124 563.542,476.667 563.542,476.667C563.542,469.193 557.474,463.125 550,463.125C542.526,463.125 536.458,469.193 536.458,476.667C536.458,476.667 538.052,504.124 539.055,531.667C539.648,547.962 540.032,564.257 540.247,574.831C532.883,573.239 522.773,571.022 512.04,568.57C493.433,564.32 472.954,559.402 461.467,556.62C461.466,556.62 463.542,490.478 463.542,490.478C463.542,483.005 457.474,476.937 450,476.937C442.526,476.937 436.458,483.005 436.458,490.478Z"/>
                </g>
            </g>
            <g id="Symbols">
            </g>
        </g>
    </g>
</svg>
