<?xml version="1.0" encoding="UTF-8" standalone="no"?>
<!DOCTYPE svg PUBLIC "-//W3C//DTD SVG 1.1//EN" "http://www.w3.org/Graphics/SVG/1.1/DTD/svg11.dtd">
<svg width="100%" height="100%" viewBox="0 0 200 219" version="1.1" xmlns="http://www.w3.org/2000/svg" xmlns:xlink="http://www.w3.org/1999/xlink" xml:space="preserve" xmlns:serif="http://www.serif.com/" style="fill-rule:evenodd;clip-rule:evenodd;stroke-linejoin:round;stroke-miterlimit:2;">
    <g transform="matrix(1,0,0,1,-1600,-661)">
        <g id="Glyphs">
            <g id="Numbers">
            </g>
            <g id="Lowercase">
                <g transform="matrix(0.545455,0,0,0.545455,1318.71,486.667)">
                    <path d="M628.443,488.981C628.443,488.981 646.265,515.166 663.603,541.844C680.899,568.457 697.589,595.378 697.589,595.378C701.018,601.381 707.65,604.813 714.532,604.147C721.413,603.48 727.263,598.838 729.476,592.288C729.476,592.288 735.954,571.475 745.13,548.554C757.247,518.286 773.52,484.613 773.52,484.613C777.906,471.631 770.927,457.532 757.946,453.146C744.965,448.761 730.865,455.739 726.48,468.721C726.48,468.721 718.997,505.364 710.276,536.779C709.877,538.216 709.475,539.64 709.072,541.049C705.893,534.786 702.548,528.147 699.235,521.489C685.06,493.004 671.557,464.352 671.557,464.352C664.76,452.455 649.583,448.313 637.686,455.11C625.788,461.906 621.646,477.084 628.443,488.981Z"/>
                </g>
            </g>
            <g id="Uppercase">
            </g>
            <g id="Symbols">
            </g>
        </g>
    </g>
</svg>
