<?xml version="1.0" encoding="UTF-8" standalone="no"?>
<!DOCTYPE svg PUBLIC "-//W3C//DTD SVG 1.1//EN" "http://www.w3.org/Graphics/SVG/1.1/DTD/svg11.dtd">
<svg width="100%" height="100%" viewBox="0 0 200 220" version="1.1" xmlns="http://www.w3.org/2000/svg" xmlns:xlink="http://www.w3.org/1999/xlink" xml:space="preserve" xmlns:serif="http://www.serif.com/" style="fill-rule:evenodd;clip-rule:evenodd;stroke-linejoin:round;stroke-miterlimit:2;">
    <g transform="matrix(1,0,0,1,-1600,-220)">
        <g id="Glyphs">
            <g id="Numbers">
            </g>
            <g id="Lowercase">
            </g>
            <g id="Uppercase">
                <g transform="matrix(-1,0,0,1,2400,-220)">
                    <path d="M659.675,462.665C659.675,462.665 668.158,493.007 677,523.29C681.345,538.171 685.772,553.022 689.149,564.274C693.275,557.888 698.162,550.199 703.156,542.065C720.233,514.256 738.676,481.474 738.676,481.474C742.774,475.224 751.175,473.477 757.425,477.575C763.675,481.673 765.423,490.075 761.324,496.325C761.324,496.325 738.613,526.308 719.917,553.055C705.678,573.425 693.914,591.925 693.914,591.925C691.893,595.008 688.283,596.66 684.628,596.173C680.974,595.686 677.922,593.147 676.778,589.642C676.778,589.642 666.411,559.891 655.697,530.242C644.975,500.572 633.928,471.067 633.928,471.067C631.61,463.961 635.496,456.311 642.601,453.992C649.706,451.674 657.357,455.56 659.675,462.665Z"/>
                </g>
            </g>
            <g id="Symbols">
            </g>
        </g>
    </g>
</svg>
