<?xml version="1.0" encoding="UTF-8" standalone="no"?>
<!DOCTYPE svg PUBLIC "-//W3C//DTD SVG 1.1//EN" "http://www.w3.org/Graphics/SVG/1.1/DTD/svg11.dtd">
<svg width="100%" height="100%" viewBox="0 0 200 220" version="1.1" xmlns="http://www.w3.org/2000/svg" xmlns:xlink="http://www.w3.org/1999/xlink" xml:space="preserve" xmlns:serif="http://www.serif.com/" style="fill-rule:evenodd;clip-rule:evenodd;stroke-linejoin:round;stroke-miterlimit:2;">
    <g transform="matrix(1,0,0,1,-1800,-220)">
        <g id="Glyphs">
            <g id="Numbers">
            </g>
            <g id="Lowercase">
            </g>
            <g id="Uppercase">
                <g transform="matrix(1,0,0,1,1002.28,-220)">
                    <path d="M829.913,493.425L853.877,589.173C855.02,594.214 859.429,597.845 864.596,597.998C869.763,598.152 874.38,594.791 875.821,589.826L891.827,530.972C893.858,536.056 896.013,541.492 898.145,546.937C906.604,568.545 914.695,590.292 914.695,590.292C916.28,594.327 920.303,596.865 924.627,596.559C928.952,596.252 932.576,593.172 933.576,588.954L965.5,469.989C967.224,462.717 962.719,455.413 955.446,453.689C948.174,451.965 940.87,456.47 939.147,463.742L920.813,552.673C919.17,548.569 917.468,544.293 915.782,540.011C907.277,518.422 899.139,496.693 899.139,496.693C897.603,492.781 893.747,490.281 889.549,490.474C885.352,490.667 881.742,493.51 880.571,497.546L867.194,540.896C867.194,540.896 856.327,487.438 856.327,487.438C854.675,480.149 847.416,475.573 840.127,477.225C832.838,478.877 828.261,486.136 829.913,493.425Z"/>
                </g>
            </g>
            <g id="Symbols">
            </g>
        </g>
    </g>
</svg>
