<?xml version="1.0" encoding="UTF-8" standalone="no"?>
<!DOCTYPE svg PUBLIC "-//W3C//DTD SVG 1.1//EN" "http://www.w3.org/Graphics/SVG/1.1/DTD/svg11.dtd">
<svg width="100%" height="100%" viewBox="0 0 200 220" version="1.1" xmlns="http://www.w3.org/2000/svg" xmlns:xlink="http://www.w3.org/1999/xlink" xml:space="preserve" xmlns:serif="http://www.serif.com/" style="fill-rule:evenodd;clip-rule:evenodd;stroke-linejoin:round;stroke-miterlimit:2;">
    <g transform="matrix(1,0,0,1,-1800,-661)">
        <g id="Glyphs">
            <g id="Numbers">
            </g>
            <g id="Lowercase">
                <g transform="matrix(0.611848,0,0,0.611848,1352.14,447.716)">
                    <path d="M809.325,497.957L848.021,592.781C850.475,599.569 856.749,604.231 863.955,604.624C871.162,605.016 877.905,601.062 881.081,594.582L894.983,563.996C894.983,563.996 909.816,593.647 909.816,593.647C912.658,599.393 918.7,602.841 925.092,602.366C931.485,601.891 936.951,597.588 938.913,591.486C938.913,591.486 946.636,569.197 956.057,544.123C968.425,511.204 983.516,473.64 983.516,473.64C987.255,462.012 980.85,449.535 969.221,445.796C957.592,442.057 945.115,448.462 941.376,460.091C941.376,460.091 931.746,499.41 922.611,533.369C921.742,536.601 920.876,539.781 920.027,542.873C920.028,542.872 908.67,519.654 908.67,519.654C905.96,514.177 900.374,510.716 894.264,510.727C888.154,510.738 882.58,514.22 879.891,519.707L869.085,540.219C869.085,540.219 850.953,482.906 850.953,482.906C846.8,471.419 834.101,465.465 822.614,469.618C811.127,473.771 805.172,486.47 809.325,497.957Z"/>
                </g>
            </g>
            <g id="Uppercase">
            </g>
            <g id="Symbols">
            </g>
        </g>
    </g>
</svg>
