<?xml version="1.0" encoding="UTF-8" standalone="no"?>
<!DOCTYPE svg PUBLIC "-//W3C//DTD SVG 1.1//EN" "http://www.w3.org/Graphics/SVG/1.1/DTD/svg11.dtd">
<svg width="100%" height="100%" viewBox="0 0 200 220" version="1.1" xmlns="http://www.w3.org/2000/svg" xmlns:xlink="http://www.w3.org/1999/xlink" xml:space="preserve" xmlns:serif="http://www.serif.com/" style="fill-rule:evenodd;clip-rule:evenodd;stroke-linejoin:round;stroke-miterlimit:2;">
    <g transform="matrix(1,0,0,1,-2000,-220)">
        <g id="Glyphs">
            <g id="Numbers">
            </g>
            <g id="Lowercase">
            </g>
            <g id="Uppercase">
                <g>
                    <path d="M2100.45,296.009C2096.76,292.313 2093.18,288.636 2089.75,285.16C2075.64,270.843 2065.09,259.232 2065.09,259.232C2059.55,254.215 2050.98,254.638 2045.96,260.177C2040.94,265.716 2041.36,274.286 2046.9,279.304C2046.9,279.304 2059.5,288.665 2075.13,301.295C2079.05,304.458 2083.2,307.768 2087.37,311.185C2085.84,312.902 2084.29,314.599 2082.75,316.267C2075.49,324.106 2068.11,331.197 2061.67,337.354C2048.91,349.554 2039.6,357.538 2039.6,357.538C2034.56,363.058 2034.95,371.63 2040.47,376.669C2045.99,381.707 2054.57,381.316 2059.6,375.796C2059.6,375.796 2066.71,365.792 2077.69,351.98C2083.24,345.009 2089.63,337.008 2096.77,329.066C2098.42,327.233 2100.11,325.401 2101.81,323.576L2102.52,324.222C2108.8,330.013 2114.38,335.986 2119.24,341.198C2128.89,351.562 2135.06,359.168 2135.06,359.168C2140.6,364.185 2149.17,363.762 2154.19,358.223C2159.21,352.684 2158.78,344.114 2153.24,339.096C2153.24,339.096 2145.07,333.704 2133.8,325.119C2128.14,320.802 2121.64,315.83 2115.26,310.151L2115.01,309.925C2119.41,305.48 2123.78,301.148 2127.92,297.005C2145.67,279.24 2160,265.796 2160,265.796C2165.04,260.275 2164.65,251.703 2159.13,246.665C2153.61,241.626 2145.04,242.018 2140,247.538C2140,247.538 2127.91,263.031 2111.84,282.328C2108.18,286.717 2104.37,291.336 2100.45,296.009Z"/>
                </g>
            </g>
            <g id="Symbols">
            </g>
        </g>
    </g>
</svg>
