<?xml version="1.0" encoding="UTF-8" standalone="no"?>
<!DOCTYPE svg PUBLIC "-//W3C//DTD SVG 1.1//EN" "http://www.w3.org/Graphics/SVG/1.1/DTD/svg11.dtd">
<svg width="100%" height="100%" viewBox="0 0 200 220" version="1.1" xmlns="http://www.w3.org/2000/svg" xmlns:xlink="http://www.w3.org/1999/xlink" xml:space="preserve" xmlns:serif="http://www.serif.com/" style="fill-rule:evenodd;clip-rule:evenodd;stroke-linejoin:round;stroke-miterlimit:2;">
    <g transform="matrix(1,0,0,1,-2000,-661)">
        <g id="Glyphs">
            <g id="Numbers">
            </g>
            <g id="Lowercase">
                <g transform="matrix(0.545455,0,0,0.545455,1500.53,486.633)">
                    <path d="M1030.65,492.221C1030.65,492.221 1044.34,504.827 1060.97,522.171C1070.22,531.81 1080.76,542.401 1089.49,553.571C1095.76,561.593 1100.83,569.875 1105.24,577.127C1114.13,591.734 1119.08,602.221 1119.08,602.221C1127.66,612.901 1143.3,614.601 1153.98,606.016C1164.66,597.431 1166.36,581.791 1157.78,571.112C1157.78,571.112 1148.6,564.025 1136.24,552.206C1130.11,546.339 1123.11,539.609 1116.62,531.763C1107.59,520.838 1099.51,508.262 1092.08,497.163C1078.72,477.191 1069.35,461.112 1069.35,461.112C1060.77,450.433 1045.12,448.732 1034.44,457.317C1023.77,465.902 1022.07,481.542 1030.65,492.221Z"/>
                    <path d="M1131.63,459.967C1131.63,459.967 1123.08,473.479 1110.76,490.167C1103.93,499.41 1096.52,509.916 1088.17,518.809C1082.16,525.206 1075.69,530.48 1070.01,535.088C1058.48,544.443 1050.04,549.716 1050.04,549.716C1040.82,559.855 1041.57,575.569 1051.71,584.786C1061.85,594.003 1077.56,593.255 1086.78,583.116C1086.78,583.116 1091.23,574.213 1099.44,561.844C1103.49,555.751 1108.13,548.809 1113.92,542.223C1121.98,533.068 1131.74,524.693 1140.29,517.016C1155.73,503.158 1168.37,493.367 1168.37,493.367C1177.59,483.228 1176.84,467.514 1166.7,458.297C1156.56,449.08 1140.85,449.828 1131.63,459.967Z"/>
                </g>
            </g>
            <g id="Uppercase">
            </g>
            <g id="Symbols">
            </g>
        </g>
    </g>
</svg>
