<?xml version="1.0" encoding="UTF-8" standalone="no"?>
<!DOCTYPE svg PUBLIC "-//W3C//DTD SVG 1.1//EN" "http://www.w3.org/Graphics/SVG/1.1/DTD/svg11.dtd">
<svg width="100%" height="100%" viewBox="0 0 200 220" version="1.1" xmlns="http://www.w3.org/2000/svg" xmlns:xlink="http://www.w3.org/1999/xlink" xml:space="preserve" xmlns:serif="http://www.serif.com/" style="fill-rule:evenodd;clip-rule:evenodd;stroke-linejoin:round;stroke-miterlimit:2;">
    <g transform="matrix(1,0,0,1,-2000,-220)">
        <g id="Glyphs">
            <g id="Numbers">
            </g>
            <g id="Lowercase">
            </g>
            <g id="Uppercase">
                <g transform="matrix(-1,0,0,1,3200,-220)">
                    <path d="M1060,467.538C1060,467.538 1072.09,483.031 1088.16,502.328C1097.16,513.128 1107.12,525.321 1117.25,536.267C1124.51,544.106 1131.89,551.197 1138.33,557.354C1151.09,569.554 1160.4,577.538 1160.4,577.538C1165.44,583.058 1165.05,591.63 1159.53,596.669C1154.01,601.707 1145.43,601.316 1140.4,595.796C1140.4,595.796 1133.29,585.792 1122.31,571.98C1116.76,565.009 1110.37,557.008 1103.23,549.066C1093.25,537.976 1082.01,526.947 1072.08,517.005C1054.33,499.24 1040,485.796 1040,485.796C1034.96,480.275 1035.35,471.703 1040.87,466.665C1046.39,461.626 1054.96,462.018 1060,467.538Z"/>
                    <path d="M1153.1,499.304C1153.1,499.304 1140.5,508.665 1124.87,521.295C1116.13,528.353 1106.25,536.139 1097.48,544.222C1091.2,550.013 1085.62,555.986 1080.76,561.198C1071.11,571.562 1064.94,579.168 1064.94,579.168C1059.4,584.185 1050.83,583.762 1045.81,578.223C1040.79,572.684 1041.22,564.114 1046.76,559.096C1046.76,559.096 1054.93,553.704 1066.2,545.119C1071.86,540.802 1078.36,535.83 1084.74,530.151C1093.64,522.226 1102.37,513.16 1110.25,505.16C1124.36,490.843 1134.91,479.232 1134.91,479.232C1140.45,474.215 1149.02,474.638 1154.04,480.177C1159.06,485.716 1158.64,494.286 1153.1,499.304Z"/>
                </g>
            </g>
            <g id="Symbols">
            </g>
        </g>
    </g>
</svg>
