<?xml version="1.0" encoding="UTF-8" standalone="no"?>
<!DOCTYPE svg PUBLIC "-//W3C//DTD SVG 1.1//EN" "http://www.w3.org/Graphics/SVG/1.1/DTD/svg11.dtd">
<svg width="100%" height="100%" viewBox="0 0 200 220" version="1.1" xmlns="http://www.w3.org/2000/svg" xmlns:xlink="http://www.w3.org/1999/xlink" xml:space="preserve" xmlns:serif="http://www.serif.com/" style="fill-rule:evenodd;clip-rule:evenodd;stroke-linejoin:round;stroke-miterlimit:2;">
    <g transform="matrix(1,0,0,1,-2200,-220)">
        <g id="Glyphs">
            <g id="Numbers">
            </g>
            <g id="Lowercase">
            </g>
            <g id="Uppercase">
                <g transform="matrix(1,0,0,1,1000,-220)">
                    <path d="M1239.54,497.781C1239.54,497.781 1262.07,520.457 1277.45,537.958C1282.9,544.159 1287.38,549.74 1289.97,553.06C1289.72,556.511 1289.28,562.417 1288.68,568.333C1287.74,577.587 1286.46,586.667 1286.46,586.667C1286.46,594.141 1292.53,600.208 1300,600.208C1307.47,600.208 1313.54,594.141 1313.54,586.667C1313.54,586.667 1312.26,577.587 1311.32,568.333C1310.39,559.153 1309.83,550 1309.83,550C1309.83,547.723 1309.04,545.518 1307.59,543.759C1307.59,543.759 1300.61,536.042 1292.55,525.55C1278.35,507.074 1260.46,480.581 1260.46,480.581C1255.71,474.808 1247.17,473.974 1241.4,478.721C1235.63,483.467 1234.79,492.007 1239.54,497.781Z"/>
                    <g transform="matrix(-1,0,0,-1,2640.7,1000.54)">
                        <path d="M1301.89,531.498C1301.89,531.498 1308.91,522.102 1316.9,509.507C1330.97,487.33 1348.46,455.829 1348.46,455.829C1351.38,451.545 1350.28,445.695 1345.99,442.775C1341.71,439.854 1335.86,440.96 1332.94,445.244C1332.94,445.244 1310,473.037 1294.5,494.233C1285.69,506.271 1279.51,516.241 1279.51,516.241C1275.3,522.416 1276.89,530.848 1283.07,535.058C1289.25,539.269 1297.68,537.673 1301.89,531.498Z"/>
                    </g>
                </g>
            </g>
            <g id="Symbols">
            </g>
        </g>
    </g>
</svg>
