<?xml version="1.0" encoding="UTF-8" standalone="no"?>
<!DOCTYPE svg PUBLIC "-//W3C//DTD SVG 1.1//EN" "http://www.w3.org/Graphics/SVG/1.1/DTD/svg11.dtd">
<svg width="100%" height="100%" viewBox="0 0 200 220" version="1.1" xmlns="http://www.w3.org/2000/svg" xmlns:xlink="http://www.w3.org/1999/xlink" xml:space="preserve" xmlns:serif="http://www.serif.com/" style="fill-rule:evenodd;clip-rule:evenodd;stroke-linejoin:round;stroke-miterlimit:2;">
    <g transform="matrix(1,0,0,1,-2200,-661)">
        <g id="Glyphs">
            <g id="Numbers">
            </g>
            <g id="Lowercase">
                <g transform="matrix(-0.622464,0,0,0.622464,3111.39,441.488)">
                    <path d="M1267.98,464.411C1267.98,464.411 1284.29,496.587 1298.03,519.116C1305.8,531.851 1312.91,541.201 1312.91,541.201C1312.91,541.201 1318.05,547.745 1324.4,554.849C1332.85,564.303 1342.98,574.411 1342.98,574.411C1349.74,584.332 1347.18,597.877 1337.26,604.641C1327.34,611.405 1313.79,608.842 1307.03,598.922C1307.03,598.922 1301.31,585.808 1295.6,574.484C1291.31,565.974 1287.09,558.799 1287.09,558.799C1287.09,558.799 1280.99,548.765 1271.97,536.884C1256.02,515.866 1232.03,488.922 1232.03,488.922C1225.26,479.002 1227.82,465.456 1237.75,458.692C1247.66,451.928 1261.21,454.491 1267.98,464.411Z"/>
                    <g transform="matrix(-1,0,0,-1,2640.7,1000.54)">
                        <path d="M1267.4,519.426C1267.4,519.426 1274.04,508.242 1283.98,495.069C1301.57,471.759 1328.23,442.034 1328.23,442.034C1332.92,435.152 1342.32,433.374 1349.2,438.067C1356.08,442.759 1357.86,452.156 1353.17,459.039C1353.17,459.039 1335.24,494.716 1319.96,519.607C1311.33,533.673 1303.35,543.936 1303.35,543.936C1296.58,553.857 1283.04,556.42 1273.12,549.656C1263.2,542.892 1260.63,529.346 1267.4,519.426Z"/>
                    </g>
                </g>
            </g>
            <g id="Uppercase">
            </g>
            <g id="Symbols">
            </g>
        </g>
    </g>
</svg>
