<?xml version="1.0" encoding="UTF-8" standalone="no"?>
<!DOCTYPE svg PUBLIC "-//W3C//DTD SVG 1.1//EN" "http://www.w3.org/Graphics/SVG/1.1/DTD/svg11.dtd">
<svg width="100%" height="100%" viewBox="0 0 200 220" version="1.1" xmlns="http://www.w3.org/2000/svg" xmlns:xlink="http://www.w3.org/1999/xlink" xml:space="preserve" xmlns:serif="http://www.serif.com/" style="fill-rule:evenodd;clip-rule:evenodd;stroke-linejoin:round;stroke-miterlimit:2;">
    <g transform="matrix(1,0,0,1,-2200,-220)">
        <g id="Glyphs">
            <g id="Numbers">
            </g>
            <g id="Lowercase">
            </g>
            <g id="Uppercase">
                <g>
                    <path d="M2298.68,313.287C2296.79,310.971 2294.7,308.36 2292.55,305.55C2278.35,287.074 2260.46,260.581 2260.46,260.581C2255.71,254.808 2247.17,253.974 2241.4,258.721C2235.63,263.467 2234.79,272.007 2239.54,277.781C2239.54,277.781 2262.07,300.457 2277.45,317.958C2282.9,324.159 2287.38,329.74 2289.97,333.06C2289.72,336.511 2289.28,342.417 2288.68,348.333C2287.74,357.587 2286.46,366.667 2286.46,366.667C2286.46,374.141 2292.53,380.208 2300,380.208C2307.47,380.208 2313.54,374.141 2313.54,366.667C2313.54,366.667 2312.26,357.587 2311.32,348.333C2310.69,342.123 2310.23,335.927 2310,332.566C2316.14,325.059 2333.62,303.508 2346.2,286.304C2355.01,274.266 2361.19,264.295 2361.19,264.295C2365.4,258.12 2363.8,249.688 2357.63,245.478C2351.45,241.268 2343.02,242.863 2338.81,249.038C2338.81,249.038 2331.79,258.435 2323.8,271.03C2315.08,284.773 2305.05,302.096 2298.68,313.287Z"/>
                </g>
            </g>
            <g id="Symbols">
            </g>
        </g>
    </g>
</svg>
