<?xml version="1.0" encoding="UTF-8" standalone="no"?>
<!DOCTYPE svg PUBLIC "-//W3C//DTD SVG 1.1//EN" "http://www.w3.org/Graphics/SVG/1.1/DTD/svg11.dtd">
<svg width="100%" height="100%" viewBox="0 0 200 220" version="1.1" xmlns="http://www.w3.org/2000/svg" xmlns:xlink="http://www.w3.org/1999/xlink" xml:space="preserve" xmlns:serif="http://www.serif.com/" style="fill-rule:evenodd;clip-rule:evenodd;stroke-linejoin:round;stroke-miterlimit:2;">
    <g transform="matrix(1,0,0,1,-2400,-220)">
        <g id="Glyphs">
            <g id="Numbers">
            </g>
            <g id="Lowercase">
            </g>
            <g id="Uppercase">
                <g transform="matrix(1,0,0,1,994.065,-220)">
                    <path d="M1469.87,502.482L1520.65,493.384C1509.71,505.968 1495.92,521.701 1482.9,536.216C1461.8,559.74 1442.65,579.986 1442.65,579.986C1439.9,583.011 1439.29,587.411 1441.1,591.074C1442.91,594.737 1446.79,596.915 1450.86,596.56L1551.17,591.461C1558.62,590.814 1564.14,584.243 1563.49,576.797C1562.84,569.352 1556.27,563.832 1548.83,564.48L1474.86,573.601C1481.27,566.45 1488.96,557.946 1497.1,549.118C1525.15,518.664 1558.35,484.257 1558.35,484.257C1561.56,480.723 1562.2,475.551 1559.95,471.341C1557.69,467.131 1553.03,464.796 1548.31,465.51L1465.82,475.703C1458.43,476.82 1453.34,483.727 1454.46,491.117C1455.57,498.507 1462.48,503.599 1469.87,502.482Z"/>
                </g>
            </g>
            <g id="Symbols">
            </g>
        </g>
    </g>
</svg>
