<?xml version="1.0" encoding="UTF-8"?>
<!DOCTYPE svg  PUBLIC '-//W3C//DTD SVG 1.1//EN'  'http://www.w3.org/Graphics/SVG/1.1/DTD/svg11.dtd'>
<svg clip-rule="evenodd" fill-rule="evenodd" stroke-linejoin="round" stroke-miterlimit="2" version="1.1" viewBox="0 0 200 220" xml:space="preserve" xmlns="http://www.w3.org/2000/svg">
    <g transform="translate(-200 -1100)">
        
            
            
            
            <g transform="translate(198.46 1103.9)">
                <g transform="translate(-10.938 -388.06)">
                    <path d="m117.4 508.17s-0.227-2.875 0.038-8.143c0.121-2.419 0.532-5.125 1.063-8.388 1.028-7.952 3.201-14.766 4.406-21.326 0.379-2.067 0.533-4.082 0.742-6.043 0.214-2.813 0.713-5.695 1.159-8.419 1.155-7.057 2.669-12.906 2.669-12.906 1.625-7.295-2.978-14.537-10.273-16.163-7.295-1.625-14.537 2.978-16.162 10.273 0 0-1.194 5.744-1.855 13.136-0.381 4.25-0.624 9.007-0.476 13.547 0.508 5.04 0.529 10.477 1.089 16.427 0.368 3.898 0.892 7.771 1.733 11.938 0.846 3.861 1.608 7.043 2.538 9.785 2.166 6.391 3.901 9.661 3.901 9.661 0.933 2.601 3.802 3.957 6.403 3.024 2.602-0.932 3.958-3.801 3.025-6.403z"/>
                    <g transform="translate(-1.7692 -2.2666)">
                        <path d="m116.03 520.87c4.558 0 6.65 3.4 6.212 8.467-0.452 5.245-2.705 7.655-8.354 7.655-4.559 0-7.691-4.283-7.691-8.841s5.274-7.281 9.833-7.281z"/>
                    </g>
                </g>
            </g>
        
    </g>
</svg>
