<?xml version="1.0" encoding="UTF-8"?>
<!DOCTYPE svg  PUBLIC '-//W3C//DTD SVG 1.1//EN'  'http://www.w3.org/Graphics/SVG/1.1/DTD/svg11.dtd'>
<svg clip-rule="evenodd" fill-rule="evenodd" stroke-linejoin="round" stroke-miterlimit="2" version="1.1" viewBox="0 0 200 220" xml:space="preserve" xmlns="http://www.w3.org/2000/svg">
    <g transform="translate(-200 -1100)">
        
            <g transform="translate(-1610.4)">
                
            </g>
            
            
            <g transform="translate(198.46 1103.9)">
                <g transform="translate(-10.938 -388.06)">
                    <g transform="translate(0 -20)">
                        <path d="m118.41 519.45 2.721-27.883c0.722-5.829 1.978-11.588 2.734-17.174 0.58-4.293 0.84-8.33 1.177-11.839 0.215-3.116 0.901-6.155 1.503-8.839 1.137-5.071 2.533-8.756 2.533-8.756 2.737-8.177-1.68-17.039-9.858-19.776s-17.04 1.68-19.777 9.858c0 0-1.813 5.582-2.882 13.225-0.582 4.159-1.038 8.893-0.913 13.661 0.187 3.514 0.2 7.555 0.592 11.863 0.545 5.996 1.554 12.209 2.665 18.385 0.777 3.721 1.675 7.804 2.826 11.893 2.537 9.011 5.234 16.973 5.234 16.973 0.438 3.158 3.359 5.366 6.518 4.928 3.158-0.439 5.366-3.36 4.927-6.519z"/>
                    </g>
                    <g transform="translate(-187.52 -715.85)">
                        <path d="m301.78 1226.1c-4.441 0.74-9.17 2.34-12.044 5.63-2.528 2.88-4.583 6.06-4.091 9.99 0.248 3.65 1.59 7.09 3.796 9.71 2.536 3.01 5.985 5.03 10.197 5.12 4.754 0.34 7.958-1.12 10.396-3.02 2.624-2.03 4.126-5.32 4.956-10.02 1.062-5.51-0.812-9.79-3.236-12.87-2.147-2.73-5.55-4.04-9.974-4.54z"/>
                    </g>
                </g>
            </g>
        
    </g>
</svg>
