<?xml version="1.0" encoding="UTF-8"?>
<!DOCTYPE svg  PUBLIC '-//W3C//DTD SVG 1.1//EN'  'http://www.w3.org/Graphics/SVG/1.1/DTD/svg11.dtd'>
<svg clip-rule="evenodd" fill-rule="evenodd" stroke-linejoin="round" stroke-miterlimit="2" version="1.1" viewBox="0 0 200 220" xml:space="preserve" xmlns="http://www.w3.org/2000/svg">
    <g transform="translate(0 -1100)">
        
            <g transform="translate(-1610.4)">
                
            </g>
            
            
            <g transform="translate(198.46 1103.9)">
                <g transform="matrix(.76898 0 0 1 -1406.1 -1103.9)">
                    <path d="m1632.6 1139s5.23 14.17 10.91 32.54c3.17 10.26 6.91 21.72 9.28 32.76 1.7 7.92 2.54 15.57 3.26 22.23 1.44 13.28 1.55 22.47 1.55 22.47 1.68 7.36 10.81 12.29 20.38 11.01 9.58-1.29 15.99-8.31 14.32-15.67 0 0-3.95-8.68-8.45-21.54-2.27-6.46-4.85-13.88-6.74-21.77-2.64-11.01-4.17-22.76-5.72-33.24-2.76-18.76-4.09-33.45-4.09-33.45-1.68-7.37-10.81-12.3-20.38-11.01-9.58 1.28-15.99 8.31-14.32 15.67z"/>
                    <g transform="translate(75)">
                        <path d="m1632.5 1138.3s4.24 14.25 8.66 32.68c2.46 10.3 5.41 21.8 7.02 32.84 1.16 7.91 1.48 15.52 1.74 22.16 0.52 13.21 0.01 22.32 0.01 22.32 1.17 7.42 9.96 12.71 19.61 11.81 9.65-0.91 16.52-7.66 15.35-15.08 0 0-3.34-8.75-6.96-21.67-1.82-6.49-3.89-13.95-5.24-21.84-1.88-11.01-2.61-22.72-3.43-33.17-1.47-18.71-1.8-33.32-1.8-33.32-1.17-7.42-9.96-12.71-19.61-11.81-9.65 0.91-16.53 7.66-15.35 15.08z"/>
                    </g>
                    <path d="m1635.4 1186.9s15.7-1.52 36.01-2.66c11.32-0.64 23.97-1.5 36.01-1.39 8.64 0.07 16.85 0.75 24.01 1.35 14.33 1.21 24.01 2.7 24.01 2.7 9.72 0 17.61-6.07 17.61-13.55 0-7.47-7.89-13.54-17.61-13.54 0 0-9.68 1.49-24.01 2.7-7.16 0.6-15.37 1.27-24.01 1.35-12.04 0.11-24.69-0.76-36.01-1.39-20.31-1.14-36.01-2.66-36.01-2.66-9.72 0-17.61 6.07-17.61 13.54 0 7.48 7.89 13.55 17.61 13.55z"/>
                    <g transform="translate(10 40)">
                        <path d="m1637.5 1186.8s15.48-2.93 35.6-5.91c11.22-1.66 23.74-3.67 35.8-4.66 8.65-0.71 16.97-0.79 24.22-0.84 14.5-0.11 24.42 0.49 24.42 0.49 9.65-0.88 16.56-7.62 15.42-15.04s-9.91-12.73-19.56-11.86c0 0-9.46 2.36-23.6 4.86-7.06 1.25-15.17 2.67-23.8 3.53-12.02 1.21-24.81 1.5-36.22 1.9-20.48 0.71-36.42 0.63-36.42 0.63-9.65 0.88-16.56 7.62-15.42 15.04 1.14 7.43 9.9 12.74 19.56 11.86z"/>
                    </g>
                </g>
            </g>
        
    </g>
</svg>
