<?xml version="1.0" encoding="UTF-8"?>
<!DOCTYPE svg  PUBLIC '-//W3C//DTD SVG 1.1//EN'  'http://www.w3.org/Graphics/SVG/1.1/DTD/svg11.dtd'>
<svg clip-rule="evenodd" fill-rule="evenodd" stroke-linejoin="round" stroke-miterlimit="2" version="1.1" viewBox="0 0 200 220" xml:space="preserve" xmlns="http://www.w3.org/2000/svg">
    <g transform="translate(0 -1100)">
        
            <g transform="translate(-1610.4)">
                
            </g>
            
            
            <g transform="translate(198.46 1103.9)">
                <g transform="translate(-198.46 -1103.9)">
                    <path d="m53.468 1160.2c-2.217-0.25-3.468-0.41-3.468-0.41-7.474 0-13.542 6.07-13.542 13.54 0 7.48 6.068 13.55 13.542 13.55 0 0 3.69-0.47 9.628-1.07 1.068 4.63 2.095 9.35 2.971 14.04-4.077 0.05-6.5 0.03-6.5 0.03-7.422 0.88-12.735 7.62-11.857 15.04 0.878 7.43 7.617 12.74 15.039 11.86 0 0 2.423-0.6 6.505-1.52 0.036 0.42 0.072 0.85 0.107 1.27 1.1 13.28 1.191 22.47 1.191 22.47 1.287 7.36 8.309 12.29 15.671 11.01 7.362-1.29 12.295-8.31 11.008-15.67 0 0-3.032-8.68-6.498-21.54-0.173-0.64-0.348-1.29-0.524-1.95 8.608-1.66 18.206-3.66 27.45-4.64 1.43-0.15 2.848-0.28 4.248-0.38 0.184 3.56 0.291 6.97 0.387 10.15 0.399 13.21 6e-3 22.32 6e-3 22.32 0.904 7.42 7.661 12.71 15.08 11.81 7.419-0.91 12.709-7.66 11.805-15.08 0 0-2.57-8.75-5.355-21.67-0.544-2.53-1.116-5.2-1.674-7.98 7.871 0.09 12.903 0.48 12.903 0.48 7.422-0.88 12.735-7.62 11.857-15.04s-7.617-12.73-15.039-11.86c0 0-5.065 1.65-13.059 3.64-0.216-2.33-0.405-4.67-0.575-7 4.724 0.71 7.535 1.28 7.535 1.28 7.474 0 13.542-6.07 13.542-13.55 0-7.47-6.068-13.54-13.542-13.54 0 0-3.401 0.68-9.009 1.49-0.795-15.19-0.986-26.25-0.986-26.25-0.904-7.42-7.661-12.71-15.08-11.81-7.419 0.91-12.709 7.66-11.805 15.08 0 0 2.43 10.61 5.276 25.36-1.742 0.1-3.519 0.16-5.32 0.18-9.26 0.11-18.991-0.76-27.693-1.39l-0.596-0.05c-1.722-16.11-2.558-28.06-2.558-28.06-1.287-7.37-8.309-12.3-15.671-11.01-7.362 1.28-12.295 8.31-11.008 15.67 0 0 2.452 8.65 5.608 21.2zm60.883 23.05c-2.885-0.22-5.89-0.39-8.965-0.42-8.606-0.1-17.617 0.64-25.832 1.25 0.63 5.1 1.345 10.25 2.228 15.27 0.765-0.03 1.539-0.07 2.322-0.1 8.777-0.4 18.609-0.69 27.857-1.9 1.559-0.2 3.095-0.43 4.604-0.69-0.65-4.49-1.419-9-2.214-13.41z"/>
                </g>
            </g>
        
    </g>
</svg>
