<?xml version="1.0" encoding="UTF-8"?>
<!DOCTYPE svg  PUBLIC '-//W3C//DTD SVG 1.1//EN'  'http://www.w3.org/Graphics/SVG/1.1/DTD/svg11.dtd'>
<svg clip-rule="evenodd" fill-rule="evenodd" stroke-linejoin="round" stroke-miterlimit="2" version="1.1" viewBox="0 0 200 220" xml:space="preserve" xmlns="http://www.w3.org/2000/svg">
    <g transform="translate(0 -1100)">
        
            
            
            
            <g transform="translate(198.46 1103.9)">
                <g transform="matrix(1 0 0 1.0818 -1798.9 -1183.1)">
                    <path d="m1636.8 1139.2s4.77 14.16 10.1 32.5c2.98 10.25 6.46 21.69 8.86 32.73 1.72 7.91 2.77 15.58 3.67 22.26 1.79 13.27 2.37 22.51 2.37 22.51 1.53 6.76 8.72 11.1 16.03 9.68 7.32-1.42 12.01-8.07 10.47-14.83 0 0-3.5-8.67-7.63-21.48-2.09-6.45-4.46-13.86-6.33-21.75-2.61-11-4.4-22.77-6.14-33.26-3.1-18.77-4.9-33.51-4.9-33.51-1.53-6.76-8.72-11.09-16.03-9.67-7.32 1.42-12.01 8.06-10.47 14.82z"/>
                    <g transform="translate(75)">
                        <path d="m1636.6 1138.5s3.79 14.24 7.86 32.64c2.27 10.29 4.96 21.78 6.6 32.82 1.18 7.91 1.71 15.54 2.15 22.18 0.88 13.21 0.82 22.36 0.82 22.36 1.08 6.84 7.97 11.57 15.36 10.57 7.4-1 12.52-7.36 11.44-14.2 0 0-2.9-8.75-6.15-21.64-1.64-6.48-3.5-13.93-4.83-21.82-1.85-11-2.84-22.73-3.85-33.18-1.81-18.71-2.6-33.36-2.6-33.36-1.08-6.83-7.97-11.57-15.36-10.57-7.4 1-12.52 7.36-11.44 14.2z"/>
                    </g>
                    <path d="m1635.4 1185.8s15.76-1.4 36.01-2.45c11.32-0.59 23.98-1.39 36.01-1.29 8.62 0.07 16.85 0.69 24.01 1.25 14.24 1.11 24.01 2.49 24.01 2.49 7.47 0 13.54-5.61 13.54-12.52s-6.07-12.51-13.54-12.51c0 0-9.77 1.38-24.01 2.49-7.16 0.55-15.39 1.18-24.01 1.25-12.03 0.1-24.69-0.7-36.01-1.29-20.25-1.05-36.01-2.45-36.01-2.45-7.48 0-13.55 5.6-13.55 12.51s6.07 12.52 13.55 12.52z"/>
                    <g transform="translate(10 40)">
                        <path d="m1636.8 1185.8s15.62-2.83 35.76-5.72c11.25-1.61 23.83-3.56 35.87-4.56 8.63-0.71 16.92-0.84 24.14-0.93 14.36-0.2 24.28 0.29 24.28 0.29 7.43-0.68 12.88-6.81 12.14-13.68-0.73-6.88-7.36-11.91-14.8-11.23 0 0-9.62 2.26-23.74 4.66-7.1 1.2-15.27 2.57-23.88 3.43-12.02 1.19-24.77 1.55-36.15 1.99-20.36 0.8-36.27 0.84-36.27 0.84-7.44 0.67-12.88 6.8-12.15 13.68 0.73 6.87 7.37 11.91 14.8 11.23z"/>
                    </g>
                </g>
            </g>
        
    </g>
</svg>
