<?xml version="1.0" encoding="UTF-8"?>
<!DOCTYPE svg  PUBLIC '-//W3C//DTD SVG 1.1//EN'  'http://www.w3.org/Graphics/SVG/1.1/DTD/svg11.dtd'>
<svg clip-rule="evenodd" fill-rule="evenodd" stroke-linejoin="round" stroke-miterlimit="2" version="1.1" viewBox="0 0 200 220" xml:space="preserve" xmlns="http://www.w3.org/2000/svg">
    <g transform="translate(-2e3 -1100)">
        
            
            
            
            <g transform="translate(198.46 1103.9)">
                <g transform="matrix(1 0 0 .87955 0 1.7191)">
                    <g transform="matrix(.79518 0 0 .79518 231.66 -858.83)">
                        <path d="m2147.8 1119-96.39 18.44c-3.47 0.55-6.6 2.68-8.67 5.89-2.07 3.22-2.9 7.26-2.31 11.19l5.83 33.95c0.94 6.24 5.46 10.97 11 11.53l81.54 7-0.43 30.22-89.26 1.57c-8.66 0.54-15.31 8.98-14.84 18.83 0.48 9.85 7.9 17.4 16.56 16.86l99.78-10.7c6.25-0.38 11.14-6.26 11.14-13.37l-0.77-55c0-6.48-4.35-11.89-10.03-12.47l-81.87-9.59-1.1-8.38 84.16-10.56c8.59-1.36 14.6-10.4 13.4-20.17s-9.14-16.59-17.74-15.24z"/>
                    </g>
                    <g transform="matrix(-1 0 0 -1.1369 4001.5 1324.3)">
                        <path d="m2112.5 1150.8s0.47-4.12 0.01-9.33c-0.81-9.41-3.84-21.76-3.84-21.76 0-4.79-3.88-8.67-8.67-8.67s-8.67 3.88-8.67 8.67c0 0-3.03 12.35-3.84 21.76-0.46 5.21 0.01 9.33 0.01 9.33 0 6.9 5.6 12.5 12.5 12.5s12.5-5.6 12.5-12.5z"/>
                    </g>
                    <g transform="matrix(1 0 0 -1.1369 -198.46 1581.8)">
                        <path d="m2112.5 1237.2s0.47 4.35 0.01 9.84c-0.81 9.89-3.84 22.94-3.84 22.94 0 4.79-3.88 8.67-8.67 8.67s-8.67-3.88-8.67-8.67c0 0-3.03-13.05-3.84-22.94-0.46-5.49 0.01-9.84 0.01-9.84 0-6.89 5.6-12.5 12.5-12.5s12.5 5.61 12.5 12.5z"/>
                    </g>
                </g>
            </g>
        
    </g>
</svg>
