<?xml version="1.0" encoding="UTF-8"?>
<!DOCTYPE svg  PUBLIC '-//W3C//DTD SVG 1.1//EN'  'http://www.w3.org/Graphics/SVG/1.1/DTD/svg11.dtd'>
<svg clip-rule="evenodd" fill-rule="evenodd" stroke-linejoin="round" stroke-miterlimit="2" version="1.1" viewBox="0 0 200 220" xml:space="preserve" xmlns="http://www.w3.org/2000/svg">
    <g transform="translate(-2e3 -1100)">
        
            
            
            
            <g transform="translate(198.46 1103.9)">
                <g transform="translate(-198.46 -1103.9)">
                    <path d="m2089.2 1141-27.86 4.69c-2.77 0.38-5.25 1.87-6.9 4.12-1.64 2.25-2.31 5.07-1.83 7.82l4.63 23.75c0.75 4.36 4.34 7.67 8.75 8.06l64.83 4.9-0.33 21.14-70.98 1.09c-6.89 0.38-12.18 6.28-11.8 13.17s6.28 12.17 13.17 11.8l28.01-2.65c-0.6 3.57-1.17 7.44-1.45 10.93-0.46 5.49 0.01 9.83 0.01 9.83 0 6.9 5.6 12.5 12.5 12.5s12.5-5.6 12.5-12.5c0 0 0.47-4.34 0.01-9.83-0.34-4.17-1.08-8.9-1.81-12.98l29.57-2.79c4.97-0.27 8.86-4.38 8.86-9.35l-0.62-38.47c0-4.53-3.46-8.32-7.97-8.72l-65.11-6.71-0.87-5.86s66.92-7.38 66.92-7.38c6.84-0.96 11.61-7.28 10.66-14.11s-7.27-11.61-14.1-10.66l-26.63 4.48c0.47-2.78 0.87-5.67 1.1-8.32 0.46-5.21-0.01-9.33-0.01-9.33 0-6.9-5.6-12.5-12.5-12.5s-12.5 5.6-12.5 12.5c0 0-0.47 4.12-0.01 9.33 0.33 3.87 1.04 8.24 1.76 12.05z"/>
                </g>
            </g>
        
    </g>
</svg>
