<?xml version="1.0" encoding="UTF-8"?>
<!DOCTYPE svg  PUBLIC '-//W3C//DTD SVG 1.1//EN'  'http://www.w3.org/Graphics/SVG/1.1/DTD/svg11.dtd'>
<svg clip-rule="evenodd" fill-rule="evenodd" stroke-linejoin="round" stroke-miterlimit="2" version="1.1" viewBox="0 0 200 220" xml:space="preserve" xmlns="http://www.w3.org/2000/svg">
    <g transform="translate(-2e3 -1100)">
        
            
            
            
            <g transform="translate(198.46 1103.9)">
                
                    <g transform="translate(-198.46 -1103.9)">
                        <path d="m2112.5 1294.9s-1.4-23.27-2.45-53.01c-0.59-16.66-1.39-35.32-1.29-53.01 0.07-12.67 0.7-24.8 1.25-35.34 1.11-20.85 2.49-35.35 2.49-35.35 0-6.9-5.6-12.5-12.5-12.5s-12.5 5.6-12.5 12.5c0 0 1.39 14.5 2.49 35.35 0.55 10.54 1.18 22.67 1.25 35.34 0.1 17.69-0.7 36.35-1.29 53.01-1.05 29.74-2.45 53.01-2.45 53.01 0 6.9 5.6 12.5 12.5 12.5s12.5-5.6 12.5-12.5z"/>
                    
                    
                        <path d="m2148 1124.3-96.43 17.54c-5.56 0.88-9.37 6.09-8.52 11.65l5.76 34c0.57 3.81 3.36 6.91 7.09 7.88 0 0 29.61 7.1 55.17 13.59 12.04 3.06 23.18 5.98 29.95 7.78l-0.25 17.39-92.56 10.07c-6.84 0.96-11.6 7.29-10.64 14.12 0.97 6.83 7.29 11.6 14.12 10.64l99.56-17.26c4.59-0.65 8-4.58 8-9.21l-0.46-32.51c0-4.02-2.72-7.53-6.61-8.55 0 0-17.2-4.35-36.64-9.57-18.27-4.91-38.52-10.56-48.5-13.36l-2.36-17.75 87.22-11.76c6.82-1.08 11.48-7.48 10.4-14.3-1.08-6.81-7.49-11.47-14.3-10.39z"/>
                    </g>
                
            </g>
        
    </g>
</svg>
