<?xml version="1.0" encoding="UTF-8"?>
<!DOCTYPE svg  PUBLIC '-//W3C//DTD SVG 1.1//EN'  'http://www.w3.org/Graphics/SVG/1.1/DTD/svg11.dtd'>
<svg clip-rule="evenodd" fill-rule="evenodd" stroke-linejoin="round" stroke-miterlimit="2" version="1.1" viewBox="0 0 200 220" xml:space="preserve" xmlns="http://www.w3.org/2000/svg">
    <g transform="translate(-1800 -1100)">
        
            
            
            
            <g transform="translate(198.46 1103.9)">
                <g transform="translate(-198.46 -1103.9)">
                    <path d="m1861.2 1291s11.91-20.16 27.8-45.49c8.91-14.19 18.75-30.16 28.85-44.79 7.24-10.47 14.66-20.16 21.12-28.57 12.79-16.64 22.23-27.81 22.23-27.81 4.21-6.18 2.61-14.61-3.56-18.82-6.18-4.21-14.61-2.62-18.82 3.56 0 0-6.96 12.86-17.77 30.85-5.47 9.09-11.78 19.54-18.88 30.1-9.93 14.74-21.2 29.74-31.15 43.21-17.78 24.05-32.2 42.5-32.2 42.5-4.21 6.18-2.61 14.61 3.56 18.82 6.18 4.21 14.61 2.62 18.82-3.56z"/>
                    <path d="m1867.4 1183.6c4.97 3.4 11.65 2.78 15.9-1.48l23.43-26.69c2.52-2.52 3.54-6.17 2.69-9.63s-3.44-6.23-6.84-7.3l-37.36-10.22c-3.78-1.19-7.89 0.31-10.01 3.67l-13.4 19.41c-2.79 4.42-1.59 10.25 2.72 13.2l22.87 19.04zm5.41-25.47-9.48-5.26s3.21-5.58 3.21-5.58l13.25 4.72-6.98 6.12z"/>
                    <g transform="translate(49.502 110)">
                        <path d="m1867.4 1183.6c4.97 3.4 11.65 2.78 15.9-1.48l23.43-26.69c2.52-2.52 3.54-6.17 2.69-9.63s-3.44-6.23-6.84-7.3l-37.36-10.22c-3.78-1.19-7.89 0.31-10.01 3.67l-13.4 19.41c-2.79 4.42-1.59 10.25 2.72 13.2l22.87 19.04zm5.41-25.47-9.48-5.26s3.21-5.58 3.21-5.58l13.25 4.72-6.98 6.12z"/>
                    </g>
                </g>
            </g>
        
    </g>
</svg>
