<?xml version="1.0" encoding="UTF-8"?>
<!DOCTYPE svg  PUBLIC '-//W3C//DTD SVG 1.1//EN'  'http://www.w3.org/Graphics/SVG/1.1/DTD/svg11.dtd'>
<svg clip-rule="evenodd" fill-rule="evenodd" stroke-linejoin="round" stroke-miterlimit="2" version="1.1" viewBox="0 0 200 220" xml:space="preserve" xmlns="http://www.w3.org/2000/svg">
    <g transform="translate(-1800 -1100)">
        
            
            
            
            <g transform="translate(198.46 1103.9)">
                <g transform="matrix(1 0 0 .87609 -202.5 -981.55)">
                    <path d="m1860.7 1292.8s11.96-20.37 27.9-45.87c8.93-14.27 18.8-30.36 28.9-44.97 7.23-10.46 14.63-20.06 21.07-28.38 12.76-16.49 22.13-27.45 22.13-27.45 4.59-6.73 3.53-16.45-2.37-21.69s-14.42-4.03-19.01 2.7c0 0-7 13.06-17.87 31.22-5.49 9.18-11.82 19.72-18.93 30.29-9.93 14.76-21.17 29.64-31.1 43.02-17.74 23.9-32.1 42.14-32.1 42.14-4.59 6.73-3.52 16.45 2.37 21.69 5.9 5.24 14.42 4.03 19.01-2.7z"/>
                    <path d="m1868 1185.6c4.66 3.19 10.59 2.58 14.67-1.5l23.56-27.01c2.83-2.83 4.07-7.21 3.23-11.39-0.84-4.19-3.62-7.51-7.25-8.65l-37.32-9.97c-3.52-1.1-7.27 0.41-9.41 3.79l-13.36 19.28c-1.58 2.52-2.18 5.67-1.63 8.71 0.55 3.03 2.18 5.66 4.51 7.26l23 19.48zm4.88-28.79-8.72-4.71s2.08-3.62 2.08-3.62l11.44 4.15-4.8 4.18z"/>
                    <g transform="translate(49.502 110)">
                        <path d="m1868 1185.6c4.66 3.19 10.59 2.58 14.67-1.5l23.56-27.01c2.83-2.83 4.07-7.21 3.23-11.39-0.84-4.19-3.62-7.51-7.25-8.65l-37.32-9.97c-3.52-1.1-7.27 0.41-9.41 3.79l-13.36 19.28c-1.58 2.52-2.18 5.67-1.63 8.71 0.55 3.03 2.18 5.66 4.51 7.26l23 19.48zm4.88-28.79-8.72-4.71s2.08-3.62 2.08-3.62l11.44 4.15-4.8 4.18z"/>
                    </g>
                </g>
            </g>
        
    </g>
</svg>
