<?xml version="1.0" encoding="UTF-8"?>
<!DOCTYPE svg  PUBLIC '-//W3C//DTD SVG 1.1//EN'  'http://www.w3.org/Graphics/SVG/1.1/DTD/svg11.dtd'>
<svg clip-rule="evenodd" fill-rule="evenodd" stroke-linejoin="round" stroke-miterlimit="2" version="1.1" viewBox="0 0 200 220" xml:space="preserve" xmlns="http://www.w3.org/2000/svg">
    <g transform="translate(-1800 -1100)">
        
            
            
            
            <g transform="translate(198.46 1103.9)">
                <g transform="translate(-198.46 -1103.9)">
                    <path d="m1856.6 1255s11.96-17.84 27.91-40.17c8.92-12.51 18.8-26.61 28.9-39.41 7.23-9.17 14.62-17.57 21.07-24.87 12.75-14.44 22.12-24.04 22.12-24.04 4.59-5.9 3.53-14.41-2.37-19s-14.41-3.53-19 2.37c0 0-7.01 11.44-17.88 27.35-5.49 8.04-11.82 17.27-18.93 26.53-9.93 12.93-21.17 25.97-31.1 37.69-17.73 20.94-32.09 36.92-32.09 36.92-4.59 5.9-3.53 14.41 2.37 19s14.41 3.53 19-2.37zm56.83 2.41c4.65 2.79 10.58 2.26 14.67-1.32l23.56-23.66c2.83-2.48 4.07-6.31 3.23-9.98s-3.63-6.58-7.26-7.58l-37.31-8.73c-3.52-0.97-7.28 0.36-9.41 3.32l-13.36 16.89c-1.59 2.2-2.18 4.97-1.63 7.63 0.55 2.65 2.18 4.96 4.51 6.36l23 17.07zm4.88-25.22-8.72-4.13s2.08-3.17 2.08-3.17l11.44 3.64-4.8 3.66zm-54.38-71.15c4.65 2.79 10.58 2.26 14.66-1.32l23.57-23.66c2.83-2.48 4.07-6.31 3.22-9.98-0.83-3.67-3.62-6.58-7.25-7.58l-37.32-8.73c-3.52-0.97-7.27 0.36-9.4 3.32l-13.36 16.89c-1.59 2.2-2.18 4.97-1.63 7.63 0.54 2.65 2.18 4.96 4.51 6.36l23 17.07zm4.88-25.22-8.72-4.13 2.07-3.17 11.45 3.64-4.8 3.66z"/>
                </g>
            </g>
        
    </g>
</svg>
