<?xml version="1.0" encoding="UTF-8"?>
<!DOCTYPE svg  PUBLIC '-//W3C//DTD SVG 1.1//EN'  'http://www.w3.org/Graphics/SVG/1.1/DTD/svg11.dtd'>
<svg clip-rule="evenodd" fill-rule="evenodd" stroke-linejoin="round" stroke-miterlimit="2" version="1.1" viewBox="0 0 200 220" xml:space="preserve" xmlns="http://www.w3.org/2000/svg">
    <g transform="translate(-600 -1100)">
        
            <g transform="translate(-1610.4)">
                
            </g>
            
            
            <g transform="translate(198.46 1103.9)">
                <g transform="matrix(.50919 0 0 .50919 442.48 -177.45)">
                    <path d="m121.23 506.8 4.164-15.347c1.79-6.796 4.633-11.9 6.408-17.646 0.997-3.223 1.371-6.301 1.98-9.318l4.437-19.148c2.946-13.224-5.399-26.353-18.623-29.299-13.225-2.947-26.353 5.398-29.3 18.623 0 0-1.26 6.161-1.685 14.111-0.25 4.651-0.414 9.804-0.037 14.749 1.006 5.041 1.508 10.263 2.764 16.196 0.903 4.263 1.755 8.101 3.297 12.574 1.589 4.221 2.501 7.408 4.001 10.352 3.563 6.993 5.503 10.277 5.503 10.277 1.69 4.717 6.891 7.174 11.607 5.484 4.717-1.69 7.174-6.891 5.484-11.608z"/>
                </g>
            </g>
        
    </g>
</svg>
