<?xml version="1.0" encoding="UTF-8"?>
<!DOCTYPE svg  PUBLIC '-//W3C//DTD SVG 1.1//EN'  'http://www.w3.org/Graphics/SVG/1.1/DTD/svg11.dtd'>
<svg clip-rule="evenodd" fill-rule="evenodd" stroke-linejoin="round" stroke-miterlimit="2" version="1.1" viewBox="0 0 200 220" xml:space="preserve" xmlns="http://www.w3.org/2000/svg">
    <g transform="translate(-1800 -880)">
        
            
            
            
            <g transform="translate(198.46 1103.9)">
                <g transform="matrix(1 0 0 .90979 826.87 -1224.8)">
                    <path d="m889.41 1113.5-47.379 71.21c-1.715 2.37-2.488 5.39-2.143 8.39 0 0 3.061 20.42 5.11 38.19 1.564 13.57 2.477 25.59 2.477 25.59 0.28 2.43 1.295 4.69 2.883 6.41l40.133 49.05c5.322 5.77 13.903 5.7 19.15-0.15s5.185-15.29-0.138-21.05l-42.943-41.24c-0.672-4.65-1.773-12.59-2.762-21.22-1.413-12.33-2.642-26.02-3.262-33.26 0 0 50.048-63.36 50.048-63.36 4.66-6.42 3.699-15.79-2.144-20.91-5.843-5.13-14.37-4.07-19.03 2.35z"/>
                </g>
            </g>
        
    </g>
</svg>
