<?xml version="1.0" encoding="UTF-8"?>
<!DOCTYPE svg  PUBLIC '-//W3C//DTD SVG 1.1//EN'  'http://www.w3.org/Graphics/SVG/1.1/DTD/svg11.dtd'>
<svg clip-rule="evenodd" fill-rule="evenodd" stroke-linejoin="round" stroke-miterlimit="2" version="1.1" viewBox="0 0 200 220" xml:space="preserve" xmlns="http://www.w3.org/2000/svg">
    <g transform="translate(-1800 -880)">
        
            
            
            
            <g transform="translate(198.46 1103.9)">
                <g transform="matrix(1 0 0 .90979 826.87 -1224.8)">
                    <path d="m889.41 1113.5-47.403 71.19c-0.882 1.22-1.524 2.62-1.887 4.12l-6.465 29.63c-0.766 3.17-0.138 6.55 1.696 9.14 0 0 10.876 14.98 22.415 32.61 15.168 23.18 31.547 50.69 31.547 50.69 4.592 6.48 13.108 7.65 19.004 2.6 5.897-5.05 6.956-14.41 2.364-20.89 0 0-20.252-24.19-36.985-46.03-8.638-11.28-16.27-21.93-20.283-27.61l5.771-21.77s51.4-65.12 51.4-65.12c4.66-6.42 3.699-15.79-2.144-20.91-5.843-5.13-14.37-4.07-19.03 2.35z"/>
                </g>
            </g>
        
    </g>
</svg>
