<?xml version="1.0" encoding="UTF-8"?>
<!DOCTYPE svg  PUBLIC '-//W3C//DTD SVG 1.1//EN'  'http://www.w3.org/Graphics/SVG/1.1/DTD/svg11.dtd'>
<svg clip-rule="evenodd" fill-rule="evenodd" stroke-linejoin="round" stroke-miterlimit="2" version="1.1" viewBox="0 0 200 220" xml:space="preserve" xmlns="http://www.w3.org/2000/svg">
    <g transform="translate(-2e3 -880)">
        
            
            
            
            <g transform="translate(198.46 1103.9)">
                <g transform="matrix(-1 0 0 -.90979 2776.9 980.9)">
                    <path d="m889.41 1113.5-47.334 71.25c-1.765 2.44-2.524 5.57-2.091 8.65l5.892 37.06c0.213 1.52 0.729 2.97 1.509 4.24 0 0 10.946 18.4 21.292 37.24 10.383 18.91 20.097 38.13 20.097 38.13 4.183 6.81 12.607 8.6 18.801 4s7.826-13.86 3.643-20.66c0 0-12.593-17.09-24.672-34.74-9.685-14.15-18.988-28.59-22.251-33.69l-3.65-29.79 49.938-63.13c4.66-6.42 3.699-15.79-2.144-20.91-5.843-5.13-14.37-4.07-19.03 2.35z"/>
                </g>
            </g>
        
    </g>
</svg>
