<?xml version="1.0" encoding="UTF-8"?>
<!DOCTYPE svg  PUBLIC '-//W3C//DTD SVG 1.1//EN'  'http://www.w3.org/Graphics/SVG/1.1/DTD/svg11.dtd'>
<svg clip-rule="evenodd" fill-rule="evenodd" stroke-linejoin="round" stroke-miterlimit="2" version="1.1" viewBox="0 0 200 220" xml:space="preserve" xmlns="http://www.w3.org/2000/svg">
    <g transform="translate(-800 -1100)">
        
            
            
            
            <g transform="translate(198.46 1103.9)">
                <g transform="matrix(-.69593 -.13107 -.17652 .45123 857.19 -52.764)">
                    <path d="m108.41 513.9s-1.698-3.059-3.953-9.205c-1.019-2.778-1.708-6.089-2.606-10.154-0.847-4.221-1.233-8.119-1.572-12.163-0.477-5.677-0.461-10.87-0.907-15.696-0.141-4.959 0.211-10.178 0.652-14.862 0.763-8.111 2.135-14.461 2.135-14.461 2.275-10.212 9.547-17.323 16.228-15.868s10.258 10.927 7.983 21.14l-3.372 18.685c-0.332 3.116-0.595 6.287-1.21 9.656-1.042 5.705-2.784 11.37-3.596 18.219-0.48 3.32-0.966 6.002-1.065 8.482-0.209 5.216-0.154 8.136-0.154 8.136 1.108 3.093 0.089 7.417-2.274 9.649-2.363 2.233-5.181 1.535-6.289-1.558z"/>
                </g>
            </g>
        
    </g>
</svg>
