<?xml version="1.0" encoding="UTF-8"?>
<!DOCTYPE svg  PUBLIC '-//W3C//DTD SVG 1.1//EN'  'http://www.w3.org/Graphics/SVG/1.1/DTD/svg11.dtd'>
<svg clip-rule="evenodd" fill-rule="evenodd" stroke-linejoin="round" stroke-miterlimit="2" version="1.1" viewBox="0 0 200 220" xml:space="preserve" xmlns="http://www.w3.org/2000/svg">
    <g transform="translate(-800 -1100)">
        
            <g transform="translate(-1610.4)">
                
            </g>
            
            
            <g transform="translate(198.46 1103.9)">
                <g transform="matrix(-.69593 -.13107 -.17652 .45123 857.19 -52.764)">
                    <path d="m107.18 515.07s-1.764-3.062-4.543-9.358c-1.249-2.831-1.95-6.186-3.134-10.395-1.104-4.342-1.555-8.251-2.079-12.471-0.694-5.592-0.846-10.62-1.448-15.386-0.224-5.225 0.14-10.73 0.55-15.685 0.704-8.503 2.153-15.167 2.153-15.167 2.93-13.15 12.293-22.305 20.896-20.432s13.209 14.07 10.279 27.22l-3.456 17.156c-0.424 3.252-0.683 6.524-1.434 10.023-1.224 5.703-3.334 10.98-4.42 17.854-0.627 3.293-1.379 5.755-1.593 8.241-0.448 5.196-0.745 7.982-0.745 7.982 1.427 3.983 0.116 9.55-2.927 12.425s-6.672 1.976-8.099-2.007z"/>
                </g>
            </g>
        
    </g>
</svg>
