<?xml version="1.0" encoding="UTF-8"?>
<!DOCTYPE svg  PUBLIC '-//W3C//DTD SVG 1.1//EN'  'http://www.w3.org/Graphics/SVG/1.1/DTD/svg11.dtd'>
<svg clip-rule="evenodd" fill-rule="evenodd" stroke-linejoin="round" stroke-miterlimit="2" version="1.1" viewBox="0 0 200 220" xml:space="preserve" xmlns="http://www.w3.org/2000/svg">
    <g transform="translate(0 -440)">
        
            
            
                <g transform="matrix(-.72727 0 0 .72727 1336.4 160)">
                    <path d="m1650.7 605.27c-6.46 0.252-12.58-2.86-16.19-8.222-3.6-5.362-4.16-12.208-1.49-18.088l53.81-108.27c2.32-5.123 7.41-8.426 13.04-8.465 5.63-0.038 10.76 3.195 13.16 8.284 0 0 14.92 34.655 28.76 64.249 10.56 22.589 20.58 42.165 20.58 42.165 1.97 4.163 1.71 9.031-0.68 12.964s-6.59 6.406-11.19 6.585l-99.8 8.798zm26.98-36.925 51.11 0.514c-3.06-6.753-6.72-14.7-10.64-22.962-5.54-11.681-11.59-23.995-16.88-34.612 0 1e-3 -23.59 57.06-23.59 57.06z"/>
                </g>
            
            
            
        
    </g>
</svg>
