<?xml version="1.0" encoding="UTF-8"?>
<!DOCTYPE svg  PUBLIC '-//W3C//DTD SVG 1.1//EN'  'http://www.w3.org/Graphics/SVG/1.1/DTD/svg11.dtd'>
<svg clip-rule="evenodd" fill-rule="evenodd" stroke-linejoin="round" stroke-miterlimit="2" version="1.1" viewBox="0 0 200 220" xml:space="preserve" xmlns="http://www.w3.org/2000/svg">
    <g transform="translate(-200 -440)">
        
            
            
                <g transform="matrix(.78948 0 0 .75642 -1203.8 475.72)">
                    <path d="m1858.3 136.55c-3.05 4.633-3.96 10.685-1.94 16.346 2.71 7.634 9.89 12.191 17.3 11.629 0.4 0.034 0.79 0.048 1.19 0.048 4.35 0 8.32-1.693 11.35-4.484l55.89-24.142c4.83-1.87 8.35-6.262 9.27-11.553s-0.9-10.697-4.79-14.22l-19.12-16.253 12.28-10.19c3.38-2.665 5.24-6.947 4.93-11.364-0.32-4.417-2.77-8.363-6.5-10.472l-57.42-32.329c-3.83-2.164-8.47-2.065-12.21 0.261-3.74 2.327-6.04 6.537-6.04 11.083 0 0-0.45 19.818-1.42 42.304-0.85 19.552-2.05 41.053-2.77 53.336zm32.26-14.937 18.35-6.304-11.43-11.016c-3.04-2.751-4.72-6.786-4.58-10.981s2.08-8.101 5.3-10.626l10.55-7.857s-20.89-11.855-20.89-11.856c0.21 6.096 0.47 13.031 0.78 20.241 0.56 13.036 1.29 26.94 1.92 38.399z"/>
                </g>
            
            
            
        
    </g>
</svg>
