<?xml version="1.0" encoding="UTF-8"?>
<!DOCTYPE svg  PUBLIC '-//W3C//DTD SVG 1.1//EN'  'http://www.w3.org/Graphics/SVG/1.1/DTD/svg11.dtd'>
<svg clip-rule="evenodd" fill-rule="evenodd" stroke-linejoin="round" stroke-miterlimit="2" version="1.1" viewBox="0 0 200 220" xml:space="preserve" xmlns="http://www.w3.org/2000/svg">
    <g transform="translate(-600 -440)">
        
            
            
                <g transform="matrix(.86646 0 0 .86201 -1289.4 460.24)">
                    <path d="m2256.1 146.67c0 6.339 3.79 12.056 9.61 14.498 5.82 2.441 12.53 1.127 17.02-3.332l45.23-49.299c2.42-2.4 3.76-5.679 3.74-9.092-0.03-3.413-1.43-6.671-3.88-9.034l-48.53-44.47c-3.15-3.045-7.82-3.901-11.84-2.176-4.03 1.726-6.64 5.7-6.64 10.099 0 0-0.35 23.206-1.52 46.403-1.18 23.281-3.19 46.403-3.19 46.403zm28.83-33.131c-0.27-4.309-0.52-8.788-0.75-13.272-0.33-6.504-0.6-13.009-0.81-19.002 0 1e-3 17.53 17.778 17.53 17.778 0-1e-3 -15.97 14.495-15.97 14.495v1e-3z"/>
                </g>
            
            
            
        
    </g>
</svg>
