<?xml version="1.0" encoding="UTF-8"?>
<!DOCTYPE svg  PUBLIC '-//W3C//DTD SVG 1.1//EN'  'http://www.w3.org/Graphics/SVG/1.1/DTD/svg11.dtd'>
<svg clip-rule="evenodd" fill-rule="evenodd" stroke-linejoin="round" stroke-miterlimit="2" version="1.1" viewBox="0 0 200 220" xml:space="preserve" xmlns="http://www.w3.org/2000/svg">
    <g transform="translate(-1e3 -440)">
        
            
            
                <g transform="matrix(.60993 0 0 .60993 1032.4 363.4)">
                    <path d="m102.42 249.9c27.577 1.714 58.44 4.523 58.44 4.523 12.253 0 22.202-9.948 22.202-22.202 0-12.253-9.949-22.202-22.202-22.202 0 0-32.044 2.917-60 4.625-21.261 1.299-40 1.805-40 1.805-6.451 0-12.251 3.929-14.646 9.918-2.394 5.99-0.899 12.834 3.774 17.281 0 0 12.29 11.193 25.74 24.395 6.748 6.624 13.797 13.735 19.929 19.989 0 0-13.979 6.661-13.979 6.661-7.44 3.97-11.427 12.323-9.834 20.605l7.662 55.559c2.314 12.033 13.961 19.925 25.995 17.611 12.033-2.313 19.924-13.961 17.611-25.994l-10.295-41.566c-1e-3 0 20.496-12.167 20.496-12.167 4.949-2.641 8.328-7.498 9.083-13.055 0.756-5.558-1.203-11.141-5.267-15.007 0 0-17.828-15.393-34.709-30.779z"/>
                </g>
            
            
            
        
    </g>
</svg>
