<?xml version="1.0" encoding="UTF-8"?>
<!DOCTYPE svg  PUBLIC '-//W3C//DTD SVG 1.1//EN'  'http://www.w3.org/Graphics/SVG/1.1/DTD/svg11.dtd'>
<svg clip-rule="evenodd" fill-rule="evenodd" stroke-linejoin="round" stroke-miterlimit="2" version="1.1" viewBox="0 0 200 220" xml:space="preserve" xmlns="http://www.w3.org/2000/svg">
    <g transform="translate(-1400 -440)">
        
            
            
                
                    <path d="m1483.4 550.49 30.45 9.596-0.15 20.287c0 7.473 6.07 13.541 13.54 13.541 7.48 0 13.54-6.068 13.54-13.541l-0.21-30c0-6.162-4.23-11.519-10.22-12.956l-48.15-8.042c-0.02-1.335-0.03-1.191-0.01-2.511 0.08-6.595 0.75-12.861 1.36-18.327 1.2-10.938 2.69-18.327 2.69-18.327 0-7.474-6.07-13.541-13.54-13.541-7.48 0-13.54 6.067-13.54 13.541 0 0 1.48 7.389 2.69 18.327 0.6 5.466 1.28 11.732 1.35 18.327 0.11 9.193-0.75 17.38-1.39 26.018-1.14 15.501-2.65 27.491-2.65 27.491 0 7.473 6.06 13.541 13.54 13.541 7.47 0 13.54-6.068 13.54-13.541 0 0-1.52-11.99-2.66-27.491-0.05-0.79-0.11-1.588-0.18-2.392z"/>
                
            
            
            
        
    </g>
</svg>
