<?xml version="1.0" encoding="UTF-8"?>
<!DOCTYPE svg  PUBLIC '-//W3C//DTD SVG 1.1//EN'  'http://www.w3.org/Graphics/SVG/1.1/DTD/svg11.dtd'>
<svg clip-rule="evenodd" fill-rule="evenodd" stroke-linejoin="round" stroke-miterlimit="2" version="1.1" viewBox="0 0 200 220" xml:space="preserve" xmlns="http://www.w3.org/2000/svg">
    <g transform="translate(-1400 -440)">
        
            
            
                <g transform="matrix(.54546 0 0 .54546 1216.8 380.37)">
                    <path d="m494.06 366.67s-2.777-21.982-4.869-50.4c-1.165-15.837-2.749-33.545-2.554-50.399 0.14-12.091 1.379-23.579 2.484-33.599 2.212-20.053 4.939-33.6 4.939-33.6 0-13.702-11.124-24.826-24.826-24.826s-24.827 11.124-24.827 24.826c0 0 2.727 13.547 4.939 33.6 1.105 10.02 2.344 21.508 2.484 33.599 0.195 16.854-1.388 34.562-2.554 50.399-2.092 28.418-4.869 50.4-4.869 50.4 0 13.702 11.125 24.826 24.827 24.826s24.826-11.124 24.826-24.826z"/>
                    <g transform="translate(39.838)">
                        <path d="m554.22 366.67-0.4-55c0-11.296-7.745-21.118-18.729-23.753l-101.68-16.983c-9.243-2.217-18.548 3.488-20.765 12.731-2.218 9.244 3.487 18.548 12.73 20.766l79.462 25.047s-0.271 37.192-0.271 37.192c0 13.702 11.125 24.826 24.827 24.826s24.826-11.124 24.826-24.826z"/>
                    </g>
                </g>
            
            
            
        
    </g>
</svg>
