<?xml version="1.0" encoding="UTF-8"?>
<!DOCTYPE svg  PUBLIC '-//W3C//DTD SVG 1.1//EN'  'http://www.w3.org/Graphics/SVG/1.1/DTD/svg11.dtd'>
<svg clip-rule="evenodd" fill-rule="evenodd" stroke-linejoin="round" stroke-miterlimit="2" version="1.1" viewBox="0 0 200 220" xml:space="preserve" xmlns="http://www.w3.org/2000/svg">
    <g transform="translate(-1600 -440)">
        
            
            
                
                    <g transform="matrix(1 0 0 -1 1e3 843.7)">
                        <path d="m713.54 256.67s0.508 7.734 0.015 17.555c-0.874 17.393-4.163 40.963-4.163 40.963 0 5.185-4.209 9.395-9.394 9.395s-9.394-4.21-9.394-9.395c0 0-3.289-23.57-4.163-40.963-0.493-9.821 0.015-17.555 0.015-17.555 0-7.474 6.068-13.542 13.542-13.542s13.542 6.068 13.542 13.542z"/>
                    </g>
                    <g transform="translate(0 5.9745)">
                        <path d="m1701.8 470.69c-4.74 0-9.88-0.227-13.27 2.839-3.06 2.769-4.89 6.921-4.89 11.203 0 9.137 6.88 14.327 16.02 14.327 5.54 0 9.26-1.679 11.86-4.149 2.59-2.455 4.36-6.006 4.8-11.123 0.52-6.084-1.41-7.476-4.5-10.409-2.43-2.305-5.72-2.688-10.02-2.688z"/>
                    </g>
                
            
            
            
        
    </g>
</svg>
