<?xml version="1.0" encoding="UTF-8"?>
<!DOCTYPE svg  PUBLIC '-//W3C//DTD SVG 1.1//EN'  'http://www.w3.org/Graphics/SVG/1.1/DTD/svg11.dtd'>
<svg clip-rule="evenodd" fill-rule="evenodd" stroke-linejoin="round" stroke-miterlimit="2" version="1.1" viewBox="0 0 200 220" xml:space="preserve" xmlns="http://www.w3.org/2000/svg">
    <g transform="translate(-2e3 -440)">
        
            
            
                <path d="m2089.6 565.62c2.18 2.082 4.67 4.568 7.15 7.274 2.64 2.866 5.09 6.057 7.39 9.105 5.89 7.789 10.21 14.513 10.21 14.513 5.23 5.343 13.81 5.437 19.15 0.21 5.35-5.227 5.44-13.807 0.21-19.15 0 0-6.62-4.467-14.28-10.525-3-2.372-6.14-4.892-8.94-7.588-2.39-2.294-4.61-4.587-6.51-6.645l17.54-17.076c4.8-5.729 4.05-14.277-1.68-19.076-5.73-4.8-14.28-4.045-19.08 1.684l-12.7 18.733c-1.24-17.137-2.72-32.038-2.72-32.038 0-5.185-4.21-9.395-9.39-9.395-5.19 0-9.4 4.21-9.4 9.395 0 0-3.29 33.135-4.16 57.401-0.49 13.771 0.01 24.6 0.01 24.6 0 7.474 6.07 13.542 13.55 13.542 7.47 0 13.54-6.068 13.54-13.542 0 0 0.43-9.2 0.11-21.422z"/>
            
            
            
        
    </g>
</svg>
