<?xml version="1.0" encoding="UTF-8"?>
<!DOCTYPE svg  PUBLIC '-//W3C//DTD SVG 1.1//EN'  'http://www.w3.org/Graphics/SVG/1.1/DTD/svg11.dtd'>
<svg clip-rule="evenodd" fill-rule="evenodd" stroke-linejoin="round" stroke-miterlimit="2" version="1.1" viewBox="0 0 200 220" xml:space="preserve" xmlns="http://www.w3.org/2000/svg">
    <g transform="translate(-2200 -440)">
        
            
            
                <g transform="matrix(.54546 0 0 .54546 1583.8 387.04)">
                    <path d="m1257.5 216.33s5.14 60.795 7.03 105.24c0.35 8.261 0.47 15.949 0.41 22.55-0.14 13.59-0.88 22.551-0.88 22.551 0 10.086 8.18 18.262 18.27 18.262l63.73 6.564c13.71 0 24.83-11.124 24.83-24.826s-11.12-24.827-24.83-24.827l-46.31 4.77c-0.02-0.812-0.03-1.644-0.04-2.494-0.06-6.601 0.06-14.289 0.41-22.55 1.89-44.44 7.03-105.24 7.03-105.24 0-13.702-11.12-24.827-24.82-24.827-13.71 0-24.83 11.125-24.83 24.827z"/>
                </g>
            
            
            
        
    </g>
</svg>
