<?xml version="1.0" encoding="UTF-8"?>
<!DOCTYPE svg  PUBLIC '-//W3C//DTD SVG 1.1//EN'  'http://www.w3.org/Graphics/SVG/1.1/DTD/svg11.dtd'>
<svg clip-rule="evenodd" fill-rule="evenodd" stroke-linejoin="round" stroke-miterlimit="2" version="1.1" viewBox="0 0 200 220" xml:space="preserve" xmlns="http://www.w3.org/2000/svg">
    <g transform="translate(-2400 -440)">
        
            
            
                <g transform="matrix(.54546 0 0 .54546 1689.8 387.04)">
                    <path d="m1520.2 292.69c-1.89 35.778-4.66 73.974-4.66 73.974 0 13.702 11.12 24.826 24.82 24.826 13.71 0 24.83-11.124 24.83-24.826 0 0-3.13-43.136-5.02-80.667-1.44-28.585-2.06-53.778-2.06-53.778 0-7.759-5.04-14.619-12.44-16.936-7.41-2.318-15.46 0.443-19.88 6.817l-33.1 47.408-52.67-30.644c-6.27-3.404-13.88-3.253-20.01 0.398-6.14 3.651-9.9 10.263-9.9 17.402l-4.57 110c0 13.702 11.12 24.826 24.82 24.826 13.71 0 24.83-11.124 24.83-24.826l-3.18-76.409 37.38 18.855c8.05 4.365 18.09 1.977 23.31-5.544l7.5-10.876z"/>
                </g>
            
            
            
        
    </g>
</svg>
