<?xml version="1.0" encoding="UTF-8"?>
<!DOCTYPE svg  PUBLIC '-//W3C//DTD SVG 1.1//EN'  'http://www.w3.org/Graphics/SVG/1.1/DTD/svg11.dtd'>
<svg clip-rule="evenodd" fill-rule="evenodd" stroke-linejoin="round" stroke-miterlimit="2" version="1.1" viewBox="0 0 200 220" xml:space="preserve" xmlns="http://www.w3.org/2000/svg">
    <g transform="translate(-200 -660)">
        
            
            
                <g transform="matrix(-.53302 1.5225e-18 -1.5225e-18 .54546 446.42 606.67)">
                    <path d="m351 357.61c-0.394 12.442-10.156 22.676-22.829 23.933l-99.467 5.752c-5.966 0.591-11.91-1.311-16.361-5.238-4.452-3.926-6.996-9.509-7.003-15.369l2.868-95.546c-0.011-8.864 6.647-16.388 15.624-17.656 0 0 19.266-2.109 40.999-5.334 28.481-4.228 61.173-10.206 61.173-10.206 5.661-0.8 11.394 0.889 15.66 4.612 4.267 3.724 6.629 9.101 6.452 14.688l2.884 100.36zm-48.852-22.524 5.264-57.124c-11.186 1.253-24.792 2.856-37.497 4.56-9.125 1.224-17.779 2.516-24.753 3.604 0 1e-3 1.847 56.724 1.847 56.724l55.139-7.764z"/>
                </g>
            
            
            
        
    </g>
</svg>
