<?xml version="1.0" encoding="UTF-8"?>
<!DOCTYPE svg  PUBLIC '-//W3C//DTD SVG 1.1//EN'  'http://www.w3.org/Graphics/SVG/1.1/DTD/svg11.dtd'>
<svg clip-rule="evenodd" fill-rule="evenodd" stroke-linejoin="round" stroke-miterlimit="2" version="1.1" viewBox="0 0 200 220" xml:space="preserve" xmlns="http://www.w3.org/2000/svg">
    <g transform="translate(-600 -660)">
        
            
            
                <g transform="translate(-1601.6 -1.1369e-13)">
                    <path d="m2302.8 818.74c-0.83 13.932-1.65 24.59-1.65 24.59 0 7.474 6.07 13.542 13.55 13.542 7.47 0 13.54-6.068 13.54-13.542 0 0-1.68-21.982-2.69-44.082-1.01-22.039-1.36-44.083-1.36-44.083 0-4.506-3.17-8.392-7.58-9.3l-41.2-9.14c-3.04-0.626-6.2 0.175-8.58 2.174s-3.71 4.975-3.61 8.078l-0.19 54.055c0.18 5.729 4.38 10.533 10.03 11.473l29.74 6.235zm1.34-26.572c0.46-11.439 0.75-22.226 0.9-29.169 0 0-20.7-3.928-20.7-3.928l2.02 30.902 17.78 2.195z"/>
                </g>
            
            
            
        
    </g>
</svg>
