<?xml version="1.0" encoding="UTF-8"?>
<!DOCTYPE svg  PUBLIC '-//W3C//DTD SVG 1.1//EN'  'http://www.w3.org/Graphics/SVG/1.1/DTD/svg11.dtd'>
<svg clip-rule="evenodd" fill-rule="evenodd" stroke-linejoin="round" stroke-miterlimit="2" version="1.1" viewBox="0 0 200 220" xml:space="preserve" xmlns="http://www.w3.org/2000/svg">
    <g transform="translate(-800 -660)">
        
            
            
                <g transform="matrix(.63733 0 0 .63636 -468.84 573.33)">
                    <path d="m2120.6 351.18 60.81 34.622c10.54 5.143 23.27 0.745 28.4-9.814 5.14-10.559 0.75-23.306-9.8-28.449l-44.02-18.095 25.76-25.434c3.55-3.308 5.27-8.146 4.59-12.958-0.67-4.811-3.65-8.99-7.98-11.19l-70.81-38.072c-5.17-2.629-11.33-2.381-16.27 0.655-4.94 3.035-7.95 8.422-7.95 14.226l-4.58 110c0 11.744 9.52 21.279 21.25 21.279s21.25-9.535 21.25-21.279l-0.65-15.491zm-1.33-31.893 25.67-22.511-27.15-13.047 1.48 35.558z"/>
                </g>
            
            
            
        
    </g>
</svg>
