<?xml version="1.0" encoding="UTF-8"?>
<!DOCTYPE svg  PUBLIC '-//W3C//DTD SVG 1.1//EN'  'http://www.w3.org/Graphics/SVG/1.1/DTD/svg11.dtd'>
<svg clip-rule="evenodd" fill-rule="evenodd" stroke-linejoin="round" stroke-miterlimit="2" version="1.1" viewBox="0 0 200 220" xml:space="preserve" xmlns="http://www.w3.org/2000/svg">
    <g transform="translate(-1e3 -660)">
        
            
            
                <g transform="matrix(.54546 0 0 .54546 1048 486.67)">
                    <path d="m103.33 541.73-52.906 23.057c-12.077 6.472-16.628 21.532-10.156 33.609s21.532 16.628 33.609 10.156l56.836-36.662 24.07-14.505c6.045-3.24 9.715-9.643 9.454-16.497s-4.408-12.96-10.682-15.73c0 0-19.03-7.626-40.162-17.295-7.563-3.461-15.396-7.166-22.789-10.724 1e-3 1e-3 46.008-23.444 46.008-23.444 11.85-6.88 15.884-22.086 9.004-33.936-6.88-11.849-22.086-15.884-33.935-9.004l-75.361 49.462c-6.471 3.757-10.286 10.828-9.874 18.299 0.413 7.471 4.983 14.079 11.828 17.101 0 0 32.908 12.405 60.949 24.341l4.107 1.772z"/>
                </g>
            
            
            
        
    </g>
</svg>
