<?xml version="1.0" encoding="UTF-8"?>
<!DOCTYPE svg  PUBLIC '-//W3C//DTD SVG 1.1//EN'  'http://www.w3.org/Graphics/SVG/1.1/DTD/svg11.dtd'>
<svg clip-rule="evenodd" fill-rule="evenodd" stroke-linejoin="round" stroke-miterlimit="2" version="1.1" viewBox="0 0 200 220" xml:space="preserve" xmlns="http://www.w3.org/2000/svg">
    <g transform="translate(-1200 -660)">
        
            
            
                <g transform="matrix(.66636 0 0 .66636 1097.3 415.7)">
                    <path d="m289.87 460.72-39.136-0.352-0.84-0.017-0.831 0.026-0.82 0.067-0.809 0.107-0.797 0.147-0.784 0.185-0.769 0.222-0.753 0.258-0.737 0.294-0.719 0.329-0.701 0.362-0.68 0.394-0.66 0.426-0.638 0.456-0.614 0.486-0.591 0.514-0.565 0.542-0.539 0.569-0.512 0.594-0.483 0.619-0.454 0.642-0.423 0.665-0.392 0.687-0.359 0.707-0.325 0.728-0.29 0.746-0.255 0.763-0.217 0.781-0.18 0.796-0.14 0.811-0.1 0.826-0.059 0.838-0.017 0.84 0.026 0.83 0.067 0.821 0.107 0.809 0.147 0.797 0.185 0.784 0.222 0.769 0.259 0.753 0.294 0.737 0.328 0.719 0.362 0.7 0.394 0.681 0.426 0.66 0.456 0.637 0.486 0.615 0.515 0.59 0.542 0.566 0.568 0.539 0.594 0.511 0.619 0.484 0.642 0.453 0.665 0.424 0.687 0.391 0.708 0.359 0.727 0.325 0.746 0.291 0.764 0.254 0.78 0.218 0.797 0.179 0.811 0.141 0.825 0.1 0.838 0.059 39.852 3.229-0.289 7.836c-1.533 38.157-4.152 76.15-4.152 76.15 0 11.216 9.106 20.322 20.322 20.322s20.322-9.106 20.322-20.322c0 0-2.619-37.993-4.152-76.15l-0.194-5.254 39.36 3.189c11.205 0.504 20.71-8.184 21.214-19.388 0.504-11.205-8.184-20.71-19.388-21.214l-42.338-0.382c-0.464-19.297-0.624-33.102-0.624-33.102 0-7.8-6.29-14.139-14.09-14.2-7.799-0.061-14.188 6.181-14.309 13.979l-0.932 33.053z"/>
                </g>
            
            
            
        
    </g>
</svg>
