<?xml version="1.0" encoding="UTF-8"?>
<!DOCTYPE svg  PUBLIC '-//W3C//DTD SVG 1.1//EN'  'http://www.w3.org/Graphics/SVG/1.1/DTD/svg11.dtd'>
<svg clip-rule="evenodd" fill-rule="evenodd" stroke-linejoin="round" stroke-miterlimit="2" version="1.1" viewBox="0 0 200 220" xml:space="preserve" xmlns="http://www.w3.org/2000/svg">
    <g transform="translate(-1400 -660)">
        
            
            
                <g transform="matrix(.54546 0 0 .54546 1227.8 486.63)">
                    <path d="m425.17 476.67 4.803 88.678c0 9.449 6.606 17.612 15.848 19.582 0 0 32.476 5.196 60.475 10.563 21.347 4.093 40.036 8.363 40.036 8.363 5.187 1.106 10.596-0.19 14.718-3.526 4.123-3.337 6.519-8.357 6.519-13.66 0 0 0.49-20.617 1.947-44 1.917-30.766 5.306-66 5.306-66 0-13.702-11.124-24.827-24.826-24.827s-24.826 11.125-24.826 24.827c0 0 3.389 35.234 5.306 66 0.495 7.948 0.879 15.577 1.169 22.185-5.476-1.199-11.607-2.577-17.949-4.067-14.992-3.522-31.157-7.623-42.853-10.649l3.979-73.469c0-13.702-11.124-24.827-24.826-24.827s-24.826 11.125-24.826 24.827z"/>
                </g>
            
            
            
        
    </g>
</svg>
