<?xml version="1.0" encoding="UTF-8"?>
<!DOCTYPE svg  PUBLIC '-//W3C//DTD SVG 1.1//EN'  'http://www.w3.org/Graphics/SVG/1.1/DTD/svg11.dtd'>
<svg clip-rule="evenodd" fill-rule="evenodd" stroke-linejoin="round" stroke-miterlimit="2" version="1.1" viewBox="0 0 200 220" xml:space="preserve" xmlns="http://www.w3.org/2000/svg">
    <g transform="translate(-1800 -660)">
        
            
            
                <g transform="matrix(.61185 0 0 .61185 1352.1 447.72)">
                    <path d="m809.32 497.96 38.696 94.824c2.454 6.788 8.728 11.45 15.934 11.843 7.207 0.392 13.95-3.562 17.126-10.042l13.902-30.586s14.833 29.651 14.833 29.651c2.842 5.746 8.884 9.194 15.276 8.719 6.393-0.475 11.859-4.778 13.821-10.88 0 0 7.723-22.289 17.144-47.363 12.368-32.919 27.459-70.483 27.459-70.483 3.739-11.628-2.666-24.105-14.295-27.844s-24.106 2.666-27.845 14.295c0 0-9.63 39.319-18.765 73.278-0.869 3.232-1.735 6.412-2.584 9.504 1e-3 -1e-3 -11.357-23.219-11.357-23.219-2.71-5.477-8.296-8.938-14.406-8.927s-11.684 3.493-14.373 8.98l-10.806 20.512-18.132-57.313c-4.153-11.487-16.852-17.441-28.339-13.288s-17.442 16.852-13.289 28.339z"/>
                </g>
            
            
            
        
    </g>
</svg>
