<?xml version="1.0" encoding="UTF-8"?>
<!DOCTYPE svg  PUBLIC '-//W3C//DTD SVG 1.1//EN'  'http://www.w3.org/Graphics/SVG/1.1/DTD/svg11.dtd'>
<svg clip-rule="evenodd" fill-rule="evenodd" stroke-linejoin="round" stroke-miterlimit="2" version="1.1" viewBox="0 0 200 220" xml:space="preserve" xmlns="http://www.w3.org/2000/svg">
    <g transform="translate(-2e3 -660)">
        
            
            
                
                    <path d="m2097 763.18c-1.23-1.829-2.42-3.632-3.58-5.369-7.29-10.894-12.4-19.664-12.4-19.664-4.68-5.825-13.21-6.753-19.04-2.07-5.82 4.683-6.75 13.214-2.07 19.039 0 0 7.47 6.875 16.54 16.336 1.88 1.953 3.85 3.978 5.83 6.064l-0.01 9e-3c-6.79 5.663-11.78 8.952-11.78 8.952-5.03 5.53-4.62 14.101 0.91 19.129 5.53 5.027 14.1 4.619 19.13-0.911 0 0 2.12-3.993 5.95-9.836 1.5 2.276 2.86 4.499 4.12 6.569 4.85 7.967 7.55 13.688 7.55 13.688 4.68 5.825 13.21 6.752 19.03 2.07 5.83-4.683 6.76-13.214 2.07-19.039 0 0-5-3.865-11.74-10.312-2.79-2.664-5.9-5.653-8.9-9.049 4.5-4.849 9.64-9.376 14.2-13.549 9.15-8.368 16.64-14.359 16.64-14.359 5.03-5.53 4.62-14.101-0.91-19.129-5.53-5.027-14.1-4.619-19.13 0.911 0 0-5.25 8.023-12.71 17.931-3.02 4.014-6.24 8.425-9.7 12.589z"/>
                
            
            
            
        
    </g>
</svg>
