<?xml version="1.0" encoding="UTF-8"?>
<!DOCTYPE svg  PUBLIC '-//W3C//DTD SVG 1.1//EN'  'http://www.w3.org/Graphics/SVG/1.1/DTD/svg11.dtd'>
<svg clip-rule="evenodd" fill-rule="evenodd" stroke-linejoin="round" stroke-miterlimit="2" version="1.1" viewBox="0 0 200 220" xml:space="preserve" xmlns="http://www.w3.org/2000/svg">
    <g transform="translate(-2200 -660)">
        
            
            
                <g transform="matrix(-.62246 0 0 .62246 3110.9 441.49)">
                    <path d="m1266.7 476.26 45.23 63.764c0.06 0.067 0.11 0.134 0.17 0.202 0 0 8.69 11.868 19.99 24.055 15.03 16.204 33.99 32.854 33.99 32.854 7.54 9.339 6.09 23.048-3.25 30.595s-23.05 6.092-30.59-3.246c0 0-12.31-22.026-24.99-40.123-9.55-13.611-19.33-24.595-19.33-24.595 0.17 0.202-54.6-55.59-54.6-55.59-7.7-9.21-6.48-22.942 2.73-30.645 9.21-7.704 22.94-6.48 30.65 2.729z"/>
                    <g transform="matrix(-1 0 0 -1 2640.7 1000.5)">
                        <path d="m1268.5 504.35s6.68-9.453 16.58-20.292c17.55-19.228 43.9-43.077 43.9-43.077 5.28-6.446 14.79-7.395 21.24-2.119 6.44 5.276 7.39 14.793 2.12 21.238 0 0-18.18 30.54-33.56 51.548-8.67 11.843-16.61 20.262-16.61 20.262-7.61 9.291-21.33 10.659-30.62 3.054s-10.66-21.323-3.05-30.614z"/>
                    </g>
                </g>
            
            
            
        
    </g>
</svg>
