<?xml version="1.0" encoding="UTF-8"?>
<!DOCTYPE svg  PUBLIC '-//W3C//DTD SVG 1.1//EN'  'http://www.w3.org/Graphics/SVG/1.1/DTD/svg11.dtd'>
<svg clip-rule="evenodd" fill-rule="evenodd" stroke-linejoin="round" stroke-miterlimit="2" version="1.1" viewBox="0 0 200 220" xml:space="preserve" xmlns="http://www.w3.org/2000/svg">
    <g transform="translate(-2200 -660)">
        
            
            
                
                    <path d="m2288.8 784.6c-1.99 2.423-4.42 5.264-7.08 8.133-9.36 10.086-21.16 20.451-21.16 20.451-4.69 5.812-3.79 14.346 2.02 19.044 5.82 4.697 14.35 3.792 19.05-2.021 0 0 7.66-13.71 15.55-24.975 5.95-8.472 12.03-15.31 12.03-15.31-0.1 0.126 33.99-34.603 33.99-34.603 4.79-5.732 4.03-14.28-1.7-19.075s-14.28-4.034-19.08 1.699l-20.37 28.72c-4.02-6.373-9.21-14.351-13.98-20.859-5.4-7.372-10.34-12.612-10.34-12.612-4.74-5.784-13.27-6.636-19.06-1.902-5.78 4.734-6.63 13.273-1.9 19.057 0 0 4.16 5.883 10.32 12.631 6.89 7.543 15.95 16.23 21.71 21.622z"/>
                
            
            
            
        
    </g>
</svg>
