<?xml version="1.0" encoding="UTF-8"?>
<!DOCTYPE svg  PUBLIC '-//W3C//DTD SVG 1.1//EN'  'http://www.w3.org/Graphics/SVG/1.1/DTD/svg11.dtd'>
<svg clip-rule="evenodd" fill-rule="evenodd" stroke-linejoin="round" stroke-miterlimit="2" version="1.1" viewBox="0 0 200 220" xml:space="preserve" xmlns="http://www.w3.org/2000/svg">
    <g transform="translate(-2400 -660)">
        
            
            
                <g transform="matrix(.63636 0 0 .63636 1543.1 429.42)">
                    <path d="m1483.6 510.05 23.25-5.206c-7.67 10.133-16.07 21.095-24.22 31.434-19.49 24.724-37.63 45.752-37.63 45.752-4.05 5.012-4.61 11.997-1.41 17.591 3.21 5.593 9.51 8.649 15.88 7.696l93.7-8.298c11.61-1.736 19.63-12.576 17.9-24.192-1.74-11.615-12.58-19.636-24.2-17.899l-50.86 10.759c3.23-3.998 6.64-8.169 10.14-12.403 26.33-31.791 58.11-67.283 58.11-67.283 4.73-5.849 5.33-14.016 1.5-20.493-3.82-6.477-11.26-9.902-18.66-8.594l-70.9 9.226c-11.57 2.043-19.3 13.092-17.26 24.657 2.05 11.566 13.1 19.297 24.66 17.253z"/>
                </g>
            
            
            
        
    </g>
</svg>
