<?xml version="1.0" encoding="UTF-8"?>
<!DOCTYPE svg  PUBLIC '-//W3C//DTD SVG 1.1//EN'  'http://www.w3.org/Graphics/SVG/1.1/DTD/svg11.dtd'>
<svg clip-rule="evenodd" fill-rule="evenodd" stroke-linejoin="round" stroke-miterlimit="2" version="1.1" viewBox="0 0 200 220" xml:space="preserve" xmlns="http://www.w3.org/2000/svg">
    <g transform="translate(0 -1320)">
        
            
                <g transform="translate(-6.5624)">
                    <path d="m155.32 1355.9c-0.428-6.58-5.885-11.69-12.474-11.69l-74.742 1.69c-5.759 0-10.506 4.52-10.793 10.27l-3.228 99.97c-0.238 4.77 3.258 8.89 7.993 9.45 0 0 21.759 2.17 43.474 4.74 21.717 2.57 43.384 5.52 43.384 5.52 2.713 0.32 5.426-0.59 7.406-2.47 1.979-1.88 3.022-4.54 2.844-7.27l-3.864-110.21zm-23.861 13.05 8.319 87.49c-8.343-0.85-20.281-2.1-32.208-3.47-13.279-1.52-26.542-3.19-34.845-4.25 0 0 5.463-80.98 5.463-80.98l53.271 1.21z"/>
                </g>
            
            
            
            
        
    </g>
</svg>
