<?xml version="1.0" encoding="UTF-8"?>
<!DOCTYPE svg  PUBLIC '-//W3C//DTD SVG 1.1//EN'  'http://www.w3.org/Graphics/SVG/1.1/DTD/svg11.dtd'>
<svg clip-rule="evenodd" fill-rule="evenodd" stroke-linejoin="round" stroke-miterlimit="2" version="1.1" viewBox="0 0 200 220" xml:space="preserve" xmlns="http://www.w3.org/2000/svg">
    <g transform="translate(0 -880)">
        
            
                <g transform="translate(-1600.2)">
                    <path d="m1671.6 948.19 18.27-11.767c0.16 4.035 0.31 8.508 0.42 13.246 0.17 6.956 0.3 14.48 0.15 22-0.16 7.536-0.59 15.041-1.06 22-1.27 18.583-2.9 33.003-2.9 33.003 0 7.47 6.07 13.54 13.54 13.54s13.54-6.07 13.54-13.54c0 0-1.63-14.42-2.9-33.003-0.47-6.959-0.9-14.464-1.06-22-0.15-7.52-0.02-15.044 0.15-22 0.45-18.513 1.4-33 1.4-33 0-3.955-2.09-7.613-5.51-9.61-3.41-1.997-7.63-2.033-11.08-0.094l-36.24 17.62c-6.51 3.664-8.82 11.927-5.16 18.441s11.93 8.828 18.44 5.164z"/>
                </g>
            
            
            
            
        
    </g>
</svg>
