<?xml version="1.0" encoding="UTF-8"?>
<!DOCTYPE svg  PUBLIC '-//W3C//DTD SVG 1.1//EN'  'http://www.w3.org/Graphics/SVG/1.1/DTD/svg11.dtd'>
<svg clip-rule="evenodd" fill-rule="evenodd" stroke-linejoin="round" stroke-miterlimit="2" version="1.1" viewBox="0 0 200 220" xml:space="preserve" xmlns="http://www.w3.org/2000/svg">
    <g transform="translate(-200 -880)">
        
            
                <g transform="translate(-1614.5 -3.4106e-13)">
                    <path d="m1878.8 930.18 60.13 1.641 0.39 15.382c-8.01 4.367-22.95 12.472-36.56 19.616-15.1 7.929-28.56 14.634-28.56 14.634-3.7 1.901-5.76 5.967-5.1 10.073l4.98 36.819c0.83 5.11 5.25 8.87 10.43 8.87l65.45 2.99c7.47 0 13.54-6.07 13.54-13.54 0-7.48-6.07-13.55-13.54-13.55l-56.78 2.6-3.85-20.514c5.32-2.774 13.43-6.967 22.18-11.363 19.97-10.035 43.24-21.187 43.24-21.187 3.49-1.795 5.69-5.394 5.69-9.323l0.83-32.519c0-5.99-4.67-10.941-10.64-11.294l-70.24-6.372c-7.46-0.439-13.87 5.261-14.31 12.722s5.26 13.875 12.72 14.315z"/>
                </g>
            
            
            
            
        
    </g>
</svg>
