<?xml version="1.0" encoding="UTF-8"?>
<!DOCTYPE svg  PUBLIC '-//W3C//DTD SVG 1.1//EN'  'http://www.w3.org/Graphics/SVG/1.1/DTD/svg11.dtd'>
<svg clip-rule="evenodd" fill-rule="evenodd" stroke-linejoin="round" stroke-miterlimit="2" version="1.1" viewBox="0 0 200 220" xml:space="preserve" xmlns="http://www.w3.org/2000/svg">
    <g transform="translate(-200 -880)">
        
            
                <g transform="translate(-1614.5 -3.4106e-13)">
                    <path d="m1880.5 946.97 58.54-5.566 0.34 13.331c-8.21 3.51-22.61 9.621-35.74 14.996-15.12 6.187-28.56 11.36-28.56 11.36-4.17 1.664-6.63 6.002-5.92 10.439l5 36.82c0.83 5.1 5.23 8.85 10.4 8.85l65.45 3.01c7.47 0 13.54-6.07 13.54-13.54 0-7.48-6.07-13.55-13.54-13.55l-56.79 2.62-3.72-19.813c5.31-2.15 12.99-5.224 21.23-8.42 19.95-7.742 43.15-16.252 43.15-16.252 3.97-1.584 6.58-5.43 6.58-9.708l0.84-32.519c0-3.117-1.29-6.095-3.56-8.229-2.28-2.134-5.33-3.233-8.44-3.037l-70.51 2.178c-7.45 0.47-13.13 6.907-12.66 14.366s6.91 13.134 14.37 12.664z"/>
                </g>
            
            
            
            
        
    </g>
</svg>
