<?xml version="1.0" encoding="UTF-8"?>
<!DOCTYPE svg  PUBLIC '-//W3C//DTD SVG 1.1//EN'  'http://www.w3.org/Graphics/SVG/1.1/DTD/svg11.dtd'>
<svg clip-rule="evenodd" fill-rule="evenodd" stroke-linejoin="round" stroke-miterlimit="2" version="1.1" viewBox="0 0 200 220" xml:space="preserve" xmlns="http://www.w3.org/2000/svg">
    <g transform="translate(-400 -880)">
        
            
                
                    <path d="m529.7 961.13c-9.454-1.037-23.973-2.481-35.871-3.016-10.98-0.494-19.622 0.015-19.622 0.015-7.474 0-13.542 6.068-13.542 13.542s6.068 13.541 13.542 13.541c0 0 8.642 0.509 19.622 0.015 12.036-0.541 26.753-2.012 36.199-3.051 0.015 1.533 0.027 3.057 0.037 4.569 0.073 11.436-0.034 22.139-0.148 29.589l-69.881-3.21c-7.474 0-13.542 6.07-13.542 13.55 0 7.47 6.068 13.54 13.542 13.54l79.578-3.65c5.466 0 9.898-4.43 9.898-9.89 0 0-0.484-18.71-0.349-39.929 0.178-27.803 1.288-59.888 1.288-59.888 0-2.925-1.183-5.726-3.28-7.767-2.096-2.04-4.929-3.145-7.853-3.065l-79.652-0.53c-7.471 0.204-13.371 6.436-13.167 13.907s6.436 13.37 13.907 13.166l68.729-4.217c0.175 6.077 0.386 14.075 0.565 22.779z"/>
                
            
            
            
            
        
    </g>
</svg>
