<?xml version="1.0" encoding="UTF-8"?>
<!DOCTYPE svg  PUBLIC '-//W3C//DTD SVG 1.1//EN'  'http://www.w3.org/Graphics/SVG/1.1/DTD/svg11.dtd'>
<svg clip-rule="evenodd" fill-rule="evenodd" stroke-linejoin="round" stroke-miterlimit="2" version="1.1" viewBox="0 0 200 220" xml:space="preserve" xmlns="http://www.w3.org/2000/svg">
    <g transform="translate(-400 -880)">
        
            <g transform="translate(-1610.4)">
                
                    
                        <path d="m2068.7 930.1 70.78 6.635c0.34 11.653 0.86 31.753 0.97 50.007 0.07 11.434-0.04 22.139-0.15 29.579l-69.88-3.2c-7.47 0-13.54 6.07-13.54 13.55 0 7.47 6.07 13.54 13.54 13.54l79.58-3.64c5.47 0 9.9-4.43 9.9-9.9 0 0-0.49-18.71-0.35-39.929 0.17-27.803 1.27-59.888 1.27-59.888 0-5.447-4.04-10.046-9.45-10.738l-79.23-12.88c-7.41-0.949-14.2 4.299-15.15 11.712-0.95 7.414 4.3 14.203 11.71 15.152z"/>
                        <path d="m2084.6 985.21s8.65 0.509 19.63 0.015c19.4-0.873 45.78-4.162 45.78-4.162 5.18 0 9.39-4.209 9.39-9.394s-4.21-9.395-9.39-9.395c0 0-26.38-3.289-45.78-4.162-10.98-0.494-19.63 0.015-19.63 0.015-7.47 0-13.54 6.068-13.54 13.542s6.07 13.541 13.54 13.541z"/>
                    
                
            </g>
            
            
            
        
    </g>
</svg>
