<?xml version="1.0" encoding="UTF-8"?>
<!DOCTYPE svg  PUBLIC '-//W3C//DTD SVG 1.1//EN'  'http://www.w3.org/Graphics/SVG/1.1/DTD/svg11.dtd'>
<svg clip-rule="evenodd" fill-rule="evenodd" stroke-linejoin="round" stroke-miterlimit="2" version="1.1" viewBox="0 0 200 220" xml:space="preserve" xmlns="http://www.w3.org/2000/svg">
    <g transform="translate(-400 -880)">
        
            <g transform="translate(-1610.4)">
                
                    
                        <path d="m2070.8 942.56 68.73-4.217c0.34 11.834 0.82 30.956 0.93 48.394 0.07 11.436-0.03 22.139-0.15 29.589l-69.88-3.21c-7.47 0-13.54 6.07-13.54 13.55 0 7.47 6.07 13.54 13.54 13.54l79.58-3.65c5.47 0 9.9-4.43 9.9-9.89 0 0-0.49-18.71-0.35-39.929 0.18-27.803 1.29-59.888 1.29-59.888 0-2.925-1.19-5.726-3.28-7.767-2.1-2.04-4.93-3.145-7.86-3.065l-79.65-0.53c-7.47 0.204-13.37 6.436-13.16 13.907 0.2 7.471 6.43 13.37 13.9 13.166z"/>
                        <path d="m2084.6 985.21s8.65 0.509 19.63 0.015c19.4-0.873 45.78-4.162 45.78-4.162 5.18 0 9.39-4.209 9.39-9.394s-4.21-9.395-9.39-9.395c0 0-26.38-3.289-45.78-4.162-10.98-0.494-19.63 0.015-19.63 0.015-7.47 0-13.54 6.068-13.54 13.542s6.07 13.541 13.54 13.541z"/>
                    
                
            </g>
            
            
            
        
    </g>
</svg>
