<?xml version="1.0" encoding="UTF-8"?>
<!DOCTYPE svg  PUBLIC '-//W3C//DTD SVG 1.1//EN'  'http://www.w3.org/Graphics/SVG/1.1/DTD/svg11.dtd'>
<svg clip-rule="evenodd" fill-rule="evenodd" stroke-linejoin="round" stroke-miterlimit="2" version="1.1" viewBox="0 0 200 220" xml:space="preserve" xmlns="http://www.w3.org/2000/svg">
    <g transform="translate(-600 -880)">
        
            
                <g transform="translate(-1611.5 2.2737e-13)">
                    <path d="m2337.8 1000.1c-0.71 15.3-1.3 26.54-1.3 26.54 0 7.47 6.07 13.54 13.54 13.54s13.54-6.07 13.54-13.54c0 0-0.52-9.74-1.16-23.44 3.88-1.7 6.91-5.181 7.84-9.639 1.42-6.787-2.52-13.457-8.94-15.601-0.24-5.766-0.46-11.625-0.66-17.323-0.79-23.383-1.05-44-1.05-44 0-3.565-1.98-6.834-5.14-8.485-3.15-1.65-6.97-1.409-9.9 0.626 0 0-14.99 10.593-32.22 22.282-22.57 15.316-48.93 32.566-48.93 32.566-3.57 2.482-5.32 6.849-4.45 11.108s4.19 7.594 8.44 8.482l70.39 16.884zm1.13-26.268c0.18-4.416 0.34-8.853 0.49-13.195 0.32-9.308 0.55-18.178 0.71-25.484-4.96 3.464-10.73 7.525-16.72 11.8-9.07 6.461-18.65 13.4-26.82 19.351l42.34 7.528z"/>
                </g>
            
            
            
            
        
    </g>
</svg>
