<?xml version="1.0" encoding="UTF-8"?>
<!DOCTYPE svg  PUBLIC '-//W3C//DTD SVG 1.1//EN'  'http://www.w3.org/Graphics/SVG/1.1/DTD/svg11.dtd'>
<svg clip-rule="evenodd" fill-rule="evenodd" stroke-linejoin="round" stroke-miterlimit="2" version="1.1" viewBox="0 0 200 220" xml:space="preserve" xmlns="http://www.w3.org/2000/svg">
    <g transform="translate(-800 -880)">
        
            
                <g transform="translate(-1594.2 2.2737e-13)">
                    <path d="m2538.1 903.12-88.13 2.304c-6.21 0-11.24 5.031-11.24 11.238l0.93 44.961c0 5.189 3.86 9.57 9.01 10.227l70.08 8.25-1.4 35.585-67.38-2.57c-7.47 0-13.54 6.07-13.54 13.55 0 7.47 6.07 13.54 13.54 13.54l77.55-2.95c5.77 0 10.48-4.61 10.59-10.38l0.05-55.022c0.09-4.871-3.49-9.033-8.33-9.649l-69.37-9.544 0.51-24.473 77.13 2.016c7.47 0 13.54-6.067 13.54-13.541s-6.07-13.542-13.54-13.542z"/>
                </g>
            
            
            
            
        
    </g>
</svg>
