<?xml version="1.0" encoding="UTF-8"?>
<!DOCTYPE svg  PUBLIC '-//W3C//DTD SVG 1.1//EN'  'http://www.w3.org/Graphics/SVG/1.1/DTD/svg11.dtd'>
<svg clip-rule="evenodd" fill-rule="evenodd" stroke-linejoin="round" stroke-miterlimit="2" version="1.1" viewBox="0 0 200 220" xml:space="preserve" xmlns="http://www.w3.org/2000/svg">
    <g transform="translate(-800 -880)">
        
            
                <g transform="translate(-1594.2 2.2737e-13)">
                    <path d="m2536.2 903.26-87.8 14.739c-5.5 0.772-9.59 5.478-9.59 11.033l0.69 32.6c0 5.261 3.91 9.702 9.13 10.368l70.14 8.098s-1.37 35.656-1.37 35.656l-67.45-2.63c-7.47 0-13.54 6.07-13.54 13.55 0 7.47 6.07 13.54 13.54 13.54l77.55-3.02c5.73 0 10.41-4.58 10.52-10.31l0.08-55.023c0.1-4.853-3.48-8.999-8.29-9.613l-69.22-9.68 0.29-13.563s79.08-8.924 79.08-8.924c7.4-1.038 12.57-7.89 11.53-15.291-1.04-7.402-7.89-12.568-15.29-11.53z"/>
                </g>
            
            
            
            
        
    </g>
</svg>
