<?xml version="1.0" encoding="UTF-8"?>
<!DOCTYPE svg  PUBLIC '-//W3C//DTD SVG 1.1//EN'  'http://www.w3.org/Graphics/SVG/1.1/DTD/svg11.dtd'>
<svg clip-rule="evenodd" fill-rule="evenodd" stroke-linejoin="round" stroke-miterlimit="2" version="1.1" viewBox="0 0 200 220" xml:space="preserve" xmlns="http://www.w3.org/2000/svg">
    <g transform="translate(-1e3 -880)">
        
            
                <g transform="translate(1010.9 -220)">
                    <path d="m64.854 1203.4 19.429-42.37 36.05-11.56c7.048-2.49 10.754-10.23 8.27-17.28-2.484-7.04-10.224-10.75-17.273-8.27l-40.076 15.42c-3.248 1.15-5.869 3.6-7.227 6.77l-23.897 59.68c-0.574 1.34-0.87 2.78-0.87 4.24l0.739 36.67c0 5.52 4.477 10 10.001 10 0 0 25.136-0.48 46.906-0.51 16.618-0.03 31.27 0.23 31.27 0.23 5.369 0 9.721-4.35 9.721-9.72l0.886-36.67c0-3-1.272-5.86-3.5-7.87s-5.204-2.99-8.19-2.68l-62.239 3.92zm-4.525 27.01-0.13 6.45c9.329 0.14 23.625 0.32 36.707 0.35 8.047 0.01 15.632-0.04 21.317-0.1l-0.36-14.9-57.534 8.2z"/>
                </g>
            
            
            
            
        
    </g>
</svg>
