<?xml version="1.0" encoding="UTF-8"?>
<!DOCTYPE svg  PUBLIC '-//W3C//DTD SVG 1.1//EN'  'http://www.w3.org/Graphics/SVG/1.1/DTD/svg11.dtd'>
<svg clip-rule="evenodd" fill-rule="evenodd" stroke-linejoin="round" stroke-miterlimit="2" version="1.1" viewBox="0 0 200 220" xml:space="preserve" xmlns="http://www.w3.org/2000/svg">
    <g transform="translate(-1e3 -880)">
        
            
                <g transform="translate(1010.9 -220)">
                    <path d="m64.822 1203.4 19.448-42.38 36.063-11.55c7.048-2.49 10.754-10.23 8.27-17.28-2.484-7.04-10.224-10.75-17.273-8.27l-40.071 15.44c-3.245 1.14-5.862 3.59-7.219 6.75l-23.884 59.7c-0.572 1.33-0.868 2.77-0.868 4.22l0.658 32.23c0 5.33 4.161 9.73 9.484 10.03l78.196 4.08c2.662 0.15 5.268-0.8 7.206-2.63s3.036-4.38 3.036-7.04l0.887-36.67c0-2.99-1.268-5.85-3.49-7.85-2.223-2.01-5.191-2.98-8.169-2.67l-62.274 3.89zm-4.526 27.01-0.049 2.4 57.987 3.57-0.343-14.2-57.595 8.23z"/>
                </g>
            
            
            
            
        
    </g>
</svg>
