<?xml version="1.0" encoding="UTF-8"?>
<!DOCTYPE svg  PUBLIC '-//W3C//DTD SVG 1.1//EN'  'http://www.w3.org/Graphics/SVG/1.1/DTD/svg11.dtd'>
<svg clip-rule="evenodd" fill-rule="evenodd" stroke-linejoin="round" stroke-miterlimit="2" version="1.1" viewBox="0 0 200 220" xml:space="preserve" xmlns="http://www.w3.org/2000/svg">
    <g transform="translate(-1200 -880)">
        
            
                <g transform="translate(999.36 -220)">
                    <path d="m251.66 1162.5 78.395-12.52c-4.632 7.35-10.327 16.25-16.456 25.48-5.739 8.65-11.991 17.49-17.895 25.8-14.852 20.9-27.723 38.12-27.723 38.12-4.037 6.29-2.209 14.67 4.08 18.71s14.673 2.21 18.711-4.08c0 0 10.296-18.87 23.125-41.07 5.099-8.83 10.529-18.19 16.004-27.01 14.658-23.61 28.494-43.84 28.494-43.84 2.091-3.26 2.11-7.43 0.05-10.71-2.061-3.27-5.83-5.06-9.67-4.59l-100.44 8.83c-7.418 0.92-12.695 7.68-11.778 15.1 0.916 7.42 7.683 12.69 15.1 11.78z"/>
                </g>
            
            
            
            
        
    </g>
</svg>
