<?xml version="1.0" encoding="UTF-8"?>
<!DOCTYPE svg  PUBLIC '-//W3C//DTD SVG 1.1//EN'  'http://www.w3.org/Graphics/SVG/1.1/DTD/svg11.dtd'>
<svg clip-rule="evenodd" fill-rule="evenodd" stroke-linejoin="round" stroke-miterlimit="2" version="1.1" viewBox="0 0 200 220" xml:space="preserve" xmlns="http://www.w3.org/2000/svg">
    <g transform="translate(-1200 -880)">
        
            
                <g transform="translate(999.36 -220)">
                    <path d="m248.59 1150.1 83.463 5.69c-4.936 7.08-11.328 16.09-18.253 25.49-5.75 7.8-11.982 15.75-17.868 23.23-14.809 18.83-27.596 34.29-27.596 34.29-4.325 6.09-2.888 14.55 3.207 18.88s14.555 2.89 18.88-3.21c0 0 10.375-17.17 23.252-37.36 5.118-8.03 10.564-16.54 16.031-24.54 14.632-21.42 28.355-39.73 28.355-39.73 2.032-2.87 2.391-6.59 0.945-9.79s-4.482-5.39-7.974-5.76l-99.618-14.12c-7.434-0.78-14.101 4.62-14.88 12.06-0.779 7.43 4.623 14.1 12.056 14.87z"/>
                </g>
            
            
            
            
        
    </g>
</svg>
