<?xml version="1.0" encoding="UTF-8"?>
<!DOCTYPE svg  PUBLIC '-//W3C//DTD SVG 1.1//EN'  'http://www.w3.org/Graphics/SVG/1.1/DTD/svg11.dtd'>
<svg clip-rule="evenodd" fill-rule="evenodd" stroke-linejoin="round" stroke-miterlimit="2" version="1.1" viewBox="0 0 200 220" xml:space="preserve" xmlns="http://www.w3.org/2000/svg">
    <g transform="translate(-1400 -880)">
        
            
                <g transform="matrix(-6.1232e-17 1 1 6.1232e-17 308.33 471.67)">
                    <path d="m492.4 1173.9 38.644-46.16c2.719-3.13 6.72-4.84 10.86-4.64s7.962 2.28 10.373 5.65l13.127 19.62c1.695 2.37 2.531 5.24 2.371 8.15l-7.312 90.68c-0.229 4.15-2.89 7.78-6.783 9.24-3.894 1.46-8.282 0.48-11.186-2.5 0 0-16.903-18.24-36.45-38.59-2.984-3.1-6.028-6.26-9.082-9.41l-38.686 42.88c-2.306 2.66-5.744 4.04-9.246 3.73s-6.643-2.28-8.446-5.29l-13.679-23.62c-1.561-2.62-1.924-5.77-0.993-8.67l22.191-66.31c1.042-3.25 3.71-5.71 7.029-6.49s6.805 0.23 9.186 2.67c0 0 12.336 12.87 28.082 29.06zm17.4 17.81 30.606-33.92 1.672 2.19-1.843 62.33c-5.987-5.94-13.051-12.99-20.394-20.41-3.311-3.34-6.68-6.76-10.041-10.19zm-29.71-3.11-28.74 34.33-3.824-6.2s14.347-46.7 14.346-46.7c5.028 5.11 11.348 11.54 18.218 18.57z"/>
                </g>
            
            
            
            
        
    </g>
</svg>
