<?xml version="1.0" encoding="UTF-8"?>
<!DOCTYPE svg  PUBLIC '-//W3C//DTD SVG 1.1//EN'  'http://www.w3.org/Graphics/SVG/1.1/DTD/svg11.dtd'>
<svg clip-rule="evenodd" fill-rule="evenodd" stroke-linejoin="round" stroke-miterlimit="2" version="1.1" viewBox="0 0 200 220" xml:space="preserve" xmlns="http://www.w3.org/2000/svg">
    <g transform="translate(-1400 -880)">
        
            
                <g transform="matrix(6.1232e-17 1 -1 6.1232e-17 2691.7 471.67)">
                    <path d="m495.26 1207.9c24.179 23.34 47.508 46.4 47.508 46.4 2.966 2.82 7.3 3.65 11.103 2.14s6.382-5.09 6.607-9.18l7.3-90.68c0.16-2.91-0.676-5.78-2.371-8.15l-13.131-19.62c-2.411-3.37-6.233-5.45-10.373-5.65s-8.141 1.51-10.86 4.64l-40.961 48.92c-18.479-17.53-33.368-32.1-33.368-32.1-2.563-2.43-6.242-3.29-9.616-2.24-3.375 1.05-5.917 3.84-6.644 7.3l-14.839 66.4c-0.549 2.61-0.094 5.33 1.276 7.62l13.68 23.62c1.806 3.02 4.951 5 8.457 5.31s6.948-1.08 9.257-3.74l36.975-40.99zm12.832-14.23c11.583 10.83 23.118 21.5 32.097 29.77l1.882-63.4-1.667-2.19-32.312 35.82zm-30.186-2.41c-8.159-7.77-15.75-14.91-21.731-20.5l-8.972 45.48s4.15 6.73 4.15 6.73l26.553-31.71z"/>
                </g>
            
            
            
            
        
    </g>
</svg>
