<?xml version="1.0" encoding="UTF-8"?>
<!DOCTYPE svg  PUBLIC '-//W3C//DTD SVG 1.1//EN'  'http://www.w3.org/Graphics/SVG/1.1/DTD/svg11.dtd'>
<svg clip-rule="evenodd" fill-rule="evenodd" stroke-linejoin="round" stroke-miterlimit="2" version="1.1" viewBox="0 0 200 220" xml:space="preserve" xmlns="http://www.w3.org/2000/svg">
    <g transform="translate(-1600 -880)">
        
            
                <g transform="translate(1008.1 -220)">
                    <path d="m722.15 1204.9c-0.871 22-1.879 41.79-1.879 41.79 0 7.47 6.068 13.54 13.542 13.54s13.541-6.07 13.541-13.54c0 0-1.197-23.5-2.109-47.75 1.337-2.1 2.109-4.59 2.109-7.25 0-3.01-0.982-5.79-2.644-8.04-0.656-19.98-1.043-36.98-1.043-36.98 0-4.99-3.732-9.19-8.689-9.78 0 0-15.753-1.49-33.571-3.62-23.34-2.79-50.22-6.58-50.22-6.58-3.006-0.36-6.014 0.65-8.191 2.76-2.177 2.1-3.291 5.07-3.035 8.09l3.453 55.1c0.497 5.85 5.389 10.35 11.259 10.35l67.477 1.91zm0.931-26.45c0.291-9.2 0.517-17.44 0.666-23.23-6.225-0.84-15.098-2.01-24.582-3.13-13.313-1.59-27.823-3.12-37.833-4.15l3.457 32.16 58.292-1.65z"/>
                </g>
            
            
            
            
        
    </g>
</svg>
