<?xml version="1.0" encoding="UTF-8"?>
<!DOCTYPE svg  PUBLIC '-//W3C//DTD SVG 1.1//EN'  'http://www.w3.org/Graphics/SVG/1.1/DTD/svg11.dtd'>
<svg clip-rule="evenodd" fill-rule="evenodd" stroke-linejoin="round" stroke-miterlimit="2" version="1.1" viewBox="0 0 200 220" xml:space="preserve" xmlns="http://www.w3.org/2000/svg">
    <g transform="translate(-1600 -880)">
        
            
                <g transform="translate(1008.1 -220)">
                    <path d="m722.15 1204.9c-0.916 22.46-1.871 41.79-1.871 41.79 0 7.47 6.068 13.54 13.542 13.54s13.541-6.07 13.541-13.54c0 0-1.129-22.86-2.107-47.76 1.336-2.09 2.107-4.58 2.107-7.24 0-3.03-0.996-5.83-2.678-8.08l-0.105-2.92c-0.791-23.39-1.122-44-1.122-44 0-2.76-1.183-5.39-3.251-7.22-2.067-1.83-4.82-2.68-7.56-2.35 0 0-20.711 2.77-41.468 5.15-20.762 2.39-41.56 4.4-41.56 4.4-5.486 0.68-9.456 5.57-8.988 11.07l2.799 44.9c0.497 5.85 5.386 10.34 11.252 10.34l67.469 1.92zm0.984-26.45c0.399-12.04 0.671-23.18 0.839-30.92-7.946 0.93-19.21 2.29-30.46 3.76-11.715 1.53-23.411 3.18-31.367 4.32l2.641 24.5 58.347-1.66z"/>
                </g>
            
            
            
            
        
    </g>
</svg>
