<?xml version="1.0" encoding="UTF-8"?>
<!DOCTYPE svg  PUBLIC '-//W3C//DTD SVG 1.1//EN'  'http://www.w3.org/Graphics/SVG/1.1/DTD/svg11.dtd'>
<svg clip-rule="evenodd" fill-rule="evenodd" stroke-linejoin="round" stroke-miterlimit="2" version="1.1" viewBox="0 0 200 220" xml:space="preserve" xmlns="http://www.w3.org/2000/svg">
    <g transform="translate(-2400 -1100)">
        
            
            
            
            <g transform="translate(198.46 1103.9)">
                <g transform="matrix(.88103 0 0 .88434 103.84 -954.2)">
                    <path d="m2529.5 1218.9-22.46-55.62c-1.98-4.64-6.52-7.69-11.58-7.77-5.07-0.08-9.7 2.82-11.83 7.4l-28.11 58.37c-1.87 4.02-1.66 8.7 0.55 12.55 2.21 3.84 6.16 6.38 10.59 6.81l79.32 8.07c3.94 0.38 7.87-0.9 10.82-3.54l16.49-14.89c4.14-3.71 5.7-9.51 3.96-14.78l-23.3-69.24c-0.98-2.95-2.93-5.47-5.55-7.16l-40.94-25.8c-3.05-1.95-6.76-2.57-10.28-1.71l-50.21 12.78c-4.19 1.03-7.57 4.11-8.97 8.17l-28.47 85.47c-0.85 2.45-0.85 5.11-0.02 7.56l14.09 40.07c1.32 3.9 4.68 6.77 8.75 7.48l65.81 10.85c1.2 0.2 2.42 0.21 3.61 0.01l68.14-12.28c5.35-0.91 8.96-5.98 8.05-11.31-0.91-5.34-5.99-8.93-11.35-8.03l-66.46 10.51-57.17-10.68-9.9-30.22s26.56-74.61 26.56-74.61 38.2-9 38.2-9l31.73 20.8 18.15 56.31-5.2 4.62-13.02-1.19zm-26.65-2.43-7.57-16.9-6.96 15.57 14.53 1.33z"/>
                </g>
            </g>
        
    </g>
</svg>
