<?xml version="1.0" encoding="UTF-8"?>
<!DOCTYPE svg  PUBLIC '-//W3C//DTD SVG 1.1//EN'  'http://www.w3.org/Graphics/SVG/1.1/DTD/svg11.dtd'>
<svg clip-rule="evenodd" fill-rule="evenodd" stroke-linejoin="round" stroke-miterlimit="2" version="1.1" viewBox="0 0 200 220" xml:space="preserve" xmlns="http://www.w3.org/2000/svg">
    <g transform="translate(-2400 -1100)">
        
            
            
            
            <g transform="translate(198.46 1103.9)">
                <g transform="translate(-198.46 -1103.9)">
                    <path d="m2528.6 1220.5-23.01-56.61c-1.75-4.09-5.74-6.78-10.2-6.85-4.45-0.07-8.53 2.49-10.4 6.53l-28.02 58.41c-1.65 3.56-1.48 7.7 0.48 11.1 1.94 3.41 5.42 5.65 9.33 6.03l79.32 8.03c3.47 0.34 6.92-0.8 9.52-3.12l16.5-14.88c3.66-3.28 5.04-8.43 3.5-13.1l-23.25-69.26c-0.86-2.61-2.59-4.84-4.9-6.32l-40.92-25.85c-2.67-1.71-5.93-2.26-9.02-1.5l-50.23 12.73c-3.69 0.9-6.67 3.62-7.91 7.22l-28.58 85.43c-0.74 2.17-0.75 4.53-0.01 6.71l14.03 40.08c1.17 3.45 4.13 5.98 7.72 6.61l65.8 10.93c1.04 0.18 2.12 0.18 3.17 0.01l68.14-12.2c4.72-0.8 7.91-5.28 7.11-10s-5.28-7.9-10-7.1l-66.69 10.63-58.19-10.8-10.32-31.37s26.89-75.82 26.89-75.82 39.65-9.38 39.65-9.38l32.8 21.44s18.68 57.8 18.68 57.8l-6.53 5.8-14.46-1.33zm-23.43-2.15-9.99-22.42-9.27 20.65 19.26 1.77z"/>
                </g>
            </g>
        
    </g>
</svg>
