<?xml version="1.0" encoding="UTF-8"?>
<!DOCTYPE svg  PUBLIC '-//W3C//DTD SVG 1.1//EN'  'http://www.w3.org/Graphics/SVG/1.1/DTD/svg11.dtd'>
<svg clip-rule="evenodd" fill-rule="evenodd" stroke-linejoin="round" stroke-miterlimit="2" version="1.1" viewBox="0 0 200 220" xml:space="preserve" xmlns="http://www.w3.org/2000/svg">
    <g transform="translate(-2400 -880)">
        
            
            
            
            <g transform="translate(198.46 1103.9)">
                <g transform="matrix(-1 0 0 -1 3609.2 1098.3)">
                    <path d="m1339.7 1109.2-64.69 1.97c-6.39 0-11.58 5.18-11.58 11.57 0 0 1.83 57.53 2.09 107.38 0.06 10.03-0.08 19.75-0.25 28.63-0.48 24.79-1.26 42.95-1.26 42.95 0 6.07 4.93 11 11 11l56.04 2.54c7.48 0 13.54-6.07 13.54-13.54 0-7.48-6.06-13.54-13.54-13.54l-45.47 2.06c-0.26-7.68-0.58-18.69-0.83-31.47-0.17-8.88-0.31-18.6-0.25-28.63 0.18-36.01 1.19-76.01 1.74-95.46l53.46 1.62c7.47 0 13.54-6.06 13.54-13.54 0-7.47-6.07-13.54-13.54-13.54z"/>
                </g>
            </g>
        
    </g>
</svg>
