<?xml version="1.0" encoding="UTF-8"?>
<!DOCTYPE svg  PUBLIC '-//W3C//DTD SVG 1.1//EN'  'http://www.w3.org/Graphics/SVG/1.1/DTD/svg11.dtd'>
<svg clip-rule="evenodd" fill-rule="evenodd" stroke-linejoin="round" stroke-miterlimit="2" version="1.1" viewBox="0 0 200 220" xml:space="preserve" xmlns="http://www.w3.org/2000/svg">
    
        
        
        
            <g transform="matrix(-1 0 0 1.1652 1802 -24.228)">
                <path d="m1654.6 159.25c-1.07 0.069-2.17 0.034-3.26-0.109l-0.02-2e-3 -0.19-0.03-0.44-0.065-0.05-9e-3 -0.04-8e-3 -0.43-0.085-0.2-0.037-0.02-5e-3c-1.21-0.261-2.36-0.652-3.42-1.153l-0.04-0.016-0.46-0.228-0.09-0.047-0.01-4e-3c-1.43-0.744-2.68-1.68-3.7-2.751l-0.01-0.011-0.01-5e-3 -0.13-0.133-0.24-0.268-0.06-0.071-0.03-0.038-0.1-0.109-0.17-0.208-0.11-0.139-0.06-0.078-0.06-0.076-0.11-0.145-0.15-0.213-0.08-0.118-0.03-0.041-0.05-0.079-0.2-0.291-0.09-0.154v-6e-3l-0.01-0.013c-0.75-1.227-1.27-2.574-1.52-3.998v-8e-3l-0.01-0.093-0.07-0.451v-0.035c-0.12-1.039-0.1-2.1 0.09-3.157l0.01-0.018 0.03-0.167 0.08-0.374 0.01-0.04v-0.04l0.1-0.37 0.05-0.166v-0.017c0.25-0.847 0.6-1.66 1.04-2.429l49.05-92.704c1.75-3.554 5.75-5.904 10.25-6.009 4.49-0.105 8.64 2.054 10.61 5.523 0 0 16.28 30.75 31.14 57.072 11.34 20.093 21.92 37.561 21.92 37.561 1.64 2.887 1.44 6.295-0.55 9.017-1.98 2.723-5.46 4.378-9.2 4.378l-98.96 3.27zm20.15-24.502 26.65-58.616c6.3 10.586 14.24 24.044 21.44 36.651 5.07 8.873 9.76 17.328 13.41 23.997l-61.5-2.032z"/>
            </g>
        
        
    
</svg>
