<?xml version="1.0" encoding="UTF-8"?>
<!DOCTYPE svg  PUBLIC '-//W3C//DTD SVG 1.1//EN'  'http://www.w3.org/Graphics/SVG/1.1/DTD/svg11.dtd'>
<svg clip-rule="evenodd" fill-rule="evenodd" stroke-linejoin="round" stroke-miterlimit="2" version="1.1" viewBox="0 0 200 220" xml:space="preserve" xmlns="http://www.w3.org/2000/svg">
    <g transform="translate(-1400 -1320)">
        
            <g transform="translate(-1610.4)">
                
            </g>
            
            
            <g transform="translate(198.46 1103.9)">
                <g transform="matrix(.72105 0 0 .72105 219.96 -725.77)">
                    <path d="m1483 1379.4-32.98 0.58c-6.47 0-12.01 4.64-13.14 11.01s2.47 12.63 8.55 14.86l10.6 3.76-11.98 4.1c-8.98 3.3-13.6 13.27-10.31 22.25 3.3 8.98 13.27 13.6 22.25 10.31l20.52-8.02-0.63 5.73c-0.54 6.32 2.93 12.3 8.67 14.98 5.75 2.68 12.56 1.48 17.05-2.99l23.48-21.9 20.75 7.35c5 1.84 10.61 0.21 13.85-4.01 3.24-4.23 3.36-10.07 0.3-14.42l-9.02-13.06 0.32-0.3c0.3-0.3 0.59-0.61 0.86-0.93l3.08-1.2c6.87-2.52 10.95-9.61 9.67-16.82-1.28-7.2-7.55-12.46-14.87-12.46l-20.71 0.37-20.28-29.35c-3.12-4.44-8.68-6.45-13.92-5.04-5.23 1.42-9.03 5.96-9.49 11.36l-2.62 23.84z"/>
                </g>
            </g>
        
    </g>
</svg>
