<?xml version="1.0" encoding="UTF-8"?>
<!DOCTYPE svg  PUBLIC '-//W3C//DTD SVG 1.1//EN'  'http://www.w3.org/Graphics/SVG/1.1/DTD/svg11.dtd'>
<svg clip-rule="evenodd" fill-rule="evenodd" stroke-linejoin="round" stroke-miterlimit="2" version="1.1" viewBox="0 0 200 220" xml:space="preserve" xmlns="http://www.w3.org/2000/svg">
    <g transform="translate(-200)">
        
            
            
            
                <g transform="matrix(1 0 0 1.0401 -1623.7 -5.8786)">
                    <path d="m1861.1 146.67c0 3.66 1.57 7.157 4.34 9.667s6.49 3.81 10.29 3.592l68.68-5.481c2.42-0.138 4.74-0.964 6.67-2.373l28.33-21.66c3.22-2.351 4.9-6.16 4.43-10.018-0.47-3.857-3.02-7.19-6.71-8.764l-48.77-19.81 26.07-16.84c3.23-2.045 4.89-5.737 4.23-9.399-0.67-3.661-3.54-6.593-7.3-7.46l-73.98-17.932c-3.15-0.726-6.47-0.025-9.02 1.903-2.54 1.929-4.02 4.872-4.02 7.986l-3.24 96.589zm27.17-13.752-2.35-69.997s38.56 8.445 38.56 8.445l-22.99 14.261c-3.1 1.966-4.84 5.405-4.54 8.967 0.31 3.563 2.62 6.68 6.01 8.129l47.12 21.043-10.55 7.373-51.26 1.779z"/>
                </g>
            
            
        
    </g>
</svg>
