<?xml version="1.0" encoding="UTF-8"?>
<!DOCTYPE svg  PUBLIC '-//W3C//DTD SVG 1.1//EN'  'http://www.w3.org/Graphics/SVG/1.1/DTD/svg11.dtd'>
<svg clip-rule="evenodd" fill-rule="evenodd" stroke-linejoin="round" stroke-miterlimit="2" version="1.1" viewBox="0 0 200 220" xml:space="preserve" xmlns="http://www.w3.org/2000/svg">
    <g transform="translate(-1e3 -1320)">
        
            <g transform="translate(-1610.4)">
                
            </g>
            
            
            <g transform="translate(198.46 1103.9)">
                <g transform="translate(201.54 -1103.9)">
                    <path d="m687.5 1337.2s1.403 21.88 2.451 49.85c0.588 15.66 1.385 33.21 1.286 49.85-0.07 11.91-0.693 23.31-1.25 33.23-1.103 19.61-2.487 33.23-2.487 33.23 0 6.9 5.601 12.5 12.5 12.5s12.5-5.6 12.5-12.5c0 0-1.384-13.62-2.487-33.23-0.557-9.92-1.18-21.32-1.25-33.23-0.099-16.64 0.698-34.19 1.286-49.85 1.048-27.97 2.451-49.85 2.451-49.85 0-6.9-5.601-12.5-12.5-12.5s-12.5 5.6-12.5 12.5z"/>
                </g>
            </g>
        
    </g>
</svg>
