<?xml version="1.0" encoding="UTF-8"?>
<!DOCTYPE svg  PUBLIC '-//W3C//DTD SVG 1.1//EN'  'http://www.w3.org/Graphics/SVG/1.1/DTD/svg11.dtd'>
<svg clip-rule="evenodd" fill-rule="evenodd" stroke-linejoin="round" stroke-miterlimit="2" version="1.1" viewBox="0 0 200 220" xml:space="preserve" xmlns="http://www.w3.org/2000/svg">
    <g transform="translate(-400 -441)">
        
            
            
                <g transform="matrix(.72727 0 0 .75642 -1029.1 475.72)">
                    <path d="m2131 35.038-68.12 25.913c-3.8 1.911-6.53 5.34-7.46 9.369-0.92 4.029 0.05 8.245 2.67 11.518 0 0 9.59 14.671 21.32 30.879 15.29 21.143 33.97 44.849 33.97 44.849 6.25 7.838 17.95 9.318 26.1 3.303 8.16-6.016 9.7-17.263 3.44-25.102 0 0-18.99-23.476-36.27-43.151-5.44-6.187-10.71-11.975-15.03-16.649l45.75-29.193c3.37-1.692 4.68-5.695 2.92-8.933-1.76-3.239-5.93-4.495-9.29-2.803z"/>
                </g>
            
            
            
        
    </g>
</svg>
