<?xml version="1.0" encoding="UTF-8"?>
<!DOCTYPE svg  PUBLIC '-//W3C//DTD SVG 1.1//EN'  'http://www.w3.org/Graphics/SVG/1.1/DTD/svg11.dtd'>
<svg clip-rule="evenodd" fill-rule="evenodd" stroke-linejoin="round" stroke-miterlimit="2" version="1.1" viewBox="0 0 200 220" xml:space="preserve" xmlns="http://www.w3.org/2000/svg">
    <g transform="translate(-400)">
        
            
            
            
                <g transform="translate(-1600)">
                    <path d="m2122 23.467-74.47 19.811c-4.94 1.13-8.44 5.52-8.44 10.581l1.37 74.07c0 4.565 3.26 8.483 7.74 9.324 0 0 24.94 5.013 49.76 10.693 24.86 5.693 49.5 12.031 49.5 12.031 7.34 1.376 14.42-3.47 15.8-10.816s-3.47-14.428-10.82-15.804c0 0-25.26-3.012-50.5-6.708-16.51-2.419-32.98-5.125-42.36-6.702l1.06-57.099 67.41-12.981c7.29-1.669 11.85-8.938 10.18-16.223s-8.94-11.846-16.23-10.177z"/>
                </g>
            
            
        
    </g>
</svg>
