<?xml version="1.0" encoding="UTF-8"?>
<!DOCTYPE svg  PUBLIC '-//W3C//DTD SVG 1.1//EN'  'http://www.w3.org/Graphics/SVG/1.1/DTD/svg11.dtd'>
<svg clip-rule="evenodd" fill-rule="evenodd" stroke-linejoin="round" stroke-miterlimit="2" version="1.1" viewBox="0 0 200 220" xml:space="preserve" xmlns="http://www.w3.org/2000/svg">
    <g transform="translate(-600)">
        
            
            
            
                <g transform="translate(-1600)">
                    <path d="m2254.6 35.693c-4.15-1.495-8.76-0.876-12.37 1.659-3.61 2.536-5.76 6.67-5.76 11.081l2.69 98.234c0 3.941 2.13 7.572 5.58 9.487 3.44 1.914 7.66 1.811 11-0.27 0 0 31.6-20.878 59.33-38.399 21.16-13.373 40.09-24.73 40.09-24.73 3.17-1.973 4.94-5.585 4.54-9.3-0.39-3.715-2.87-6.879-6.39-8.146 0 0-18.62-7.088-39.61-15.477-27.54-11-59.1-24.139-59.1-24.139zm8.45 30.931c11.95 3.715 28.25 8.821 43.27 13.664 7.64 2.463 14.95 4.861 21.2 6.93-6.51 4.087-14.33 8.963-22.57 14.004-15.1 9.245-31.59 19.07-43.56 26.152l1.66-60.75z"/>
                </g>
            
            
        
    </g>
</svg>
