<?xml version="1.0" encoding="UTF-8"?>
<!DOCTYPE svg  PUBLIC '-//W3C//DTD SVG 1.1//EN'  'http://www.w3.org/Graphics/SVG/1.1/DTD/svg11.dtd'>
<svg clip-rule="evenodd" fill-rule="evenodd" stroke-linejoin="round" stroke-miterlimit="2" version="1.1" viewBox="0 0 200 220" xml:space="preserve" xmlns="http://www.w3.org/2000/svg">
    <g transform="translate(-400 -1100)">
        
            
            
            
            <g transform="translate(198.46 1103.9)">
                <g transform="matrix(1 0 0 .71903 0 11.654)">
                    <g transform="matrix(.70816 0 0 .70816 207.45 -262.99)">
                        <path d="m116.59 507.15s-0.164-2.728-0.047-7.683c0.055-2.341 0.451-4.865 0.878-7.992 0.843-7.821 2.842-14.251 3.92-20.665 0.364-2.168 0.496-4.294 0.693-6.362 0.177-2.562 0.649-5.157 1.041-7.631 1.04-6.56 2.45-11.966 2.45-11.966 1.926-8.647-1.557-17.843-7.775-20.522-6.217-2.68-12.829 2.165-14.756 10.812 0 0-1.284 6.025-2.026 13.809-0.437 4.586-0.766 9.713-0.642 14.602 0.419 4.98 0.388 10.333 0.823 16.224 0.304 4.115 0.686 8.128 1.464 12.483 0.8 4.127 1.457 7.47 2.376 10.345 2.124 6.644 3.794 9.957 3.794 9.957 1.074 2.996 3.694 4.216 5.848 2.723 2.155-1.493 3.032-5.138 1.959-8.134z"/>
                    </g>
                    <g transform="matrix(.70816 0 0 .70816 233.75 -262.99)">
                        <path d="m116.59 507.15s-0.164-2.728-0.047-7.683c0.055-2.341 0.451-4.865 0.878-7.992 0.843-7.821 2.842-14.251 3.92-20.665 0.364-2.168 0.496-4.294 0.693-6.362 0.177-2.562 0.649-5.157 1.041-7.631 1.04-6.56 2.45-11.966 2.45-11.966 1.926-8.647-1.557-17.843-7.775-20.522-6.217-2.68-12.829 2.165-14.756 10.812 0 0-1.284 6.025-2.026 13.809-0.437 4.586-0.766 9.713-0.642 14.602 0.419 4.98 0.388 10.333 0.823 16.224 0.304 4.115 0.686 8.128 1.464 12.483 0.8 4.127 1.457 7.47 2.376 10.345 2.124 6.644 3.794 9.957 3.794 9.957 1.074 2.996 3.694 4.216 5.848 2.723 2.155-1.493 3.032-5.138 1.959-8.134z"/>
                    </g>
                </g>
            </g>
        
    </g>
</svg>
