<?xml version="1.0" encoding="UTF-8"?>
<!DOCTYPE svg  PUBLIC '-//W3C//DTD SVG 1.1//EN'  'http://www.w3.org/Graphics/SVG/1.1/DTD/svg11.dtd'>
<svg clip-rule="evenodd" fill-rule="evenodd" stroke-linejoin="round" stroke-miterlimit="2" version="1.1" viewBox="0 0 200 220" xml:space="preserve" xmlns="http://www.w3.org/2000/svg">
    <g transform="translate(-800 -441)">
        
            
            
                <g transform="matrix(.72727 0 0 .72727 -912.54 480.69)">
                    <path d="m2524.4 18.047-66.63 3.1c-5.68 0-10.9 3.1-13.62 8.084s-2.51 11.056 0.57 15.831l31.22 45.103c-2.47 4.173-5.76 9.649-9.36 15.383-9.95 15.853-22.11 33.714-22.11 33.714-2.68 4.34-2.81 9.795-0.32 14.254 2.48 4.458 7.19 7.222 12.29 7.222l70.16 4.548c10.27 0 18.62-8.343 18.62-18.619 0-10.277-8.35-18.62-18.62-18.62l-44.9 2.91c2.28-3.869 4.67-7.873 7.01-11.712 7.44-12.19 14.46-22.651 14.46-22.651 2.71-4.388 2.66-9.945-0.13-14.285l-17.18-28.816 38.54 1.793c10.28 0 18.62-8.343 18.62-18.619 0-10.277-8.34-18.62-18.62-18.62z"/>
                </g>
            
            
            
        
    </g>
</svg>
