<?xml version="1.0" encoding="UTF-8"?>
<!DOCTYPE svg  PUBLIC '-//W3C//DTD SVG 1.1//EN'  'http://www.w3.org/Graphics/SVG/1.1/DTD/svg11.dtd'>
<svg clip-rule="evenodd" fill-rule="evenodd" stroke-linejoin="round" stroke-miterlimit="2" version="1.1" viewBox="0 0 200 220" xml:space="preserve" xmlns="http://www.w3.org/2000/svg">
    <g transform="translate(-800)">
        
            
            
            
                <g transform="translate(-1609)">
                    <path d="m2541.7 23.236-85.36 13.564c-3.97 0.512-7.34 3.131-8.83 6.844-1.48 3.712-0.83 7.937 1.69 11.038l30.48 35.878c-4.06 6.796-10.85 18.091-17.17 28.281-7.52 12.136-14.41 22.681-14.41 22.681-1.86 3.016-1.95 6.805-0.22 9.903 1.72 3.099 4.99 5.019 8.54 5.019 0 0 24.99 0.561 50 1.502 25.03 0.943 50 2.262 50 2.262 7.47 0 13.54-6.067 13.54-13.541s-6.07-13.542-13.54-13.542c0 0-24.97 1.32-50 2.262-11.68 0.44-23.36 0.797-32.49 1.052 1.47-2.42 3.04-5 4.67-7.64 9.83-15.913 21.55-34.06 21.55-34.06 2.21-3.572 1.92-8.152-0.74-11.411l-20.71-26.615 66.47-6.616c7.41-0.957 12.66-7.752 11.7-15.164s-7.75-12.653-15.17-11.697z"/>
                </g>
            
            
        
    </g>
</svg>
