<?xml version="1.0" encoding="UTF-8"?>
<!DOCTYPE svg  PUBLIC '-//W3C//DTD SVG 1.1//EN'  'http://www.w3.org/Graphics/SVG/1.1/DTD/svg11.dtd'>
<svg clip-rule="evenodd" fill-rule="evenodd" stroke-linejoin="round" stroke-miterlimit="2" version="1.1" viewBox="0 0 200 220" xml:space="preserve" xmlns="http://www.w3.org/2000/svg">
    <g transform="translate(-600 -1320)">
        
            <g transform="translate(-1610.4)">
                
            </g>
            
            
            <g transform="translate(198.46 1103.9)">
                <g transform="translate(199.98 18.333)">
                    <g transform="translate(-198.46 -1103.9)">
                        <path d="m449.74 1405.8s18.78-0.94 39.648-1.22c5.623-0.08 11.395-0.12 16.979 0.05 3.903 0.12 7.706 0.36 11.307 0.64 14.98 1.14 26.361 2.53 26.361 2.53 6.898 0.15 12.616-5.34 12.762-12.23 0.146-6.9-5.335-12.62-12.232-12.77 0 0-11.43 0.91-26.445 1.42-3.61 0.12-7.419 0.2-11.323 0.15-5.587-0.06-11.352-0.34-16.967-0.66-20.836-1.17-39.56-2.9-39.56-2.9-6.898-0.15-12.616 5.33-12.762 12.23s5.335 12.61 12.232 12.76z"/>
                    
                    
                        <path d="m460.57 1442.5s11.712-1.4 26.83-2.45c8.431-0.59 17.86-1.39 26.83-1.29 6.433 0.07 12.552 0.7 17.886 1.25 10.659 1.12 17.887 2.49 17.887 2.49 6.899 0 12.5-5.6 12.5-12.5s-5.601-12.5-12.5-12.5c0 0-7.228 1.37-17.887 2.49-5.334 0.55-11.453 1.18-17.886 1.25-8.97 0.1-18.399-0.7-26.83-1.29-15.118-1.05-26.83-2.45-26.83-2.45-6.899 0-12.5 5.6-12.5 12.5s5.601 12.5 12.5 12.5z"/>
                    </g>
                </g>
            </g>
        
    </g>
</svg>
