<?xml version="1.0" encoding="UTF-8"?>
<!DOCTYPE svg  PUBLIC '-//W3C//DTD SVG 1.1//EN'  'http://www.w3.org/Graphics/SVG/1.1/DTD/svg11.dtd'>
<svg clip-rule="evenodd" fill-rule="evenodd" stroke-linejoin="round" stroke-miterlimit="2" version="1.1" viewBox="0 0 200 220" xml:space="preserve" xmlns="http://www.w3.org/2000/svg">
    <g transform="translate(-1e3)">
        
            
            
            
                <g transform="translate(989.14 -217.98)">
                    <path d="m103.89 366.76-1.272-48.402 27.464-15.675c3.678-1.963 5.864-5.9 5.586-10.059-0.278-4.16-2.969-7.771-6.876-9.226l-38.53-13.635c8.186-2.628 17.536-5.586 26.914-8.463 26.767-8.211 53.671-15.729 53.671-15.729 7.061-2.45 10.804-10.172 8.354-17.232-2.45-7.061-10.172-10.804-17.233-8.354 0 0-25.778 10.764-51.876 20.9-26.051 10.116-52.337 19.572-52.337 19.572-3.775 1.31-6.322 4.847-6.367 8.842-0.045 3.996 2.422 7.59 6.166 8.984l41.422 16.21-13.751 6.843c-3.788 2.021-6.165 5.953-6.195 10.246l-2.222 54.987c-0.053 7.474 5.972 13.584 13.445 13.637 7.474 0.053 13.584-5.972 13.637-13.446z"/>
                </g>
            
            
        
    </g>
</svg>
