<?xml version="1.0" encoding="UTF-8"?>
<!DOCTYPE svg  PUBLIC '-//W3C//DTD SVG 1.1//EN'  'http://www.w3.org/Graphics/SVG/1.1/DTD/svg11.dtd'>
<svg clip-rule="evenodd" fill-rule="evenodd" stroke-linejoin="round" stroke-miterlimit="2" version="1.1" viewBox="0 0 200 220" xml:space="preserve" xmlns="http://www.w3.org/2000/svg">
    <g transform="translate(-1e3 -441)">
        
            
            
                <g transform="matrix(.54546 0 0 .54546 1039.5 387.04)">
                    <path d="m107.98 252.43c26.021 1.914 52.886 4.623 52.886 4.623 13.702 0 24.826-11.125 24.826-24.827s-11.124-24.826-24.826-24.826c0 0-32.018 3.228-60 5.138-21.263 1.451-40 2.037-40 2.037-7.22 0-13.712 4.396-16.391 11.1-2.68 6.703-1.007 14.363 4.223 19.339 0 0 12.328 11.155 25.766 24.368 6 5.901 12.229 12.194 17.836 17.928-1e-3 0-11.633 5.481-11.633 5.481-9.413 5.023-13.688 16.213-10.022 26.233l16.906 56.177c4.708 12.868 18.977 19.493 31.845 14.784 12.868-4.708 19.492-18.977 14.784-31.845l-16.381-37.771 16.458-9.867c5.512-2.941 9.276-8.352 10.118-14.543s-1.341-12.41-5.867-16.717c0 0-15.012-12.845-30.528-26.812z"/>
                </g>
            
            
            
        
    </g>
</svg>
