<?xml version="1.0" encoding="UTF-8"?>
<!DOCTYPE svg  PUBLIC '-//W3C//DTD SVG 1.1//EN'  'http://www.w3.org/Graphics/SVG/1.1/DTD/svg11.dtd'>
<svg clip-rule="evenodd" fill-rule="evenodd" stroke-linejoin="round" stroke-miterlimit="2" version="1.1" viewBox="0 0 200 220" xml:space="preserve" xmlns="http://www.w3.org/2000/svg">
    <g transform="translate(-2200 -1100)">
        
            
            
            
            <g transform="translate(198.46 1103.9)">
                <g transform="translate(-198.46 -1103.9)">
                    <path d="m2260.3 1290.4s12.01-20.11 27.97-45.39c8.94-14.15 18.85-30.09 28.94-44.72 7.23-10.47 14.61-20.19 21.03-28.63 12.71-16.68 22.06-27.93 22.06-27.93 3.88-5.7 2.41-13.48-3.29-17.37s-13.48-2.42-17.37 3.28c0 0-7.06 12.82-17.94 30.74-5.51 9.07-11.86 19.49-18.97 30.04-9.93 14.74-21.15 29.78-31.06 43.27-17.7 24.1-32.03 42.62-32.03 42.62-3.88 5.7-2.41 13.49 3.29 17.37 5.7 3.89 13.48 2.42 17.37-3.28z"/>
                </g>
            </g>
        
    </g>
</svg>
