<?xml version="1.0" encoding="UTF-8"?>
<!DOCTYPE svg  PUBLIC '-//W3C//DTD SVG 1.1//EN'  'http://www.w3.org/Graphics/SVG/1.1/DTD/svg11.dtd'>
<svg clip-rule="evenodd" fill-rule="evenodd" stroke-linejoin="round" stroke-miterlimit="2" version="1.1" viewBox="0 0 200 220" xml:space="preserve" xmlns="http://www.w3.org/2000/svg">
    <g transform="translate(-1200 -441)">
        
            
            
                <g transform="translate(1e3 -219.63)">
                    <path d="m310.73 783.16c-3.408 3.637-6.797 7.181-9.668 10.157l-22.935-31.675 21.317-18.103c5.611 4.897 14.142 4.34 19.067-1.255 4.938-5.609 4.394-14.173-1.216-19.112l-8.686-6.971c-5.014-4.415-12.555-4.323-17.461 0.212l-35.223 35.423c-4.138 3.825-4.691 10.169-1.276 14.652l37.813 47.236c1.656 2.173 4.17 3.526 6.896 3.71s5.399-0.818 7.331-2.749c0 0 9.573-9.43 19.403-18.596 9.848-9.183 19.923-18.073 19.923-18.073 3.241-3.239 4.212-8.112 2.459-12.346-1.752-4.233-5.883-6.994-10.465-6.994l-33.013-2.215c-7.474 0-13.542 6.068-13.542 13.542s6.068 13.542 13.542 13.542l5.734-0.385z"/>
                </g>
            
            
            
        
    </g>
</svg>
