<?xml version="1.0" encoding="UTF-8"?>
<!DOCTYPE svg  PUBLIC '-//W3C//DTD SVG 1.1//EN'  'http://www.w3.org/Graphics/SVG/1.1/DTD/svg11.dtd'>
<svg clip-rule="evenodd" fill-rule="evenodd" stroke-linejoin="round" stroke-miterlimit="2" version="1.1" viewBox="0 0 200 220" xml:space="preserve" xmlns="http://www.w3.org/2000/svg">
    <g transform="translate(-1200)">
        
            
            
            
                <g transform="translate(1e3 -217.98)">
                    <path d="m307.37 333.05 17.451-0.218-15.664 20.114-49.573-28.378 0.793-38.676 58.087-18.54c7.013-2.585 10.608-10.377 8.023-17.389-2.585-7.013-10.377-10.608-17.39-8.023l-62.741 26.33c-4.141 1.526-6.892 5.472-6.892 9.885l1.063 51.841c0 3.346 1.765 6.443 4.643 8.149l61.302 37.604c4.481 2.656 10.23 1.649 13.541-2.373l39.399-45.296c2.97-3.608 3.616-8.598 1.662-12.844s-6.164-7.001-10.838-7.092l-42.341-2.173c-7.473-0.145-13.657 5.804-13.802 13.277-0.145 7.472 5.804 13.657 13.277 13.802z"/>
                </g>
                <g transform="translate(995 -220)">
                    <path d="m252.77 495.21 25.03-6.374c-0.174 10.711-0.499 26.423-1.073 42.133-1.017 27.9-2.809 55.696-2.809 55.696 0 7.474 6.068 13.541 13.542 13.541 7.473 0 13.541-6.067 13.541-13.541 0 0-1.792-27.796-2.809-55.696-0.669-18.319-1.001-36.641-1.143-47.035l66.701-16.986c7.183-2.067 11.335-9.577 9.267-16.759s-9.577-11.335-16.759-9.267l-109.02 35.075c-5.284 1.521-8.348 7.025-6.856 12.319 1.492 5.293 6.979 8.387 12.28 6.925l0.108-0.031z"/>
                </g>
            
            
        
    </g>
</svg>
