<?xml version="1.0" encoding="UTF-8"?>
<!DOCTYPE svg  PUBLIC '-//W3C//DTD SVG 1.1//EN'  'http://www.w3.org/Graphics/SVG/1.1/DTD/svg11.dtd'>
<svg clip-rule="evenodd" fill-rule="evenodd" stroke-linejoin="round" stroke-miterlimit="2" version="1.1" viewBox="0 0 200 220" xml:space="preserve" xmlns="http://www.w3.org/2000/svg">
    <g transform="translate(-800 -1320)">
        
            <g transform="translate(-1610.4)">
                
            </g>
            
            
            <g transform="translate(198.46 1103.9)">
                <g transform="matrix(-1 0 0 -1 1201.5 1759.2)">
                    <path d="m479.74 1432.4c4.152-1.33 8.587-2.72 13.149-4.09 10.123-3.06 20.835-6.09 30.438-8.74 17.152-4.74 30.643-8.13 30.643-8.13 6.542-2.19 10.074-9.28 7.883-15.83-2.191-6.54-9.281-10.07-15.823-7.88 0 0-12.811 5.42-29.357 11.97-9.262 3.67-19.642 7.7-29.562 11.36-7.085 2.61-13.922 5.02-19.888 7.03-11.75 3.96-20.088 6.44-20.088 6.44-3.679 1.23-6.158 4.68-6.154 8.56s2.49 7.32 6.172 8.55l90.253 33.7c6.546 2.18 13.629-1.37 15.807-7.92 2.178-6.54-1.368-13.63-7.914-15.81l-65.559-19.21z"/>
                </g>
            </g>
        
    </g>
</svg>
