<?xml version="1.0" encoding="UTF-8"?>
<!DOCTYPE svg  PUBLIC '-//W3C//DTD SVG 1.1//EN'  'http://www.w3.org/Graphics/SVG/1.1/DTD/svg11.dtd'>
<svg clip-rule="evenodd" fill-rule="evenodd" stroke-linejoin="round" stroke-miterlimit="2" version="1.1" viewBox="0 0 200 220" xml:space="preserve" xmlns="http://www.w3.org/2000/svg">
    <g transform="translate(-1400)">
        
            
            
            
                
                    <path d="m1538.6 55.106c-4.53 2.073-12.83 5.791-22.67 9.851-8.35 3.447-17.64 7.446-26.77 10.371-6.55 2.097-12.97 3.52-18.57 4.747-4.15 0.908-7.83 1.621-10.82 2.158 0.27-4.393 0.69-5.764 1.08-9.571 1.2-11.737 2.69-19.705 2.69-19.705 0-7.474-6.07-13.542-13.54-13.542s-13.54 6.068-13.54 13.542c0 0 1.49 7.968 2.69 19.705 0.61 5.877 1.28 9.82 1.36 16.906 0.1 9.881-0.76 20.269-1.4 29.558-1.14 16.651-2.65 29.557-2.65 29.557 0 7.474 6.07 13.542 13.54 13.542s13.54-6.068 13.54-13.542c0 0-1.51-12.906-2.65-29.557-0.22-3.195-0.47-6.519-0.69-9.908 0.69-0.384 7.36-4.071 17.23-8.556 5.22-2.371 11.22-5.076 17.72-7.318 9.06-3.127 18.9-5.487 27.65-7.728 6.76-1.728 12.89-3.178 17.69-4.268 0.01 0.443 0.01 0.889 0.02 1.335 0.1 11.027-0.76 22.63-1.4 33-1.13 18.57-2.65 33-2.65 33 0 7.474 6.07 13.542 13.54 13.542s13.54-6.068 13.54-13.542c0 0-1.51-14.43-2.65-33-0.64-10.37-1.5-21.973-1.4-33 0.08-7.903 0.76-15.437 1.36-22 1.2-13.069 2.69-22 2.69-22 0-7.473-6.07-13.541-13.54-13.541s-13.54 6.068-13.54 13.541c0 0 1.08 6.456 2.14 16.423z"/>
                
            
            
        
    </g>
</svg>
