<?xml version="1.0" encoding="UTF-8"?>
<!DOCTYPE svg  PUBLIC '-//W3C//DTD SVG 1.1//EN'  'http://www.w3.org/Graphics/SVG/1.1/DTD/svg11.dtd'>
<svg clip-rule="evenodd" fill-rule="evenodd" stroke-linejoin="round" stroke-miterlimit="2" version="1.1" viewBox="0 0 200 220" xml:space="preserve" xmlns="http://www.w3.org/2000/svg">
    <g transform="translate(-1400)">
        
            
            
            
                <g transform="translate(980.76 -217.98)">
                    <path d="m482.78 366.67s-1.515-12.907-2.655-29.558c-0.636-9.288-1.5-19.677-1.393-29.558 0.076-7.086 0.751-13.828 1.354-19.705 1.205-11.736 2.694-19.705 2.694-19.705 0-7.474-6.068-13.542-13.541-13.542-7.474 0-13.542 6.068-13.542 13.542 0 0 1.489 7.969 2.694 19.705 0.603 5.877 1.278 12.619 1.355 19.705 0.106 9.881-0.757 20.27-1.393 29.558-1.14 16.651-2.656 29.558-2.656 29.558 0 7.474 6.068 13.541 13.542 13.541 7.473 0 13.541-6.067 13.541-13.541z"/>
                    <g transform="translate(39.838)">
                        <path d="m542.94 366.67s-1.517-14.431-2.655-33c-0.636-10.371-1.5-21.973-1.393-33 0.076-7.904 0.751-15.438 1.355-22 1.201-13.07 2.693-22 2.693-22 0-7.474-6.067-13.542-13.541-13.542s-13.542 6.068-13.542 13.542c0 0 1.492 8.93 2.694 22 0.603 6.562 1.279 14.096 1.355 22 0.106 11.027-0.757 22.629-1.393 33-1.139 18.569-2.656 33-2.656 33 0 7.474 6.068 13.541 13.542 13.541s13.541-6.067 13.541-13.541z"/>
                    </g>
                    <path d="m561.55 271.37s-11.4 5.387-26.378 11.569c-8.351 3.447-17.643 7.447-26.775 10.371-6.551 2.097-12.97 3.52-18.571 4.747-11.196 2.452-18.994 3.476-18.994 3.476-7.092 2.359-10.935 10.031-8.577 17.123s10.03 10.936 17.122 8.577c0 0 6.859-3.849 17.294-8.589 5.221-2.371 11.214-5.076 17.716-7.318 9.066-3.127 18.902-5.487 27.655-7.727 15.697-4.018 28.053-6.529 28.053-6.529 7.092-2.358 10.936-10.031 8.577-17.123-2.358-7.092-10.03-10.935-17.122-8.577z"/>
                </g>
            
            
        
    </g>
</svg>
