<?xml version="1.0" encoding="UTF-8"?>
<!DOCTYPE svg  PUBLIC '-//W3C//DTD SVG 1.1//EN'  'http://www.w3.org/Graphics/SVG/1.1/DTD/svg11.dtd'>
<svg clip-rule="evenodd" fill-rule="evenodd" stroke-linejoin="round" stroke-miterlimit="2" version="1.1" viewBox="0 0 200 220" xml:space="preserve" xmlns="http://www.w3.org/2000/svg">
    <g transform="translate(-1400 -441)">
        
            
            
                <g transform="matrix(.54546 0 0 .54546 1216.8 380.37)">
                    <path d="m494.06 366.67s-2.773-19.208-4.869-44.154c-1.165-13.874-2.749-29.377-2.554-44.153 0.14-10.609 1.379-20.658 2.484-29.435 2.222-17.649 4.939-29.436 4.939-29.436 0-13.702-11.124-24.826-24.826-24.826s-24.827 11.124-24.827 24.826c0 0 2.718 11.787 4.939 29.436 1.105 8.777 2.344 18.826 2.484 29.435 0.195 14.776-1.389 30.279-2.554 44.153-2.095 24.946-4.869 44.154-4.869 44.154 0 13.702 11.125 24.826 24.827 24.826s24.826-11.124 24.826-24.826z"/>
                    <g transform="translate(39.838)">
                        <path d="m554.22 366.67-0.4-55c0-11.296-7.745-21.118-18.729-23.753l-101.68-16.983c-9.243-2.217-18.548 3.488-20.765 12.731-2.218 9.244 3.487 18.548 12.73 20.766l79.462 25.047s-0.271 37.192-0.271 37.192c0 13.702 11.125 24.826 24.827 24.826s24.826-11.124 24.826-24.826z"/>
                    </g>
                </g>
            
            
            
        
    </g>
</svg>
