<?xml version="1.0" encoding="UTF-8"?>
<!DOCTYPE svg  PUBLIC '-//W3C//DTD SVG 1.1//EN'  'http://www.w3.org/Graphics/SVG/1.1/DTD/svg11.dtd'>
<svg clip-rule="evenodd" fill-rule="evenodd" stroke-linejoin="round" stroke-miterlimit="2" version="1.1" viewBox="0 0 200 220" xml:space="preserve" xmlns="http://www.w3.org/2000/svg">
    <g transform="translate(-200 -1320)">
        
            <g transform="translate(-1610.4)">
                
            </g>
            
            
            <g transform="translate(198.46 1103.9)">
                <g transform="translate(-198.46 -1103.9)">
                    <path d="m264.01 1442.5s9.195-1.4 21.16-2.45c6.649-0.59 14.077-1.39 21.16-1.29 5.089 0.07 9.901 0.7 14.107 1.25 8.475 1.12 14.107 2.49 14.107 2.49 6.899 0 12.5-5.6 12.5-12.5s-5.601-12.5-12.5-12.5c0 0-5.632 1.37-14.107 2.49-4.206 0.55-9.018 1.18-14.107 1.25-7.083 0.1-14.511-0.7-21.16-1.29-11.965-1.05-21.16-2.45-21.16-2.45-6.899 0-12.5 5.6-12.5 12.5s5.601 12.5 12.5 12.5z"/>
                </g>
            </g>
        
    </g>
</svg>
