<?xml version="1.0" encoding="UTF-8"?>
<!DOCTYPE svg  PUBLIC '-//W3C//DTD SVG 1.1//EN'  'http://www.w3.org/Graphics/SVG/1.1/DTD/svg11.dtd'>
<svg clip-rule="evenodd" fill-rule="evenodd" stroke-linejoin="round" stroke-miterlimit="2" version="1.1" viewBox="0 0 200 220" xml:space="preserve" xmlns="http://www.w3.org/2000/svg">
    <g transform="translate(-1600)">
        
            
            
            
                <g transform="matrix(1 0 0 -1 1e3 403.33)">
                    <path d="m713.54 256.67s-1.35 13.019-2.497 29.777c-0.641 9.363-1.422 19.817-1.581 29.777-0.066 4.106 0.08 8.116 0.25 11.911 0.707 15.78 1.907 27.792 1.907 27.792 0 6.414-5.207 11.621-11.621 11.621s-11.621-5.207-11.621-11.621c0 0 1.2-12.012 1.907-27.792 0.17-3.795 0.316-7.805 0.25-11.911-0.159-9.96-0.94-20.414-1.581-29.777-1.147-16.758-2.497-29.777-2.497-29.777 0-7.474 6.068-13.542 13.542-13.542s13.542 6.068 13.542 13.542z"/>
                </g>
            
            
        
    </g>
</svg>
