<?xml version="1.0" encoding="UTF-8"?>
<!DOCTYPE svg  PUBLIC '-//W3C//DTD SVG 1.1//EN'  'http://www.w3.org/Graphics/SVG/1.1/DTD/svg11.dtd'>
<svg clip-rule="evenodd" fill-rule="evenodd" stroke-linejoin="round" stroke-miterlimit="2" version="1.1" viewBox="0 0 200 220" xml:space="preserve" xmlns="http://www.w3.org/2000/svg">
    <g transform="translate(-1800 -441)">
        
            
            
                <g transform="translate(1023.8 -222.51)">
                    <path d="m886.46 736.22 3.641 67.136c-2.086 2.464-5.169 6.05-8.348 9.552-1.226 1.352-2.466 2.69-3.656 3.957l-19.779-22.78c-5.366-5.203-13.946-5.071-19.149 0.294-5.203 5.366-5.071 13.946 0.294 19.149l31.237 25.482c1.976 1.917 4.65 2.943 7.401 2.84s5.34-1.326 7.168-3.385c0 0 5.196-6.592 10.703-12.935 5.501-6.336 11.3-12.406 11.3-12.406 1.579-1.779 2.451-4.075 2.451-6.453l3.821-70.451c0-7.474-6.068-13.542-13.542-13.542s-13.542 6.068-13.542 13.542z"/>
                </g>
            
            
            
        
    </g>
</svg>
