<?xml version="1.0" encoding="UTF-8"?>
<!DOCTYPE svg  PUBLIC '-//W3C//DTD SVG 1.1//EN'  'http://www.w3.org/Graphics/SVG/1.1/DTD/svg11.dtd'>
<svg clip-rule="evenodd" fill-rule="evenodd" stroke-linejoin="round" stroke-miterlimit="2" version="1.1" viewBox="0 0 200 220" xml:space="preserve" xmlns="http://www.w3.org/2000/svg">
    <g transform="translate(-1800)">
        
            
            
            
                <g transform="translate(1006.3 -220)">
                    <path d="m909.18 267.73 14.259 93.635c-5.15 2.733-12.788 6.736-19.869 10.26-3.82 1.901-7.479 3.654-10.466 5.061l-30.345-32.564c-5.429-5.136-14.007-4.898-19.143 0.531-5.137 5.429-4.899 14.007 0.53 19.143l39.43 32.859c3.19 3.018 7.941 3.685 11.838 1.662 0 0 7.878-4.667 17.021-9.612 11.961-6.468 26.026-13.464 26.026-13.464 3.551-1.843 5.599-5.685 5.149-9.661l-7.518-100.9c-0.841-7.426-7.553-12.773-14.98-11.932-7.426 0.841-12.773 7.553-11.932 14.979z"/>
                </g>
            
            
        
    </g>
</svg>
