<?xml version="1.0" encoding="UTF-8"?>
<!DOCTYPE svg  PUBLIC '-//W3C//DTD SVG 1.1//EN'  'http://www.w3.org/Graphics/SVG/1.1/DTD/svg11.dtd'>
<svg clip-rule="evenodd" fill-rule="evenodd" stroke-linejoin="round" stroke-miterlimit="2" version="1.1" viewBox="0 0 200 220" xml:space="preserve" xmlns="http://www.w3.org/2000/svg">
    <g transform="translate(-2e3)">
        
            
            
            
                <g transform="translate(980.67 -220)">
                    <g transform="matrix(1 0 0 -1 0 623.33)">
                        <path d="m1088.9 256.67s0.51 13.483 0.01 30.637c-0.87 30.17-4.16 71.486-4.16 71.486 0 5.185-4.21 9.394-9.39 9.394-5.19 0-9.4-4.209-9.4-9.394 0 0-3.29-41.316-4.16-71.486-0.49-17.154 0.01-30.637 0.01-30.637 0-7.474 6.07-13.542 13.55-13.542 7.47 0 13.54 6.068 13.54 13.542z"/>
                    </g>
                    <g transform="translate(4)">
                        <path d="m1125.5 247.97-36.17 48.395c-3.37 4.015-3.14 9.927 0.53 13.671 0 0 12.33 11.312 25.36 25.093 4.88 5.154 9.69 10.756 14.2 16.061 11.39 13.389 20.42 24.946 20.42 24.946 5.22 5.342 13.8 5.436 19.14 0.209 5.35-5.226 5.44-13.807 0.21-19.149 0 0-11.35-9.279-24.49-20.959-5.2-4.627-10.7-9.559-15.74-14.542-7.09-6.999-13.5-13.793-17.99-18.667l35.29-37.666c4.8-5.729 4.05-14.277-1.68-19.077-5.73-4.799-14.28-4.045-19.08 1.685z"/>
                    </g>
                </g>
            
            
        
    </g>
</svg>
