<?xml version="1.0" encoding="UTF-8"?>
<!DOCTYPE svg  PUBLIC '-//W3C//DTD SVG 1.1//EN'  'http://www.w3.org/Graphics/SVG/1.1/DTD/svg11.dtd'>
<svg clip-rule="evenodd" fill-rule="evenodd" stroke-linejoin="round" stroke-miterlimit="2" version="1.1" viewBox="0 0 200 220" xml:space="preserve" xmlns="http://www.w3.org/2000/svg">
    <g transform="translate(-2e3 -441)">
        
            
            
                <g transform="matrix(.54546 0 0 .54546 1489.4 387.04)">
                    <g transform="matrix(1 0 0 -1 0 623.33)">
                        <path d="m1100.2 256.67s0.94 17.759 0.03 40.333c-1.6 39.83-7.63 94.111-7.63 94.111 0 9.506-7.72 17.223-17.22 17.223-9.51 0-17.23-7.717-17.23-17.223 0 0-6.03-54.281-7.63-94.111-0.9-22.574 0.03-40.333 0.03-40.333 0-13.702 11.12-24.827 24.83-24.827 13.7 0 24.82 11.125 24.82 24.827z"/>
                    </g>
                    <g transform="translate(4)">
                        <path d="m1116.8 240.72-34.03 50.188c-6.17 7.362-5.75 18.2 0.96 25.065 0 0 12.88 10.777 25.72 24.751 4.83 5.254 9.32 11.104 13.55 16.693 10.8 14.28 18.72 26.607 18.72 26.607 9.58 9.795 25.31 9.967 35.11 0.385 9.79-9.582 9.96-25.314 0.38-35.108 0 0-12.15-8.189-26.19-19.297-5.49-4.347-11.25-8.969-16.39-13.91-4.38-4.207-8.44-8.411-11.93-12.182l32.16-31.306c8.8-10.504 7.42-26.175-3.09-34.974-10.5-8.799-26.17-7.416-34.97 3.088z"/>
                    </g>
                </g>
            
            
            
        
    </g>
</svg>
