<?xml version="1.0" encoding="UTF-8"?>
<!DOCTYPE svg  PUBLIC '-//W3C//DTD SVG 1.1//EN'  'http://www.w3.org/Graphics/SVG/1.1/DTD/svg11.dtd'>
<svg clip-rule="evenodd" fill-rule="evenodd" stroke-linejoin="round" stroke-miterlimit="2" version="1.1" viewBox="0 0 200 220" xml:space="preserve" xmlns="http://www.w3.org/2000/svg">
    <g transform="translate(-2200 -441)">
        
            
            
                <g transform="matrix(.54546 0 0 .54546 1583.8 387.04)">
                    <path d="m1257.5 232.22s5.46 54.323 6.89 94.111c0.82 22.578-0.03 40.334-0.03 40.334 0 9.924 8.04 17.969 17.97 17.969 0 0 15.9 1.032 31.86 2.748 16.11 1.732 31.87 4.109 31.87 4.109 13.71 0 24.83-11.124 24.83-24.826s-11.12-24.827-24.83-24.827c0 0-15.76 2.377-31.87 4.109-4.92 0.53-9.84 0.994-14.28 1.383-0.02-6.086 0.07-13.259 0.35-20.999 1.43-39.788 6.89-94.111 6.89-94.111 0-13.702-11.12-24.826-24.82-24.826-13.71 0-24.83 11.124-24.83 24.826z"/>
                </g>
            
            
            
        
    </g>
</svg>
