<?xml version="1.0" encoding="UTF-8"?>
<!DOCTYPE svg  PUBLIC '-//W3C//DTD SVG 1.1//EN'  'http://www.w3.org/Graphics/SVG/1.1/DTD/svg11.dtd'>
<svg clip-rule="evenodd" fill-rule="evenodd" stroke-linejoin="round" stroke-miterlimit="2" version="1.1" viewBox="0 0 200 220" xml:space="preserve" xmlns="http://www.w3.org/2000/svg">
    <g transform="translate(-2200)">
        
            
            
            
                <g transform="translate(968.53 -217.98)">
                    <path d="m1268.8 264.19s1.65 32.918 2.7 61.486c0.8 21.788 1.22 40.991 1.22 40.991 0 5.316 4.31 9.626 9.63 9.626 0 0 18.44-0.364 39.33 0.361 27.47 0.952 59.01 3.554 59.01 3.554 7.48 0 13.54-6.067 13.54-13.541s-6.06-13.542-13.54-13.542c0 0-31.54 2.602-59.01 3.554-11.43 0.397-22.13 0.467-29.47 0.45 0.2-7.662 0.53-19.145 0.98-31.453 1.05-28.568 2.7-61.486 2.7-61.486 0-7.474-6.07-13.542-13.54-13.542-7.48 0-13.55 6.068-13.55 13.542z"/>
                </g>
            
            
        
    </g>
</svg>
