<?xml version="1.0" encoding="UTF-8"?>
<!DOCTYPE svg  PUBLIC '-//W3C//DTD SVG 1.1//EN'  'http://www.w3.org/Graphics/SVG/1.1/DTD/svg11.dtd'>
<svg clip-rule="evenodd" fill-rule="evenodd" stroke-linejoin="round" stroke-miterlimit="2" version="1.1" viewBox="0 0 200 220" xml:space="preserve" xmlns="http://www.w3.org/2000/svg">
    <g transform="translate(-400 -1320)">
        
            <g transform="translate(-1610.4)">
                
            </g>
            
            
            <g transform="translate(198.46 1103.9)">
                <g transform="translate(-198.46 -1103.9)">
                    <path d="m479.61 1430.2c4.121-1.19 8.518-2.41 13.038-3.64 10.116-2.73 20.812-5.44 30.399-7.8 17.126-4.21 30.585-7.19 30.585-7.19 6.601-2.01 10.331-9 8.325-15.6-2.007-6.6-8.994-10.33-15.595-8.33 0 0-12.843 5.02-29.415 11.05-9.278 3.37-19.673 7.08-29.601 10.43-7.09 2.4-13.925 4.61-19.89 6.44-11.747 3.61-20.076 5.83-20.076 5.83-3.701 1.13-6.27 4.49-6.379 8.36-0.109 3.86 2.266 7.37 5.898 8.7l90.147 36.78c6.478 2.38 13.665-0.95 16.04-7.43s-0.956-13.67-7.433-16.04l-66.043-21.56z"/>
                </g>
            </g>
        
    </g>
</svg>
