<?xml version="1.0" encoding="UTF-8"?>
<!DOCTYPE svg  PUBLIC '-//W3C//DTD SVG 1.1//EN'  'http://www.w3.org/Graphics/SVG/1.1/DTD/svg11.dtd'>
<svg clip-rule="evenodd" fill-rule="evenodd" stroke-linejoin="round" stroke-miterlimit="2" version="1.1" viewBox="0 0 200 220" xml:space="preserve" xmlns="http://www.w3.org/2000/svg">
    <g transform="translate(-2400)">
        
            
            
            
                <g transform="translate(1014.6 -217.98)">
                    <path d="m1444 366.67-2.17-85.96 52.38 21.518c3.69 1.593 7.98 0.736 10.78-2.151l25.21-25.954c-0.16 6.721-0.37 14.359-0.61 22.297-1.01 32.631-2.68 70.25-2.68 70.25 0 7.474 6.07 13.541 13.54 13.541 7.48 0 13.55-6.067 13.55-13.541 0 0-1.67-37.619-2.68-70.25-0.77-24.891-1.13-46.834-1.13-46.834 0-3.967-2.4-7.538-6.08-9.028s-7.89-0.6-10.65 2.248l-37.64 38.902-61.03-27.576c-3.38-1.461-7.28-1.12-10.36 0.907-3.08 2.026-4.93 5.467-4.93 9.154l-2.59 102.48c0 7.474 6.07 13.541 13.54 13.541 7.48 0 13.55-6.067 13.55-13.541z"/>
                </g>
            
            
        
    </g>
</svg>
