<?xml version="1.0" encoding="UTF-8"?>
<!DOCTYPE svg  PUBLIC '-//W3C//DTD SVG 1.1//EN'  'http://www.w3.org/Graphics/SVG/1.1/DTD/svg11.dtd'>
<svg clip-rule="evenodd" fill-rule="evenodd" stroke-linejoin="round" stroke-miterlimit="2" version="1.1" viewBox="0 0 200 220" xml:space="preserve" xmlns="http://www.w3.org/2000/svg">
    <g transform="translate(0 -220)">
        
            
            
            
                <g transform="matrix(.69299 0 0 1 -1077.8 -1.1369e-13)">
                    <path d="m1645.4 366.67-2.4-74.116c17.1 11.208 40.78 26.82 62.41 41.372 30.33 20.408 56.56 38.77 56.56 38.77 3.5 2.383 8.73 3.077 13.25 1.761 4.53-1.316 7.48-4.386 7.48-7.787 0 0 0.7-27.497 1.85-55 1.16-27.522 2.77-55 2.77-55 0-6.43-7.53-11.65-16.81-11.65s-16.81 5.22-16.81 11.65c0 0 1.61 27.478 2.77 55 0.52 12.424 0.95 24.846 1.26 34.734-9.96-6.701-22.52-15.203-35.65-24.242-39.31-27.048-83.9-58.824-83.9-58.824-3.93-2.677-9.8-3.456-14.88-1.978-5.09 1.478-8.4 4.925-8.4 8.746l-3.12 96.564c0 6.429 7.53 11.65 16.81 11.65s16.81-5.221 16.81-11.65z"/>
                </g>
            
            
        
    </g>
</svg>
