<?xml version="1.0" encoding="UTF-8"?>
<!DOCTYPE svg  PUBLIC '-//W3C//DTD SVG 1.1//EN'  'http://www.w3.org/Graphics/SVG/1.1/DTD/svg11.dtd'>
<svg clip-rule="evenodd" fill-rule="evenodd" stroke-linejoin="round" stroke-miterlimit="2" version="1.1" viewBox="0 0 200 220" xml:space="preserve" xmlns="http://www.w3.org/2000/svg">
    <g transform="translate(0 -661)">
        
            
            
                <g transform="matrix(.37799 0 0 .54546 -543.98 606.67)">
                    <path d="m1664.4 366.67-3.25-51.529c11.16 7.532 22.94 15.549 34.15 23.299 30.68 21.223 56.93 40.489 56.93 40.489 7.21 5.154 18.2 6.764 27.8 4.07s15.88-9.153 15.88-16.329c0 0 0.79-25.197 2.89-53.778 2.75-37.541 7.51-80.667 7.51-80.667 0-13.702-16.05-24.826-35.82-24.826s-35.83 11.124-35.83 24.826c0 0 4.77 43.126 7.52 80.667 0.22 2.918 0.42 5.8 0.61 8.624-3.48-2.542-7.04-5.158-10.64-7.821-38.86-28.746-82.45-62.719-82.45-62.719-8.34-5.965-21.07-7.828-32.17-4.711-11.11 3.118-18.38 10.594-18.38 18.899l-6.4 101.51c0 13.702 16.05 24.826 35.82 24.826s35.83-11.124 35.83-24.826z"/>
                </g>
            
            
            
        
    </g>
</svg>
