<?xml version="1.0" encoding="UTF-8"?>
<!DOCTYPE svg  PUBLIC '-//W3C//DTD SVG 1.1//EN'  'http://www.w3.org/Graphics/SVG/1.1/DTD/svg11.dtd'>
<svg clip-rule="evenodd" fill-rule="evenodd" stroke-linejoin="round" stroke-miterlimit="2" version="1.1" viewBox="0 0 200 220" xml:space="preserve" xmlns="http://www.w3.org/2000/svg">
    <g transform="translate(-200 -220)">
        
            
            
            
                <g transform="matrix(.97721 2.7912e-18 2.7912e-18 1 28.919 -1.1369e-13)">
                    <path d="m326.99 370.17c6.835-0.677 12.099-6.196 12.311-12.906l-0.096-100.28c0.095-3.013-1.179-5.912-3.479-7.92-2.301-2.009-5.393-2.919-8.446-2.488 0 0-32.795 5.367-61.277 9.5-21.741 3.156-40.969 5.541-40.969 5.541-4.841 0.684-8.431 4.742-8.425 9.521l-1.491 95.546c4e-3 3.16 1.376 6.17 3.777 8.288 2.4 2.117 5.606 3.143 8.823 2.824l99.272-7.626zm-14.338-25.233-74.874 9.103c0-1e-3 -1.356-74.732-1.356-74.732 7.622-1.162 19.517-2.937 32.323-4.697 17.462-2.4 36.61-4.803 48.83-6.306 0 0-4.923 76.632-4.923 76.632z"/>
                </g>
            
            
        
    </g>
</svg>
