<?xml version="1.0" encoding="UTF-8"?>
<!DOCTYPE svg  PUBLIC '-//W3C//DTD SVG 1.1//EN'  'http://www.w3.org/Graphics/SVG/1.1/DTD/svg11.dtd'>
<svg clip-rule="evenodd" fill-rule="evenodd" stroke-linejoin="round" stroke-miterlimit="2" version="1.1" viewBox="0 0 200 220" xml:space="preserve" xmlns="http://www.w3.org/2000/svg">
    <g transform="translate(-400 -220)">
        
            
            
            
                <g transform="translate(-1641.8 1.7053e-13)">
                    <path d="m2087.9 317.19-0.32 0.097c-7.02 2.573-10.62 10.359-8.05 17.376 1.37 3.737 4.22 6.507 7.64 7.891l-0.68 24.114c0 7.474 6.07 13.541 13.54 13.541s13.54-6.067 13.54-13.541l-0.87-30.637c11.65-4.913 28.05-11.774 43.24-17.953 20.98-8.538 39.62-15.707 39.62-15.707 3.89-1.426 6.43-5.181 6.31-9.322-0.13-4.141-2.89-7.739-6.85-8.932 0 0-17.35-4.979-36.9-11.046-25.62-7.949-55.02-17.68-55.02-17.68-3.23-0.971-6.73-0.357-9.43 1.655-2.71 2.013-4.31 5.187-4.31 8.561l-1.46 51.583zm24.05-7.529c10.97-3.46 24.22-7.682 36.6-11.737 4.25-1.393 8.4-2.768 12.33-4.078-2.68-0.794-5.46-1.609-8.28-2.431-14.56-4.239-30.45-8.67-41.5-11.72l0.85 29.966z"/>
                </g>
            
            
        
    </g>
</svg>
