<?xml version="1.0" encoding="UTF-8"?>
<!DOCTYPE svg  PUBLIC '-//W3C//DTD SVG 1.1//EN'  'http://www.w3.org/Graphics/SVG/1.1/DTD/svg11.dtd'>
<svg clip-rule="evenodd" fill-rule="evenodd" stroke-linejoin="round" stroke-miterlimit="2" version="1.1" viewBox="0 0 200 220" xml:space="preserve" xmlns="http://www.w3.org/2000/svg">
    <g transform="translate(-400 -661)">
        
            
            
                <g transform="matrix(.63636 0 0 .66667 -858.63 562.22)">
                    <path d="m2120.2 346.51 51.81-28.175c5.12-2.314 8.61-7.006 9.21-12.385 0.6-5.378-1.78-10.667-6.28-13.958 0 0-17-10.973-33.38-22.782-16.37-11.8-32.08-24.401-32.08-24.401-4.73-3.461-11.11-4.059-16.46-1.541-5.34 2.517-8.73 7.713-8.73 13.402l-5.62 110c0 11.21 9.54 20.312 21.28 20.312s21.28-9.102 21.28-20.312l-1.03-20.16zm-2.13-41.572 15.34-5.617c-3.2-2.468-6.57-5.028-9.97-7.553-2.09-1.556-4.2-3.098-6.27-4.604l0.9 17.774z"/>
                </g>
            
            
            
        
    </g>
</svg>
