<?xml version="1.0" encoding="UTF-8"?>
<!DOCTYPE svg  PUBLIC '-//W3C//DTD SVG 1.1//EN'  'http://www.w3.org/Graphics/SVG/1.1/DTD/svg11.dtd'>
<svg clip-rule="evenodd" fill-rule="evenodd" stroke-linejoin="round" stroke-miterlimit="2" version="1.1" viewBox="0 0 200 220" xml:space="preserve" xmlns="http://www.w3.org/2000/svg">
    <g transform="translate(-1200 -1320)">
        
            <g transform="translate(-1610.4)">
                
            </g>
            
            
            <g transform="translate(198.46 1103.9)">
                <g transform="translate(-198.46 -1103.9)">
                    <path d="m1290.9 1421.2c-4.98-0.09-9.68-0.7-13.81-1.24-8.48-1.12-14.13-2.49-14.13-2.49-6.89 0-12.5 5.6-12.5 12.5s5.61 12.5 12.5 12.5c0 0 5.65-1.37 14.13-2.49 3.94-0.52 8.41-1.1 13.14-1.23-0.53 4.49-1.38 8.71-2.15 12.46-1.78 8.71-3.59 14.48-3.59 14.48-0.52 6.88 4.64 12.89 11.52 13.41s12.89-4.64 13.41-11.52c0 0-0.92-5.97-1.37-14.85-0.2-3.96-0.41-8.43-0.22-13.13 1.56 0.15 3.09 0.29 4.58 0.42 11.98 1.05 21.19 2.45 21.19 2.45 6.9 0 12.5-5.6 12.5-12.5s-5.6-12.5-12.5-12.5c0 0-9.21 1.4-21.19 2.45-0.73 0.07-1.46 0.13-2.2 0.2 0.22-1.38 0.45-2.73 0.66-4.06 2-12.35 4.11-21.81 4.11-21.81 0.53-6.88-4.63-12.89-11.51-13.41s-12.89 4.64-13.41 11.52c0 0 0.66 9.67 0.77 22.18 0.02 2.16 0.05 4.39 0.07 6.66z"/>
                </g>
            </g>
        
    </g>
</svg>
