<?xml version="1.0" encoding="UTF-8"?>
<!DOCTYPE svg  PUBLIC '-//W3C//DTD SVG 1.1//EN'  'http://www.w3.org/Graphics/SVG/1.1/DTD/svg11.dtd'>
<svg clip-rule="evenodd" fill-rule="evenodd" stroke-linejoin="round" stroke-miterlimit="2" version="1.1" viewBox="0 0 200 220" xml:space="preserve" xmlns="http://www.w3.org/2000/svg">
    <g transform="translate(-1200 -1320)">
        
            <g transform="translate(-1610.4)">
                
            </g>
            
            
            <g transform="translate(198.46 1103.9)">
                <g transform="matrix(.82769 0 0 .82769 25.243 -827.15)">
                    <g transform="matrix(.99713 .075693 -.075693 .99713 109.78 -102.14)">
                        <path d="m1284.9 1356.7s1.69 11.59 2.96 26.65c0.71 8.38 1.67 17.74 1.55 26.66-0.08 6.41-0.84 12.47-1.51 17.77-1.35 10.66-3 17.77-3 17.77 0 8.34 6.76 15.1 15.1 15.1s15.1-6.76 15.1-15.1c0 0-1.65-7.11-3-17.77-0.67-5.3-1.43-11.36-1.51-17.77-0.12-8.92 0.84-18.28 1.55-26.66 1.27-15.06 2.96-26.65 2.96-26.65 0-8.34-6.76-15.11-15.1-15.11s-15.1 6.77-15.1 15.11z"/>
                    </g>
                    <g transform="matrix(6.1232e-17 1 -1 6.1232e-17 2701.1 93.333)">
                        <path d="m1284.9 1360.2s1.68 11.12 2.96 25.6c0.71 8.05 1.67 17.03 1.55 25.6-0.08 6.16-0.84 11.98-1.51 17.07-1.35 10.26-3 17.07-3 17.07 0 8.34 6.76 15.1 15.1 15.1s15.1-6.76 15.1-15.1c0 0-1.65-6.81-3-17.07-0.67-5.09-1.43-10.91-1.51-17.07-0.12-8.57 0.84-17.55 1.55-25.6 1.28-14.48 2.96-25.6 2.96-25.6 0-8.34-6.76-15.1-15.1-15.1s-15.1 6.76-15.1 15.1z"/>
                    </g>
                </g>
            </g>
        
    </g>
</svg>
