<?xml version="1.0" encoding="UTF-8"?>
<!DOCTYPE svg  PUBLIC '-//W3C//DTD SVG 1.1//EN'  'http://www.w3.org/Graphics/SVG/1.1/DTD/svg11.dtd'>
<svg clip-rule="evenodd" fill-rule="evenodd" stroke-linejoin="round" stroke-miterlimit="2" version="1.1" viewBox="0 0 200 220" xml:space="preserve" xmlns="http://www.w3.org/2000/svg">
    <g transform="translate(-600 -661)">
        
            
            
                <g transform="matrix(.539 0 0 .539 -549.56 608.32)">
                    <g transform="matrix(-.97721 2.7912e-18 -2.7912e-18 1 2587.3 1.1369e-13)">
                        <path d="m351.3 357.62c-0.384 12.122-9.574 22.247-21.845 24.064l-75.739 7.571c-6.339 0.939-12.782-0.868-17.646-4.95s-7.666-10.033-7.674-16.298l3.434-95.548c-0.01-8.572 6.152-15.969 14.745-17.696 0 0 19.734-3.382 39.326-7.463 19.601-4.083 39.032-8.86 39.032-8.86 5.706-1.147 11.635 0.322 16.092 3.987 4.458 3.664 6.953 9.121 6.774 14.811l3.501 100.38zm-49.413-21.703 5.584-56.777c-4.576 0.82-9.446 1.719-14.308 2.661-8.502 1.646-16.975 3.424-23.853 4.91 0 1e-3 2.124 55.204 2.124 55.204l30.453-5.998z"/>
                    </g>
                    <g transform="matrix(1.8553 0 0 1.8553 -1951.7 -1128.6)">
                        <path d="m2302.8 818.74c-0.83 13.932-1.65 24.59-1.65 24.59 0 7.474 6.07 13.542 13.55 13.542 7.47 0 13.54-6.068 13.54-13.542 0 0-1.68-21.982-2.69-44.082-1.01-22.039-1.36-44.083-1.36-44.083 0-4.506-3.17-8.392-7.58-9.3l-41.2-9.14c-3.04-0.626-6.2 0.175-8.58 2.174s-3.71 4.975-3.61 8.078l-0.19 54.055c0.18 5.729 4.38 10.533 10.03 11.473l29.74 6.235zm1.34-26.572c0.46-11.439 0.75-22.226 0.9-29.169 0 0-20.7-3.928-20.7-3.928l2.02 30.902 17.78 2.195z"/>
                    </g>
                </g>
            
            
            
        
    </g>
</svg>
