<?xml version="1.0" encoding="UTF-8"?>
<!DOCTYPE svg  PUBLIC '-//W3C//DTD SVG 1.1//EN'  'http://www.w3.org/Graphics/SVG/1.1/DTD/svg11.dtd'>
<svg clip-rule="evenodd" fill-rule="evenodd" stroke-linejoin="round" stroke-miterlimit="2" version="1.1" viewBox="0 0 200 220" xml:space="preserve" xmlns="http://www.w3.org/2000/svg">
    <g transform="translate(-600 -220)">
        
            
            
            
                <g transform="translate(-1616 -1.7053e-13)">
                    <g transform="matrix(.97721 2.7912e-18 2.7912e-18 1 2021.4 1.1369e-13)">
                        <path d="m327.66 370.08c6.54-0.968 11.437-6.363 11.641-12.823l-0.386-100.29c0.095-3.032-1.234-5.94-3.61-7.893-2.375-1.953-5.535-2.736-8.576-2.125 0 0-19.521 4.388-39.127 8.406-19.604 4.016-39.285 7.661-39.285 7.661-4.578 0.92-7.863 4.862-7.857 9.43l-1.773 95.545c4e-3 3.339 1.497 6.51 4.089 8.685 2.592 2.176 6.026 3.139 9.404 2.639l75.48-9.237zm-15.013-24.575-50.779 8.838-1.566-74.204c7.512-1.593 19.326-4.063 31.17-6.397 9.508-1.874 19.033-3.661 26.329-5.005 0 0-5.154 76.768-5.154 76.768z"/>
                    </g>
                    <g transform="matrix(-.96593 -.25882 -.25882 .96593 4684.9 616.78)">
                        <path d="m2309.6 326.66s6.42-0.508 14.56-0.015c14.48 0.876 33.97 4.162 33.97 4.162 5.18 0 9.39 4.209 9.39 9.394s-4.21 9.395-9.39 9.395c0 0-19.49 3.285-33.97 4.162-8.14 0.492-14.56-0.015-14.56-0.015-7.47 0-13.54-6.068-13.54-13.542s6.07-13.541 13.54-13.541z"/>
                    </g>
                </g>
            
            
        
    </g>
</svg>
