<?xml version="1.0" encoding="UTF-8"?>
<!DOCTYPE svg  PUBLIC '-//W3C//DTD SVG 1.1//EN'  'http://www.w3.org/Graphics/SVG/1.1/DTD/svg11.dtd'>
<svg clip-rule="evenodd" fill-rule="evenodd" stroke-linejoin="round" stroke-miterlimit="2" version="1.1" viewBox="0 0 200 220" xml:space="preserve" xmlns="http://www.w3.org/2000/svg">
    <g transform="translate(-600 -220)">
        
            
            
            
                
                    <path d="m736.9 358.35c5.564 1.615 9.6 2.362 9.6 2.362 7.219 1.934 14.651-2.357 16.585-9.576 1.935-7.219-2.356-14.651-9.575-16.585 0 0-6.068-2.151-14.056-3.782-0.842-0.171-1.702-0.34-2.578-0.504l-0.276-73.291c0.094-3.032-1.206-5.94-3.527-7.893s-5.409-2.736-8.38-2.125c0 0-19.077 4.388-38.236 8.406-19.157 4.016-38.389 7.661-38.389 7.661-4.475 0.92-7.684 4.862-7.678 9.43l-1.733 95.545c4e-3 3.339 1.463 6.51 3.996 8.685 2.533 2.176 5.888 3.139 9.189 2.639l73.76-9.237c6.028-0.913 10.629-5.766 11.298-11.735zm-24.735-31.65 3.803-57.958c-7.13 1.344-16.438 3.131-25.73 5.005-11.573 2.334-23.118 4.804-30.459 6.397l1.531 74.204 44.504-7.927c-3.136-1.372-5.107-2.273-5.107-2.273-5.009-1.342-7.985-6.498-6.643-11.506s6.497-7.985 11.505-6.643c0 0 2.602 0.247 6.596 0.701z"/>
                
            
            
        
    </g>
</svg>
