<?xml version="1.0" encoding="UTF-8"?>
<!DOCTYPE svg  PUBLIC '-//W3C//DTD SVG 1.1//EN'  'http://www.w3.org/Graphics/SVG/1.1/DTD/svg11.dtd'>
<svg clip-rule="evenodd" fill-rule="evenodd" stroke-linejoin="round" stroke-miterlimit="2" version="1.1" viewBox="0 0 200 220" xml:space="preserve" xmlns="http://www.w3.org/2000/svg">
    <g transform="translate(-1600 -1100)">
        
            <g transform="translate(-1610.4)">
                
            </g>
            
            
            <g transform="translate(198.46 1103.9)">
                <g transform="translate(1199.5 -256.67)">
                    <g transform="translate(-1398 -847.23)">
                        <path d="m1699.8 1226.1c-4.44 0.74-9.17 2.34-12.04 5.63-2.53 2.88-4.59 6.06-4.09 9.99 0.24 3.65 1.59 7.09 3.79 9.71 2.54 3.01 5.99 5.03 10.2 5.12 4.75 0.34 7.96-1.12 10.4-3.02 2.62-2.03 4.12-5.32 4.95-10.02 1.06-5.51-0.81-9.79-3.23-12.87-2.15-2.73-5.56-4.04-9.98-4.54z"/>
                    </g>
                    <g transform="matrix(1.2945,0,0,1.2945,-85.165,-69.879)">
                        <path d="m308.57 292.48c-0.19 0.633-0.32 1.169-0.127 1.178l0.418-0.602 0.088-0.14c-0.052-0.149-0.185-0.295-0.379-0.436 0.172-0.597 0.398-1.279 0.453-1.692 0.016-0.12 0.082-0.362 0.217-0.325 0.866 0.237 0.504 1.215-0.291 2.453 0.077 0.211-5e-3 0.427-0.294 0.646-0.094 0.072-0.164 0.103-0.212 0.096-0.814 1.168-1.847 2.462-2.551 3.556-5.727 8.903-13.901 19.334-16.21 24.752-0.856 2.039-1.503 4.049-1.41 6.248 0.122 2.864 1.145 5.823 1.331 8.697-0.179 2.758 1.915 5.142 4.673 5.321 2.757 0.179 5.142-1.915 5.321-4.673 0.477-2.433 0.329-5.078 0.666-7.574 0.076-0.561 0.466-0.962 0.806-1.404 1.958-2.551 6.451-5.964 11.086-9.985 4.536-3.934 9.109-8.137 12.574-11.921 3.561-3.889 5.471-7.877 6.45-10.791 2.034-6.311-0.252-12.865-4.779-18.686-4.034-5.186-10.892-9.107-16.448-11.115-3.673-1.274-8.223-1.632-13.223-1.41-6.255 0.278-13.564 1.821-19.803 2.113-7.455 0.533-13.075 7.017-12.542 14.472s7.018 13.075 14.472 12.542l23.564-3.341c1.464 0.374 4.966 1.124 6.15 2.021z"/>
                    </g>
                </g>
            </g>
        
    </g>
</svg>
