<?xml version="1.0" encoding="UTF-8"?>
<!DOCTYPE svg  PUBLIC '-//W3C//DTD SVG 1.1//EN'  'http://www.w3.org/Graphics/SVG/1.1/DTD/svg11.dtd'>
<svg clip-rule="evenodd" fill-rule="evenodd" stroke-linejoin="round" stroke-miterlimit="2" version="1.1" viewBox="0 0 200 220" xml:space="preserve" xmlns="http://www.w3.org/2000/svg">
    <g transform="translate(-400 -1100)">
        
            <g transform="translate(-1610.4)">
                
            </g>
            
            
            <g transform="translate(198.46 1103.9)">
                <g transform="matrix(1 0 0 .71903 0 11.654)">
                    <g transform="matrix(.70816 0 0 .70816 207.45 -262.99)">
                        <path d="m118.04 506.15 2.133-14.814c1.072-6.602 3.164-11.608 4.422-17.139 0.751-3.301 1.041-6.482 1.475-9.577l3.643-17.958c2.643-11.863-2.137-24.479-10.667-28.155s-17.601 2.971-20.244 14.835c0 0-1.351 6.329-2.015 14.526-0.396 4.893-0.722 10.327-0.501 15.523 0.612 4.963 0.787 10.181 1.492 16.046 0.524 4.366 1.004 8.411 2.079 12.974 1.123 4.376 1.807 7.778 2.981 10.782 2.743 7.018 4.491 10.38 4.491 10.38 1.473 4.11 5.068 5.785 8.024 3.736 2.956-2.048 4.159-7.048 2.687-11.159z"/>
                    </g>
                    <g transform="matrix(.70816 0 0 .70816 233.75 -262.99)">
                        <path d="m118.04 506.15 2.133-14.814c1.072-6.602 3.164-11.608 4.422-17.139 0.751-3.301 1.041-6.482 1.475-9.577l3.643-17.958c2.643-11.863-2.137-24.479-10.667-28.155s-17.601 2.971-20.244 14.835c0 0-1.351 6.329-2.015 14.526-0.396 4.893-0.722 10.327-0.501 15.523 0.612 4.963 0.787 10.181 1.492 16.046 0.524 4.366 1.004 8.411 2.079 12.974 1.123 4.376 1.807 7.778 2.981 10.782 2.743 7.018 4.491 10.38 4.491 10.38 1.473 4.11 5.068 5.785 8.024 3.736 2.956-2.048 4.159-7.048 2.687-11.159z"/>
                    </g>
                </g>
            </g>
        
    </g>
</svg>
