<?xml version="1.0" encoding="UTF-8"?>
<!DOCTYPE svg  PUBLIC '-//W3C//DTD SVG 1.1//EN'  'http://www.w3.org/Graphics/SVG/1.1/DTD/svg11.dtd'>
<svg clip-rule="evenodd" fill-rule="evenodd" stroke-linejoin="round" stroke-miterlimit="2" version="1.1" viewBox="0 0 200 220" xml:space="preserve" xmlns="http://www.w3.org/2000/svg">
    <g transform="translate(-800 -220)">
        
            
            
            
                <g transform="matrix(1.0015 0 0 1 -1253.2 -5.6843e-14)">
                    <path d="m2113.5 366.67-2.08-89.619 62.96-14.482c-5.69 6.812-12.2 14.568-18.78 22.277-18.66 21.883-37.74 43.372-37.74 43.372-2.17 2.604-3.02 6.061-2.31 9.374s2.9 6.115 5.95 7.599l63.26 33.662c6.71 3.275 14.82 0.475 18.09-6.25 3.27-6.724 0.47-14.842-6.24-18.117l-52.91-23.539c6.83-8.679 16.76-21.219 26.83-33.649 18.1-22.329 36.66-44.286 36.66-44.286 2.61-3.144 2.95-7.601 0.84-11.104-2.11-3.502-6.21-5.28-10.2-4.429l-100.2 19.647c-5.19 1.105-8.9 5.696-8.9 11.01l-2.29 98.534c0 7.479 6.06 13.552 13.53 13.552s13.53-6.073 13.53-13.552z"/>
                </g>
            
            
        
    </g>
</svg>
