<?xml version="1.0" encoding="UTF-8"?>
<!DOCTYPE svg  PUBLIC '-//W3C//DTD SVG 1.1//EN'  'http://www.w3.org/Graphics/SVG/1.1/DTD/svg11.dtd'>
<svg clip-rule="evenodd" fill-rule="evenodd" stroke-linejoin="round" stroke-miterlimit="2" version="1.1" viewBox="0 0 200 220" xml:space="preserve" xmlns="http://www.w3.org/2000/svg">
    <g transform="translate(-1e3 -220)">
        
            
            
            
                <g transform="translate(1003.3 -220)">
                    <path d="m120.66 463.58-77.185 23.198c-4.515 1.203-7.778 5.125-8.14 9.783s2.255 9.037 6.529 10.924c0 0 32.59 13.186 60.561 25.22 7.699 3.312 15.042 6.543 21.286 9.322-1e-3 0-7.092 3.552-7.092 3.552l-60.863 29.15c-6.587 3.53-9.07 11.744-5.539 18.332 3.53 6.587 11.744 9.07 18.332 5.54l57.976-34.535 24.374-13.938c3.273-1.754 5.26-5.221 5.119-8.932-0.142-3.711-2.387-7.017-5.784-8.517 0 0-18.872-7.986-40.039-17.573-10.278-4.654-21.099-9.671-30.651-14.143 1e-3 0 48.093-11.214 48.093-11.214 7.221-1.925 11.521-9.351 9.596-16.572-1.925-7.222-9.351-11.522-16.573-9.597z"/>
                </g>
            
            
        
    </g>
</svg>
