<?xml version="1.0" encoding="UTF-8"?>
<!DOCTYPE svg  PUBLIC '-//W3C//DTD SVG 1.1//EN'  'http://www.w3.org/Graphics/SVG/1.1/DTD/svg11.dtd'>
<svg clip-rule="evenodd" fill-rule="evenodd" stroke-linecap="round" stroke-linejoin="round" stroke-miterlimit="1.5" version="1.1" viewBox="0 0 200 220" xml:space="preserve" xmlns="http://www.w3.org/2000/svg">
    <g transform="translate(-1400 -1100)">
        
            <g transform="translate(-1610.4)">
                
            </g>
            
            
            <g transform="translate(198.46 1103.9)">
                <g transform="translate(1201.6 -256.67)">
                    <g transform="matrix(-.69593 -.13107 -.17652 .45123 257.19 203.9)">
                        <path d="m106.67 515.54s-1.776-3.067-4.783-9.421c-1.349-2.852-2.042-6.225-3.349-10.493-1.215-4.392-1.681-8.301-2.285-12.597-0.783-5.559-1.004-10.514-1.669-15.259-0.26-5.333 0.113-10.954 0.509-16.02 0.677-8.662 2.16-15.454 2.16-15.454 3.196-14.346 13.41-24.334 22.795-22.29 9.386 2.043 14.41 15.349 11.214 29.694l-3.49 16.534c-0.464 3.309-0.717 6.621-1.525 10.172-1.3 5.713-3.557 10.811-4.755 17.706l-2.794 16.063c1.557 4.344 0.126 10.418-3.193 13.554s-7.278 2.156-8.835-2.189z"/>
                    </g>
                    <g transform="translate(-14.249 -190.87)">
                        <path d="m116.03 520.87c4.558 0 6.65 3.4 6.212 8.467-0.452 5.245-2.705 7.655-8.354 7.655-4.559 0-7.691-4.283-7.691-8.841s5.274-7.281 9.833-7.281z" stroke="#000" stroke-width="16.67px"/>
                    </g>
                </g>
            </g>
        
    </g>
</svg>
