<?xml version="1.0" encoding="UTF-8"?>
<!DOCTYPE svg  PUBLIC '-//W3C//DTD SVG 1.1//EN'  'http://www.w3.org/Graphics/SVG/1.1/DTD/svg11.dtd'>
<svg clip-rule="evenodd" fill-rule="evenodd" stroke-linejoin="round" stroke-miterlimit="2" version="1.1" viewBox="0 0 200 220" xml:space="preserve" xmlns="http://www.w3.org/2000/svg">
    <g transform="translate(-2200 -1100)">
        
            
            
            
            <g transform="translate(198.46 1103.9)">
                <g transform="translate(-198.46 -1103.9)">
                    <path d="m2279.2 1256.1s6.1-15.59 14.59-35.25c4.75-11 9.95-23.37 15.64-34.74 4.08-8.14 8.48-15.68 12.32-22.23 7.62-12.99 13.43-21.68 13.43-21.68 3.04-6.19 0.48-13.69-5.71-16.73-6.19-3.05-13.69-0.49-16.73 5.7 0 0-3.33 9.91-8.96 23.88-2.84 7.04-6.12 15.13-10.08 23.33-5.52 11.46-12.14 23.13-17.94 33.6-10.38 18.74-19 33.09-19 33.09-3.04 6.2-0.48 13.69 5.71 16.74 6.19 3.04 13.69 0.48 16.73-5.71z"/>
                </g>
            </g>
        
    </g>
</svg>
