<?xml version="1.0" encoding="UTF-8"?>
<!DOCTYPE svg  PUBLIC '-//W3C//DTD SVG 1.1//EN'  'http://www.w3.org/Graphics/SVG/1.1/DTD/svg11.dtd'>
<svg clip-rule="evenodd" fill-rule="evenodd" stroke-linejoin="round" stroke-miterlimit="2" version="1.1" viewBox="0 0 200 220" xml:space="preserve" xmlns="http://www.w3.org/2000/svg">
    <g transform="translate(-1200)">
        
            
            
            
                <g transform="translate(995 -440)">
                    <path d="m252.72 495.23 1e-3 1e-3 25.07-6.266c-0.174 10.708-0.499 26.36-1.069 42.01-1.018 27.9-2.811 55.696-2.811 55.696 0 7.474 6.068 13.541 13.542 13.541 7.473 0 13.541-6.067 13.541-13.541 0 0-1.793-27.796-2.81-55.696-0.664-18.196-0.996-36.396-1.138-46.822l66.64-16.655c7.191-2.035 11.376-9.527 9.341-16.718-2.036-7.191-9.527-11.377-16.719-9.341l-109.04 34.55c-5.301 1.5-8.389 7.006-6.906 12.312s6.978 8.413 12.289 6.948l0.064-0.019z"/>
                </g>
            
            
        
    </g>
</svg>
