<?xml version="1.0" encoding="UTF-8"?>
<!DOCTYPE svg  PUBLIC '-//W3C//DTD SVG 1.1//EN'  'http://www.w3.org/Graphics/SVG/1.1/DTD/svg11.dtd'>
<svg clip-rule="evenodd" fill-rule="evenodd" stroke-linejoin="round" stroke-miterlimit="2" version="1.1" viewBox="0 0 200 220" xml:space="preserve" xmlns="http://www.w3.org/2000/svg">
    <g transform="translate(-1200 -220)">
        
            
            
            
                <g transform="translate(995 -220)">
                    <path d="m252.77 495.21 25.03-6.374c-0.174 10.711-0.499 26.423-1.073 42.133-1.017 27.9-2.809 55.696-2.809 55.696 0 7.474 6.068 13.541 13.542 13.541 7.473 0 13.541-6.067 13.541-13.541 0 0-1.792-27.796-2.809-55.696-0.669-18.319-1.001-36.641-1.143-47.035l66.701-16.986c7.183-2.067 11.335-9.577 9.267-16.759s-9.577-11.335-16.759-9.267l-109.02 35.075c-5.284 1.521-8.348 7.025-6.856 12.319 1.492 5.293 6.979 8.387 12.28 6.925l0.108-0.031z"/>
                </g>
            
            
        
    </g>
</svg>
