<?xml version="1.0" encoding="UTF-8"?>
<!DOCTYPE svg  PUBLIC '-//W3C//DTD SVG 1.1//EN'  'http://www.w3.org/Graphics/SVG/1.1/DTD/svg11.dtd'>
<svg clip-rule="evenodd" fill-rule="evenodd" stroke-linejoin="round" stroke-miterlimit="2" version="1.1" viewBox="0 0 200 220" xml:space="preserve" xmlns="http://www.w3.org/2000/svg">
    <g transform="translate(-1200 -661)">
        
            
            
                <g transform="matrix(.66636 0 0 .66636 1097.3 415.7)">
                    <path d="m319.64 495.12 40.355 1.87c11.216 0 20.322-9.105 20.322-20.321s-9.106-20.322-20.322-20.322l-110 5.099c-8.001 0-14.636 6.194-15.186 14.175-0.55 7.982 5.172 15.028 13.097 16.126l42.393 5.172c-0.333 9.84-0.896 24.2-1.738 38.56-1.507 25.699-3.888 51.19-3.888 51.19 0 11.216 9.106 20.321 20.322 20.321s20.322-9.105 20.322-20.321c0 0-2.381-25.491-3.888-51.19-0.895-15.261-1.475-30.524-1.789-40.359z"/>
                </g>
            
            
            
        
    </g>
</svg>
