<?xml version="1.0" encoding="UTF-8"?>
<!DOCTYPE svg  PUBLIC '-//W3C//DTD SVG 1.1//EN'  'http://www.w3.org/Graphics/SVG/1.1/DTD/svg11.dtd'>
<svg clip-rule="evenodd" fill-rule="evenodd" stroke-linejoin="round" stroke-miterlimit="2" version="1.1" viewBox="0 0 200 220" xml:space="preserve" xmlns="http://www.w3.org/2000/svg">
    <g transform="translate(-1400 -220)">
        
            
            
            
                <g transform="translate(1e3 -220)">
                    <path d="m436.46 490.48 2.349 74.867c0 5.282 3.693 9.845 8.859 10.946 0 0 32.353 5.879 60.294 11.414 21.321 4.225 40.051 8.29 40.051 8.29 2.815 0.6 5.751-0.103 7.989-1.914s3.538-4.536 3.538-7.414c0 0 0.406-27.501 1.407-55 1.003-27.543 2.597-55 2.597-55 0-7.474-6.068-13.542-13.542-13.542s-13.542 6.068-13.542 13.542c0 0 1.594 27.457 2.597 55 0.593 16.295 0.977 32.59 1.192 43.164-7.364-1.592-17.474-3.809-28.207-6.261-18.607-4.25-39.086-9.168-50.573-11.95-1e-3 0 2.075-66.142 2.075-66.142 0-7.473-6.068-13.541-13.542-13.541s-13.542 6.068-13.542 13.541z"/>
                </g>
            
            
        
    </g>
</svg>
