<?xml version="1.0" encoding="UTF-8"?>
<!DOCTYPE svg  PUBLIC '-//W3C//DTD SVG 1.1//EN'  'http://www.w3.org/Graphics/SVG/1.1/DTD/svg11.dtd'>
<svg clip-rule="evenodd" fill-rule="evenodd" stroke-linejoin="round" stroke-miterlimit="2" version="1.1" viewBox="0 0 200 219" xml:space="preserve" xmlns="http://www.w3.org/2000/svg">
    <g transform="translate(-1600 -661)">
        
            
            
                <g transform="matrix(.54546 0 0 .54546 1318.7 486.67)">
                    <path d="m628.44 488.98s17.822 26.185 35.16 52.863c17.296 26.613 33.986 53.534 33.986 53.534 3.429 6.003 10.061 9.435 16.943 8.769 6.881-0.667 12.731-5.309 14.944-11.859 0 0 6.478-20.813 15.654-43.734 12.117-30.268 28.39-63.941 28.39-63.941 4.386-12.982-2.593-27.081-15.574-31.467-12.981-4.385-27.081 2.593-31.466 15.575 0 0-7.483 36.643-16.204 68.058-0.399 1.437-0.801 2.861-1.204 4.27-3.179-6.263-6.524-12.902-9.837-19.56-14.175-28.485-27.678-57.137-27.678-57.137-6.797-11.897-21.974-16.039-33.871-9.242-11.898 6.796-16.04 21.974-9.243 33.871z"/>
                </g>
            
            
            
        
    </g>
</svg>
