<?xml version="1.0" encoding="UTF-8"?>
<!DOCTYPE svg  PUBLIC '-//W3C//DTD SVG 1.1//EN'  'http://www.w3.org/Graphics/SVG/1.1/DTD/svg11.dtd'>
<svg clip-rule="evenodd" fill-rule="evenodd" stroke-linejoin="round" stroke-miterlimit="2" version="1.1" viewBox="0 0 200 220" xml:space="preserve" xmlns="http://www.w3.org/2000/svg">
    <g transform="translate(-1600 -220)">
        
            
            
            
                <g transform="matrix(-1,0,0,1,2400,-220)">
                    <path d="m659.68 462.66s8.483 30.342 17.325 60.625c4.345 14.881 8.772 29.732 12.149 40.984 4.126-6.386 9.013-14.075 14.007-22.209 17.077-27.809 35.52-60.591 35.52-60.591 4.098-6.25 12.499-7.997 18.749-3.899s7.998 12.5 3.899 18.75c0 0-22.711 29.983-41.407 56.73-14.239 20.37-26.003 38.87-26.003 38.87-2.021 3.083-5.631 4.735-9.286 4.248-3.654-0.487-6.706-3.026-7.85-6.531 0 0-10.367-29.751-21.081-59.4-10.722-29.67-21.769-59.175-21.769-59.175-2.318-7.106 1.568-14.756 8.673-17.075 7.105-2.318 14.756 1.568 17.074 8.673z"/>
                </g>
            
            
        
    </g>
</svg>
