<?xml version="1.0" encoding="UTF-8"?>
<!DOCTYPE svg  PUBLIC '-//W3C//DTD SVG 1.1//EN'  'http://www.w3.org/Graphics/SVG/1.1/DTD/svg11.dtd'>
<svg clip-rule="evenodd" fill-rule="evenodd" stroke-linejoin="round" stroke-miterlimit="2" version="1.1" viewBox="0 0 200 220" xml:space="preserve" xmlns="http://www.w3.org/2000/svg">
    <g transform="translate(-1800 -220)">
        
            
            
            
                <g transform="translate(1002.3 -220)">
                    <path d="m829.91 493.42 23.964 95.748c1.143 5.041 5.552 8.672 10.719 8.825 5.167 0.154 9.784-3.207 11.225-8.172l16.006-58.854c2.031 5.084 4.186 10.52 6.318 15.965 8.459 21.608 16.55 43.355 16.55 43.355 1.585 4.035 5.608 6.573 9.932 6.267 4.325-0.307 7.949-3.387 8.949-7.605l31.924-118.96c1.724-7.272-2.781-14.576-10.054-16.3-7.272-1.724-14.576 2.781-16.299 10.053l-18.334 88.931c-1.643-4.104-3.345-8.38-5.031-12.662-8.505-21.589-16.643-43.318-16.643-43.318-1.536-3.912-5.392-6.412-9.59-6.219-4.197 0.193-7.807 3.036-8.978 7.072l-13.377 43.35-10.867-53.458c-1.652-7.289-8.911-11.865-16.2-10.213s-11.866 8.911-10.214 16.2z"/>
                </g>
            
            
        
    </g>
</svg>
