<?xml version="1.0" encoding="UTF-8"?>
<!DOCTYPE svg  PUBLIC '-//W3C//DTD SVG 1.1//EN'  'http://www.w3.org/Graphics/SVG/1.1/DTD/svg11.dtd'>
<svg clip-rule="evenodd" fill-rule="evenodd" stroke-linejoin="round" stroke-miterlimit="2" version="1.1" viewBox="0 0 200 220" xml:space="preserve" xmlns="http://www.w3.org/2000/svg">
    <g transform="translate(-2e3 -220)">
        
            
            
            
                
                    <path d="m2100.4 296.01c-3.69-3.696-7.27-7.373-10.7-10.849-14.11-14.317-24.66-25.928-24.66-25.928-5.54-5.017-14.11-4.594-19.13 0.945s-4.6 14.109 0.94 19.127c0 0 12.6 9.361 28.23 21.991 3.92 3.163 8.07 6.473 12.24 9.89-1.53 1.717-3.08 3.414-4.62 5.082-7.26 7.839-14.64 14.93-21.08 21.087-12.76 12.2-22.07 20.184-22.07 20.184-5.04 5.52-4.65 14.092 0.87 19.131 5.52 5.038 14.1 4.647 19.13-0.873 0 0 7.11-10.004 18.09-23.816 5.55-6.971 11.94-14.972 19.08-22.914 1.65-1.833 3.34-3.665 5.04-5.49l0.71 0.646c6.28 5.791 11.86 11.764 16.72 16.976 9.65 10.364 15.82 17.97 15.82 17.97 5.54 5.017 14.11 4.594 19.13-0.945s4.59-14.109-0.95-19.127c0 0-8.17-5.392-19.44-13.977-5.66-4.317-12.16-9.289-18.54-14.968l-0.25-0.226c4.4-4.445 8.77-8.777 12.91-12.92 17.75-17.765 32.08-31.209 32.08-31.209 5.04-5.521 4.65-14.093-0.87-19.131-5.52-5.039-14.09-4.647-19.13 0.873 0 0-12.09 15.493-28.16 34.79-3.66 4.389-7.47 9.008-11.39 13.681z"/>
                
            
            
        
    </g>
</svg>
