<?xml version="1.0" encoding="UTF-8"?>
<!DOCTYPE svg  PUBLIC '-//W3C//DTD SVG 1.1//EN'  'http://www.w3.org/Graphics/SVG/1.1/DTD/svg11.dtd'>
<svg clip-rule="evenodd" fill-rule="evenodd" stroke-linejoin="round" stroke-miterlimit="2" version="1.1" viewBox="0 0 200 220" xml:space="preserve" xmlns="http://www.w3.org/2000/svg">
    <g transform="translate(-2e3 -661)">
        
            
            
                <g transform="matrix(.54546 0 0 .54546 1500.5 486.63)">
                    <path d="m1030.6 492.22s13.69 12.606 30.32 29.95c9.25 9.639 19.79 20.23 28.52 31.4 6.27 8.022 11.34 16.304 15.75 23.556 8.89 14.607 13.84 25.094 13.84 25.094 8.58 10.68 24.22 12.38 34.9 3.795s12.38-24.225 3.8-34.904c0 0-9.18-7.087-21.54-18.906-6.13-5.867-13.13-12.597-19.62-20.443-9.03-10.925-17.11-23.501-24.54-34.6-13.36-19.972-22.73-36.051-22.73-36.051-8.58-10.679-24.23-12.38-34.91-3.795-10.67 8.585-12.37 24.225-3.79 34.904z"/>
                    <path d="m1131.6 459.97s-8.55 13.512-20.87 30.2c-6.83 9.243-14.24 19.749-22.59 28.642-6.01 6.397-12.48 11.671-18.16 16.279-11.53 9.355-19.97 14.628-19.97 14.628-9.22 10.139-8.47 25.853 1.67 35.07s25.85 8.469 35.07-1.67c0 0 4.45-8.903 12.66-21.272 4.05-6.093 8.69-13.035 14.48-19.621 8.06-9.155 17.82-17.53 26.37-25.207 15.44-13.858 28.08-23.649 28.08-23.649 9.22-10.139 8.47-25.853-1.67-35.07s-25.85-8.469-35.07 1.67z"/>
                </g>
            
            
            
        
    </g>
</svg>
