<?xml version="1.0" encoding="UTF-8"?>
<!DOCTYPE svg  PUBLIC '-//W3C//DTD SVG 1.1//EN'  'http://www.w3.org/Graphics/SVG/1.1/DTD/svg11.dtd'>
<svg clip-rule="evenodd" fill-rule="evenodd" stroke-linejoin="round" stroke-miterlimit="2" version="1.1" viewBox="0 0 200 220" xml:space="preserve" xmlns="http://www.w3.org/2000/svg">
    <g transform="translate(-2e3 -220)">
        
            
            
            
                <g transform="matrix(-1,0,0,1,3200,-220)">
                    <path d="m1060 467.54s12.09 15.493 28.16 34.79c9 10.8 18.96 22.993 29.09 33.939 7.26 7.839 14.64 14.93 21.08 21.087 12.76 12.2 22.07 20.184 22.07 20.184 5.04 5.52 4.65 14.092-0.87 19.131-5.52 5.038-14.1 4.647-19.13-0.873 0 0-7.11-10.004-18.09-23.816-5.55-6.971-11.94-14.972-19.08-22.914-9.98-11.09-21.22-22.119-31.15-32.061-17.75-17.765-32.08-31.209-32.08-31.209-5.04-5.521-4.65-14.093 0.87-19.131 5.52-5.039 14.09-4.647 19.13 0.873z"/>
                    <path d="m1153.1 499.3s-12.6 9.361-28.23 21.991c-8.74 7.058-18.62 14.844-27.39 22.927-6.28 5.791-11.86 11.764-16.72 16.976-9.65 10.364-15.82 17.97-15.82 17.97-5.54 5.017-14.11 4.594-19.13-0.945s-4.59-14.109 0.95-19.127c0 0 8.17-5.392 19.44-13.977 5.66-4.317 12.16-9.289 18.54-14.968 8.9-7.925 17.63-16.991 25.51-24.991 14.11-14.317 24.66-25.928 24.66-25.928 5.54-5.017 14.11-4.594 19.13 0.945s4.6 14.109-0.94 19.127z"/>
                </g>
            
            
        
    </g>
</svg>
