<?xml version="1.0" encoding="UTF-8"?>
<!DOCTYPE svg  PUBLIC '-//W3C//DTD SVG 1.1//EN'  'http://www.w3.org/Graphics/SVG/1.1/DTD/svg11.dtd'>
<svg clip-rule="evenodd" fill-rule="evenodd" stroke-linejoin="round" stroke-miterlimit="2" version="1.1" viewBox="0 0 200 220" xml:space="preserve" xmlns="http://www.w3.org/2000/svg">
    <g transform="translate(-2200 -220)">
        
            
            
            
                
                    <path d="m2298.7 313.29c-1.89-2.316-3.98-4.927-6.13-7.737-14.2-18.476-32.09-44.969-32.09-44.969-4.75-5.773-13.29-6.607-19.06-1.86-5.77 4.746-6.61 13.286-1.86 19.06 0 0 22.53 22.676 37.91 40.177 5.45 6.201 9.93 11.782 12.52 15.102-0.25 3.451-0.69 9.357-1.29 15.273-0.94 9.254-2.22 18.334-2.22 18.334 0 7.474 6.07 13.541 13.54 13.541s13.54-6.067 13.54-13.541c0 0-1.28-9.08-2.22-18.334-0.63-6.21-1.09-12.406-1.32-15.767 6.14-7.507 23.62-29.058 36.2-46.262 8.81-12.038 14.99-22.009 14.99-22.009 4.21-6.175 2.61-14.607-3.56-18.817-6.18-4.21-14.61-2.615-18.82 3.56 0 0-7.02 9.397-15.01 21.992-8.72 13.743-18.75 31.066-25.12 42.257z"/>
                
            
            
        
    </g>
</svg>
