<?xml version="1.0" encoding="UTF-8"?>
<!DOCTYPE svg  PUBLIC '-//W3C//DTD SVG 1.1//EN'  'http://www.w3.org/Graphics/SVG/1.1/DTD/svg11.dtd'>
<svg clip-rule="evenodd" fill-rule="evenodd" stroke-linejoin="round" stroke-miterlimit="2" version="1.1" viewBox="0 0 200 220" xml:space="preserve" xmlns="http://www.w3.org/2000/svg">
    <g transform="translate(-2200 -220)">
        
            
            
            
                <g transform="translate(1e3 -220)">
                    <path d="m1239.5 497.78s22.53 22.676 37.91 40.177c5.45 6.201 9.93 11.782 12.52 15.102-0.25 3.451-0.69 9.357-1.29 15.273-0.94 9.254-2.22 18.334-2.22 18.334 0 7.474 6.07 13.541 13.54 13.541s13.54-6.067 13.54-13.541c0 0-1.28-9.08-2.22-18.334-0.93-9.18-1.49-18.333-1.49-18.333 0-2.277-0.79-4.482-2.24-6.241 0 0-6.98-7.717-15.04-18.209-14.2-18.476-32.09-44.969-32.09-44.969-4.75-5.773-13.29-6.607-19.06-1.86-5.77 4.746-6.61 13.286-1.86 19.06z"/>
                    <g transform="matrix(-1 0 0 -1 2640.7 1000.5)">
                        <path d="m1301.9 531.5s7.02-9.396 15.01-21.991c14.07-22.177 31.56-53.678 31.56-53.678 2.92-4.284 1.82-10.134-2.47-13.054-4.28-2.921-10.13-1.815-13.05 2.469 0 0-22.94 27.793-38.44 48.989-8.81 12.038-14.99 22.008-14.99 22.008-4.21 6.175-2.62 14.607 3.56 18.817 6.18 4.211 14.61 2.615 18.82-3.56z"/>
                    </g>
                </g>
            
            
        
    </g>
</svg>
