<?xml version="1.0" encoding="UTF-8"?>
<!DOCTYPE svg  PUBLIC '-//W3C//DTD SVG 1.1//EN'  'http://www.w3.org/Graphics/SVG/1.1/DTD/svg11.dtd'>
<svg clip-rule="evenodd" fill-rule="evenodd" stroke-linejoin="round" stroke-miterlimit="2" version="1.1" viewBox="0 0 200 220" xml:space="preserve" xmlns="http://www.w3.org/2000/svg">
    <g transform="translate(-2200 -661)">
        
            
            
                <g transform="matrix(-.62246 0 0 .62246 3111.4 441.49)">
                    <path d="m1268 464.41s16.31 32.176 30.05 54.705c7.77 12.735 14.88 22.085 14.88 22.085s5.14 6.544 11.49 13.648c8.45 9.454 18.58 19.562 18.58 19.562 6.76 9.921 4.2 23.466-5.72 30.23s-23.47 4.201-30.23-5.719c0 0-5.72-13.114-11.43-24.438-4.29-8.51-8.51-15.685-8.51-15.685s-6.1-10.034-15.12-21.915c-15.95-21.018-39.94-47.962-39.94-47.962-6.77-9.92-4.21-23.466 5.72-30.23 9.91-6.764 23.46-4.201 30.23 5.719z"/>
                    <g transform="matrix(-1 0 0 -1 2640.7 1000.5)">
                        <path d="m1267.4 519.43s6.64-11.184 16.58-24.357c17.59-23.31 44.25-53.035 44.25-53.035 4.69-6.882 14.09-8.66 20.97-3.967 6.88 4.692 8.66 14.089 3.97 20.972 0 0-17.93 35.677-33.21 60.568-8.63 14.066-16.61 24.329-16.61 24.329-6.77 9.921-20.31 12.484-30.23 5.72s-12.49-20.31-5.72-30.23z"/>
                    </g>
                </g>
            
            
            
        
    </g>
</svg>
