<?xml version="1.0" encoding="UTF-8"?>
<!DOCTYPE svg  PUBLIC '-//W3C//DTD SVG 1.1//EN'  'http://www.w3.org/Graphics/SVG/1.1/DTD/svg11.dtd'>
<svg clip-rule="evenodd" fill-rule="evenodd" stroke-linejoin="round" stroke-miterlimit="2" version="1.1" viewBox="0 0 200 220" xml:space="preserve" xmlns="http://www.w3.org/2000/svg">
    <g transform="translate(-2400 -220)">
        
            
            
            
                <g transform="translate(994.06 -220)">
                    <path d="m1469.9 502.48 50.78-9.098c-10.94 12.584-24.73 28.317-37.75 42.832-21.1 23.524-40.25 43.77-40.25 43.77-2.75 3.025-3.36 7.425-1.55 11.088s5.69 5.841 9.76 5.486l100.31-5.099c7.45-0.647 12.97-7.218 12.32-14.664-0.65-7.445-7.22-12.965-14.66-12.317l-73.97 9.121c6.41-7.151 14.1-15.655 22.24-24.483 28.05-30.454 61.25-64.861 61.25-64.861 3.21-3.534 3.85-8.706 1.6-12.916-2.26-4.21-6.92-6.545-11.64-5.831l-82.49 10.193c-7.39 1.117-12.48 8.024-11.36 15.414 1.11 7.39 8.02 12.482 15.41 11.365z"/>
                </g>
            
            
        
    </g>
</svg>
